<?xml version="1.0" encoding="utf-8"?>
<!-- Generator: Adobe Illustrator 23.0.1, SVG Export Plug-In . SVG Version: 6.00 Build 0)  -->
<svg version="1.1" xmlns="http://www.w3.org/2000/svg" xmlns:xlink="http://www.w3.org/1999/xlink" x="0px" y="0px"
	 viewBox="0 0 1600 1200" style="enable-background:new 0 0 1600 1200;" xml:space="preserve">
<style type="text/css">
	.st0{fill:none;stroke:#231F20;stroke-width:1.4976;stroke-miterlimit:10;}
	.st1{fill:none;stroke:#231F20;stroke-width:3.0004;stroke-miterlimit:10;}
	.st2{fill:none;stroke:#2D2D2D;stroke-width:2.496;stroke-miterlimit:10;}
	.st3{fill:none;stroke:#2D2D2D;stroke-width:0.624;stroke-miterlimit:10;}
	.st4{fill:none;stroke:#2D2D2D;stroke-width:1.17;stroke-miterlimit:10;}
	.st5{fill:#2D2D2D;}
	.st6{fill:none;stroke:#231F20;stroke-width:2.6;stroke-miterlimit:10;}
	.st7{fill:none;stroke:#231F20;stroke-width:1.3;stroke-miterlimit:10;}
	.st8{display:none;}
	.st9{display:inline;fill:none;stroke:#231F20;}
	.st10{display:inline;fill:none;stroke:#231F20;stroke-width:1.1396;}
	.st11{display:inline;}
	.st12{font-family:'Roboto-Regular';}
	.st13{font-size:18px;}
	.st14{display:inline;opacity:0.5;}
</style>
<g id="Illustration">
	<path class="st0" d="M473.71,766.06c4.28,4.32,8.87,8.15,13.89,11.6"/>
	<path class="st0" d="M558.86,345.48c2.07,0.66,5.76,2.03,7.82,2.74"/>
	<path class="st0" d="M572.95,350.53c-2.08-0.8-4.17-1.57-6.27-2.3"/>
	<path class="st0" d="M597.69,673.11c-0.77-0.48-1.54-0.99-2.2-1.62c-0.63-0.59-1.16-1.29-1.62-2.03c-1.2-1.91-1.91-4.07-2.38-6.27
		c-0.57-2.67-0.79-5.4-0.68-8.12c0.1-2.72,0.52-5.44,1.31-8.05c0.7-2.37,1.7-4.64,3.04-6.72c1.16-1.82,2.59-3.48,4.35-4.76
		c1.39-1.01,2.99-1.76,4.7-1.92c0.77-0.07,1.58-0.02,2.33,0.15c0.89,0.19,1.72,0.51,2.56,0.87"/>
	<line class="st0" x1="616.26" y1="496.01" x2="616.26" y2="498.25"/>
	<line class="st0" x1="591.19" y1="498.22" x2="591.19" y2="495.99"/>
	<path class="st0" d="M584.44,487.46c0.03-6.42,7.56-9.39,12.42-10.38c6.01-1.23,11.39-1.08,17.24,0.97"/>
	<path class="st0" d="M614.1,478.05c3.96,1.34,8.9,4.36,8.91,9.41"/>
	<path class="st0" d="M622.89,488.75c-2.52,13.22-36.68,13.02-38.4-0.42"/>
	<path class="st0" d="M687.69,576.33c-1.49,2.05-2.83,4.17-4.05,6.38"/>
	<line class="st0" x1="643.73" y1="564.17" x2="643.78" y2="564.18"/>
	<line class="st0" x1="520.13" y1="698.68" x2="520.1" y2="698.68"/>
	<line class="st0" x1="683.49" y1="582.97" x2="683.4" y2="583.14"/>
	<path class="st0" d="M604.01,628.33c1.34,0.32,2.65,0.71,3.93,1.24"/>
	<path class="st0" d="M607.93,629.57c1.92,0.79,4.21,1.8,6.07,2.73"/>
	<path class="st0" d="M614,632.3c1.87,0.94,4.21,2.34,5.43,4.35"/>
	<line class="st0" x1="603.26" y1="628.16" x2="587.04" y2="624.55"/>
	<path class="st0" d="M526.38,545.71c0.01-0.01,0.02-0.02,0.02-0.02"/>
	<line class="st0" x1="699.46" y1="501.83" x2="699.51" y2="501.91"/>
	<path class="st0" d="M509.99,380.76c-0.18-0.01-0.35-0.03-0.54-0.03"/>
	<path class="st0" d="M547.67,509.71c0,0-0.08-0.07-0.11-0.11"/>
	<path class="st0" d="M749.44,526.46c-0.04,0.06-0.09,0.11-0.13,0.17"/>
	<path class="st0" d="M750.38,525.44c-0.31,0.34-0.62,0.69-0.95,1.02"/>
	<path class="st0" d="M693.97,546.58c5.8-2.81,9.59-9,11.08-14.85c1.66-6.56,0.94-12.34-0.98-18.64"/>
	<path class="st0" d="M700.57,503.8c-14.96-26.3-43.56-51.42-67.25-68.49c-25.25-18.19-55.46-35.01-84.99-45.35"/>
	<path class="st0" d="M548.28,389.94c-13.4-4.68-26.72-8.33-41.01-9.45"/>
	<path class="st0" d="M597.49,324.74c32.21,11.28,65.24,29.81,92.63,49.85c25.1,18.36,57.32,46.91,71.99,76.02"/>
	<path class="st0" d="M553.25,314.58c15.41,1.19,29.77,5.1,44.22,10.16"/>
	<path class="st0" d="M762.18,450.74c3.57,7.12,6.26,14.09,6.78,22.24"/>
	<path class="st0" d="M544.51,561.42c0.14-1.33,0.87-1.93,1.89-2.57"/>
	<path class="st0" d="M546.54,558.77c0,0,0.06-0.04,0.09-0.06"/>
	<path class="st0" d="M546.65,558.7c5.85-3.35,17.73-2.02,23.4-0.05"/>
	<path class="st0" d="M570.09,558.67c2.19,0.78,6.94,2.78,7.26,5.91"/>
	<line class="st0" x1="577.38" y1="564.81" x2="577.62" y2="567.11"/>
	<line class="st0" x1="544.27" y1="563.72" x2="544.48" y2="561.65"/>
	<line class="st0" x1="640.71" y1="548.31" x2="640.75" y2="552.11"/>
	<line class="st0" x1="603.71" y1="552.71" x2="603.77" y2="547.15"/>
	<path class="st0" d="M680.66,531.46c0,0.16,0,0.32,0.01,0.48"/>
	<path class="st0" d="M643.86,531.06c0.04-4.88,1.67-7.57,6.14-9.64c3.93-1.81,7.78-2.22,12-2.12c7.11,0.18,18.52,2.42,18.67,11.93"
		/>
	<line class="st0" x1="680.67" y1="532.2" x2="680.7" y2="535.86"/>
	<line class="st0" x1="643.8" y1="536.36" x2="643.85" y2="531.41"/>
	<path class="st0" d="M675.74,488.12c8.04,2.82,15.51,6.1,22.32,11.47"/>
	<path class="st0" d="M619.04,480.57c19.75-1.32,37.93,1.09,56.66,7.53"/>
	<path class="st0" d="M559.57,503.06c6.18-7.27,16.33-12.31,24.87-15.44"/>
	<path class="st0" d="M554.85,509.9c1.36-2.36,2.88-4.58,4.6-6.69"/>
	<path class="st0" d="M554.73,510.1c-4.53,7.56-9.02,15.15-13.46,22.76c-2.95,5.06-10.5,17.47-11.83,23.55
		c-0.33,1.49-0.71,5.15,1.41,7.78c2.97,3.7,9.38,6.38,13.42,7.79"/>
	<path class="st0" d="M551.75,568.2c0.05,0.02,0.1,0.03,0.14,0.05"/>
	<line class="st0" x1="573.27" y1="502.54" x2="577.28" y2="497.41"/>
	<line class="st0" x1="630.19" y1="497.44" x2="634.83" y2="503.36"/>
	<path class="st0" d="M572.61,503.36c-0.09,0.1,0.08-0.1,0.11-0.15"/>
	<line class="st0" x1="627.76" y1="503.86" x2="627.76" y2="503.86"/>
	<line class="st0" x1="643.5" y1="535.28" x2="643.49" y2="535.15"/>
	<path class="st0" d="M616.26,496.05c1.54,1.51,2.1,3.44,0.85,5.37"/>
	<path class="st0" d="M590.35,497.07c0.26-0.39,0.55-0.74,0.88-1.06"/>
	<path class="st0" d="M590.35,497.07c-1.93,2.96,0.38,5.47,2.92,6.87c2.6,1.45,5.24,2,8.15,2.24c4.24,0.35,12.8-0.32,15.69-4.76"/>
	<path class="st0" d="M615.65,500.18c0.41-0.6,0.6-1.2,0.61-1.92"/>
	<path class="st0" d="M596.53,503.38c3.37,1.19,6.59,1.38,10.09,0.97c2.75-0.33,7.26-1.45,9.03-4.16"/>
	<path class="st0" d="M591.19,498.22c-0.02,2.78,3.32,4.45,5.34,5.16"/>
	<path class="st0" d="M591.23,497.72c-0.01,0.06-0.02,0.11-0.02,0.16"/>
	<path class="st0" d="M622.96,486.77c-0.02-0.13-0.04-0.27-0.08-0.41"/>
	<path class="st0" d="M584.44,487.46c0,4.11,4.82,6.65,7.82,7.75c3.77,1.4,7.49,1.89,11.47,1.89c3.98,0,7.7-0.49,11.47-1.89
		c3-1.11,7.82-3.65,7.82-7.76"/>
	<path class="st0" d="M594.28,491.75c-8.83-3.09-9.62-9.74-0.69-13.23c5.79-2.26,13.74-2.29,19.57-0.25"/>
	<path class="st0" d="M613.16,478.27c8.84,3.09,9.62,9.74,0.69,13.23c-5.79,2.26-13.74,2.29-19.57,0.25"/>
	<path class="st0" d="M487.96,776.94c1.81,0.98,0.73,3.27-0.62,2.99"/>
	<path class="st0" d="M470.23,773.9c-1.12-1.01-4.69-4.41-5.76-5.47"/>
	<path class="st0" d="M470.88,762.53c0.83,0.87,3.13,2.5,3.97,3.76"/>
	<path class="st0" d="M683.64,582.71c-4.38,8.05-17.69,26.25-22.83,33.88"/>
	<path class="st0" d="M599.68,624.86c1.89,0.69,15.3,5.77,16.53,8.16"/>
	<path class="st0" d="M615.85,633.27c0.15-0.04,0.25-0.11,0.35-0.24"/>
	<path class="st0" d="M592.45,623.36c2.56-0.02,4.87,0.62,7.22,1.5"/>
	<path class="st0" d="M593.29,577.3c4.54-0.49,9.04-1.16,13.54-2.03"/>
	<path class="st0" d="M697.29,561.88c-28.6,9.24-70.8,22.32-101.35,24.78"/>
	<path class="st0" d="M606.82,575.26c2.32-0.45,4.63-0.96,6.93-1.49c2.32-0.55,4.63-1.13,6.93-1.75c5.18-1.39,10.31-2.96,15.4-4.63
		c6.65-2.17,13.23-4.5,19.81-6.87c10.61-3.82,21.47-7.86,32.04-11.81"/>
	<path class="st0" d="M697.54,562.56c0.22-0.33-0.09-0.47-0.24-0.69"/>
	<path class="st0" d="M687.68,576.33c3.36-4.53,6.65-9.12,9.86-13.76"/>
	<path class="st0" d="M616.22,633.04c1.61-1.76,3.23-3.5,4.9-5.22c1.52-1.56,3.07-3.09,4.66-4.58c2.94-2.76,6.02-5.36,9.25-7.77
		c3.66-2.74,7.51-5.23,11.46-7.52c1.98-1.15,3.98-2.26,6.01-3.33c4.58-2.44,9.25-4.72,13.79-7.22c2.38-1.3,4.72-2.67,6.97-4.19
		c2.19-1.48,4.3-3.11,6.16-4.99c1.64-1.64,3.09-3.47,4.21-5.51"/>
	<path class="st0" d="M578.1,677.34c1.13,0.56,8.52,4.25,10.09,3.96"/>
	<path class="st0" d="M592.45,623.36c-2.62,0.02-5.2,0.7-7.56,1.82c-2.45,1.16-4.66,2.81-6.56,4.73c-2.12,2.15-3.86,4.64-5.27,7.31
		c-1.51,2.83-2.65,5.87-3.44,8.98c-0.87,3.46-1.32,7.02-1.32,10.59c-0.01,3.2,0.35,6.4,1.2,9.48c0.7,2.52,1.72,4.98,3.33,7.04
		c0.65,0.84,1.4,1.62,2.25,2.26c0.93,0.71,1.96,1.26,3.01,1.77"/>
	<path class="st0" d="M588.19,681.3c0.03-0.01,0.05-0.02,0.08-0.03"/>
	<path class="st0" d="M473.16,769.65c-1.79-1.35-3.51-2.79-5.19-4.32"/>
	<path class="st0" d="M604.01,628.33c-0.88-0.19-1.79-0.27-2.69-0.19c-0.91,0.08-1.82,0.31-2.68,0.65c-2.02,0.79-3.78,2.14-5.29,3.7
		c-1.82,1.89-3.31,4.08-4.5,6.42c-1.32,2.57-2.29,5.32-2.95,8.13c-0.72,3.05-1.08,6.18-1.11,9.32c-0.03,3.14,0.26,6.29,0.94,9.35
		c0.3,1.32,0.67,2.63,1.15,3.89c0.42,1.1,0.91,2.17,1.53,3.17c0.51,0.82,1.1,1.6,1.8,2.26c0.7,0.68,1.52,1.24,2.35,1.73"/>
	<path class="st0" d="M602.64,676.02c-1.68-0.92-3.33-1.88-4.95-2.91"/>
	<path class="st0" d="M609.1,634.64c1.94,0.82,3.85,1.71,5.73,2.69"/>
	<line class="st0" x1="604.18" y1="676.78" x2="604.13" y2="676.79"/>
	<path class="st0" d="M618.72,639.93c0.18,0.22,0.19,0.4,0.07,0.64"/>
	<path class="st0" d="M614.83,637.32c0.51,0.27,1.01,0.54,1.51,0.83c0.38,0.22,0.76,0.45,1.12,0.69c0.28,0.18,0.54,0.37,0.78,0.58
		c0.18,0.15,0.35,0.31,0.47,0.5"/>
	<path class="st0" d="M604.13,676.79c-0.49-0.27-0.99-0.5-1.49-0.76"/>
	<path class="st0" d="M597.33,679.48c0.46,0.23,0.92,0.45,1.38,0.65"/>
	<path class="st0" d="M592.56,676.77c1.57,0.96,3.15,1.86,4.77,2.71"/>
	<path class="st0" d="M519.58,698c-4.74,7.22-9.52,14.41-14.42,21.52c-3.87,5.6-7.81,11.14-11.89,16.58
		c-3.53,4.72-7.16,9.36-10.95,13.87c-3.15,3.75-6.4,7.41-9.83,10.92c-3.07,3.14-6.27,6.16-9.69,8.92c-1.53,1.23-3.1,2.4-4.74,3.48
		c-1.3,0.86-2.64,1.65-4.04,2.35c-1.14,0.56-2.33,1.06-3.56,1.4c-0.97,0.27-1.98,0.45-2.98,0.42c-0.8-0.03-1.61-0.18-2.3-0.56
		c-0.64-0.35-1.2-0.88-1.58-1.5"/>
	<path class="st0" d="M594.67,587.63c-11.61,12.72-21.49,26.52-30.87,40.87"/>
	<path class="st0" d="M544.27,571.98c1.59,0.55,2.79,0.99,4.41,1.46c1.66,0.48,6.23,1.58,7.94,1.88"/>
	<path class="st0" d="M526.9,557.21c-1.29,9.09,9.99,12.95,16.04,15.06"/>
	<path class="st0" d="M542.94,572.28c14.23,4.99,28.11,6.44,43.04,5.62"/>
	<path class="st0" d="M585.98,577.89c2.13-0.12,4.25-0.29,6.38-0.5"/>
	<path class="st0" d="M530.13,548.39c-1.42,2.84-2.77,5.58-3.23,8.82"/>
	<path class="st0" d="M556.64,502.92c-3.25,5.39-6.48,10.8-9.7,16.22c-3.03,5.1-6.04,10.2-9.03,15.32c-1.62,2.79-3.24,5.57-4.8,8.38
		c-1.03,1.83-2.03,3.68-2.98,5.55"/>
	<line class="st0" x1="592.35" y1="577.39" x2="595.02" y2="586.74"/>
	<path class="st0" d="M595.01,586.74c-5.89,0.44-11.81,0.55-17.7,0.23c-5.11-0.28-10.21-0.88-15.24-1.8
		c-5.72-1.05-11.36-2.51-16.93-4.2c-3.07-0.94-6.12-1.94-9.14-3.02c-2.57-0.92-5.13-1.9-7.63-3c-1.35-0.59-2.69-1.22-3.98-1.94
		c-1.05-0.58-2.06-1.21-2.99-1.95c-0.74-0.58-1.43-1.23-1.99-1.98c-0.47-0.62-0.86-1.31-1.11-2.05c-0.3-0.85-0.41-1.77-0.4-2.68
		c0.02-0.95,0.17-1.89,0.41-2.81c0.27-1.01,0.62-1.99,1.02-2.94c0.62-1.48,1.36-2.92,2.11-4.34"/>
	<path class="st0" d="M595.08,587.16c-0.01-0.14-0.04-0.28-0.06-0.42"/>
	<path class="st1" d="M479.15,794.95c8.39-0.3,16.48-3.38,23.64-7.34c18.66-10.35,34.53-28.67,46.82-45.12
		c13.58-18.29,25.82-38.37,37.16-58.05c0.57-0.99,2.51-4.12,3.08-5.11l8.78,0.8l0.07,0.01c2.99,0.48,4.5-0.46,5.42-3.34h0.06
		c4.07-12.42,9.07-24.38,14.6-36.21l0.09-0.2c0.56-1.23,1.03-2.29,0.56-3.73l-1.75-2.19c2.32-2.97,6.78-8.18,9.99-10.36"/>
	<path class="st1" d="M547.83,509.55c-4.54,8.01-9.19,15.96-13.95,23.86c-2.48,4.1-5.34,8.18-7.82,12.28l-2.96,4.72
		c-3.12,5.01-3.87,5.93-7.18,10.83c-9.69,14.27-19.03,28.71-27.54,43.74l-0.11,0.2c-10.22,18.07-19.89,36.42-29.24,54.94l-0.16,0.33
		c-9.15,18.15-18.17,35.89-22.52,56.18c-4.05,18.91-3.76,41.32,7.23,58.78l1.05,1.43c4.38,5.81,10.24,10.96,16.96,14.26"/>
	<line class="st0" x1="556.29" y1="503.18" x2="556.59" y2="502.96"/>
	<path class="st0" d="M547.66,509.85c-0.02-0.15,0.03-0.24,0.17-0.31"/>
	<path class="st0" d="M595.08,587.16c-0.13,0.16-0.27,0.32-0.4,0.47"/>
	<path class="st0" d="M563.81,628.5c-7.51,11.5-14.69,23.2-21.99,34.83c-7.3,11.64-14.71,23.19-22.24,34.67"/>
	<path class="st0" d="M473.17,426.38c0.01,0.02,0.02,0.03,0.02,0.03"/>
	<path class="st0" d="M480.48,425.41c-1.65-3.26-3.12-6.61-4.22-10.09c-0.95-2.96-1.65-6.01-1.92-9.11
		c-0.23-2.65-0.15-5.34,0.43-7.94c0.52-2.35,1.44-4.61,2.77-6.61c1.33-2.01,3.07-3.75,5.04-5.15c2.2-1.56,4.67-2.71,7.22-3.57
		c3-1,6.12-1.6,9.25-1.94c3.66-0.39,7.34-0.44,11.01-0.26"/>
	<path class="st0" d="M547.56,509.59c0.11,0.03,0.19,0.02,0.28-0.04"/>
	<path class="st0" d="M558.31,504.4c0.02,0.06,0.04,0.12,0.06,0.18"/>
	<path class="st0" d="M556.29,503.18c-3.4-2.13-6.71-4.42-9.94-6.82c-3.96-2.93-7.79-6.02-11.56-9.2
		c-8.58-7.23-16.78-14.9-24.61-22.94c-6.15-6.32-12.07-12.87-17.45-19.85c-4.56-5.91-8.73-12.13-12.15-18.76"/>
	<path class="st0" d="M480.58,425.62c-0.04-0.07-0.07-0.13-0.1-0.21"/>
	<line class="st0" x1="547.85" y1="509.54" x2="556.29" y2="503.18"/>
	<path class="st0" d="M547.85,509.54c-22.66-20.71-60.13-53.99-74.66-83.12"/>
	<path class="st0" d="M703.71,506.89c4.4,8.49,7.82,18.57,6.85,28.52c-1.05,10.81-6.56,18.38-12.33,26.64"/>
	<path class="st0" d="M698.23,562.06c-3.36,4.84-6.85,9.57-10.49,14.2"/>
	<path class="st0" d="M697.29,561.86c0.26,0.41,0.54,0.47,0.94,0.2"/>
	<path class="st0" d="M688.04,549.31c-0.32-0.57,0.06-1.25,0.72-1.54"/>
	<path class="st0" d="M688.75,547.77c1.82-0.12,3.52-0.51,5.22-1.19"/>
	<path class="st0" d="M700.57,503.8c4.38,8.44,9.52,21.37,8.61,31.31c-0.98,10.72-6.19,18.43-11.9,26.74"/>
	<path class="st0" d="M699.85,502.72c1.37,2.73,2.6,5.54,3.61,8.44c0.87,2.5,1.59,5.04,2.05,7.64c0.44,2.47,0.67,4.99,0.58,7.49
		c-0.07,2.15-0.38,4.31-0.92,6.4c-0.58,2.27-1.44,4.47-2.57,6.52c-1.1,1.98-2.47,3.82-4.11,5.4c-1.45,1.39-3.11,2.58-4.97,3.39
		c-1.73,0.75-3.61,1.17-5.48,1.32c0,0,2.81,3.37,4.57,6.03c1.77,2.65,4.68,6.08,4.68,6.08"/>
	<path class="st0" d="M703.69,506.86c-2.92-5.61-6.38-10.94-10.12-16.02c-4.36-5.93-9.12-11.54-14.13-16.93
		c-5.58-6-11.48-11.72-17.6-17.19c-6.57-5.87-13.38-11.46-20.4-16.79c-14.61-11.11-30.04-21.13-46.12-29.98
		c-7.81-4.3-15.76-8.31-23.88-11.99c-7.6-3.44-15.36-6.59-23.23-9.35"/>
	<path class="st0" d="M473.17,426.38c-1.72-3.45-3.21-7.02-4.34-10.71c-0.95-3.13-1.62-6.35-1.82-9.62
		c-0.17-2.79,0.02-5.62,0.74-8.33c0.66-2.44,1.75-4.8,3.26-6.83c1.54-2.08,3.53-3.83,5.71-5.23c2.49-1.59,5.24-2.72,8.08-3.53
		c3.34-0.96,6.8-1.48,10.27-1.74c4.05-0.29,8.13-0.21,12.19,0.1"/>
	<path class="st0" d="M466.05,409.47c-0.61-3.41-0.84-6.92-0.33-10.34c0.44-3,1.45-5.94,3.08-8.47c1.64-2.54,3.89-4.67,6.44-6.32
		c2.91-1.9,6.2-3.15,9.57-4.01c4.08-1.03,8.28-1.49,12.48-1.59c5.02-0.14,10.04,0.22,15.02,0.88c5.77,0.75,11.48,1.9,17.13,3.32
		c6.34,1.59,12.59,3.52,18.76,5.67"/>
	<path class="st0" d="M577.56,344.5c0.57,0.22,1.17,0.45,1.66,0.82c0.38,0.28,0.7,0.64,0.89,1.07c0.19,0.43,0.23,0.92,0.16,1.37
		c-0.09,0.52-0.34,0.99-0.66,1.4c-0.74,0.97-1.87,1.6-3.06,1.84c-0.57,0.11-1.14,0.14-1.72,0.07c-0.64-0.09-1.28-0.31-1.89-0.55"/>
	<path class="st0" d="M571.29,342.2c2.1,0.74,4.19,1.5,6.27,2.3"/>
	<path class="st0" d="M571.29,342.2c-2.06-0.72-4.12-1.41-6.19-2.06"/>
	<path class="st0" d="M565.09,340.14c-0.59-0.19-1.22-0.35-1.84-0.4c-0.59-0.05-1.16,0.02-1.73,0.15c-1.17,0.29-2.27,0.93-3.01,1.88
		c-0.32,0.42-0.57,0.88-0.66,1.39c-0.08,0.45-0.04,0.93,0.15,1.34c0.18,0.4,0.49,0.73,0.86,0.98"/>
	<path class="st0" d="M557.66,353.38c-0.98-0.31-1.98-0.64-2.93-1.05c-0.69-0.3-1.36-0.63-1.97-1.06c-1.1-0.76-2.03-1.79-2.57-3.01
		c-0.57-1.28-0.69-2.76-0.45-4.14c0.27-1.54,0.98-2.99,1.94-4.23c1.03-1.35,2.34-2.46,3.79-3.34c1.57-0.96,3.3-1.65,5.09-2.06
		c1.73-0.4,3.51-0.54,5.27-0.4c0.88,0.07,1.76,0.21,2.62,0.4c1.02,0.23,2.02,0.54,3.01,0.86"/>
	<path class="st0" d="M562.31,354.94c-1.54-0.54-3.09-1.06-4.65-1.57"/>
	<path class="st0" d="M562.31,354.94c1.58,0.55,3.14,1.12,4.7,1.71"/>
	<path class="st0" d="M567.01,356.65c1.01,0.39,2.04,0.76,3.08,1.06c0.81,0.23,1.64,0.41,2.48,0.52c1.7,0.21,3.42,0.12,5.08-0.24
		c1.83-0.4,3.58-1.13,5.17-2.11c1.54-0.96,2.93-2.16,4.03-3.6c0.95-1.23,1.69-2.64,1.96-4.15c0.24-1.33,0.14-2.77-0.41-4
		c-0.55-1.24-1.52-2.28-2.63-3.09c-1.5-1.09-3.23-1.75-4.97-2.41"/>
	<path class="st0" d="M580.8,338.62c-1.56-0.59-3.12-1.15-4.69-1.71"/>
	<path class="st0" d="M571.46,335.35c1.55,0.51,3.1,1.03,4.65,1.57"/>
	<line class="st0" x1="703.71" y1="506.89" x2="703.69" y2="506.86"/>
	<path class="st0" d="M762.12,450.62c0.09,0.2,0.12,0.4,0.11,0.62"/>
	<path class="st0" d="M597.46,324.73c-0.1-0.02-0.19-0.02-0.29,0"/>
	<path class="st2" d="M693.48,492.76c-2.16-0.59-4.31-1.21-6.45-1.86c-0.66-0.21-5.12-1.75-5.77-1.97
		c-17.92-6.27-34.84-14.24-51.38-23.48c-16.44-9.19-32.23-19.53-47.18-30.98c-7.18-5.5-14.15-11.25-20.87-17.3
		c-3.2-2.88-6.34-5.82-9.41-8.83c-2.87-2.81-6.61-6.7-9.35-9.65c-3.94-4.43-7.68-8.99-11.16-13.79"/>
	<path class="st0" d="M702.87,537.43c-3.51,3.93-9.7,8.34-13.86,10.29"/>
	<path class="st0" d="M569.92,558.69c0.06-0.04,0.11-0.04,0.17-0.02"/>
	<path class="st3" d="M552.42,561.01c2.28,0.81,4.57,1.61,6.85,2.41l0.01,0.01c2.29,0.8,4.57,1.6,6.86,2.39l-0.02,0.01
		c-0.23,0.09-0.45,0.18-0.68,0.28l-0.02,0.01c-0.07,0.02-0.12,0.05-0.19,0.07c-0.62-0.22-1.25-0.44-1.88-0.66l-0.01-0.01
		c-1.65-0.57-3.31-1.15-4.96-1.73c-1.48-0.51-2.96-1.04-4.44-1.56c-0.62-0.22-1.79-0.63-2.42-0.85l-0.01-0.01
		c0.06-0.03,0.13-0.05,0.19-0.07l0.02-0.01c0.23-0.09,0.45-0.18,0.68-0.27"/>
	<path class="st3" d="M553.76,560.48l0.88-0.38c-0.3,0.12-0.59,0.25-0.88,0.37l0.01,0.01c2.28,0.8,4.56,1.61,6.84,2.41
		c2.29,0.8,4.57,1.6,6.86,2.39c0.29-0.12,0.59-0.24,0.88-0.37l0.02-0.01c-2.29-0.8-4.57-1.59-6.86-2.39h-0.01
		c-2.28-0.81-4.57-1.61-6.85-2.41"/>
	<path class="st3" d="M562.86,561.92c2.28,0.8,4.57,1.59,6.85,2.38c0.3-0.12,0.59-0.26,0.88-0.38l0.01,0.03l-0.04,0.02l0.01-0.06
		c-2.27-0.79-4.54-1.58-6.81-2.37l-0.01-0.01c-2.29-0.8-4.57-1.6-6.85-2.41l-0.02,0.01c-0.3,0.13-0.59,0.26-0.88,0.39h0.01
		C558.29,560.31,560.57,561.12,562.86,561.92"/>
	<path class="st0" d="M572.86,567.68c0.65-0.19,1.29-0.45,1.88-0.78c0.47-0.27,0.92-0.59,1.28-1c0.3-0.33,0.54-0.72,0.64-1.15
		c0.1-0.42,0.06-0.86-0.06-1.26c-0.16-0.48-0.44-0.9-0.77-1.29c-0.42-0.48-0.9-0.9-1.42-1.27c-0.63-0.46-1.32-0.85-2.02-1.2
		c-0.8-0.4-1.62-0.74-2.46-1.03"/>
	<path class="st0" d="M572.54,567.78c0.11-0.03,0.21-0.06,0.32-0.1"/>
	<path class="st0" d="M552.16,566.15c0.79,0.28,1.6,0.53,2.41,0.75c0.93,0.25,1.87,0.47,2.81,0.67c1.85,0.38,3.73,0.66,5.61,0.81
		c1.74,0.14,3.49,0.18,5.24,0.06c1.46-0.09,2.9-0.29,4.31-0.68"/>
	<path class="st0" d="M546.86,558.79c-2.3,1.44-1.95,3.15,0.04,4.72c1.6,1.26,3.38,1.98,5.26,2.64"/>
	<path class="st0" d="M547.07,558.67c-0.07,0.04-0.14,0.08-0.2,0.12"/>
	<path class="st0" d="M569.92,558.69c-5.47-1.91-17.19-3.28-22.84-0.04"/>
	<path class="st0" d="M640.71,547.73c0.06,3.67-4.26,5.85-6.92,6.81c-3.33,1.2-6.64,1.63-10.14,1.67"/>
	<path class="st0" d="M623.65,556.21c-3.87,0.05-7.52-0.4-11.23-1.61c-2.87-0.93-7.77-3.13-8.55-6.81l-0.1-0.96
		c0.02-4.98,1.43-7.94,6.11-10.12c4.08-1.91,8.05-2.29,12.44-2.13c4.37,0.16,8.34,0.87,12.29,2.93c1.96,1.02,3.56,2.16,4.78,4.09
		c1.25,1.98,1.29,3.96,1.31,6.13"/>
	<path class="st0" d="M623.54,547.39c2.66,0.01,5.14-0.27,7.66-1.22c2.23-0.84,5.34-2.67,4.07-5.61
		c-1.89-4.35-10.42-5.37-13.98-5.36"/>
	<path class="st0" d="M610.42,538.67c-2.73,3.24,0.99,5.77,3.86,6.99c3.03,1.29,6.02,1.73,9.26,1.73"/>
	<path class="st0" d="M621.3,535.21c-3.08,0.01-8.55,0.68-10.88,3.46"/>
	<path class="st0" d="M633.68,540.06c-0.52-0.27-1.03-0.52-1.55-0.76"/>
	<path class="st0" d="M610.54,542.31c0.56,0.12,1.11,0.25,1.66,0.4"/>
	<path class="st0" d="M622.97,535.96c-0.52-0.13-1.03-0.26-1.55-0.37"/>
	<path class="st0" d="M623.33,546.97c-0.07-2.21-0.15-4.41-0.24-6.62c3.54-0.4,7.05-0.49,10.6-0.29l-1.55-0.76
		c-3.06-0.13-6.07-0.01-9.11,0.35c-0.02-1.23-0.03-2.46-0.05-3.68l-1.55-0.37c0.07,1.4,0.14,2.81,0.2,4.21
		c-1.17,0.15-2.33,0.34-3.49,0.56c-2.57,0.49-5.1,1.14-7.59,1.95l1.66,0.4c2.45-0.78,4.92-1.39,7.45-1.85
		c0.67-0.11,1.34-0.22,2.01-0.33c0.01,0.56-0.02,1.12-0.02,1.67c0,0.35,0.02,0.71,0.03,1.07c0.02,0.96-0.01,1.92,0.01,2.89
		C622.23,546.42,622.78,546.69,623.33,546.97z"/>
	<path class="st0" d="M662.32,532.58c2.75,0.11,5.36-0.09,8.02-0.87c2.06-0.61,5.74-2.12,5.69-5.01c-0.05-2.77-3.61-4.53-5.58-5.27
		c-2.59-0.97-5.18-1.4-7.92-1.51"/>
	<path class="st0" d="M651.51,538.45c2.19,0.79,4.4,1.33,6.72,1.61"/>
	<path class="st0" d="M644.28,532.99c0.34,0.73,0.78,1.35,1.36,1.92"/>
	<path class="st0" d="M643.86,531.08c0,0.6,0.11,1.15,0.33,1.71"/>
	<path class="st0" d="M643.94,530.25c-0.03,0.12-0.05,0.24-0.06,0.36"/>
	<path class="st0" d="M649.86,523.59c-2.56,3.14,0.76,5.69,3.52,6.99c2.89,1.35,5.79,1.87,8.94,2"/>
	<path class="st0" d="M662.52,519.93c-3.46-0.13-10.04,0.43-12.67,3.66"/>
	<path class="st0" d="M680.63,531.46c-0.02-0.12-0.04-0.24-0.06-0.36"/>
	<path class="st0" d="M661.98,540.37c1.19,0.04,2.36,0.02,3.54-0.05"/>
	<path class="st0" d="M658.23,540.07c1.24,0.16,2.49,0.27,3.75,0.31"/>
	<path class="st0" d="M645.62,534.93c1.7,1.76,3.67,2.71,5.89,3.53"/>
	<path class="st0" d="M644.18,532.79c0.03,0.07,0.06,0.14,0.09,0.21"/>
	<path class="st0" d="M662.4,520.9c-0.47-0.12-0.94-0.24-1.41-0.35"/>
	<path class="st0" d="M673.52,525.11c-4.2,0.06-8.27,0.55-12.37,1.46c-1.33,0.95-2.6,1.96-3.83,3.03l-1.35-0.48
		c0.62-0.54,1.25-1.07,1.89-1.58c0.63-0.5,1.28-0.99,1.92-1.46c0.35-1.86,0.74-3.7,1.19-5.53l1.41,0.35
		c-0.42,1.6-0.77,3.2-1.07,4.82c3.57-0.79,7.12-1.21,10.77-1.28C672.57,524.65,673.04,524.87,673.52,525.11z"/>
	<path class="st0" d="M571,508.61c0-0.26,0.02-0.52,0.04-0.78c0.03-0.26,0.06-0.53,0.1-0.79c0.1-0.52,0.24-1.03,0.43-1.53
		c0.41-1.08,1-2.07,1.71-2.97"/>
	<path class="st0" d="M578.02,496.49c-1.12,0.45-2.23,0.95-3.3,1.5c-1.01,0.51-2.01,1.08-2.97,1.69c-1.7,1.09-3.31,2.33-4.69,3.81
		c-1.19,1.25-2.2,2.66-2.91,4.23c-0.62,1.4-0.98,2.92-0.97,4.45"/>
	<path class="st0" d="M634.83,503.36c0.96,1.18,1.6,2.43,2.02,3.88"/>
	<path class="st0" d="M644.26,510.32c-0.17-0.63-0.4-1.24-0.67-1.83c-0.3-0.63-0.63-1.24-1.02-1.82c-0.84-1.28-1.88-2.43-3-3.46
		c-1.29-1.19-2.71-2.22-4.2-3.14c-1.7-1.05-3.48-1.96-5.31-2.75"/>
	<path class="st0" d="M636.85,507.25c0.24,0.92,0.34,1.87,0.28,2.81c-0.07,0.96-0.32,1.9-0.68,2.78c-0.86,2.06-2.38,3.78-4.09,5.21
		c-2.2,1.83-4.74,3.19-7.37,4.28c-3.14,1.29-6.41,2.2-9.73,2.82"/>
	<path class="st0" d="M615.25,525.15c-1.45,0.27-2.91,0.48-4.37,0.64"/>
	<path class="st0" d="M571,508.61c0,0.68,0.08,1.36,0.23,2.03c0.16,0.69,0.4,1.35,0.7,1.99c0.67,1.45,1.62,2.73,2.72,3.87
		c1.28,1.33,2.77,2.46,4.34,3.44c1.8,1.12,3.72,2.04,5.7,2.82"/>
	<path class="st0" d="M584.69,522.76c0.95,0.37,1.9,0.7,2.87,1c1.01,0.32,2.03,0.6,3.07,0.84c2.16,0.52,4.34,0.9,6.54,1.15
		c4.55,0.52,9.16,0.53,13.71,0.04"/>
	<path class="st0" d="M551.23,568.04c-1.94-0.68-3.79-1.43-5.48-2.67c-2-1.46-3.25-3.04-0.95-4.92"/>
	<path class="st0" d="M551.23,568.04c6.1,2.13,16.28,3.72,22.84,1.65"/>
	<path class="st0" d="M641.43,550.39c0.02-0.33,0-0.66-0.06-0.99"/>
	<path class="st0" d="M641.37,549.4c-0.11-0.66-0.33-1.23-0.69-1.8"/>
	<path class="st0" d="M603.76,547.8c-0.44,0.7-0.67,1.41-0.74,2.23"/>
	<path class="st0" d="M603.03,550.03c-0.27,3.59,3.84,5.95,6.41,7.02c3.2,1.33,6.41,1.95,9.85,2.15"/>
	<path class="st0" d="M619.28,559.19c4.73,0.34,9.16-0.09,13.71-1.49"/>
	<path class="st0" d="M632.99,557.7c2.92-0.94,8.2-3.32,8.44-7.31"/>
	<path class="st0" d="M574.46,569.56c-0.13,0.05-0.27,0.09-0.4,0.13"/>
	<path class="st0" d="M577.12,563.58c2.55,2.75,0.27,4.96-2.66,5.98"/>
	<path class="st0" d="M612.47,533.01c1.8-0.19,3.58-0.45,5.36-0.77"/>
	<path class="st0" d="M563.18,512.16c-0.01,1.6,0.38,3.18,1.03,4.65c0.74,1.66,1.81,3.15,3.05,4.48c1.44,1.55,3.1,2.89,4.87,4.05
		c2.02,1.33,4.18,2.43,6.41,3.37c5.1,2.16,10.53,3.46,16.03,4.15c5.94,0.75,11.95,0.8,17.9,0.16"/>
	<path class="st0" d="M643.85,531.66c-0.13,0.22-0.25,0.44-0.35,0.68"/>
	<path class="st0" d="M680.66,531.23c1.86,3.02,0.18,5.87-2.27,7.74c-2.5,1.9-5.19,2.82-8.16,3.53l-0.75,0.17
		c-5.49,1.16-10.62,1.1-16.09-0.12c-2.71-0.6-5.12-1.49-7.38-3.2c-2.2-1.67-3.81-4.14-2.5-7.01"/>
	<path class="st0" d="M617.84,532.24c2.1-0.38,4.2-0.87,6.25-1.46c1.93-0.56,3.82-1.21,5.68-1.98c3.23-1.34,6.34-3.01,9.02-5.25
		c1.11-0.92,2.15-1.94,3.04-3.08c0.8-1.01,1.47-2.12,1.96-3.31c0.44-1.08,0.73-2.23,0.81-3.4c0.08-1.15-0.04-2.33-0.34-3.45"/>
	<path class="st0" d="M587.69,513.43c-14.22-4.98-16.7-16-2.12-22.08"/>
	<path class="st0" d="M621.88,491.35c14.46,6.17,12.18,17.03-2.02,22.04c-9.64,3.41-22.51,3.42-32.16,0.04"/>
	<path class="st0" d="M556.61,575.31c10.2,2.02,20.21,2.43,30.54,1.63"/>
	<path class="st0" d="M647.47,562.48c5.22-1.86,33.25-12.41,38.46-14.29"/>
	<path class="st0" d="M587.16,576.94c21.16-1.53,40.59-7.65,60.31-14.46"/>
	<path class="st0" d="M623.44,510.15c8.14-5.82,3.96-12.61-4.07-16.05"/>
	<path class="st0" d="M585.78,511.26c-6.9-3.86-8.65-10.01-1.77-14.92"/>
	<path class="st0" d="M623.44,510.15c-0.43,0.31-0.87,0.59-1.32,0.86"/>
	<path class="st0" d="M584.01,496.34c1.28-0.9,2.63-1.64,4.07-2.25"/>
	<path class="st0" d="M588.91,512.56c-12.66-4.44-15.59-14.32-2.56-20.13"/>
	<path class="st0" d="M621.11,492.42c13.12,5.97,10,15.83-2.79,20.21c-8.85,3.03-20.57,3.02-29.41-0.08"/>
	<path class="st0" d="M685.93,548.19c6.97-3.44,13.13-7.22,18.17-13.45"/>
	<path class="st1" d="M625.65,625.69c1.54,0.36,3.07,0.74,4.61,1.13c3.88,0.98,7.95,1.49,11.95,1.2c1.8-0.12,3.6-0.42,5.35-0.92
		c1.73-0.48,3.4-1.15,4.98-2c3.33-1.78,6.2-4.31,8.78-7.08c0,0,15.39-3.31,19.27-7.21c3.88-3.9,4.08-7.22,4.81-17.6
		c0.77-10.86,7.73-22.83,7.73-22.83c13.44-16.5,33.21-22.63,48.48-35.97c17.25-15.06,26.83-35.38,27.39-58.29h-0.01
		c0.2-8.52-3.1-17.57-6.77-24.89c-3.01-5.98-6.61-11.64-10.52-17.07c-4.57-6.33-9.57-12.32-14.84-18.07
		c-5.9-6.43-12.14-12.54-18.61-18.39c-6.97-6.29-14.21-12.28-21.65-18c-7.74-5.93-15.71-11.56-23.87-16.91
		c-8.2-5.37-16.6-10.44-25.17-15.18c-8.34-4.61-16.84-8.91-25.51-12.85c-8.14-3.7-16.43-7.08-24.87-10.04
		c-14.35-5.03-28.63-8.91-43.93-10.12l0.01-0.03c-29.9-2.31-56.54,8.82-74.11,33.76c-12.07,17.14-16.68,37.88-13.53,58.51l0.44,2.62
		c1.08,5.89,3.16,11.23,5.81,16.55l0.04,0.07c14.66,29.34,52.78,62.76,75.65,83.5"/>
	<line class="st0" x1="589.85" y1="678.12" x2="575.91" y2="676.42"/>
	<path class="st4" d="M680.45,531.71c0.06,3.67-3.73,5.85-6.06,6.81c-2.92,1.2-5.71,1.53-8.88,1.79"/>
	<path class="st3" d="M967.59,545.72c-0.48,0.23-0.95,0.47-1.42,0.72"/>
	<path class="st0" d="M971.82,540.35c-0.4,0.15-3.22,1.14-3.6,1.31c-0.64,0.28-1.29,0.56-1.93,0.85c0.04,0.09,0.08,0.19,0.12,0.29
		c0.43,0.96,0.82,1.94,1.19,2.93l-1.42,0.72c-0.35-1.01-0.73-2.01-1.14-3c-0.85-2.18-1.84-4.23-3.19-6.16
		c0.47-0.19,0.95-0.37,1.44-0.52c6,0.53,11.45,2.13,16.89,4.6c-0.47,0.1-0.95,0.2-1.42,0.31c-1.6-0.71-3.21-1.36-4.87-1.92
		C973.19,539.95,972.5,540.14,971.82,540.35z"/>
	<path class="st0" d="M963.49,537.36c0.97,1.38,1.72,2.84,2.43,4.36c2.16-0.95,4.36-1.75,6.62-2.4
		C969.58,538.38,966.59,537.72,963.49,537.36"/>
	<path class="st0" d="M929.31,529.92c-0.87-0.73-1.76-1.41-2.68-2.06c-0.5-0.36-1.01-0.71-1.53-1.05c1.1-0.48,2.19-0.96,3.31-1.41
		c0.24-0.09,0.48-0.19,0.73-0.27c0.2-0.06,0.4-0.1,0.59-0.16c0.24-0.07,0.48-0.16,0.72-0.23c0.91-0.29,1.86-0.41,2.81-0.36
		c0.54,0.03,1.08,0.11,1.6,0.27c0.46,0.15,0.89,0.33,1.29,0.61c0.29,0.19,0.55,0.43,0.66,0.75c0.04,0.11,0.06,0.24,0.04,0.36
		c-0.02,0.12-0.07,0.23-0.15,0.34c-0.1,0.16-0.23,0.29-0.38,0.41c-0.21,0.16-0.45,0.27-0.69,0.37c-1.17,0.5-2.4,0.83-3.59,1.28
		C931.11,529.13,930.21,529.54,929.31,529.92z"/>
	<path class="st0" d="M924.26,526.29c0.75-0.3,1.47-0.66,2.23-0.95c1.06-0.42,2.17-0.72,3.2-1.2c0.34-0.16,0.68-0.34,0.98-0.57
		c0.05-0.04,0.09-0.07,0.13-0.11c0.06-0.07,0.09-0.15,0.1-0.23c0.04-0.17-0.02-0.34-0.08-0.51c-0.08-0.18-0.19-0.34-0.33-0.46
		c-0.11-0.1-0.24-0.17-0.38-0.21c-0.07-0.02-0.13-0.04-0.2-0.05c-0.21-0.05-0.42-0.1-0.63-0.15c-1.25-0.23-2.55-0.04-3.74,0.37
		c-1.74,0.58-3.44,1.24-5.11,1.99C921.75,524.8,923.03,525.49,924.26,526.29z"/>
	<path class="st0" d="M928.86,531.23c1.19-0.54,2.36-1.11,3.57-1.58c1.09-0.42,2.23-0.75,3.34-1.14c0.37-0.13,0.74-0.27,1.1-0.43
		c0.37-0.18,0.74-0.39,1.04-0.67c0.21-0.2,0.39-0.42,0.46-0.69c0.06-0.2,0.05-0.42,0-0.61c-0.07-0.28-0.23-0.53-0.43-0.74
		c-0.45-0.5-1.05-0.85-1.68-1.09c-0.74-0.28-1.52-0.41-2.31-0.46c-0.94-0.06-1.88,0.01-2.8,0.21c1.13-0.5,1.73-1.52,0.46-2.19
		c-3.83-2.03-10.38,1.19-13.36,2.58c2.54,1.06,4.87,2.37,7.07,4.02C926.55,529.31,927.73,530.24,928.86,531.23z"/>
	<path class="st0" d="M1117.31,766.06c-4.29,4.32-8.88,8.15-13.89,11.6"/>
	<path class="st0" d="M993.32,673.11c0.77-0.48,1.54-0.99,2.2-1.62c0.63-0.59,1.16-1.29,1.62-2.03c1.2-1.91,1.91-4.07,2.38-6.27
		c0.57-2.67,0.79-5.4,0.68-8.12c-0.1-2.72-0.52-5.44-1.3-8.05c-0.71-2.37-1.71-4.64-3.04-6.72c-1.16-1.82-2.59-3.48-4.35-4.76
		c-1.39-1.01-2.99-1.76-4.7-1.92c-0.77-0.07-1.58-0.02-2.34,0.15c-0.88,0.19-1.72,0.51-2.56,0.87"/>
	<line class="st0" x1="974.75" y1="496.01" x2="974.75" y2="498.25"/>
	<line class="st0" x1="999.82" y1="498.22" x2="999.82" y2="495.99"/>
	<path class="st0" d="M1006.58,487.46c-0.03-6.42-7.56-9.39-12.42-10.38c-6.01-1.23-11.39-1.08-17.24,0.97"/>
	<path class="st0" d="M976.91,478.05c-3.97,1.34-8.91,4.36-8.91,9.41"/>
	<path class="st0" d="M968.11,488.75c2.52,13.22,36.69,13.02,38.41-0.42"/>
	<path class="st0" d="M903.33,576.33c1.49,2.05,2.83,4.17,4.05,6.38"/>
	<line class="st0" x1="947.27" y1="564.17" x2="947.23" y2="564.18"/>
	<line class="st0" x1="1070.89" y1="698.68" x2="1070.91" y2="698.68"/>
	<path class="st0" d="M907.52,582.97c0.03,0.06,0.06,0.11,0.09,0.17"/>
	<path class="st0" d="M987,628.33c-1.34,0.32-2.65,0.71-3.93,1.24"/>
	<path class="st0" d="M983.07,629.57c-1.91,0.79-4.21,1.8-6.06,2.73"/>
	<path class="st0" d="M977.01,632.3c-1.87,0.94-4.21,2.34-5.43,4.35"/>
	<line class="st0" x1="987.76" y1="628.16" x2="1003.98" y2="624.55"/>
	<line class="st0" x1="1064.62" y1="545.71" x2="1064.6" y2="545.69"/>
	<line class="st0" x1="891.55" y1="501.83" x2="891.5" y2="501.91"/>
	<path class="st0" d="M1081.03,380.76c0.18-0.01,0.35-0.03,0.54-0.03"/>
	<line class="st0" x1="1043.34" y1="509.71" x2="1043.46" y2="509.6"/>
	<path class="st0" d="M841.57,526.46c0.04,0.06,0.09,0.11,0.12,0.17"/>
	<path class="st0" d="M840.62,525.44c0.32,0.34,0.63,0.69,0.95,1.02"/>
	<path class="st0" d="M897.05,546.58c-5.8-2.81-9.59-9-11.08-14.85c-1.66-6.56-0.94-12.34,0.98-18.64"/>
	<path class="st0" d="M890.44,503.8c14.96-26.3,43.56-51.42,67.25-68.49c25.25-18.19,55.46-35.01,84.99-45.35"/>
	<path class="st0" d="M1042.74,389.94c13.4-4.68,26.72-8.33,41.01-9.45"/>
	<path class="st0" d="M993.52,324.74c-32.21,11.28-65.24,29.81-92.63,49.85c-25.1,18.36-57.32,46.91-71.99,76.02"/>
	<path class="st0" d="M1037.77,314.58c-15.41,1.19-29.77,5.1-44.22,10.16"/>
	<path class="st0" d="M828.84,450.74c-3.58,7.12-6.26,14.09-6.78,22.24"/>
	<path class="st0" d="M1046.5,561.42c-0.14-1.33-0.86-1.93-1.89-2.57"/>
	<path class="st0" d="M1044.47,558.77c-0.03-0.02-0.06-0.04-0.09-0.06"/>
	<path class="st0" d="M1044.37,558.7c-5.85-3.35-17.73-2.02-23.4-0.05"/>
	<path class="st0" d="M1020.92,558.67c-2.19,0.78-6.94,2.78-7.26,5.91"/>
	<line class="st0" x1="1013.63" y1="564.81" x2="1013.4" y2="567.11"/>
	<line class="st0" x1="1046.74" y1="563.72" x2="1046.53" y2="561.65"/>
	<line class="st0" x1="950.3" y1="548.31" x2="950.26" y2="552.11"/>
	<line class="st0" x1="987.29" y1="552.71" x2="987.24" y2="547.15"/>
	<path class="st0" d="M910.35,531.46c0,0.16,0,0.32-0.01,0.48"/>
	<path class="st0" d="M947.16,531.06c-0.04-4.88-1.67-7.57-6.14-9.64c-3.93-1.81-7.78-2.22-12-2.12
		c-7.11,0.18-18.52,2.42-18.67,11.93"/>
	<line class="st0" x1="910.35" y1="532.2" x2="910.3" y2="535.86"/>
	<line class="st0" x1="947.21" y1="536.36" x2="947.16" y2="531.41"/>
	<path class="st0" d="M915.27,488.12c-8.05,2.82-15.51,6.1-22.33,11.47"/>
	<path class="st0" d="M971.97,480.57c-19.75-1.32-37.94,1.09-56.66,7.53"/>
	<path class="st0" d="M1046.74,571.98c4.04-1.41,10.45-4.09,13.42-7.79c2.12-2.64,1.74-6.29,1.41-7.78
		c-1.33-6.08-8.88-18.49-11.84-23.55c-4.44-7.61-8.93-15.2-13.46-22.76l-0.12-0.2c-1.36-2.36-2.88-4.58-4.59-6.69l-0.12-0.15
		c-6.18-7.27-16.33-12.31-24.87-15.44"/>
	<path class="st0" d="M1039.26,568.2c-0.05,0.02-0.1,0.03-0.1,0.03"/>
	<line class="st0" x1="1017.75" y1="502.54" x2="1013.73" y2="497.41"/>
	<line class="st0" x1="960.82" y1="497.44" x2="956.17" y2="503.36"/>
	<path class="st0" d="M1018.4,503.36c0.09,0.1-0.08-0.1-0.11-0.15"/>
	<line class="st0" x1="963.25" y1="503.86" x2="963.25" y2="503.86"/>
	<line class="st0" x1="947.52" y1="535.28" x2="947.52" y2="535.15"/>
	<path class="st0" d="M974.75,496.05c-1.54,1.51-2.1,3.44-0.84,5.37"/>
	<path class="st0" d="M1000.67,497.07c-0.26-0.39-0.55-0.74-0.89-1.06"/>
	<path class="st0" d="M1000.67,497.07c1.92,2.96-0.39,5.47-2.92,6.87c-2.6,1.45-5.25,2-8.15,2.24c-4.24,0.35-12.8-0.32-15.69-4.76"
		/>
	<path class="st0" d="M975.36,500.18c-0.41-0.6-0.6-1.2-0.61-1.92"/>
	<path class="st0" d="M994.48,503.38c-3.37,1.19-6.58,1.38-10.08,0.97c-2.75-0.33-7.26-1.45-9.03-4.16"/>
	<path class="st0" d="M999.82,498.22c0.02,2.78-3.33,4.45-5.35,5.16"/>
	<path class="st0" d="M999.78,497.72c0.01,0.06,0.02,0.11,0.03,0.16"/>
	<path class="st0" d="M968.04,486.77c0.02-0.13,0.05-0.27,0.08-0.41"/>
	<path class="st0" d="M1006.58,487.46c0,4.11-4.82,6.65-7.82,7.75c-3.76,1.4-7.49,1.89-11.47,1.89c-3.98,0-7.7-0.49-11.47-1.89
		c-3-1.11-7.82-3.65-7.82-7.76"/>
	<path class="st0" d="M996.72,491.75c8.84-3.09,9.62-9.74,0.69-13.23c-5.79-2.26-13.73-2.29-19.57-0.25"/>
	<path class="st0" d="M977.84,478.27c-8.84,3.09-9.62,9.74-0.69,13.23c5.79,2.26,13.73,2.29,19.57,0.25"/>
	<path class="st0" d="M1104.14,780.8c0.23,0.19,0.47,0.39,0.71,0.58"/>
	<path class="st0" d="M1104.85,781.38c0.19,0.16,0.38,0.31,0.58,0.45c0.17,0.11,0.34,0.21,0.51,0.31c0.35,0.18,0.74,0.32,1.13,0.41
		c0.34,0.07,0.69,0.1,1.04,0.05c0.31-0.04,0.61-0.15,0.87-0.32"/>
	<path class="st0" d="M1103.41,777.66c-1.46,0.98-0.24,2.32,0.73,3.14"/>
	<path class="st0" d="M1122.57,772.2c1.12-1.01,2.89-2.71,3.97-3.77"/>
	<path class="st0" d="M1120.45,762.84c-0.83,0.87-2.3,2.37-3.15,3.22"/>
	<path class="st0" d="M907.38,582.71c4.38,8.05,17.69,26.25,22.82,33.88"/>
	<path class="st0" d="M991.34,624.86c-1.89,0.69-15.3,5.77-16.53,8.16"/>
	<path class="st0" d="M975.17,633.27c-0.15-0.04-0.26-0.11-0.35-0.24"/>
	<path class="st0" d="M998.56,623.36c-2.57-0.02-4.87,0.62-7.22,1.5"/>
	<path class="st0" d="M997.72,577.3c-4.54-0.49-9.04-1.16-13.53-2.03"/>
	<path class="st0" d="M893.72,561.88c28.6,9.24,70.8,22.32,101.35,24.78"/>
	<path class="st0" d="M984.19,575.26c-2.32-0.45-4.63-0.96-6.94-1.49c-2.31-0.55-4.63-1.13-6.93-1.75
		c-5.18-1.39-10.31-2.96-15.41-4.63c-6.64-2.17-13.23-4.5-19.81-6.87c-10.61-3.82-21.47-7.86-32.04-11.81"/>
	<path class="st0" d="M893.47,562.56c-0.22-0.33,0.08-0.47,0.24-0.69"/>
	<path class="st0" d="M903.33,576.33c-3.36-4.53-6.65-9.12-9.86-13.76"/>
	<path class="st0" d="M974.79,633.04c-1.6-1.76-3.23-3.5-4.89-5.22c-1.52-1.56-3.07-3.09-4.66-4.58c-2.94-2.76-6.02-5.36-9.25-7.77
		c-3.66-2.74-7.51-5.23-11.46-7.52c-1.98-1.15-3.98-2.26-6.01-3.33c-4.58-2.44-9.25-4.72-13.8-7.22c-2.38-1.3-4.72-2.67-6.97-4.19
		c-2.19-1.48-4.3-3.11-6.16-4.99c-1.64-1.64-3.09-3.47-4.22-5.51"/>
	<path class="st0" d="M1012.91,677.34c-1.13,0.56-8.52,4.25-10.1,3.96"/>
	<path class="st0" d="M998.56,623.36c2.62,0.02,5.2,0.7,7.56,1.82c2.45,1.16,4.66,2.81,6.56,4.73c2.12,2.15,3.86,4.64,5.27,7.31
		c1.51,2.83,2.65,5.87,3.44,8.98c0.87,3.46,1.32,7.02,1.32,10.59c0.01,3.2-0.35,6.4-1.2,9.48c-0.7,2.52-1.73,4.98-3.33,7.04
		c-0.65,0.84-1.4,1.62-2.25,2.26c-0.93,0.71-1.96,1.26-3.01,1.77"/>
	<path class="st0" d="M1002.81,681.3c0,0-0.05-0.02-0.07-0.03"/>
	<path class="st0" d="M1110.59,774.37c4.58-2.5,8.61-5.56,12.46-9.04"/>
	<path class="st0" d="M1108.14,774.21c0.11,0.06,0.21,0.11,0.32,0.16c0.11,0.05,0.23,0.09,0.35,0.13c0.22,0.07,0.45,0.12,0.68,0.14
		c0.38,0.03,0.77-0.06,1.11-0.26"/>
	<path class="st0" d="M987,628.33c0.88-0.19,1.79-0.27,2.69-0.19c0.91,0.08,1.82,0.31,2.67,0.65c2.03,0.79,3.79,2.14,5.3,3.7
		c1.82,1.89,3.31,4.08,4.5,6.42c1.32,2.57,2.28,5.32,2.95,8.13c0.72,3.05,1.08,6.18,1.11,9.32c0.04,3.14-0.25,6.29-0.94,9.35
		c-0.3,1.32-0.67,2.63-1.14,3.89c-0.42,1.1-0.92,2.17-1.53,3.17c-0.51,0.82-1.1,1.6-1.8,2.26c-0.7,0.68-1.51,1.24-2.35,1.73"/>
	<path class="st0" d="M988.37,676.02c1.67-0.92,3.33-1.88,4.95-2.91"/>
	<path class="st0" d="M981.91,634.64c-1.95,0.82-3.85,1.71-5.73,2.69"/>
	<line class="st0" x1="986.83" y1="676.78" x2="986.88" y2="676.79"/>
	<path class="st0" d="M972.29,639.93c-0.17,0.22-0.19,0.4-0.06,0.64"/>
	<path class="st0" d="M976.18,637.32c-0.51,0.27-1.01,0.54-1.52,0.83c-0.38,0.22-0.75,0.45-1.12,0.69
		c-0.27,0.18-0.53,0.37-0.78,0.58c-0.17,0.15-0.34,0.31-0.47,0.5"/>
	<path class="st0" d="M986.88,676.79c0.49-0.27,0.99-0.5,1.49-0.76"/>
	<path class="st0" d="M993.68,679.48c-0.45,0.23-0.91,0.45-1.38,0.65"/>
	<path class="st0" d="M998.45,676.77c-1.56,0.96-3.15,1.86-4.77,2.71"/>
	<path class="st0" d="M1071.43,698c4.74,7.22,9.51,14.41,14.42,21.52c3.87,5.6,7.81,11.14,11.89,16.58
		c3.53,4.72,7.16,9.36,10.95,13.87c3.15,3.75,6.4,7.41,9.83,10.92c3.07,3.14,6.27,6.16,9.69,8.92c1.53,1.23,3.1,2.4,4.74,3.48
		c1.3,0.86,2.64,1.65,4.04,2.35c1.14,0.56,2.33,1.06,3.56,1.4c0.98,0.27,1.98,0.45,2.99,0.42c0.8-0.03,1.6-0.18,2.3-0.56
		c0.64-0.35,1.2-0.88,1.58-1.5"/>
	<path class="st0" d="M996.34,587.63c11.61,12.72,21.49,26.52,30.87,40.87"/>
	<path class="st0" d="M1046.74,571.98c-1.59,0.55-2.79,0.99-4.42,1.46c-1.66,0.48-6.23,1.58-7.93,1.88"/>
	<path class="st0" d="M1064.11,557.21c1.29,9.09-9.99,12.95-16.04,15.06"/>
	<path class="st0" d="M1048.07,572.28c-14.23,4.99-28.1,6.44-43.04,5.62"/>
	<path class="st0" d="M1005.03,577.89c-2.13-0.12-4.25-0.29-6.38-0.5"/>
	<path class="st0" d="M1060.88,548.39c1.42,2.84,2.77,5.58,3.23,8.82"/>
	<path class="st0" d="M1034.37,502.92c3.25,5.39,6.48,10.8,9.7,16.22c3.03,5.1,6.04,10.2,9.03,15.32c1.62,2.79,3.23,5.57,4.8,8.38
		c1.03,1.83,2.03,3.68,2.98,5.55"/>
	<line class="st0" x1="998.66" y1="577.39" x2="996" y2="586.74"/>
	<path class="st0" d="M996,586.74c5.89,0.44,11.81,0.55,17.7,0.23c5.11-0.28,10.2-0.88,15.24-1.8c5.73-1.05,11.37-2.51,16.93-4.2
		c3.07-0.94,6.12-1.94,9.14-3.02c2.58-0.92,5.13-1.9,7.64-3c1.35-0.59,2.69-1.22,3.98-1.94c1.04-0.58,2.06-1.21,2.99-1.95
		c0.74-0.58,1.43-1.23,1.99-1.98c0.47-0.62,0.86-1.31,1.11-2.05c0.3-0.85,0.41-1.77,0.4-2.68c-0.01-0.95-0.17-1.89-0.41-2.81
		c-0.27-1.01-0.62-1.99-1.02-2.94c-0.62-1.48-1.36-2.92-2.12-4.34"/>
	<path class="st0" d="M995.94,587.16c0.01-0.14,0.03-0.28,0.06-0.42"/>
	<path class="st1" d="M1115.94,794.86c-9.84,0.76-19.4-2.66-27.72-7.26c-18.66-10.35-34.53-28.67-46.82-45.12
		c-13.58-18.29-25.82-38.37-37.16-58.05c-0.58-0.99-2.51-4.12-3.08-5.11l-8.78,0.8l-0.07,0.01c-2.98,0.48-4.5-0.46-5.42-3.34h-0.06
		c-4.08-12.42-9.07-24.38-14.61-36.21l-0.09-0.2c-0.56-1.23-1.03-2.29-0.56-3.73l1.75-2.19c-2.32-2.97-6.78-8.18-9.99-10.36"/>
	<path class="st1" d="M1043.18,509.55c4.54,8.01,9.19,15.96,13.94,23.86c2.49,4.1,5.34,8.18,7.82,12.28l2.96,4.72
		c3.13,5.01,3.87,5.93,7.18,10.83c9.69,14.27,19.03,28.71,27.53,43.74l0.11,0.2c10.22,18.07,19.89,36.42,29.24,54.94l0.16,0.33
		c9.15,18.15,18.17,35.89,22.52,56.18c4.04,18.91,3.76,41.32-7.23,58.78l-1.05,1.43c-3.76,4.98-8.59,9.47-14.12,12.73"/>
	<line class="st0" x1="1034.72" y1="503.18" x2="1034.42" y2="502.96"/>
	<path class="st0" d="M1043.35,509.85c0.02-0.15-0.03-0.24-0.17-0.31"/>
	<path class="st0" d="M995.94,587.16c0.13,0.16,0.27,0.32,0.4,0.47"/>
	<path class="st0" d="M1027.2,628.5c7.51,11.5,14.69,23.2,21.99,34.83c7.3,11.64,14.71,23.19,22.24,34.67"/>
	<path class="st0" d="M1117.84,426.38c-0.01,0.02-0.01,0.03-0.01,0.03"/>
	<path class="st0" d="M1110.54,425.41c1.65-3.26,3.11-6.61,4.22-10.09c0.95-2.96,1.64-6.01,1.91-9.11c0.23-2.65,0.15-5.34-0.42-7.94
		c-0.52-2.35-1.44-4.61-2.77-6.61c-1.33-2.01-3.07-3.75-5.04-5.15c-2.19-1.56-4.66-2.71-7.22-3.57c-3-1-6.12-1.6-9.25-1.94
		c-3.66-0.39-7.34-0.44-11.01-0.26"/>
	<path class="st0" d="M1043.44,509.59c-0.11,0.03-0.18,0.02-0.28-0.04"/>
	<path class="st0" d="M1032.71,504.4c-0.02,0.06-0.04,0.12-0.04,0.12"/>
	<path class="st0" d="M1034.72,503.18c3.41-2.13,6.71-4.42,9.94-6.82c3.96-2.93,7.79-6.02,11.56-9.2
		c8.57-7.23,16.78-14.9,24.61-22.94c6.15-6.32,12.06-12.87,17.45-19.85c4.56-5.91,8.72-12.13,12.15-18.76"/>
	<path class="st0" d="M1110.43,425.62c0.03-0.07,0.07-0.13,0.1-0.21"/>
	<line class="st0" x1="1043.16" y1="509.54" x2="1034.72" y2="503.18"/>
	<path class="st0" d="M1043.16,509.54c22.66-20.71,60.13-53.99,74.66-83.12"/>
	<path class="st0" d="M887.31,506.89c-4.4,8.49-7.82,18.57-6.85,28.52c1.05,10.81,6.55,18.38,12.33,26.64"/>
	<path class="st0" d="M892.78,562.06c3.36,4.84,6.86,9.57,10.5,14.2"/>
	<path class="st0" d="M893.73,561.86c-0.27,0.41-0.54,0.47-0.95,0.2"/>
	<path class="st0" d="M902.98,549.31c0.32-0.57-0.07-1.25-0.72-1.54"/>
	<path class="st0" d="M902.26,547.77c-1.83-0.12-3.52-0.51-5.22-1.19"/>
	<path class="st0" d="M890.44,503.8c-4.38,8.44-9.52,21.37-8.61,31.31c0.98,10.72,6.19,18.43,11.9,26.74"/>
	<path class="st0" d="M891.17,502.72c-1.38,2.73-2.6,5.54-3.61,8.44c-0.87,2.5-1.59,5.04-2.05,7.64c-0.45,2.47-0.67,4.99-0.58,7.49
		c0.07,2.15,0.38,4.31,0.92,6.4c0.58,2.27,1.44,4.47,2.57,6.52c1.1,1.98,2.46,3.82,4.11,5.4c1.45,1.39,3.11,2.58,4.97,3.39
		c1.73,0.75,3.61,1.17,5.48,1.32c0,0-2.81,3.37-4.57,6.03c-1.77,2.65-4.68,6.08-4.68,6.08"/>
	<path class="st0" d="M887.32,506.86c2.92-5.61,6.37-10.94,10.12-16.02c4.36-5.93,9.13-11.54,14.13-16.93
		c5.59-6,11.49-11.72,17.6-17.19c6.57-5.87,13.39-11.46,20.4-16.79c14.6-11.11,30.04-21.13,46.12-29.98
		c7.81-4.3,15.76-8.31,23.88-11.99c7.61-3.44,15.36-6.59,23.23-9.35"/>
	<path class="st0" d="M1117.84,426.38c1.72-3.45,3.22-7.02,4.34-10.71c0.95-3.13,1.62-6.35,1.82-9.62c0.17-2.79-0.02-5.62-0.73-8.33
		c-0.66-2.44-1.75-4.8-3.26-6.83c-1.54-2.08-3.53-3.83-5.71-5.23c-2.49-1.59-5.24-2.72-8.08-3.53c-3.34-0.96-6.8-1.48-10.27-1.74
		c-4.06-0.29-8.13-0.21-12.19,0.1"/>
	<path class="st0" d="M1124.97,409.47c0.6-3.41,0.84-6.92,0.33-10.34c-0.44-3-1.45-5.94-3.08-8.47c-1.64-2.54-3.89-4.67-6.44-6.32
		c-2.91-1.9-6.2-3.15-9.58-4.01c-4.08-1.03-8.27-1.49-12.47-1.59c-5.02-0.14-10.04,0.22-15.02,0.88c-5.77,0.75-11.49,1.9-17.13,3.32
		c-6.34,1.59-12.59,3.52-18.76,5.67"/>
	<path class="st0" d="M1028.7,354.94c-1.57,0.55-3.14,1.12-4.69,1.71"/>
	<path class="st0" d="M1010.21,338.62c1.56-0.59,3.12-1.15,4.69-1.71"/>
	<path class="st0" d="M1019.72,342.2c-2.1,0.74-4.2,1.5-6.27,2.3c-0.58,0.22-1.17,0.45-1.66,0.83c-0.39,0.28-0.71,0.64-0.89,1.07
		c-0.19,0.43-0.23,0.91-0.16,1.37c0.09,0.52,0.34,1,0.66,1.41c0.74,0.96,1.87,1.59,3.06,1.83c0.57,0.11,1.15,0.15,1.72,0.07
		c0.65-0.09,1.28-0.31,1.89-0.55c2.07-0.8,4.17-1.57,6.27-2.31c2.05-0.71,5.74-2.09,7.82-2.74c0.36-0.24,0.68-0.58,0.86-0.98
		c0.19-0.41,0.23-0.89,0.15-1.34c-0.1-0.51-0.34-0.98-0.66-1.39c-0.74-0.96-1.83-1.59-3-1.88c-0.57-0.14-1.15-0.2-1.73-0.16
		c-0.63,0.05-1.25,0.21-1.85,0.41C1023.84,340.79,1021.78,341.48,1019.72,342.2z"/>
	<path class="st0" d="M1028.7,354.94c1.54-0.54,3.09-1.06,4.65-1.57c0.98-0.31,1.97-0.64,2.92-1.05c0.69-0.3,1.36-0.63,1.98-1.06
		c1.1-0.76,2.03-1.79,2.56-3.01c0.57-1.28,0.7-2.75,0.46-4.14c-0.27-1.54-0.99-2.98-1.94-4.23c-1.03-1.34-2.34-2.46-3.79-3.34
		c-1.56-0.96-3.29-1.65-5.09-2.06c-1.73-0.4-3.51-0.54-5.27-0.4c-0.88,0.07-1.76,0.21-2.62,0.4c-1.02,0.23-2.01,0.54-3.01,0.86
		c-1.55,0.51-3.1,1.03-4.65,1.57l-4.7,1.71c-1.73,0.66-3.46,1.32-4.96,2.41c-1.11,0.81-2.08,1.85-2.63,3.09
		c-0.54,1.23-0.66,2.67-0.42,4c0.28,1.51,1.02,2.92,1.96,4.15c1.11,1.45,2.5,2.64,4.04,3.6c1.59,0.98,3.34,1.71,5.16,2.11
		c1.66,0.36,3.39,0.46,5.08,0.24c0.84-0.11,1.67-0.29,2.48-0.52c1.05-0.29,2.06-0.68,3.08-1.06L1028.7,354.94z"/>
	<path class="st5" d="M1039.21,561.05c-0.15-0.38-0.49-0.73-0.95-1.03c-0.49-0.32-1.11-0.57-1.78-0.75c-0.73-0.2-1.53-0.34-2.36-0.4
		c-0.8-0.06-1.61-0.04-2.42,0.04c-0.4,0.04-0.8,0.1-1.19,0.18c-0.46,0.08-0.91,0.19-1.36,0.3c-0.7,0.17-1.4,0.35-2.1,0.53
		l-2.12,0.56c-0.78,0.22-1.57,0.43-2.24,0.75c-0.49,0.24-0.93,0.53-1.15,0.86c-0.23,0.33-0.27,0.7-0.13,1.03
		c0.15,0.38,0.5,0.72,0.96,1.01c0.53,0.34,1.18,0.61,1.9,0.81c0.74,0.22,1.55,0.35,2.4,0.41c0.76,0.04,1.55,0.03,2.32-0.08
		c0.38-0.05,0.75-0.11,1.13-0.2c0.47-0.1,0.93-0.23,1.39-0.35l2.12-0.56c0.7-0.18,1.4-0.35,2.11-0.53c0.45-0.11,0.89-0.21,1.33-0.35
		c0.31-0.09,0.61-0.2,0.88-0.32c0.49-0.22,0.9-0.51,1.13-0.84C1039.3,561.79,1039.34,561.41,1039.21,561.05 M1035.44,561.38
		c-0.08,0.11-0.22,0.2-0.38,0.28c-0.94,0.22-2.6,0.67-3.54,0.91c-0.95,0.24-1.89,0.49-2.83,0.75c-0.28,0.08-0.56,0.15-0.85,0.19
		c-0.27,0.04-0.53,0.04-0.79,0.03c-0.55-0.03-1.08-0.16-1.43-0.39c-0.15-0.1-0.27-0.21-0.32-0.34c-0.04-0.11-0.03-0.24,0.05-0.35
		c0.08-0.11,0.22-0.22,0.39-0.3c0.22-0.11,0.49-0.18,0.75-0.25c0.94-0.26,1.89-0.51,2.83-0.76c0.93-0.24,1.87-0.47,2.8-0.7
		c0.27-0.06,0.55-0.12,0.84-0.15c0.27-0.03,0.54-0.03,0.8-0.01c0.54,0.05,1.05,0.18,1.4,0.4c0.16,0.1,0.28,0.21,0.33,0.34
		C1035.53,561.14,1035.52,561.27,1035.44,561.38"/>
	<line class="st0" x1="887.31" y1="506.89" x2="887.32" y2="506.86"/>
	<path class="st0" d="M828.9,450.62c-0.09,0.2-0.12,0.4-0.11,0.62"/>
	<path class="st0" d="M993.55,324.73c0.1-0.02,0.19-0.02,0.29,0"/>
	<path class="st2" d="M897.53,492.76c2.16-0.59,4.31-1.21,6.45-1.86c0.66-0.21,5.12-1.75,5.77-1.97
		c17.92-6.27,34.84-14.24,51.38-23.48c16.44-9.19,32.23-19.53,47.18-30.98c7.17-5.5,14.15-11.25,20.87-17.3
		c3.2-2.88,6.34-5.82,9.41-8.83c2.87-2.81,6.61-6.7,9.34-9.65c3.94-4.43,7.68-8.99,11.17-13.79"/>
	<path class="st0" d="M888.14,537.43c3.5,3.93,9.7,8.34,13.86,10.29"/>
	<path class="st0" d="M1021.09,558.69c-0.06-0.04-0.11-0.04-0.18-0.02"/>
	<path class="st0" d="M1018.15,567.68c-0.65-0.19-1.29-0.45-1.88-0.78c-0.48-0.27-0.92-0.59-1.28-1c-0.3-0.33-0.54-0.72-0.64-1.15
		c-0.1-0.42-0.07-0.86,0.06-1.26c0.16-0.48,0.44-0.9,0.77-1.29c0.42-0.48,0.9-0.9,1.41-1.27c0.64-0.46,1.32-0.85,2.02-1.2
		c0.8-0.4,1.63-0.74,2.47-1.03"/>
	<path class="st0" d="M1018.47,567.78c-0.11-0.03-0.21-0.06-0.32-0.1"/>
	<path class="st0" d="M1038.85,566.15c-0.79,0.28-1.6,0.53-2.4,0.75c-0.93,0.25-1.87,0.47-2.81,0.67c-1.85,0.38-3.73,0.66-5.62,0.81
		c-1.74,0.14-3.49,0.18-5.24,0.06c-1.45-0.09-2.9-0.29-4.31-0.68"/>
	<path class="st0" d="M1044.14,558.79c2.3,1.44,1.96,3.15-0.04,4.72c-1.6,1.26-3.37,1.98-5.26,2.64"/>
	<line class="st0" x1="1043.95" y1="558.67" x2="1044.14" y2="558.79"/>
	<path class="st0" d="M1021.09,558.69c5.47-1.91,17.18-3.28,22.84-0.04"/>
	<path class="st0" d="M950.3,547.73c-0.06,3.67,4.26,5.85,6.92,6.81c3.33,1.2,6.64,1.63,10.14,1.67"/>
	<path class="st0" d="M967.36,556.21c3.87,0.05,7.52-0.4,11.23-1.61c2.86-0.93,7.77-3.13,8.55-6.81l0.1-0.96
		c-0.02-4.98-1.44-7.94-6.11-10.12c-4.08-1.91-8.06-2.29-12.44-2.13c-4.37,0.16-8.34,0.87-12.29,2.93
		c-1.96,1.02-3.56,2.16-4.78,4.09c-1.25,1.98-1.29,3.96-1.31,6.13"/>
	<path class="st0" d="M967.47,547.39c-2.66,0.01-5.15-0.27-7.67-1.22c-2.23-0.84-5.33-2.67-4.07-5.61
		c1.89-4.35,10.42-5.37,13.98-5.36"/>
	<path class="st0" d="M980.6,538.67c2.73,3.24-0.99,5.77-3.86,6.99c-3.03,1.29-6.02,1.73-9.26,1.73"/>
	<path class="st0" d="M969.71,535.21c3.08,0.01,8.54,0.68,10.88,3.46"/>
	<path class="st0" d="M928.7,532.58c-2.75,0.11-5.36-0.09-8.02-0.87c-2.06-0.61-5.74-2.12-5.69-5.01c0.05-2.77,3.6-4.53,5.58-5.27
		c2.59-0.97,5.18-1.4,7.92-1.51"/>
	<path class="st0" d="M939.5,538.45c-2.19,0.79-4.4,1.33-6.72,1.61"/>
	<path class="st0" d="M946.73,532.99c-0.34,0.73-0.78,1.35-1.35,1.92"/>
	<path class="st0" d="M947.16,531.08c0,0.6-0.11,1.15-0.33,1.71"/>
	<path class="st0" d="M947.07,530.25c0.02,0.12,0.04,0.24,0.06,0.36"/>
	<path class="st0" d="M941.16,523.59c2.56,3.14-0.76,5.69-3.53,6.99c-2.89,1.35-5.79,1.87-8.93,2"/>
	<path class="st0" d="M928.49,519.93c3.45-0.13,10.03,0.43,12.67,3.66"/>
	<path class="st0" d="M910.38,531.46c0.02-0.12,0.04-0.24,0.06-0.36"/>
	<path class="st0" d="M929.03,540.37c-1.18,0.04-2.35,0.02-3.53-0.05"/>
	<path class="st0" d="M932.79,540.07c-1.25,0.16-2.5,0.27-3.76,0.31"/>
	<path class="st0" d="M945.4,534.93c-1.7,1.76-3.67,2.71-5.89,3.53"/>
	<path class="st0" d="M946.83,532.79c-0.03,0.07-0.06,0.14-0.09,0.21"/>
	<path class="st0" d="M1020.01,508.61c0-0.26-0.01-0.52-0.04-0.78c-0.02-0.26-0.06-0.53-0.1-0.79c-0.1-0.52-0.24-1.03-0.42-1.53
		c-0.41-1.08-1-2.07-1.71-2.97"/>
	<path class="st0" d="M1012.99,496.49c1.12,0.45,2.22,0.95,3.3,1.5c1.01,0.51,2.01,1.08,2.97,1.69c1.7,1.09,3.31,2.33,4.69,3.81
		c1.18,1.25,2.2,2.66,2.9,4.23c0.62,1.4,0.98,2.92,0.98,4.45"/>
	<path class="st0" d="M956.18,503.36c-0.96,1.18-1.6,2.43-2.01,3.88"/>
	<path class="st0" d="M946.75,510.32c0.17-0.63,0.4-1.24,0.67-1.83c0.29-0.63,0.63-1.24,1.02-1.82c0.84-1.28,1.88-2.43,3-3.46
		c1.29-1.19,2.71-2.22,4.2-3.14c1.7-1.05,3.48-1.96,5.31-2.75"/>
	<path class="st0" d="M954.16,507.25c-0.24,0.92-0.34,1.87-0.28,2.81c0.07,0.96,0.32,1.9,0.68,2.78c0.86,2.06,2.37,3.78,4.09,5.21
		c2.2,1.83,4.73,3.19,7.37,4.28c3.13,1.29,6.41,2.2,9.73,2.82"/>
	<path class="st0" d="M975.77,525.15c1.45,0.27,2.91,0.48,4.37,0.64"/>
	<path class="st0" d="M1020.01,508.61c0,0.68-0.08,1.36-0.23,2.03c-0.16,0.69-0.4,1.35-0.69,1.99c-0.67,1.45-1.62,2.73-2.72,3.87
		c-1.28,1.33-2.77,2.46-4.34,3.44c-1.8,1.12-3.72,2.04-5.7,2.82"/>
	<path class="st0" d="M1006.33,522.76c-0.95,0.37-1.9,0.7-2.87,1c-1.01,0.32-2.03,0.6-3.07,0.84c-2.15,0.52-4.34,0.9-6.54,1.15
		c-4.55,0.52-9.16,0.53-13.71,0.04"/>
	<path class="st0" d="M1039.79,568.04c1.94-0.68,3.79-1.43,5.48-2.67c2-1.46,3.26-3.04,0.96-4.92"/>
	<path class="st0" d="M1039.79,568.04c-6.1,2.13-16.28,3.72-22.84,1.65"/>
	<path class="st0" d="M949.58,550.39c-0.02-0.33-0.01-0.66,0.05-0.99"/>
	<path class="st0" d="M949.64,549.4c0.12-0.66,0.34-1.23,0.69-1.8"/>
	<path class="st0" d="M987.25,547.8c0.43,0.7,0.67,1.41,0.73,2.23"/>
	<path class="st0" d="M987.98,550.03c0.27,3.59-3.84,5.95-6.4,7.02c-3.2,1.33-6.42,1.95-9.85,2.15"/>
	<path class="st0" d="M971.73,559.19c-4.73,0.34-9.16-0.09-13.71-1.49"/>
	<path class="st0" d="M958.02,557.7c-2.91-0.94-8.19-3.32-8.43-7.31"/>
	<path class="st0" d="M1016.56,569.56c0.13,0.05,0.27,0.09,0.4,0.13"/>
	<path class="st0" d="M1013.89,563.58c-2.55,2.75-0.28,4.96,2.66,5.98"/>
	<path class="st0" d="M978.54,533.01c-1.8-0.19-3.58-0.45-5.36-0.77"/>
	<path class="st0" d="M1027.83,512.16c0.01,1.6-0.38,3.18-1.03,4.65c-0.74,1.66-1.82,3.15-3.05,4.48c-1.44,1.55-3.1,2.89-4.88,4.05
		c-2.02,1.33-4.18,2.43-6.41,3.37c-5.1,2.16-10.53,3.46-16.03,4.15c-5.94,0.75-11.95,0.8-17.9,0.16"/>
	<path class="st0" d="M947.17,531.66c0.13,0.22,0.25,0.44,0.35,0.68"/>
	<path class="st0" d="M910.36,531.23c-1.86,3.02-0.18,5.87,2.27,7.74c2.5,1.9,5.19,2.82,8.16,3.53l0.75,0.17
		c5.49,1.16,10.62,1.1,16.08-0.12c2.71-0.6,5.13-1.49,7.38-3.2c2.2-1.67,3.81-4.14,2.51-7.01"/>
	<path class="st0" d="M973.18,532.24c-2.1-0.38-4.2-0.87-6.25-1.46c-1.93-0.56-3.82-1.21-5.68-1.98c-3.23-1.34-6.34-3.01-9.02-5.25
		c-1.11-0.92-2.15-1.94-3.04-3.08c-0.8-1.01-1.47-2.12-1.96-3.31c-0.45-1.08-0.74-2.23-0.82-3.4c-0.08-1.15,0.04-2.33,0.35-3.45"/>
	<path class="st0" d="M1003.32,513.43c14.22-4.98,16.7-16,2.12-22.08"/>
	<path class="st0" d="M969.14,491.35c-14.46,6.17-12.19,17.03,2.02,22.04c9.65,3.41,22.52,3.42,32.16,0.04"/>
	<path class="st0" d="M1034.39,575.31c-10.2,2.02-20.2,2.43-30.54,1.63"/>
	<path class="st0" d="M943.54,562.48c-5.21-1.86-33.25-12.41-38.45-14.29"/>
	<path class="st0" d="M1003.85,576.94c-21.16-1.53-40.59-7.65-60.32-14.46"/>
	<path class="st0" d="M967.57,510.15c-8.15-5.82-3.97-12.61,4.07-16.05"/>
	<path class="st0" d="M1005.23,511.26c6.9-3.86,8.65-10.01,1.77-14.92"/>
	<path class="st0" d="M967.57,510.15c0.43,0.31,0.87,0.59,1.32,0.86"/>
	<path class="st0" d="M1007,496.34c-1.28-0.9-2.63-1.64-4.08-2.25"/>
	<path class="st0" d="M1002.1,512.56c12.66-4.44,15.59-14.32,2.56-20.13"/>
	<path class="st0" d="M969.91,492.42c-13.13,5.97-10,15.83,2.78,20.21c8.86,3.03,20.57,3.02,29.41-0.08"/>
	<path class="st0" d="M905.08,548.19c-6.97-3.44-13.14-7.22-18.17-13.45"/>
	<path class="st1" d="M965.36,625.69c-1.54,0.36-3.07,0.74-4.61,1.13c-3.89,0.98-7.95,1.49-11.95,1.2c-1.8-0.12-3.6-0.42-5.36-0.92
		c-1.72-0.48-3.4-1.15-4.98-2c-3.33-1.78-6.2-4.31-8.78-7.08c0,0-15.39-3.31-19.27-7.21c-3.88-3.9-4.08-7.22-4.8-17.6
		c-0.77-10.86-7.73-22.83-7.73-22.83c-13.44-16.5-33.21-22.63-48.48-35.97c-17.25-15.06-26.83-35.38-27.39-58.29h0.02
		c-0.2-8.52,3.1-17.57,6.77-24.89c3.01-5.98,6.61-11.64,10.52-17.07c4.57-6.33,9.57-12.32,14.84-18.07
		c5.9-6.43,12.14-12.54,18.61-18.39c6.97-6.29,14.2-12.28,21.65-18c7.75-5.93,15.71-11.56,23.88-16.91
		c8.2-5.37,16.6-10.44,25.17-15.18c8.34-4.61,16.84-8.91,25.51-12.85c8.14-3.7,16.43-7.08,24.87-10.04
		c14.35-5.03,28.62-8.91,43.92-10.12v-0.03c29.9-2.31,56.53,8.82,74.11,33.76c12.07,17.14,16.68,37.88,13.53,58.51l-0.44,2.62
		c-1.08,5.89-3.16,11.23-5.81,16.55l-0.04,0.07c-14.67,29.34-52.78,62.76-75.65,83.5"/>
	<line class="st0" x1="1001.16" y1="678.12" x2="1015.1" y2="676.42"/>
	<path class="st0" d="M910.44,531.31c-0.21,3.67,3.57,6,5.9,7.06c2.92,1.33,6.04,1.78,9.16,1.96"/>
	<path class="st6" d="M425.03,850.56c0,0,16.73-21.66,28.54-43.22c11.8-21.56,20.58-41.28,20.58-41.28l13.44,11.26
		c0,0-1.2,4.03-21.1,42.39c-19.87,38.31-27.79,46.12-27.79,46.12"/>
	<path class="st7" d="M427.82,852.79c0,0,21.8-29.93,28.49-42.94c6.69-13.02,20.29-40.99,20.29-40.99"/>
	<path class="st6" d="M1170.11,850.56c0,0-16.73-21.66-28.53-43.22c-11.81-21.56-20.58-41.28-20.58-41.28l-13.44,11.26
		c0,0,1.2,4.03,21.1,42.39c19.87,38.31,27.79,46.12,27.79,46.12"/>
	<path class="st7" d="M1167.32,852.79c0,0-21.79-29.93-28.49-42.94c-6.69-13.02-19.31-38.85-19.31-38.85"/>
</g>
<g id="Lines" class="st8">
	<polyline class="st9" points="603.5,485.5 603.5,457.5 392.5,457.5 	"/>
	<polyline class="st9" points="621.21,565.5 621.21,816 365,816 	"/>
	<polyline class="st9" points="664,548 664,901 365,901 	"/>
	<polyline class="st9" points="967.79,565.5 967.79,816 1240,816 	"/>
	<polyline class="st9" points="929,548 929,901 1240,901 	"/>
	<polyline class="st9" points="701.26,587.5 790.76,587.5 889.26,587.5 	"/>
	<polyline class="st9" points="1052,561.5 1141.5,561.5 1240,561.5 	"/>
	<line class="st10" x1="795.26" y1="637.75" x2="795.26" y2="587.75"/>
</g>
<g id="Text" class="st8">
	<text transform="matrix(1 0 0 1 276.3999 459.002)" class="st11 st12 st13">Thumbstick</text>
	<text transform="matrix(1 0 0 1 277.3999 482.002)" class="st14 st12 st13">Scroll</text>
	<text transform="matrix(1 0 0 1 1264.3999 563.002)" class="st11 st12 st13">Oculus button</text>
	<text transform="matrix(1 0 0 1 1265.3999 592.002)" class="st14"><tspan x="0" y="0" class="st12 st13">Press to hide  </tspan><tspan x="0" y="21.6" class="st12 st13">Universal Menu</tspan></text>
	<text transform="matrix(1 0 0 1 1265.3999 644.002)" class="st14 st12 st13">Hold to reset view</text>
	<text transform="matrix(1 0 0 1 760.6177 668.002)" class="st11 st12 st13">Triggers</text>
	<text transform="matrix(1 0 0 1 770.2393 691.002)" class="st14 st12 st13">Select</text>
	<text transform="matrix(1 0 0 1 276.3999 818.002)" class="st11 st12 st13">X button</text>
	<text transform="matrix(1 0 0 1 277.3999 841.002)" class="st14 st12 st13">Select</text>
	<text transform="matrix(1 0 0 1 276.3999 903.002)" class="st11 st12 st13">Y button</text>
	<text transform="matrix(1 0 0 1 277.3999 926.002)" class="st14 st12 st13">Back</text>
	<text transform="matrix(1 0 0 1 1264.3999 818.002)" class="st11 st12 st13">A button</text>
	<text transform="matrix(1 0 0 1 1265.3999 841.002)" class="st14 st12 st13">Select</text>
	<text transform="matrix(1 0 0 1 1264.3999 904.002)" class="st11 st12 st13">B button</text>
	<text transform="matrix(1 0 0 1 1265.3999 927.002)" class="st14 st12 st13">Back</text>
</g>
</svg>
