<?xml version="1.0" encoding="UTF-8" standalone="no"?>
<!DOCTYPE svg PUBLIC "-//W3C//DTD SVG 1.1//EN"
 "http://www.w3.org/Graphics/SVG/1.1/DTD/svg11.dtd">
<!-- Generated by graphviz version 2.44.1 (20200629.0800)
 -->
<!-- Title: MercuryMessaging.StandardLibrary.Animation.InterpolatorMatrix Pages: 1 -->
<svg width="175pt" height="170pt"
 viewBox="0.00 0.00 175.00 170.00" xmlns="http://www.w3.org/2000/svg" xmlns:xlink="http://www.w3.org/1999/xlink">
<g id="graph0" class="graph" transform="scale(1 1) rotate(0) translate(4 166)">
<title>MercuryMessaging.StandardLibrary.Animation.InterpolatorMatrix</title>
<!-- Node1 -->
<g id="Node000001" class="node">
<title>Node1</title>
<g id="a_Node000001"><a xlink:title=" ">
<polygon fill="#999999" stroke="#666666" points="155,-41 12,-41 12,0 155,0 155,-41"/>
<text text-anchor="start" x="20" y="-29" font-family="Helvetica,sans-Serif" font-size="10.00">MercuryMessaging.Standard</text>
<text text-anchor="start" x="20" y="-18" font-family="Helvetica,sans-Serif" font-size="10.00">Library.Animation.Interpolator</text>
<text text-anchor="middle" x="83.5" y="-7" font-family="Helvetica,sans-Serif" font-size="10.00">Matrix</text>
</a>
</g>
</g>
<!-- Node2 -->
<g id="Node000002" class="node">
<title>Node2</title>
<g id="a_Node000002"><a xlink:href="class_mercury_messaging_1_1_standard_library_1_1_animation_1_1_interpolator-1-g.html" target="_top" xlink:title=" ">
<polygon fill="white" stroke="#666666" points="167,-107 0,-107 0,-77 167,-77 167,-107"/>
<text text-anchor="start" x="8" y="-95" font-family="Helvetica,sans-Serif" font-size="10.00">MercuryMessaging.Standard</text>
<text text-anchor="middle" x="83.5" y="-84" font-family="Helvetica,sans-Serif" font-size="10.00">Library.Animation.Interpolator&lt; T &gt;</text>
</a>
</g>
</g>
<!-- Node2&#45;&gt;Node1 -->
<g id="edge1_Node000001_Node000002" class="edge">
<title>Node2&#45;&gt;Node1</title>
<g id="a_edge1_Node000001_Node000002"><a xlink:title=" ">
<path fill="none" stroke="#63b8ff" d="M83.5,-66.91C83.5,-58.47 83.5,-49.1 83.5,-41.07"/>
<polygon fill="#63b8ff" stroke="#63b8ff" points="80,-66.94 83.5,-76.94 87,-66.94 80,-66.94"/>
</a>
</g>
</g>
<!-- Node3 -->
<g id="Node000003" class="node">
<title>Node3</title>
<g id="a_Node000003"><a xlink:title=" ">
<polygon fill="white" stroke="#666666" points="125,-162 42,-162 42,-143 125,-143 125,-162"/>
<text text-anchor="middle" x="83.5" y="-150" font-family="Helvetica,sans-Serif" font-size="10.00">MonoBehaviour</text>
</a>
</g>
</g>
<!-- Node3&#45;&gt;Node2 -->
<g id="edge2_Node000002_Node000003" class="edge">
<title>Node3&#45;&gt;Node2</title>
<g id="a_edge2_Node000002_Node000003"><a xlink:title=" ">
<path fill="none" stroke="#63b8ff" d="M83.5,-132.65C83.5,-124.36 83.5,-114.78 83.5,-107.11"/>
<polygon fill="#63b8ff" stroke="#63b8ff" points="80,-132.87 83.5,-142.87 87,-132.87 80,-132.87"/>
</a>
</g>
</g>
</g>
</svg>
