<?xml version="1.0" encoding="UTF-8" standalone="no"?>
<!DOCTYPE svg PUBLIC "-//W3C//DTD SVG 1.1//EN"
 "http://www.w3.org/Graphics/SVG/1.1/DTD/svg11.dtd">
<!-- Generated by graphviz version 2.44.1 (20200629.0800)
 -->
<!-- Title: MercuryMessaging.StandardLibrary.Animation.MaterialChanger&lt; T, TI &gt; Pages: 1 -->
<svg width="485pt" height="86pt"
 viewBox="0.00 0.00 485.00 86.00" xmlns="http://www.w3.org/2000/svg" xmlns:xlink="http://www.w3.org/1999/xlink">
<g id="graph0" class="graph" transform="scale(1 1) rotate(0) translate(4 82)">
<title>MercuryMessaging.StandardLibrary.Animation.MaterialChanger&lt; T, TI &gt;</title>
<!-- Node1 -->
<g id="Node000001" class="node">
<title>Node1</title>
<g id="a_Node000001"><a xlink:title=" ">
<polygon fill="#999999" stroke="#666666" points="285,-59.5 119,-59.5 119,-18.5 285,-18.5 285,-59.5"/>
<text text-anchor="start" x="127" y="-47.5" font-family="Helvetica,sans-Serif" font-size="10.00">MercuryMessaging.Standard</text>
<text text-anchor="start" x="127" y="-36.5" font-family="Helvetica,sans-Serif" font-size="10.00">Library.Animation.MaterialChanger</text>
<text text-anchor="middle" x="202" y="-25.5" font-family="Helvetica,sans-Serif" font-size="10.00">&lt; T, TI &gt;</text>
</a>
</g>
</g>
<!-- Node3 -->
<g id="Node000003" class="node">
<title>Node3</title>
<g id="a_Node000003"><a xlink:href="class_mercury_messaging_1_1_standard_library_1_1_animation_1_1_alpha_changer.html" target="_top" xlink:title=" ">
<polygon fill="white" stroke="#666666" points="477,-78 321,-78 321,-48 477,-48 477,-78"/>
<text text-anchor="start" x="329" y="-66" font-family="Helvetica,sans-Serif" font-size="10.00">MercuryMessaging.Standard</text>
<text text-anchor="middle" x="399" y="-55" font-family="Helvetica,sans-Serif" font-size="10.00">Library.Animation.AlphaChanger</text>
</a>
</g>
</g>
<!-- Node1&#45;&gt;Node3 -->
<g id="edge2_Node000001_Node000003" class="edge">
<title>Node1&#45;&gt;Node3</title>
<g id="a_edge2_Node000001_Node000003"><a xlink:title=" ">
<path fill="none" stroke="#63b8ff" d="M295.2,-50.35C303.82,-51.41 312.48,-52.47 320.94,-53.52"/>
<polygon fill="#63b8ff" stroke="#63b8ff" points="295.49,-46.86 285.13,-49.11 294.63,-53.8 295.49,-46.86"/>
</a>
</g>
</g>
<!-- Node4 -->
<g id="Node000004" class="node">
<title>Node4</title>
<g id="a_Node000004"><a xlink:href="class_mercury_messaging_1_1_standard_library_1_1_animation_1_1_color_changer.html" target="_top" xlink:title=" ">
<polygon fill="white" stroke="#666666" points="476,-30 322,-30 322,0 476,0 476,-30"/>
<text text-anchor="start" x="330" y="-18" font-family="Helvetica,sans-Serif" font-size="10.00">MercuryMessaging.Standard</text>
<text text-anchor="middle" x="399" y="-7" font-family="Helvetica,sans-Serif" font-size="10.00">Library.Animation.ColorChanger</text>
</a>
</g>
</g>
<!-- Node1&#45;&gt;Node4 -->
<g id="edge3_Node000001_Node000004" class="edge">
<title>Node1&#45;&gt;Node4</title>
<g id="a_edge3_Node000001_Node000004"><a xlink:title=" ">
<path fill="none" stroke="#63b8ff" d="M295.18,-27.65C304.12,-26.56 313.11,-25.45 321.87,-24.37"/>
<polygon fill="#63b8ff" stroke="#63b8ff" points="294.63,-24.2 285.13,-28.89 295.49,-31.14 294.63,-24.2"/>
</a>
</g>
</g>
<!-- Node2 -->
<g id="Node000002" class="node">
<title>Node2</title>
<g id="a_Node000002"><a xlink:title=" ">
<polygon fill="white" stroke="#666666" points="83,-48.5 0,-48.5 0,-29.5 83,-29.5 83,-48.5"/>
<text text-anchor="middle" x="41.5" y="-36.5" font-family="Helvetica,sans-Serif" font-size="10.00">MonoBehaviour</text>
</a>
</g>
</g>
<!-- Node2&#45;&gt;Node1 -->
<g id="edge1_Node000001_Node000002" class="edge">
<title>Node2&#45;&gt;Node1</title>
<g id="a_edge1_Node000001_Node000002"><a xlink:title=" ">
<path fill="none" stroke="#63b8ff" d="M93.35,-39C101.48,-39 110.08,-39 118.73,-39"/>
<polygon fill="#63b8ff" stroke="#63b8ff" points="93.32,-35.5 83.32,-39 93.32,-42.5 93.32,-35.5"/>
</a>
</g>
</g>
</g>
</svg>
