<?xml version="1.0" encoding="UTF-8" standalone="no"?>
<!DOCTYPE svg PUBLIC "-//W3C//DTD SVG 1.1//EN"
 "http://www.w3.org/Graphics/SVG/1.1/DTD/svg11.dtd">
<!-- Generated by graphviz version 2.44.1 (20200629.0800)
 -->
<!-- Title: MercuryMessaging.Data.DataCollectionBuilder Pages: 1 -->
<svg width="254pt" height="204pt"
 viewBox="0.00 0.00 253.50 204.00" xmlns="http://www.w3.org/2000/svg" xmlns:xlink="http://www.w3.org/1999/xlink">
<g id="graph0" class="graph" transform="scale(1 1) rotate(0) translate(4 200)">
<title>MercuryMessaging.Data.DataCollectionBuilder</title>
<!-- Node1 -->
<g id="Node000001" class="node">
<title>Node1</title>
<g id="a_Node000001"><a xlink:title="Fluent builder for configuring MmDataCollector instances.">
<polygon fill="#999999" stroke="#666666" points="180.5,-30 34.5,-30 34.5,0 180.5,0 180.5,-30"/>
<text text-anchor="start" x="42.5" y="-18" font-family="Helvetica,sans-Serif" font-size="10.00">MercuryMessaging.Data.Data</text>
<text text-anchor="middle" x="107.5" y="-7" font-family="Helvetica,sans-Serif" font-size="10.00">CollectionBuilder</text>
</a>
</g>
</g>
<!-- Node2 -->
<g id="Node000002" class="node">
<title>Node2</title>
<g id="a_Node000002"><a xlink:href="class_mercury_messaging_1_1_data_1_1_mm_data_collector.html" target="_top" xlink:title="The MmDataCollector stores a collection of MmDataCollectionItems.">
<polygon fill="white" stroke="#666666" points="178.5,-113 36.5,-113 36.5,-83 178.5,-83 178.5,-113"/>
<text text-anchor="start" x="44.5" y="-101" font-family="Helvetica,sans-Serif" font-size="10.00">MercuryMessaging.Data.Mm</text>
<text text-anchor="middle" x="107.5" y="-90" font-family="Helvetica,sans-Serif" font-size="10.00">DataCollector</text>
</a>
</g>
</g>
<!-- Node2&#45;&gt;Node1 -->
<g id="edge1_Node000001_Node000002" class="edge">
<title>Node2&#45;&gt;Node1</title>
<g id="a_edge1_Node000001_Node000002"><a xlink:title=" ">
<path fill="none" stroke="#9a32cd" stroke-dasharray="5,2" d="M107.5,-72.59C107.5,-58.75 107.5,-41.91 107.5,-30.22"/>
<polygon fill="#9a32cd" stroke="#9a32cd" points="104,-72.89 107.5,-82.89 111,-72.89 104,-72.89"/>
</a>
</g>
<text text-anchor="start" x="111" y="-53.5" font-family="Helvetica,sans-Serif" font-size="10.00" fill="grey">_collector</text>
</g>
<!-- Node3 -->
<g id="Node000003" class="node">
<title>Node3</title>
<g id="a_Node000003"><a xlink:title=" ">
<polygon fill="white" stroke="#666666" points="83,-190.5 0,-190.5 0,-171.5 83,-171.5 83,-190.5"/>
<text text-anchor="middle" x="41.5" y="-178.5" font-family="Helvetica,sans-Serif" font-size="10.00">MonoBehaviour</text>
</a>
</g>
</g>
<!-- Node3&#45;&gt;Node2 -->
<g id="edge2_Node000002_Node000003" class="edge">
<title>Node3&#45;&gt;Node2</title>
<g id="a_edge2_Node000002_Node000003"><a xlink:title=" ">
<path fill="none" stroke="#63b8ff" d="M54.97,-163.47C67.07,-148.61 84.66,-127.04 96.08,-113.01"/>
<polygon fill="#63b8ff" stroke="#63b8ff" points="52.17,-161.37 48.56,-171.33 57.59,-165.79 52.17,-161.37"/>
</a>
</g>
</g>
<!-- Node4 -->
<g id="Node000004" class="node">
<title>Node4</title>
<g id="a_Node000004"><a xlink:href="interface_mercury_messaging_1_1_data_1_1_i_mm_data_handler.html" target="_top" xlink:title="IMmDataHandler implmentations need to support file/stream and tag open/close/write.">
<polygon fill="white" stroke="#666666" points="245.5,-196 101.5,-196 101.5,-166 245.5,-166 245.5,-196"/>
<text text-anchor="start" x="109.5" y="-184" font-family="Helvetica,sans-Serif" font-size="10.00">MercuryMessaging.Data.IMm</text>
<text text-anchor="middle" x="173.5" y="-173" font-family="Helvetica,sans-Serif" font-size="10.00">DataHandler</text>
</a>
</g>
</g>
<!-- Node4&#45;&gt;Node2 -->
<g id="edge3_Node000002_Node000004" class="edge">
<title>Node4&#45;&gt;Node2</title>
<g id="a_edge3_Node000002_Node000004"><a xlink:title=" ">
<path fill="none" stroke="#9a32cd" stroke-dasharray="5,2" d="M155.59,-158.02C143.97,-143.76 129.18,-125.61 119.09,-113.22"/>
<polygon fill="#9a32cd" stroke="#9a32cd" points="152.97,-160.35 162,-165.89 158.4,-155.93 152.97,-160.35"/>
</a>
</g>
<text text-anchor="start" x="148.5" y="-136.5" font-family="Helvetica,sans-Serif" font-size="10.00" fill="grey">dataHandler</text>
</g>
</g>
</svg>
