<?xml version="1.0" encoding="UTF-8" standalone="no"?>
<!DOCTYPE svg PUBLIC "-//W3C//DTD SVG 1.1//EN"
 "http://www.w3.org/Graphics/SVG/1.1/DTD/svg11.dtd">
<!-- Generated by graphviz version 2.44.1 (20200629.0800)
 -->
<!-- Title: MercuryMessaging.AppStateBuilder Pages: 1 -->
<svg width="1247pt" height="181pt"
 viewBox="0.00 0.00 1247.00 180.50" xmlns="http://www.w3.org/2000/svg" xmlns:xlink="http://www.w3.org/1999/xlink">
<g id="graph0" class="graph" transform="scale(1 1) rotate(0) translate(4 176.5)">
<title>MercuryMessaging.AppStateBuilder</title>
<!-- Node1 -->
<g id="Node000001" class="node">
<title>Node1</title>
<g id="a_Node000001"><a xlink:title="Fluent builder for configuring application states.">
<polygon fill="#999999" stroke="#666666" points="1239,-99 1096,-99 1096,-69 1239,-69 1239,-99"/>
<text text-anchor="start" x="1104" y="-87" font-family="Helvetica,sans-Serif" font-size="10.00">MercuryMessaging.AppState</text>
<text text-anchor="middle" x="1167.5" y="-76" font-family="Helvetica,sans-Serif" font-size="10.00">Builder</text>
</a>
</g>
</g>
<!-- Node2 -->
<g id="Node000002" class="node">
<title>Node2</title>
<g id="a_Node000002"><a xlink:href="class_mercury_messaging_1_1_mm_relay_switch_node.html" target="_top" xlink:title="an MmRelayNode with an FSM to allow for limited MmResponder selection in the MmRelayNode&#39;s MmRoutingT...">
<polygon fill="white" stroke="#666666" points="998,-99 855,-99 855,-69 998,-69 998,-99"/>
<text text-anchor="start" x="863" y="-87" font-family="Helvetica,sans-Serif" font-size="10.00">MercuryMessaging.MmRelay</text>
<text text-anchor="middle" x="926.5" y="-76" font-family="Helvetica,sans-Serif" font-size="10.00">SwitchNode</text>
</a>
</g>
</g>
<!-- Node2&#45;&gt;Node1 -->
<g id="edge1_Node000001_Node000002" class="edge">
<title>Node2&#45;&gt;Node1</title>
<g id="a_edge1_Node000001_Node000002"><a xlink:title=" ">
<path fill="none" stroke="#9a32cd" stroke-dasharray="5,2" d="M1008.53,-84C1036.9,-84 1068.5,-84 1095.94,-84"/>
<polygon fill="#9a32cd" stroke="#9a32cd" points="1008.24,-80.5 998.24,-84 1008.24,-87.5 1008.24,-80.5"/>
</a>
</g>
<text text-anchor="start" x="1019" y="-89.5" font-family="Helvetica,sans-Serif" font-size="10.00" fill="grey">_switchNode</text>
</g>
<!-- Node3 -->
<g id="Node000003" class="node">
<title>Node3</title>
<g id="a_Node000003"><a xlink:href="class_mercury_messaging_1_1_mm_relay_node.html" target="_top" xlink:title="Base routing node of Mercury XM.">
<polygon fill="white" stroke="#666666" points="744,-93.5 578,-93.5 578,-74.5 744,-74.5 744,-93.5"/>
<text text-anchor="middle" x="661" y="-81.5" font-family="Helvetica,sans-Serif" font-size="10.00">MercuryMessaging.MmRelayNode</text>
</a>
</g>
</g>
<!-- Node3&#45;&gt;Node2 -->
<g id="edge2_Node000002_Node000003" class="edge">
<title>Node3&#45;&gt;Node2</title>
<g id="a_edge2_Node000002_Node000003"><a xlink:title=" ">
<path fill="none" stroke="#63b8ff" d="M754.27,-85.91C756.87,-85.95 759.46,-85.97 762,-86 795.33,-86.33 803.67,-86.38 837,-86 842.84,-85.93 848.9,-85.84 854.98,-85.74"/>
<polygon fill="#63b8ff" stroke="#63b8ff" points="754.18,-82.41 744.13,-85.77 754.08,-89.41 754.18,-82.41"/>
</a>
</g>
</g>
<!-- Node3&#45;&gt;Node2 -->
<g id="edge12_Node000002_Node000003" class="edge">
<title>Node3&#45;&gt;Node2</title>
<g id="a_edge12_Node000002_Node000003"><a xlink:title=" ">
<path fill="none" stroke="#9a32cd" stroke-dasharray="5,2" d="M712.67,-72.46C728.39,-69.4 745.84,-66.52 762,-65 795.19,-61.88 803.85,-61.48 837,-65 845.59,-65.91 854.58,-67.31 863.39,-68.94"/>
<polygon fill="#9a32cd" stroke="#9a32cd" points="711.73,-69.08 702.62,-74.49 713.12,-75.94 711.73,-69.08"/>
</a>
</g>
<text text-anchor="start" x="765.5" y="-70.5" font-family="Helvetica,sans-Serif" font-size="10.00" fill="grey">_cachedCurrent</text>
</g>
<!-- Node4 -->
<g id="Node000004" class="node">
<title>Node4</title>
<g id="a_Node000004"><a xlink:href="class_mercury_messaging_1_1_mm_responder.html" target="_top" xlink:title="Base implmentation of IMmResponder.">
<polygon fill="white" stroke="#666666" points="464,-154.5 299,-154.5 299,-135.5 464,-135.5 464,-154.5"/>
<text text-anchor="middle" x="381.5" y="-142.5" font-family="Helvetica,sans-Serif" font-size="10.00">MercuryMessaging.MmResponder</text>
</a>
</g>
</g>
<!-- Node4&#45;&gt;Node3 -->
<g id="edge3_Node000003_Node000004" class="edge">
<title>Node4&#45;&gt;Node3</title>
<g id="a_edge3_Node000003_Node000004"><a xlink:title=" ">
<path fill="none" stroke="#63b8ff" d="M448.05,-133.65C481.65,-127.52 523.15,-119.49 560,-111 582.43,-105.83 607.43,-99.08 626.82,-93.62"/>
<polygon fill="#63b8ff" stroke="#63b8ff" points="447.11,-130.26 437.89,-135.49 448.35,-137.15 447.11,-130.26"/>
</a>
</g>
</g>
<!-- Node5 -->
<g id="Node000005" class="node">
<title>Node5</title>
<g id="a_Node000005"><a xlink:title=" ">
<polygon fill="white" stroke="#666666" points="220,-172.5 137,-172.5 137,-153.5 220,-153.5 220,-172.5"/>
<text text-anchor="middle" x="178.5" y="-160.5" font-family="Helvetica,sans-Serif" font-size="10.00">MonoBehaviour</text>
</a>
</g>
</g>
<!-- Node5&#45;&gt;Node4 -->
<g id="edge4_Node000004_Node000005" class="edge">
<title>Node5&#45;&gt;Node4</title>
<g id="a_edge4_Node000004_Node000005"><a xlink:title=" ">
<path fill="none" stroke="#63b8ff" d="M230.35,-158.45C251.1,-156.59 275.63,-154.39 298.78,-152.32"/>
<polygon fill="#63b8ff" stroke="#63b8ff" points="229.82,-154.98 220.18,-159.36 230.45,-161.95 229.82,-154.98"/>
</a>
</g>
</g>
<!-- Node6 -->
<g id="Node000006" class="node">
<title>Node6</title>
<g id="a_Node000006"><a xlink:href="interface_mercury_messaging_1_1_i_mm_responder.html" target="_top" xlink:title="The core of MercuryMessaging.">
<polygon fill="white" stroke="#666666" points="262,-135.5 95,-135.5 95,-116.5 262,-116.5 262,-135.5"/>
<text text-anchor="middle" x="178.5" y="-123.5" font-family="Helvetica,sans-Serif" font-size="10.00">MercuryMessaging.IMmResponder</text>
</a>
</g>
</g>
<!-- Node6&#45;&gt;Node4 -->
<g id="edge5_Node000004_Node000006" class="edge">
<title>Node6&#45;&gt;Node4</title>
<g id="a_edge5_Node000004_Node000006"><a xlink:title=" ">
<path fill="none" stroke="#63b8ff" d="M272.14,-134.76C281.05,-135.6 290.05,-136.45 298.85,-137.28"/>
<polygon fill="#63b8ff" stroke="#63b8ff" points="272.41,-131.27 262.12,-133.81 271.75,-138.24 272.41,-131.27"/>
</a>
</g>
</g>
<!-- Node7 -->
<g id="Node000007" class="node">
<title>Node7</title>
<g id="a_Node000007"><a xlink:href="interface_mercury_messaging_1_1_i_mm_node.html" target="_top" xlink:title="Defines methods required by an MmResponder &amp; utility methods making invocation MmMethods with built&#45;i...">
<polygon fill="white" stroke="#666666" points="453,-117.5 310,-117.5 310,-98.5 453,-98.5 453,-117.5"/>
<text text-anchor="middle" x="381.5" y="-105.5" font-family="Helvetica,sans-Serif" font-size="10.00">MercuryMessaging.IMmNode</text>
</a>
</g>
</g>
<!-- Node7&#45;&gt;Node3 -->
<g id="edge6_Node000003_Node000007" class="edge">
<title>Node7&#45;&gt;Node3</title>
<g id="a_edge6_Node000003_Node000007"><a xlink:title=" ">
<path fill="none" stroke="#63b8ff" d="M463.45,-101.97C493.75,-99.62 528.47,-96.82 560,-94 565.82,-93.48 571.83,-92.92 577.88,-92.35"/>
<polygon fill="#63b8ff" stroke="#63b8ff" points="463.06,-98.49 453.35,-102.75 463.59,-105.47 463.06,-98.49"/>
</a>
</g>
</g>
<!-- Node8 -->
<g id="Node000008" class="node">
<title>Node8</title>
<g id="a_Node000008"><a xlink:href="class_mercury_messaging_1_1_mm_circular_buffer-1-g.html" target="_top" xlink:title="Fixed&#45;size circular buffer that automatically overwrites oldest entries Used for message history trac...">
<polygon fill="white" stroke="#666666" points="457.5,-78 305.5,-78 305.5,-48 457.5,-48 457.5,-78"/>
<text text-anchor="start" x="313.5" y="-66" font-family="Helvetica,sans-Serif" font-size="10.00">MercuryMessaging.MmCircular</text>
<text text-anchor="middle" x="381.5" y="-55" font-family="Helvetica,sans-Serif" font-size="10.00">Buffer&lt; T &gt;</text>
</a>
</g>
</g>
<!-- Node8&#45;&gt;Node3 -->
<g id="edge7_Node000003_Node000008" class="edge">
<title>Node8&#45;&gt;Node3</title>
<g id="a_edge7_Node000003_Node000008"><a xlink:title=" ">
<path fill="none" stroke="#9a32cd" stroke-dasharray="5,2" d="M468.02,-58.59C497.26,-58.12 530.13,-58.75 560,-62 582.09,-64.4 606.45,-69.7 625.6,-74.5"/>
<polygon fill="#9a32cd" stroke="#9a32cd" points="467.76,-55.1 457.83,-58.8 467.9,-62.09 467.76,-55.1"/>
</a>
</g>
<text text-anchor="start" x="485" y="-83" font-family="Helvetica,sans-Serif" font-size="10.00" fill="grey">messageInList</text>
<text text-anchor="start" x="485" y="-68" font-family="Helvetica,sans-Serif" font-size="10.00" fill="grey">messageOutList</text>
</g>
<!-- Node9 -->
<g id="Node000009" class="node">
<title>Node9</title>
<g id="a_Node000009"><a xlink:title=" ">
<polygon fill="white" stroke="#666666" points="225.5,-72.5 131.5,-72.5 131.5,-53.5 225.5,-53.5 225.5,-72.5"/>
<text text-anchor="middle" x="178.5" y="-60.5" font-family="Helvetica,sans-Serif" font-size="10.00">IEnumerable&lt; T &gt;</text>
</a>
</g>
</g>
<!-- Node9&#45;&gt;Node8 -->
<g id="edge8_Node000008_Node000009" class="edge">
<title>Node9&#45;&gt;Node8</title>
<g id="a_edge8_Node000008_Node000009"><a xlink:title=" ">
<path fill="none" stroke="#63b8ff" d="M235.91,-63C257.47,-63 282.42,-63 305.45,-63"/>
<polygon fill="#63b8ff" stroke="#63b8ff" points="235.61,-59.5 225.61,-63 235.61,-66.5 235.61,-59.5"/>
</a>
</g>
</g>
<!-- Node10 -->
<g id="Node000010" class="node">
<title>Node10</title>
<g id="a_Node000010"><a xlink:href="class_mercury_messaging_1_1_mm_routing_table.html" target="_top" xlink:title="A form of Reorderable List ReorderableList&lt;T&gt; specifically for all derivations of MmResponder.">
<polygon fill="white" stroke="#666666" points="457.5,-30 305.5,-30 305.5,0 457.5,0 457.5,-30"/>
<text text-anchor="start" x="313.5" y="-18" font-family="Helvetica,sans-Serif" font-size="10.00">MercuryMessaging.MmRouting</text>
<text text-anchor="middle" x="381.5" y="-7" font-family="Helvetica,sans-Serif" font-size="10.00">Table</text>
</a>
</g>
</g>
<!-- Node10&#45;&gt;Node3 -->
<g id="edge9_Node000003_Node000010" class="edge">
<title>Node10&#45;&gt;Node3</title>
<g id="a_edge9_Node000003_Node000010"><a xlink:title=" ">
<path fill="none" stroke="#9a32cd" stroke-dasharray="5,2" d="M468.11,-20.1C497.63,-23.3 530.65,-28.52 560,-37 590.96,-45.95 624.35,-63.39 643.65,-74.33"/>
<polygon fill="#9a32cd" stroke="#9a32cd" points="468.13,-16.59 457.83,-19.05 467.42,-23.55 468.13,-16.59"/>
</a>
</g>
<text text-anchor="start" x="493" y="-42.5" font-family="Helvetica,sans-Serif" font-size="10.00" fill="grey">RoutingTable</text>
</g>
<!-- Node11 -->
<g id="Node000011" class="node">
<title>Node11</title>
<g id="a_Node000011"><a xlink:href="class_mercury_messaging_1_1_reorderable_list-1-g.html" target="_top" xlink:title=" ">
<polygon fill="white" stroke="#666666" points="255.5,-30 101.5,-30 101.5,0 255.5,0 255.5,-30"/>
<text text-anchor="start" x="109.5" y="-18" font-family="Helvetica,sans-Serif" font-size="10.00">MercuryMessaging.Reorderable</text>
<text text-anchor="middle" x="178.5" y="-7" font-family="Helvetica,sans-Serif" font-size="10.00">List&lt; T &gt;</text>
</a>
</g>
</g>
<!-- Node11&#45;&gt;Node10 -->
<g id="edge10_Node000010_Node000011" class="edge">
<title>Node11&#45;&gt;Node10</title>
<g id="a_edge10_Node000010_Node000011"><a xlink:title=" ">
<path fill="none" stroke="#63b8ff" d="M266.14,-15C279.17,-15 292.51,-15 305.27,-15"/>
<polygon fill="#63b8ff" stroke="#63b8ff" points="265.78,-11.5 255.78,-15 265.78,-18.5 265.78,-11.5"/>
</a>
</g>
</g>
<!-- Node12 -->
<g id="Node000012" class="node">
<title>Node12</title>
<g id="a_Node000012"><a xlink:title=" ">
<polygon fill="white" stroke="#666666" points="58,-24.5 0,-24.5 0,-5.5 58,-5.5 58,-24.5"/>
<text text-anchor="middle" x="29" y="-12.5" font-family="Helvetica,sans-Serif" font-size="10.00">IList&lt; T &gt;</text>
</a>
</g>
</g>
<!-- Node12&#45;&gt;Node11 -->
<g id="edge11_Node000011_Node000012" class="edge">
<title>Node12&#45;&gt;Node11</title>
<g id="a_edge11_Node000011_Node000012"><a xlink:title=" ">
<path fill="none" stroke="#63b8ff" d="M68.25,-15C78.45,-15 89.85,-15 101.32,-15"/>
<polygon fill="#63b8ff" stroke="#63b8ff" points="68.09,-11.5 58.09,-15 68.09,-18.5 68.09,-11.5"/>
</a>
</g>
</g>
</g>
</svg>
