<?xml version="1.0" encoding="UTF-8" standalone="no"?>
<!DOCTYPE svg PUBLIC "-//W3C//DTD SVG 1.1//EN"
 "http://www.w3.org/Graphics/SVG/1.1/DTD/svg11.dtd">
<!-- Generated by graphviz version 2.44.1 (20200629.0800)
 -->
<!-- Title: MercuryMessaging.Data.MmDataCollector Pages: 1 -->
<svg width="254pt" height="121pt"
 viewBox="0.00 0.00 253.50 121.00" xmlns="http://www.w3.org/2000/svg" xmlns:xlink="http://www.w3.org/1999/xlink">
<g id="graph0" class="graph" transform="scale(1 1) rotate(0) translate(4 117)">
<title>MercuryMessaging.Data.MmDataCollector</title>
<!-- Node1 -->
<g id="Node000001" class="node">
<title>Node1</title>
<g id="a_Node000001"><a xlink:title="The MmDataCollector stores a collection of MmDataCollectionItems.">
<polygon fill="#999999" stroke="#666666" points="178.5,-30 36.5,-30 36.5,0 178.5,0 178.5,-30"/>
<text text-anchor="start" x="44.5" y="-18" font-family="Helvetica,sans-Serif" font-size="10.00">MercuryMessaging.Data.Mm</text>
<text text-anchor="middle" x="107.5" y="-7" font-family="Helvetica,sans-Serif" font-size="10.00">DataCollector</text>
</a>
</g>
</g>
<!-- Node2 -->
<g id="Node000002" class="node">
<title>Node2</title>
<g id="a_Node000002"><a xlink:title=" ">
<polygon fill="white" stroke="#666666" points="83,-107.5 0,-107.5 0,-88.5 83,-88.5 83,-107.5"/>
<text text-anchor="middle" x="41.5" y="-95.5" font-family="Helvetica,sans-Serif" font-size="10.00">MonoBehaviour</text>
</a>
</g>
</g>
<!-- Node2&#45;&gt;Node1 -->
<g id="edge1_Node000001_Node000002" class="edge">
<title>Node2&#45;&gt;Node1</title>
<g id="a_edge1_Node000001_Node000002"><a xlink:title=" ">
<path fill="none" stroke="#63b8ff" d="M54.97,-80.47C67.07,-65.61 84.66,-44.04 96.08,-30.01"/>
<polygon fill="#63b8ff" stroke="#63b8ff" points="52.17,-78.37 48.56,-88.33 57.59,-82.79 52.17,-78.37"/>
</a>
</g>
</g>
<!-- Node3 -->
<g id="Node000003" class="node">
<title>Node3</title>
<g id="a_Node000003"><a xlink:href="interface_mercury_messaging_1_1_data_1_1_i_mm_data_handler.html" target="_top" xlink:title="IMmDataHandler implmentations need to support file/stream and tag open/close/write.">
<polygon fill="white" stroke="#666666" points="245.5,-113 101.5,-113 101.5,-83 245.5,-83 245.5,-113"/>
<text text-anchor="start" x="109.5" y="-101" font-family="Helvetica,sans-Serif" font-size="10.00">MercuryMessaging.Data.IMm</text>
<text text-anchor="middle" x="173.5" y="-90" font-family="Helvetica,sans-Serif" font-size="10.00">DataHandler</text>
</a>
</g>
</g>
<!-- Node3&#45;&gt;Node1 -->
<g id="edge2_Node000001_Node000003" class="edge">
<title>Node3&#45;&gt;Node1</title>
<g id="a_edge2_Node000001_Node000003"><a xlink:title=" ">
<path fill="none" stroke="#9a32cd" stroke-dasharray="5,2" d="M155.59,-75.02C143.97,-60.76 129.18,-42.61 119.09,-30.22"/>
<polygon fill="#9a32cd" stroke="#9a32cd" points="152.97,-77.35 162,-82.89 158.4,-72.93 152.97,-77.35"/>
</a>
</g>
<text text-anchor="start" x="148.5" y="-53.5" font-family="Helvetica,sans-Serif" font-size="10.00" fill="grey">dataHandler</text>
</g>
</g>
</svg>
