<?xml version="1.0" encoding="UTF-8" standalone="no"?>
<!DOCTYPE svg PUBLIC "-//W3C//DTD SVG 1.1//EN"
 "http://www.w3.org/Graphics/SVG/1.1/DTD/svg11.dtd">
<!-- Generated by graphviz version 2.44.1 (20200629.0800)
 -->
<!-- Title: MercuryMessaging.Task.MmTaskSequenceHandler&lt; T &gt; Pages: 1 -->
<svg width="1663pt" height="282pt"
 viewBox="0.00 0.00 1663.00 282.00" xmlns="http://www.w3.org/2000/svg" xmlns:xlink="http://www.w3.org/1999/xlink">
<g id="graph0" class="graph" transform="scale(1 1) rotate(0) translate(4 278)">
<title>MercuryMessaging.Task.MmTaskSequenceHandler&lt; T &gt;</title>
<!-- Node1 -->
<g id="Node000001" class="node">
<title>Node1</title>
<g id="a_Node000001"><a xlink:title="Handler for task sequence events.">
<polygon fill="#999999" stroke="#666666" points="1655,-103 1512,-103 1512,-73 1655,-73 1655,-103"/>
<text text-anchor="start" x="1520" y="-91" font-family="Helvetica,sans-Serif" font-size="10.00">MercuryMessaging.Task.Mm</text>
<text text-anchor="middle" x="1583.5" y="-80" font-family="Helvetica,sans-Serif" font-size="10.00">TaskSequenceHandler&lt; T &gt;</text>
</a>
</g>
</g>
<!-- Node2 -->
<g id="Node000002" class="node">
<title>Node2</title>
<g id="a_Node000002"><a xlink:href="class_mercury_messaging_1_1_task_1_1_mm_task_manager-1-g.html" target="_top" xlink:title="Class to manage a collection of tasks.">
<polygon fill="white" stroke="#666666" points="1408,-103 1265,-103 1265,-73 1408,-73 1408,-103"/>
<text text-anchor="start" x="1273" y="-91" font-family="Helvetica,sans-Serif" font-size="10.00">MercuryMessaging.Task.Mm</text>
<text text-anchor="middle" x="1336.5" y="-80" font-family="Helvetica,sans-Serif" font-size="10.00">TaskManager&lt; U &gt;</text>
</a>
</g>
</g>
<!-- Node2&#45;&gt;Node1 -->
<g id="edge1_Node000001_Node000002" class="edge">
<title>Node2&#45;&gt;Node1</title>
<g id="a_edge1_Node000001_Node000002"><a xlink:title=" ">
<path fill="none" stroke="#9a32cd" stroke-dasharray="5,2" d="M1418.11,-88C1448.31,-88 1482.36,-88 1511.61,-88"/>
<polygon fill="#9a32cd" stroke="#9a32cd" points="1418.04,-84.5 1408.04,-88 1418.04,-91.5 1418.04,-84.5"/>
</a>
</g>
<text text-anchor="start" x="1429" y="-93.5" font-family="Helvetica,sans-Serif" font-size="10.00" fill="grey">_taskManager</text>
</g>
<!-- Node3 -->
<g id="Node000003" class="node">
<title>Node3</title>
<g id="a_Node000003"><a xlink:href="class_mercury_messaging_1_1_mm_base_responder.html" target="_top" xlink:title="MmResponder that implements a switch handling the framework&#45;provided MmMethods.">
<polygon fill="white" stroke="#666666" points="950,-120.5 762,-120.5 762,-101.5 950,-101.5 950,-120.5"/>
<text text-anchor="middle" x="856" y="-108.5" font-family="Helvetica,sans-Serif" font-size="10.00">MercuryMessaging.MmBaseResponder</text>
</a>
</g>
</g>
<!-- Node3&#45;&gt;Node2 -->
<g id="edge2_Node000002_Node000003" class="edge">
<title>Node3&#45;&gt;Node2</title>
<g id="a_edge2_Node000002_Node000003"><a xlink:title=" ">
<path fill="none" stroke="#63b8ff" d="M960.45,-108.48C1039.09,-106.21 1149.93,-102.25 1247,-96 1252.85,-95.62 1258.91,-95.18 1265,-94.7"/>
<polygon fill="#63b8ff" stroke="#63b8ff" points="959.95,-104.99 950.05,-108.77 960.15,-111.99 959.95,-104.99"/>
</a>
</g>
</g>
<!-- Node4 -->
<g id="Node000004" class="node">
<title>Node4</title>
<g id="a_Node000004"><a xlink:href="class_mercury_messaging_1_1_mm_responder.html" target="_top" xlink:title="Base implmentation of IMmResponder.">
<polygon fill="white" stroke="#666666" points="464,-123.5 299,-123.5 299,-104.5 464,-104.5 464,-123.5"/>
<text text-anchor="middle" x="381.5" y="-111.5" font-family="Helvetica,sans-Serif" font-size="10.00">MercuryMessaging.MmResponder</text>
</a>
</g>
</g>
<!-- Node4&#45;&gt;Node3 -->
<g id="edge3_Node000003_Node000004" class="edge">
<title>Node4&#45;&gt;Node3</title>
<g id="a_edge3_Node000003_Node000004"><a xlink:title=" ">
<path fill="none" stroke="#63b8ff" d="M474.42,-113.42C557.24,-112.89 678.44,-112.12 761.69,-111.59"/>
<polygon fill="#63b8ff" stroke="#63b8ff" points="474.24,-109.92 464.26,-113.48 474.29,-116.92 474.24,-109.92"/>
</a>
</g>
</g>
<!-- Node8 -->
<g id="Node000008" class="node">
<title>Node8</title>
<g id="a_Node000008"><a xlink:href="class_mercury_messaging_1_1_mm_relay_node.html" target="_top" xlink:title="Base routing node of Mercury XM.">
<polygon fill="white" stroke="#666666" points="744,-184.5 578,-184.5 578,-165.5 744,-165.5 744,-184.5"/>
<text text-anchor="middle" x="661" y="-172.5" font-family="Helvetica,sans-Serif" font-size="10.00">MercuryMessaging.MmRelayNode</text>
</a>
</g>
</g>
<!-- Node4&#45;&gt;Node8 -->
<g id="edge8_Node000008_Node000004" class="edge">
<title>Node4&#45;&gt;Node8</title>
<g id="a_edge8_Node000008_Node000004"><a xlink:title=" ">
<path fill="none" stroke="#63b8ff" d="M435.67,-125.69C488.2,-137.23 567.59,-154.69 616.49,-165.44"/>
<polygon fill="#63b8ff" stroke="#63b8ff" points="436.38,-122.26 425.86,-123.53 434.87,-129.1 436.38,-122.26"/>
</a>
</g>
</g>
<!-- Node5 -->
<g id="Node000005" class="node">
<title>Node5</title>
<g id="a_Node000005"><a xlink:title=" ">
<polygon fill="white" stroke="#666666" points="220,-82.5 137,-82.5 137,-63.5 220,-63.5 220,-82.5"/>
<text text-anchor="middle" x="178.5" y="-70.5" font-family="Helvetica,sans-Serif" font-size="10.00">MonoBehaviour</text>
</a>
</g>
</g>
<!-- Node5&#45;&gt;Node4 -->
<g id="edge4_Node000004_Node000005" class="edge">
<title>Node5&#45;&gt;Node4</title>
<g id="a_edge4_Node000004_Node000005"><a xlink:title=" ">
<path fill="none" stroke="#63b8ff" d="M230.18,-83.34C262.04,-89.84 302.85,-98.16 333.9,-104.49"/>
<polygon fill="#63b8ff" stroke="#63b8ff" points="230.67,-79.87 220.18,-81.3 229.27,-86.73 230.67,-79.87"/>
</a>
</g>
</g>
<!-- Node16 -->
<g id="Node000016" class="node">
<title>Node16</title>
<g id="a_Node000016"><a xlink:href="class_mercury_messaging_1_1_data_1_1_mm_data_path.html" target="_top" xlink:title="Simplifies data file directory preparation/access.">
<polygon fill="white" stroke="#666666" points="452.5,-81 310.5,-81 310.5,-51 452.5,-51 452.5,-81"/>
<text text-anchor="start" x="318.5" y="-69" font-family="Helvetica,sans-Serif" font-size="10.00">MercuryMessaging.Data.Mm</text>
<text text-anchor="middle" x="381.5" y="-58" font-family="Helvetica,sans-Serif" font-size="10.00">DataPath</text>
</a>
</g>
</g>
<!-- Node5&#45;&gt;Node16 -->
<g id="edge18_Node000016_Node000005" class="edge">
<title>Node5&#45;&gt;Node16</title>
<g id="a_edge18_Node000016_Node000005"><a xlink:title=" ">
<path fill="none" stroke="#63b8ff" d="M230.22,-71.23C254.45,-70.39 283.84,-69.37 310.18,-68.45"/>
<polygon fill="#63b8ff" stroke="#63b8ff" points="230.05,-67.74 220.18,-71.58 230.29,-74.73 230.05,-67.74"/>
</a>
</g>
</g>
<!-- Node6 -->
<g id="Node000006" class="node">
<title>Node6</title>
<g id="a_Node000006"><a xlink:href="interface_mercury_messaging_1_1_i_mm_responder.html" target="_top" xlink:title="The core of MercuryMessaging.">
<polygon fill="white" stroke="#666666" points="262,-125.5 95,-125.5 95,-106.5 262,-106.5 262,-125.5"/>
<text text-anchor="middle" x="178.5" y="-113.5" font-family="Helvetica,sans-Serif" font-size="10.00">MercuryMessaging.IMmResponder</text>
</a>
</g>
</g>
<!-- Node6&#45;&gt;Node4 -->
<g id="edge5_Node000004_Node000006" class="edge">
<title>Node6&#45;&gt;Node4</title>
<g id="a_edge5_Node000004_Node000006"><a xlink:title=" ">
<path fill="none" stroke="#63b8ff" d="M272.14,-115.08C281.05,-114.99 290.05,-114.9 298.85,-114.81"/>
<polygon fill="#63b8ff" stroke="#63b8ff" points="272.09,-111.58 262.12,-115.18 272.16,-118.58 272.09,-111.58"/>
</a>
</g>
</g>
<!-- Node7 -->
<g id="Node000007" class="node">
<title>Node7</title>
<g id="a_Node000007"><a xlink:href="class_mercury_messaging_1_1_mm_relay_switch_node.html" target="_top" xlink:title="an MmRelayNode with an FSM to allow for limited MmResponder selection in the MmRelayNode&#39;s MmRoutingT...">
<polygon fill="white" stroke="#666666" points="1114,-169 971,-169 971,-139 1114,-139 1114,-169"/>
<text text-anchor="start" x="979" y="-157" font-family="Helvetica,sans-Serif" font-size="10.00">MercuryMessaging.MmRelay</text>
<text text-anchor="middle" x="1042.5" y="-146" font-family="Helvetica,sans-Serif" font-size="10.00">SwitchNode</text>
</a>
</g>
</g>
<!-- Node7&#45;&gt;Node2 -->
<g id="edge6_Node000002_Node000007" class="edge">
<title>Node7&#45;&gt;Node2</title>
<g id="a_edge6_Node000002_Node000007"><a xlink:title=" ">
<path fill="none" stroke="#9a32cd" stroke-dasharray="5,2" d="M1124.04,-147.29C1161.83,-142.94 1207.21,-135.96 1247,-125 1266.75,-119.56 1287.95,-110.81 1304.65,-103.18"/>
<polygon fill="#9a32cd" stroke="#9a32cd" points="1123.65,-143.81 1114.1,-148.4 1124.42,-150.77 1123.65,-143.81"/>
</a>
</g>
<text text-anchor="start" x="1167" y="-150.5" font-family="Helvetica,sans-Serif" font-size="10.00" fill="grey">TasksNode</text>
</g>
<!-- Node8&#45;&gt;Node7 -->
<g id="edge7_Node000007_Node000008" class="edge">
<title>Node8&#45;&gt;Node7</title>
<g id="a_edge7_Node000007_Node000008"><a xlink:title=" ">
<path fill="none" stroke="#63b8ff" d="M754.07,-175.1C810.68,-174.5 884.64,-172.53 950,-167 956.71,-166.43 963.69,-165.7 970.66,-164.87"/>
<polygon fill="#63b8ff" stroke="#63b8ff" points="754.04,-171.6 744.07,-175.19 754.1,-178.6 754.04,-171.6"/>
</a>
</g>
</g>
<!-- Node8&#45;&gt;Node7 -->
<g id="edge15_Node000007_Node000008" class="edge">
<title>Node8&#45;&gt;Node7</title>
<g id="a_edge15_Node000007_Node000008"><a xlink:title=" ">
<path fill="none" stroke="#9a32cd" stroke-dasharray="5,2" d="M697.14,-162.17C716.08,-155.93 740,-149.13 762,-146 832.53,-135.98 914.04,-140.08 970.77,-145.4"/>
<polygon fill="#9a32cd" stroke="#9a32cd" points="695.81,-158.93 687.46,-165.45 698.06,-165.56 695.81,-158.93"/>
</a>
</g>
<text text-anchor="start" x="822" y="-151.5" font-family="Helvetica,sans-Serif" font-size="10.00" fill="grey">_cachedCurrent</text>
</g>
<!-- Node9 -->
<g id="Node000009" class="node">
<title>Node9</title>
<g id="a_Node000009"><a xlink:href="interface_mercury_messaging_1_1_i_mm_node.html" target="_top" xlink:title="Defines methods required by an MmResponder &amp; utility methods making invocation MmMethods with built&#45;i...">
<polygon fill="white" stroke="#666666" points="453,-225.5 310,-225.5 310,-206.5 453,-206.5 453,-225.5"/>
<text text-anchor="middle" x="381.5" y="-213.5" font-family="Helvetica,sans-Serif" font-size="10.00">MercuryMessaging.IMmNode</text>
</a>
</g>
</g>
<!-- Node9&#45;&gt;Node8 -->
<g id="edge9_Node000008_Node000009" class="edge">
<title>Node9&#45;&gt;Node8</title>
<g id="a_edge9_Node000008_Node000009"><a xlink:title=" ">
<path fill="none" stroke="#63b8ff" d="M463.42,-212.78C493.85,-210.74 528.67,-207.42 560,-202 583.92,-197.86 610.42,-190.58 630.13,-184.62"/>
<polygon fill="#63b8ff" stroke="#63b8ff" points="463.03,-209.3 453.27,-213.42 463.47,-216.28 463.03,-209.3"/>
</a>
</g>
</g>
<!-- Node10 -->
<g id="Node000010" class="node">
<title>Node10</title>
<g id="a_Node000010"><a xlink:href="class_mercury_messaging_1_1_mm_circular_buffer-1-g.html" target="_top" xlink:title="Fixed&#45;size circular buffer that automatically overwrites oldest entries Used for message history trac...">
<polygon fill="white" stroke="#666666" points="457.5,-184 305.5,-184 305.5,-154 457.5,-154 457.5,-184"/>
<text text-anchor="start" x="313.5" y="-172" font-family="Helvetica,sans-Serif" font-size="10.00">MercuryMessaging.MmCircular</text>
<text text-anchor="middle" x="381.5" y="-161" font-family="Helvetica,sans-Serif" font-size="10.00">Buffer&lt; T &gt;</text>
</a>
</g>
</g>
<!-- Node10&#45;&gt;Node8 -->
<g id="edge10_Node000008_Node000010" class="edge">
<title>Node10&#45;&gt;Node8</title>
<g id="a_edge10_Node000008_Node000010"><a xlink:title=" ">
<path fill="none" stroke="#9a32cd" stroke-dasharray="5,2" d="M467.83,-168.71C497.06,-168.82 529.96,-169.16 560,-170 565.82,-170.16 571.83,-170.37 577.88,-170.6"/>
<polygon fill="#9a32cd" stroke="#9a32cd" points="467.66,-165.21 457.65,-168.69 467.64,-172.21 467.66,-165.21"/>
</a>
</g>
<text text-anchor="start" x="485" y="-191" font-family="Helvetica,sans-Serif" font-size="10.00" fill="grey">messageInList</text>
<text text-anchor="start" x="485" y="-176" font-family="Helvetica,sans-Serif" font-size="10.00" fill="grey">messageOutList</text>
</g>
<!-- Node11 -->
<g id="Node000011" class="node">
<title>Node11</title>
<g id="a_Node000011"><a xlink:title=" ">
<polygon fill="white" stroke="#666666" points="225.5,-178.5 131.5,-178.5 131.5,-159.5 225.5,-159.5 225.5,-178.5"/>
<text text-anchor="middle" x="178.5" y="-166.5" font-family="Helvetica,sans-Serif" font-size="10.00">IEnumerable&lt; T &gt;</text>
</a>
</g>
</g>
<!-- Node11&#45;&gt;Node10 -->
<g id="edge11_Node000010_Node000011" class="edge">
<title>Node11&#45;&gt;Node10</title>
<g id="a_edge11_Node000010_Node000011"><a xlink:title=" ">
<path fill="none" stroke="#63b8ff" d="M235.91,-169C257.47,-169 282.42,-169 305.45,-169"/>
<polygon fill="#63b8ff" stroke="#63b8ff" points="235.61,-165.5 225.61,-169 235.61,-172.5 235.61,-165.5"/>
</a>
</g>
</g>
<!-- Node12 -->
<g id="Node000012" class="node">
<title>Node12</title>
<g id="a_Node000012"><a xlink:href="class_mercury_messaging_1_1_mm_routing_table.html" target="_top" xlink:title="A form of Reorderable List ReorderableList&lt;T&gt; specifically for all derivations of MmResponder.">
<polygon fill="white" stroke="#666666" points="457.5,-274 305.5,-274 305.5,-244 457.5,-244 457.5,-274"/>
<text text-anchor="start" x="313.5" y="-262" font-family="Helvetica,sans-Serif" font-size="10.00">MercuryMessaging.MmRouting</text>
<text text-anchor="middle" x="381.5" y="-251" font-family="Helvetica,sans-Serif" font-size="10.00">Table</text>
</a>
</g>
</g>
<!-- Node12&#45;&gt;Node8 -->
<g id="edge12_Node000008_Node000012" class="edge">
<title>Node12&#45;&gt;Node8</title>
<g id="a_edge12_Node000008_Node000012"><a xlink:title=" ">
<path fill="none" stroke="#9a32cd" stroke-dasharray="5,2" d="M467.59,-244.03C497.2,-237.84 530.4,-229.8 560,-220 589.46,-210.25 621.95,-194.67 641.66,-184.64"/>
<polygon fill="#9a32cd" stroke="#9a32cd" points="466.79,-240.62 457.7,-246.05 468.2,-247.47 466.79,-240.62"/>
</a>
</g>
<text text-anchor="start" x="493" y="-245.5" font-family="Helvetica,sans-Serif" font-size="10.00" fill="grey">RoutingTable</text>
</g>
<!-- Node13 -->
<g id="Node000013" class="node">
<title>Node13</title>
<g id="a_Node000013"><a xlink:href="class_mercury_messaging_1_1_reorderable_list-1-g.html" target="_top" xlink:title=" ">
<polygon fill="white" stroke="#666666" points="255.5,-274 101.5,-274 101.5,-244 255.5,-244 255.5,-274"/>
<text text-anchor="start" x="109.5" y="-262" font-family="Helvetica,sans-Serif" font-size="10.00">MercuryMessaging.Reorderable</text>
<text text-anchor="middle" x="178.5" y="-251" font-family="Helvetica,sans-Serif" font-size="10.00">List&lt; T &gt;</text>
</a>
</g>
</g>
<!-- Node13&#45;&gt;Node12 -->
<g id="edge13_Node000012_Node000013" class="edge">
<title>Node13&#45;&gt;Node12</title>
<g id="a_edge13_Node000012_Node000013"><a xlink:title=" ">
<path fill="none" stroke="#63b8ff" d="M266.14,-259C279.17,-259 292.51,-259 305.27,-259"/>
<polygon fill="#63b8ff" stroke="#63b8ff" points="265.78,-255.5 255.78,-259 265.78,-262.5 265.78,-255.5"/>
</a>
</g>
</g>
<!-- Node14 -->
<g id="Node000014" class="node">
<title>Node14</title>
<g id="a_Node000014"><a xlink:title=" ">
<polygon fill="white" stroke="#666666" points="58,-268.5 0,-268.5 0,-249.5 58,-249.5 58,-268.5"/>
<text text-anchor="middle" x="29" y="-256.5" font-family="Helvetica,sans-Serif" font-size="10.00">IList&lt; T &gt;</text>
</a>
</g>
</g>
<!-- Node14&#45;&gt;Node13 -->
<g id="edge14_Node000013_Node000014" class="edge">
<title>Node14&#45;&gt;Node13</title>
<g id="a_edge14_Node000013_Node000014"><a xlink:title=" ">
<path fill="none" stroke="#63b8ff" d="M68.25,-259C78.45,-259 89.85,-259 101.32,-259"/>
<polygon fill="#63b8ff" stroke="#63b8ff" points="68.09,-255.5 58.09,-259 68.09,-262.5 68.09,-255.5"/>
</a>
</g>
</g>
<!-- Node15 -->
<g id="Node000015" class="node">
<title>Node15</title>
<g id="a_Node000015"><a xlink:href="class_mercury_messaging_1_1_data_1_1_mm_task_user_configurator.html" target="_top" xlink:title="User configuration script for use by MmDataCollector.">
<polygon fill="white" stroke="#666666" points="927,-81 785,-81 785,-51 927,-51 927,-81"/>
<text text-anchor="start" x="793" y="-69" font-family="Helvetica,sans-Serif" font-size="10.00">MercuryMessaging.Data.Mm</text>
<text text-anchor="middle" x="856" y="-58" font-family="Helvetica,sans-Serif" font-size="10.00">TaskUserConfigurator</text>
</a>
</g>
</g>
<!-- Node15&#45;&gt;Node2 -->
<g id="edge16_Node000002_Node000015" class="edge">
<title>Node15&#45;&gt;Node2</title>
<g id="a_edge16_Node000002_Node000015"><a xlink:title=" ">
<path fill="none" stroke="#9a32cd" stroke-dasharray="5,2" d="M937.15,-69.69C1028.78,-73.9 1177.36,-80.73 1264.83,-84.75"/>
<polygon fill="#9a32cd" stroke="#9a32cd" points="937.24,-66.19 927.09,-69.22 936.92,-73.18 937.24,-66.19"/>
</a>
</g>
<text text-anchor="start" x="1003.5" y="-83.5" font-family="Helvetica,sans-Serif" font-size="10.00" fill="grey">MmTaskUserData</text>
</g>
<!-- Node16&#45;&gt;Node15 -->
<g id="edge17_Node000015_Node000016" class="edge">
<title>Node16&#45;&gt;Node15</title>
<g id="a_edge17_Node000015_Node000016"><a xlink:title=" ">
<path fill="none" stroke="#63b8ff" d="M462.93,-66C553.36,-66 698.75,-66 784.77,-66"/>
<polygon fill="#63b8ff" stroke="#63b8ff" points="462.73,-62.5 452.73,-66 462.73,-69.5 462.73,-62.5"/>
</a>
</g>
</g>
<!-- Node17 -->
<g id="Node000017" class="node">
<title>Node17</title>
<g id="a_Node000017"><a xlink:href="interface_mercury_messaging_1_1_task_1_1_i_mm_task_info_collection_loader-1-g.html" target="_top" xlink:title="Defines interfaces for loading Task Info collections.">
<polygon fill="white" stroke="#666666" points="1117,-30 968,-30 968,0 1117,0 1117,-30"/>
<text text-anchor="start" x="976" y="-18" font-family="Helvetica,sans-Serif" font-size="10.00">MercuryMessaging.Task.IMm</text>
<text text-anchor="middle" x="1042.5" y="-7" font-family="Helvetica,sans-Serif" font-size="10.00">TaskInfoCollectionLoader&lt; U &gt;</text>
</a>
</g>
</g>
<!-- Node17&#45;&gt;Node2 -->
<g id="edge19_Node000002_Node000017" class="edge">
<title>Node17&#45;&gt;Node2</title>
<g id="a_edge19_Node000002_Node000017"><a xlink:title=" ">
<path fill="none" stroke="#9a32cd" stroke-dasharray="5,2" d="M1127.51,-14.99C1164.88,-17.07 1208.94,-22.44 1247,-35 1272.68,-43.48 1298.86,-60.39 1316.01,-72.84"/>
<polygon fill="#9a32cd" stroke="#9a32cd" points="1127.31,-11.47 1117.15,-14.48 1126.97,-18.47 1127.31,-11.47"/>
</a>
</g>
<text text-anchor="start" x="1138" y="-40.5" font-family="Helvetica,sans-Serif" font-size="10.00" fill="grey">taskInfoCollectionLoader</text>
</g>
</g>
</svg>
