<?xml version="1.0" encoding="UTF-8" standalone="no"?>
<!DOCTYPE svg PUBLIC "-//W3C//DTD SVG 1.1//EN"
 "http://www.w3.org/Graphics/SVG/1.1/DTD/svg11.dtd">
<!-- Generated by graphviz version 2.44.1 (20200629.0800)
 -->
<!-- Title: MercuryMessaging.MmBaseResponder Pages: 1 -->
<svg width="1023pt" height="460pt"
 viewBox="0.00 0.00 1023.00 460.00" xmlns="http://www.w3.org/2000/svg" xmlns:xlink="http://www.w3.org/1999/xlink">
<g id="graph0" class="graph" transform="scale(1 1) rotate(0) translate(4 456)">
<title>MercuryMessaging.MmBaseResponder</title>
<!-- Node1 -->
<g id="Node000001" class="node">
<title>Node1</title>
<g id="a_Node000001"><a xlink:title="MmResponder that implements a switch handling the framework&#45;provided MmMethods.">
<polygon fill="#999999" stroke="#666666" points="592,-240.5 404,-240.5 404,-221.5 592,-221.5 592,-240.5"/>
<text text-anchor="middle" x="498" y="-228.5" font-family="Helvetica,sans-Serif" font-size="10.00">MercuryMessaging.MmBaseResponder</text>
</a>
</g>
</g>
<!-- Node5 -->
<g id="Node000005" class="node">
<title>Node5</title>
<g id="a_Node000005"><a xlink:href="class_mercury_messaging_1_1_mm_app_state_responder.html" target="_top" xlink:title="Application State data.">
<polygon fill="white" stroke="#666666" points="797.5,-452 638.5,-452 638.5,-422 797.5,-422 797.5,-452"/>
<text text-anchor="start" x="646.5" y="-440" font-family="Helvetica,sans-Serif" font-size="10.00">MercuryMessaging.MmAppState</text>
<text text-anchor="middle" x="718" y="-429" font-family="Helvetica,sans-Serif" font-size="10.00">Responder</text>
</a>
</g>
</g>
<!-- Node1&#45;&gt;Node5 -->
<g id="edge4_Node000001_Node000005" class="edge">
<title>Node1&#45;&gt;Node5</title>
<g id="a_edge4_Node000001_Node000005"><a xlink:title=" ">
<path fill="none" stroke="#63b8ff" d="M507.01,-249.89C523.76,-287.08 566.14,-369.88 628,-413 632.99,-416.48 638.46,-419.45 644.15,-422"/>
<polygon fill="#63b8ff" stroke="#63b8ff" points="510.19,-248.44 502.97,-240.69 503.78,-251.25 510.19,-248.44"/>
</a>
</g>
</g>
<!-- Node6 -->
<g id="Node000006" class="node">
<title>Node6</title>
<g id="a_Node000006"><a xlink:href="class_mercury_messaging_1_1_mm_extendable_responder.html" target="_top" xlink:title="Base responder with extensible custom method handling via registration API.">
<polygon fill="white" stroke="#666666" points="801.5,-404 634.5,-404 634.5,-374 801.5,-374 801.5,-404"/>
<text text-anchor="start" x="642.5" y="-392" font-family="Helvetica,sans-Serif" font-size="10.00">MercuryMessaging.MmExtendable</text>
<text text-anchor="middle" x="718" y="-381" font-family="Helvetica,sans-Serif" font-size="10.00">Responder</text>
</a>
</g>
</g>
<!-- Node1&#45;&gt;Node6 -->
<g id="edge5_Node000001_Node000006" class="edge">
<title>Node1&#45;&gt;Node6</title>
<g id="a_edge5_Node000001_Node000006"><a xlink:title=" ">
<path fill="none" stroke="#63b8ff" d="M511.4,-249.2C532.12,-278.17 576.58,-334.6 628,-365 633.79,-368.42 640.07,-371.36 646.53,-373.9"/>
<polygon fill="#63b8ff" stroke="#63b8ff" points="514.14,-247 505.53,-240.82 508.41,-251.02 514.14,-247"/>
</a>
</g>
</g>
<!-- Node7 -->
<g id="Node000007" class="node">
<title>Node7</title>
<g id="a_Node000007"><a xlink:href="class_mercury_messaging_1_1_mm_gui_responder.html" target="_top" xlink:title="GUI Interaction Component &#45; Adapter for IMmGUI objects.">
<polygon fill="white" stroke="#666666" points="808,-355.5 628,-355.5 628,-336.5 808,-336.5 808,-355.5"/>
<text text-anchor="middle" x="718" y="-343.5" font-family="Helvetica,sans-Serif" font-size="10.00">MercuryMessaging.MmGuiResponder</text>
</a>
</g>
</g>
<!-- Node1&#45;&gt;Node7 -->
<g id="edge6_Node000001_Node000007" class="edge">
<title>Node1&#45;&gt;Node7</title>
<g id="a_edge6_Node000001_Node000007"><a xlink:title=" ">
<path fill="none" stroke="#63b8ff" d="M516.07,-247.58C539.39,-269.25 583.41,-306.82 628,-327 636.49,-330.84 645.8,-333.93 655.09,-336.39"/>
<polygon fill="#63b8ff" stroke="#63b8ff" points="518.39,-244.96 508.72,-240.63 513.59,-250.04 518.39,-244.96"/>
</a>
</g>
</g>
<!-- Node8 -->
<g id="Node000008" class="node">
<title>Node8</title>
<g id="a_Node000008"><a xlink:href="class_mercury_messaging_1_1_mm_switch_responder.html" target="_top" xlink:title="Controller for MmRelaySwitchNode.">
<polygon fill="white" stroke="#666666" points="792,-318 644,-318 644,-288 792,-288 792,-318"/>
<text text-anchor="start" x="652" y="-306" font-family="Helvetica,sans-Serif" font-size="10.00">MercuryMessaging.MmSwitch</text>
<text text-anchor="middle" x="718" y="-295" font-family="Helvetica,sans-Serif" font-size="10.00">Responder</text>
</a>
</g>
</g>
<!-- Node1&#45;&gt;Node8 -->
<g id="edge7_Node000001_Node000008" class="edge">
<title>Node1&#45;&gt;Node8</title>
<g id="a_edge7_Node000001_Node000008"><a xlink:title=" ">
<path fill="none" stroke="#63b8ff" d="M531.89,-244.2C557.78,-254.36 594.9,-268.41 628,-279 637.6,-282.07 647.87,-285.09 657.89,-287.89"/>
<polygon fill="#63b8ff" stroke="#63b8ff" points="533.13,-240.93 522.55,-240.51 530.56,-247.44 533.13,-240.93"/>
</a>
</g>
</g>
<!-- Node10 -->
<g id="Node000010" class="node">
<title>Node10</title>
<g id="a_Node000010"><a xlink:href="class_mercury_messaging_1_1_mm_transform_responder.html" target="_top" xlink:title=" ">
<polygon fill="white" stroke="#666666" points="798.5,-270 637.5,-270 637.5,-240 798.5,-240 798.5,-270"/>
<text text-anchor="start" x="645.5" y="-258" font-family="Helvetica,sans-Serif" font-size="10.00">MercuryMessaging.MmTransform</text>
<text text-anchor="middle" x="718" y="-247" font-family="Helvetica,sans-Serif" font-size="10.00">Responder</text>
</a>
</g>
</g>
<!-- Node1&#45;&gt;Node10 -->
<g id="edge9_Node000001_Node000010" class="edge">
<title>Node1&#45;&gt;Node10</title>
<g id="a_edge9_Node000001_Node000010"><a xlink:title=" ">
<path fill="none" stroke="#63b8ff" d="M595.58,-241.63C609.54,-243.17 623.78,-244.74 637.36,-246.23"/>
<polygon fill="#63b8ff" stroke="#63b8ff" points="595.8,-238.14 585.47,-240.52 595.03,-245.09 595.8,-238.14"/>
</a>
</g>
</g>
<!-- Node11 -->
<g id="Node000011" class="node">
<title>Node11</title>
<g id="a_Node000011"><a xlink:href="class_mercury_messaging_1_1_network_1_1_backends_1_1_network_test_responder.html" target="_top" xlink:title="Test responder that logs all received messages.">
<polygon fill="white" stroke="#666666" points="800,-222 636,-222 636,-192 800,-192 800,-222"/>
<text text-anchor="start" x="644" y="-210" font-family="Helvetica,sans-Serif" font-size="10.00">MercuryMessaging.Network.</text>
<text text-anchor="middle" x="718" y="-199" font-family="Helvetica,sans-Serif" font-size="10.00">Backends.NetworkTestResponder</text>
</a>
</g>
</g>
<!-- Node1&#45;&gt;Node11 -->
<g id="edge10_Node000001_Node000011" class="edge">
<title>Node1&#45;&gt;Node11</title>
<g id="a_edge10_Node000001_Node000011"><a xlink:title=" ">
<path fill="none" stroke="#63b8ff" d="M595.69,-220.36C609.14,-218.87 622.83,-217.37 635.95,-215.92"/>
<polygon fill="#63b8ff" stroke="#63b8ff" points="595.03,-216.91 585.47,-221.48 595.8,-223.86 595.03,-216.91"/>
</a>
</g>
</g>
<!-- Node12 -->
<g id="Node000012" class="node">
<title>Node12</title>
<g id="a_Node000012"><a xlink:href="class_mercury_messaging_1_1_standard_library_1_1_input_1_1_mm_input_responder.html" target="_top" xlink:title="Base responder for handling Standard Library Input messages.">
<polygon fill="white" stroke="#666666" points="796.5,-174 639.5,-174 639.5,-144 796.5,-144 796.5,-174"/>
<text text-anchor="start" x="647.5" y="-162" font-family="Helvetica,sans-Serif" font-size="10.00">MercuryMessaging.Standard</text>
<text text-anchor="middle" x="718" y="-151" font-family="Helvetica,sans-Serif" font-size="10.00">Library.Input.MmInputResponder</text>
</a>
</g>
</g>
<!-- Node1&#45;&gt;Node12 -->
<g id="edge11_Node000001_Node000012" class="edge">
<title>Node1&#45;&gt;Node12</title>
<g id="a_edge11_Node000001_Node000012"><a xlink:title=" ">
<path fill="none" stroke="#63b8ff" d="M531.89,-217.8C557.78,-207.64 594.9,-193.59 628,-183 637.6,-179.93 647.87,-176.91 657.89,-174.11"/>
<polygon fill="#63b8ff" stroke="#63b8ff" points="530.56,-214.56 522.55,-221.49 533.13,-221.07 530.56,-214.56"/>
</a>
</g>
</g>
<!-- Node13 -->
<g id="Node000013" class="node">
<title>Node13</title>
<g id="a_Node000013"><a xlink:href="class_mercury_messaging_1_1_standard_library_1_1_u_i_1_1_mm_u_i_responder.html" target="_top" xlink:title="Base responder for handling Standard Library UI messages.">
<polygon fill="white" stroke="#666666" points="788.5,-126 647.5,-126 647.5,-96 788.5,-96 788.5,-126"/>
<text text-anchor="start" x="655.5" y="-114" font-family="Helvetica,sans-Serif" font-size="10.00">MercuryMessaging.Standard</text>
<text text-anchor="middle" x="718" y="-103" font-family="Helvetica,sans-Serif" font-size="10.00">Library.UI.MmUIResponder</text>
</a>
</g>
</g>
<!-- Node1&#45;&gt;Node13 -->
<g id="edge12_Node000001_Node000013" class="edge">
<title>Node1&#45;&gt;Node13</title>
<g id="a_edge12_Node000001_Node000013"><a xlink:title=" ">
<path fill="none" stroke="#63b8ff" d="M516.6,-214.45C540.19,-193.11 584.19,-156.25 628,-135 634.91,-131.65 642.36,-128.71 649.9,-126.15"/>
<polygon fill="#63b8ff" stroke="#63b8ff" points="514.14,-211.95 509.14,-221.29 518.87,-217.11 514.14,-211.95"/>
</a>
</g>
</g>
<!-- Node14 -->
<g id="Node000014" class="node">
<title>Node14</title>
<g id="a_Node000014"><a xlink:href="class_mercury_messaging_1_1_task_1_1_mm_task_manager-1-g.html" target="_top" xlink:title="Class to manage a collection of tasks.">
<polygon fill="white" stroke="#666666" points="789.5,-78 646.5,-78 646.5,-48 789.5,-48 789.5,-78"/>
<text text-anchor="start" x="654.5" y="-66" font-family="Helvetica,sans-Serif" font-size="10.00">MercuryMessaging.Task.Mm</text>
<text text-anchor="middle" x="718" y="-55" font-family="Helvetica,sans-Serif" font-size="10.00">TaskManager&lt; U &gt;</text>
</a>
</g>
</g>
<!-- Node1&#45;&gt;Node14 -->
<g id="edge13_Node000001_Node000014" class="edge">
<title>Node1&#45;&gt;Node14</title>
<g id="a_edge13_Node000001_Node000014"><a xlink:title=" ">
<path fill="none" stroke="#63b8ff" d="M510.22,-212.72C530.07,-181.97 574.38,-120.01 628,-87 633.72,-83.48 639.96,-80.46 646.4,-77.89"/>
<polygon fill="#63b8ff" stroke="#63b8ff" points="507.25,-210.87 504.87,-221.2 513.17,-214.61 507.25,-210.87"/>
</a>
</g>
</g>
<!-- Node15 -->
<g id="Node000015" class="node">
<title>Node15</title>
<g id="a_Node000015"><a xlink:href="class_mercury_messaging_1_1_task_1_1_mm_task_responder-1-g.html" target="_top" xlink:title="MmTaskResponder are MmBaseResponder that deal with IMmTaskInfos.">
<polygon fill="white" stroke="#666666" points="789.5,-30 646.5,-30 646.5,0 789.5,0 789.5,-30"/>
<text text-anchor="start" x="654.5" y="-18" font-family="Helvetica,sans-Serif" font-size="10.00">MercuryMessaging.Task.Mm</text>
<text text-anchor="middle" x="718" y="-7" font-family="Helvetica,sans-Serif" font-size="10.00">TaskResponder&lt; T &gt;</text>
</a>
</g>
</g>
<!-- Node1&#45;&gt;Node15 -->
<g id="edge14_Node000001_Node000015" class="edge">
<title>Node1&#45;&gt;Node15</title>
<g id="a_edge14_Node000001_Node000015"><a xlink:title=" ">
<path fill="none" stroke="#63b8ff" d="M506.49,-211.62C522.55,-172.67 564.13,-84.73 628,-39 633.6,-34.99 639.82,-31.66 646.31,-28.88"/>
<polygon fill="#63b8ff" stroke="#63b8ff" points="503.11,-210.65 502.63,-221.23 509.6,-213.25 503.11,-210.65"/>
</a>
</g>
</g>
<!-- Node2 -->
<g id="Node000002" class="node">
<title>Node2</title>
<g id="a_Node000002"><a xlink:href="class_mercury_messaging_1_1_mm_responder.html" target="_top" xlink:title="Base implmentation of IMmResponder.">
<polygon fill="white" stroke="#666666" points="368,-240.5 203,-240.5 203,-221.5 368,-221.5 368,-240.5"/>
<text text-anchor="middle" x="285.5" y="-228.5" font-family="Helvetica,sans-Serif" font-size="10.00">MercuryMessaging.MmResponder</text>
</a>
</g>
</g>
<!-- Node2&#45;&gt;Node1 -->
<g id="edge1_Node000001_Node000002" class="edge">
<title>Node2&#45;&gt;Node1</title>
<g id="a_edge1_Node000001_Node000002"><a xlink:title=" ">
<path fill="none" stroke="#63b8ff" d="M378.4,-231C386.82,-231 395.37,-231 403.81,-231"/>
<polygon fill="#63b8ff" stroke="#63b8ff" points="378.19,-227.5 368.19,-231 378.19,-234.5 378.19,-227.5"/>
</a>
</g>
</g>
<!-- Node3 -->
<g id="Node000003" class="node">
<title>Node3</title>
<g id="a_Node000003"><a xlink:title=" ">
<polygon fill="white" stroke="#666666" points="125,-259.5 42,-259.5 42,-240.5 125,-240.5 125,-259.5"/>
<text text-anchor="middle" x="83.5" y="-247.5" font-family="Helvetica,sans-Serif" font-size="10.00">MonoBehaviour</text>
</a>
</g>
</g>
<!-- Node3&#45;&gt;Node2 -->
<g id="edge2_Node000002_Node000003" class="edge">
<title>Node3&#45;&gt;Node2</title>
<g id="a_edge2_Node000002_Node000003"><a xlink:title=" ">
<path fill="none" stroke="#63b8ff" d="M135.48,-245.16C155.91,-243.22 179.97,-240.93 202.72,-238.77"/>
<polygon fill="#63b8ff" stroke="#63b8ff" points="135.08,-241.68 125.46,-246.11 135.74,-248.65 135.08,-241.68"/>
</a>
</g>
</g>
<!-- Node4 -->
<g id="Node000004" class="node">
<title>Node4</title>
<g id="a_Node000004"><a xlink:href="interface_mercury_messaging_1_1_i_mm_responder.html" target="_top" xlink:title="The core of MercuryMessaging.">
<polygon fill="white" stroke="#666666" points="167,-222.5 0,-222.5 0,-203.5 167,-203.5 167,-222.5"/>
<text text-anchor="middle" x="83.5" y="-210.5" font-family="Helvetica,sans-Serif" font-size="10.00">MercuryMessaging.IMmResponder</text>
</a>
</g>
</g>
<!-- Node4&#45;&gt;Node2 -->
<g id="edge3_Node000002_Node000004" class="edge">
<title>Node4&#45;&gt;Node2</title>
<g id="a_edge3_Node000002_Node000004"><a xlink:title=" ">
<path fill="none" stroke="#63b8ff" d="M177.05,-221.33C185.66,-222.1 194.34,-222.89 202.83,-223.65"/>
<polygon fill="#63b8ff" stroke="#63b8ff" points="177.28,-217.84 167,-220.43 176.65,-224.81 177.28,-217.84"/>
</a>
</g>
</g>
<!-- Node9 -->
<g id="Node000009" class="node">
<title>Node9</title>
<g id="a_Node000009"><a xlink:href="class_mercury_messaging_1_1_mm_app_state_switch_responder.html" target="_top" xlink:title="MmSwitchResponder for controlling MmAppStates.">
<polygon fill="white" stroke="#666666" points="1009,-318 850,-318 850,-288 1009,-288 1009,-318"/>
<text text-anchor="start" x="858" y="-306" font-family="Helvetica,sans-Serif" font-size="10.00">MercuryMessaging.MmAppState</text>
<text text-anchor="middle" x="929.5" y="-295" font-family="Helvetica,sans-Serif" font-size="10.00">SwitchResponder</text>
</a>
</g>
</g>
<!-- Node8&#45;&gt;Node9 -->
<g id="edge8_Node000008_Node000009" class="edge">
<title>Node8&#45;&gt;Node9</title>
<g id="a_edge8_Node000008_Node000009"><a xlink:title=" ">
<path fill="none" stroke="#63b8ff" d="M802.45,-303C818.1,-303 834.42,-303 849.92,-303"/>
<polygon fill="#63b8ff" stroke="#63b8ff" points="802.27,-299.5 792.27,-303 802.27,-306.5 802.27,-299.5"/>
</a>
</g>
</g>
<!-- Node16 -->
<g id="Node000016" class="node">
<title>Node16</title>
<g id="a_Node000016"><a xlink:href="class_mercury_messaging_1_1_task_1_1_mm_transformation_task_responder-1-g.html" target="_top" xlink:title="Responder useful for creating MmTaskResponders handling transformation tasks in Unity.">
<polygon fill="white" stroke="#666666" points="1015,-30 844,-30 844,0 1015,0 1015,-30"/>
<text text-anchor="start" x="852" y="-18" font-family="Helvetica,sans-Serif" font-size="10.00">MercuryMessaging.Task.Mm</text>
<text text-anchor="middle" x="929.5" y="-7" font-family="Helvetica,sans-Serif" font-size="10.00">TransformationTaskResponder&lt; T &gt;</text>
</a>
</g>
</g>
<!-- Node15&#45;&gt;Node16 -->
<g id="edge15_Node000015_Node000016" class="edge">
<title>Node15&#45;&gt;Node16</title>
<g id="a_edge15_Node000015_Node000016"><a xlink:title=" ">
<path fill="none" stroke="#63b8ff" d="M799.94,-15C814.27,-15 829.23,-15 843.66,-15"/>
<polygon fill="#63b8ff" stroke="#63b8ff" points="799.64,-11.5 789.64,-15 799.64,-18.5 799.64,-11.5"/>
</a>
</g>
</g>
</g>
</svg>
