<?xml version="1.0" encoding="UTF-8" standalone="no"?>
<!DOCTYPE svg PUBLIC "-//W3C//DTD SVG 1.1//EN"
 "http://www.w3.org/Graphics/SVG/1.1/DTD/svg11.dtd">
<!-- Generated by graphviz version 2.44.1 (20200629.0800)
 -->
<!-- Title: MercuryMessaging.KeyedList&lt; K, V &gt; Pages: 1 -->
<svg width="230pt" height="104pt"
 viewBox="0.00 0.00 229.50 104.00" xmlns="http://www.w3.org/2000/svg" xmlns:xlink="http://www.w3.org/1999/xlink">
<g id="graph0" class="graph" transform="scale(1 1) rotate(0) translate(4 100)">
<title>MercuryMessaging.KeyedList&lt; K, V &gt;</title>
<!-- Node1 -->
<g id="Node000001" class="node">
<title>Node1</title>
<g id="a_Node000001"><a xlink:title=" ">
<polygon fill="#999999" stroke="#666666" points="183,-30 37,-30 37,0 183,0 183,-30"/>
<text text-anchor="start" x="45" y="-18" font-family="Helvetica,sans-Serif" font-size="10.00">MercuryMessaging.KeyedList</text>
<text text-anchor="middle" x="110" y="-7" font-family="Helvetica,sans-Serif" font-size="10.00">&lt; K, V &gt;</text>
</a>
</g>
</g>
<!-- Node2 -->
<g id="Node000002" class="node">
<title>Node2</title>
<g id="a_Node000002"><a xlink:title=" ">
<polygon fill="white" stroke="#666666" points="100,-90.5 0,-90.5 0,-71.5 100,-71.5 100,-90.5"/>
<text text-anchor="middle" x="50" y="-78.5" font-family="Helvetica,sans-Serif" font-size="10.00">IDictionary&lt; K, V &gt;</text>
</a>
</g>
</g>
<!-- Node2&#45;&gt;Node1 -->
<g id="edge1_Node000001_Node000002" class="edge">
<title>Node2&#45;&gt;Node1</title>
<g id="a_edge1_Node000001_Node000002"><a xlink:title=" ">
<path fill="none" stroke="#63b8ff" d="M65.14,-63.85C74.8,-53.54 87.22,-40.3 96.54,-30.36"/>
<polygon fill="#63b8ff" stroke="#63b8ff" points="62.38,-61.68 58.09,-71.37 67.48,-66.47 62.38,-61.68"/>
</a>
</g>
</g>
<!-- Node3 -->
<g id="Node000003" class="node">
<title>Node3</title>
<g id="a_Node000003"><a xlink:title=" ">
<polygon fill="white" stroke="#666666" points="221.5,-96 118.5,-96 118.5,-66 221.5,-66 221.5,-96"/>
<text text-anchor="start" x="126.5" y="-84" font-family="Helvetica,sans-Serif" font-size="10.00">IList&lt; KeyValuePair</text>
<text text-anchor="middle" x="170" y="-73" font-family="Helvetica,sans-Serif" font-size="10.00">&lt; K, V &gt; &gt;</text>
</a>
</g>
</g>
<!-- Node3&#45;&gt;Node1 -->
<g id="edge2_Node000001_Node000003" class="edge">
<title>Node3&#45;&gt;Node1</title>
<g id="a_edge2_Node000001_Node000003"><a xlink:title=" ">
<path fill="none" stroke="#63b8ff" d="M149.72,-58.37C140.99,-49.06 131.04,-38.44 123.28,-30.16"/>
<polygon fill="#63b8ff" stroke="#63b8ff" points="147.29,-60.89 156.68,-65.8 152.4,-56.11 147.29,-60.89"/>
</a>
</g>
</g>
</g>
</svg>
