<?xml version="1.0" encoding="UTF-8" standalone="no"?>
<!DOCTYPE svg PUBLIC "-//W3C//DTD SVG 1.1//EN"
 "http://www.w3.org/Graphics/SVG/1.1/DTD/svg11.dtd">
<!-- Generated by graphviz version 2.44.1 (20200629.0800)
 -->
<!-- Title: MercuryMessaging.MmRoutingTable Pages: 1 -->
<svg width="162pt" height="159pt"
 viewBox="0.00 0.00 162.00 159.00" xmlns="http://www.w3.org/2000/svg" xmlns:xlink="http://www.w3.org/1999/xlink">
<g id="graph0" class="graph" transform="scale(1 1) rotate(0) translate(4 155)">
<title>MercuryMessaging.MmRoutingTable</title>
<!-- Node1 -->
<g id="Node000001" class="node">
<title>Node1</title>
<g id="a_Node000001"><a xlink:title="A form of Reorderable List ReorderableList&lt;T&gt; specifically for all derivations of MmResponder.">
<polygon fill="#999999" stroke="#666666" points="153,-30 1,-30 1,0 153,0 153,-30"/>
<text text-anchor="start" x="9" y="-18" font-family="Helvetica,sans-Serif" font-size="10.00">MercuryMessaging.MmRouting</text>
<text text-anchor="middle" x="77" y="-7" font-family="Helvetica,sans-Serif" font-size="10.00">Table</text>
</a>
</g>
</g>
<!-- Node2 -->
<g id="Node000002" class="node">
<title>Node2</title>
<g id="a_Node000002"><a xlink:href="class_mercury_messaging_1_1_reorderable_list-1-g.html" target="_top" xlink:title=" ">
<polygon fill="white" stroke="#666666" points="154,-96 0,-96 0,-66 154,-66 154,-96"/>
<text text-anchor="start" x="8" y="-84" font-family="Helvetica,sans-Serif" font-size="10.00">MercuryMessaging.Reorderable</text>
<text text-anchor="middle" x="77" y="-73" font-family="Helvetica,sans-Serif" font-size="10.00">List&lt; T &gt;</text>
</a>
</g>
</g>
<!-- Node2&#45;&gt;Node1 -->
<g id="edge1_Node000001_Node000002" class="edge">
<title>Node2&#45;&gt;Node1</title>
<g id="a_edge1_Node000001_Node000002"><a xlink:title=" ">
<path fill="none" stroke="#63b8ff" d="M77,-55.54C77,-46.96 77,-37.61 77,-30.16"/>
<polygon fill="#63b8ff" stroke="#63b8ff" points="73.5,-55.8 77,-65.8 80.5,-55.8 73.5,-55.8"/>
</a>
</g>
</g>
<!-- Node3 -->
<g id="Node000003" class="node">
<title>Node3</title>
<g id="a_Node000003"><a xlink:title=" ">
<polygon fill="white" stroke="#666666" points="106,-151 48,-151 48,-132 106,-132 106,-151"/>
<text text-anchor="middle" x="77" y="-139" font-family="Helvetica,sans-Serif" font-size="10.00">IList&lt; T &gt;</text>
</a>
</g>
</g>
<!-- Node3&#45;&gt;Node2 -->
<g id="edge2_Node000002_Node000003" class="edge">
<title>Node3&#45;&gt;Node2</title>
<g id="a_edge2_Node000002_Node000003"><a xlink:title=" ">
<path fill="none" stroke="#63b8ff" d="M77,-121.65C77,-113.36 77,-103.78 77,-96.11"/>
<polygon fill="#63b8ff" stroke="#63b8ff" points="73.5,-121.87 77,-131.87 80.5,-121.87 73.5,-121.87"/>
</a>
</g>
</g>
</g>
</svg>
