<?xml version="1.0" encoding="UTF-8" standalone="no"?>
<!DOCTYPE svg PUBLIC "-//W3C//DTD SVG 1.1//EN"
 "http://www.w3.org/Graphics/SVG/1.1/DTD/svg11.dtd">
<!-- Generated by graphviz version 2.44.1 (20200629.0800)
 -->
<!-- Title: MercuryMessaging.FiniteStateMachine&lt; T &gt; Pages: 1 -->
<svg width="337pt" height="170pt"
 viewBox="0.00 0.00 337.00 170.00" xmlns="http://www.w3.org/2000/svg" xmlns:xlink="http://www.w3.org/1999/xlink">
<g id="graph0" class="graph" transform="scale(1 1) rotate(0) translate(4 166)">
<title>MercuryMessaging.FiniteStateMachine&lt; T &gt;</title>
<!-- Node1 -->
<g id="Node000001" class="node">
<title>Node1</title>
<g id="a_Node000001"><a xlink:title="Finite State Machine, supporting generic types states.">
<polygon fill="#999999" stroke="#666666" points="261.5,-30 112.5,-30 112.5,0 261.5,0 261.5,-30"/>
<text text-anchor="start" x="120.5" y="-18" font-family="Helvetica,sans-Serif" font-size="10.00">MercuryMessaging.FiniteState</text>
<text text-anchor="middle" x="187" y="-7" font-family="Helvetica,sans-Serif" font-size="10.00">Machine&lt; T &gt;</text>
</a>
</g>
</g>
<!-- Node2 -->
<g id="Node000002" class="node">
<title>Node2</title>
<g id="a_Node000002"><a xlink:href="class_mercury_messaging_1_1_keyed_list-2-g.html" target="_top" xlink:title=" ">
<polygon fill="white" stroke="#666666" points="183,-96 37,-96 37,-66 183,-66 183,-96"/>
<text text-anchor="start" x="45" y="-84" font-family="Helvetica,sans-Serif" font-size="10.00">MercuryMessaging.KeyedList</text>
<text text-anchor="middle" x="110" y="-73" font-family="Helvetica,sans-Serif" font-size="10.00">&lt; K, V &gt;</text>
</a>
</g>
</g>
<!-- Node2&#45;&gt;Node1 -->
<g id="edge1_Node000001_Node000002" class="edge">
<title>Node2&#45;&gt;Node1</title>
<g id="a_edge1_Node000001_Node000002"><a xlink:title=" ">
<path fill="none" stroke="#63b8ff" d="M135.02,-59.2C146.45,-49.7 159.7,-38.69 169.96,-30.16"/>
<polygon fill="#63b8ff" stroke="#63b8ff" points="132.54,-56.71 127.09,-65.8 137.02,-62.1 132.54,-56.71"/>
</a>
</g>
</g>
<!-- Node3 -->
<g id="Node000003" class="node">
<title>Node3</title>
<g id="a_Node000003"><a xlink:title=" ">
<polygon fill="white" stroke="#666666" points="100,-156.5 0,-156.5 0,-137.5 100,-137.5 100,-156.5"/>
<text text-anchor="middle" x="50" y="-144.5" font-family="Helvetica,sans-Serif" font-size="10.00">IDictionary&lt; K, V &gt;</text>
</a>
</g>
</g>
<!-- Node3&#45;&gt;Node2 -->
<g id="edge2_Node000002_Node000003" class="edge">
<title>Node3&#45;&gt;Node2</title>
<g id="a_edge2_Node000002_Node000003"><a xlink:title=" ">
<path fill="none" stroke="#63b8ff" d="M65.14,-129.85C74.8,-119.54 87.22,-106.3 96.54,-96.36"/>
<polygon fill="#63b8ff" stroke="#63b8ff" points="62.38,-127.68 58.09,-137.37 67.48,-132.47 62.38,-127.68"/>
</a>
</g>
</g>
<!-- Node4 -->
<g id="Node000004" class="node">
<title>Node4</title>
<g id="a_Node000004"><a xlink:title=" ">
<polygon fill="white" stroke="#666666" points="221.5,-162 118.5,-162 118.5,-132 221.5,-132 221.5,-162"/>
<text text-anchor="start" x="126.5" y="-150" font-family="Helvetica,sans-Serif" font-size="10.00">IList&lt; KeyValuePair</text>
<text text-anchor="middle" x="170" y="-139" font-family="Helvetica,sans-Serif" font-size="10.00">&lt; K, V &gt; &gt;</text>
</a>
</g>
</g>
<!-- Node4&#45;&gt;Node2 -->
<g id="edge3_Node000002_Node000004" class="edge">
<title>Node4&#45;&gt;Node2</title>
<g id="a_edge3_Node000002_Node000004"><a xlink:title=" ">
<path fill="none" stroke="#63b8ff" d="M149.72,-124.37C140.99,-115.06 131.04,-104.44 123.28,-96.16"/>
<polygon fill="#63b8ff" stroke="#63b8ff" points="147.29,-126.89 156.68,-131.8 152.4,-122.11 147.29,-126.89"/>
</a>
</g>
</g>
<!-- Node5 -->
<g id="Node000005" class="node">
<title>Node5</title>
<g id="a_Node000005"><a xlink:href="interface_mercury_messaging_1_1_i_finite_state_machine-1-g.html" target="_top" xlink:title="Defines required methods for a Finite State Machine.">
<polygon fill="white" stroke="#666666" points="329,-96 201,-96 201,-66 329,-66 329,-96"/>
<text text-anchor="start" x="209" y="-84" font-family="Helvetica,sans-Serif" font-size="10.00">MercuryMessaging.IFinite</text>
<text text-anchor="middle" x="265" y="-73" font-family="Helvetica,sans-Serif" font-size="10.00">StateMachine&lt; T &gt;</text>
</a>
</g>
</g>
<!-- Node5&#45;&gt;Node1 -->
<g id="edge4_Node000001_Node000005" class="edge">
<title>Node5&#45;&gt;Node1</title>
<g id="a_edge4_Node000001_Node000005"><a xlink:title=" ">
<path fill="none" stroke="#63b8ff" d="M239.65,-59.2C228.07,-49.7 214.65,-38.69 204.26,-30.16"/>
<polygon fill="#63b8ff" stroke="#63b8ff" points="237.74,-62.16 247.69,-65.8 242.18,-56.75 237.74,-62.16"/>
</a>
</g>
</g>
</g>
</svg>
