<?xml version="1.0" encoding="UTF-8" standalone="no"?>
<!DOCTYPE svg PUBLIC "-//W3C//DTD SVG 1.1//EN"
 "http://www.w3.org/Graphics/SVG/1.1/DTD/svg11.dtd">
<!-- Generated by graphviz version 2.44.1 (20200629.0800)
 -->
<!-- Title: MercuryMessaging.MmListenerSubscriptionImpl&lt; T &gt; Pages: 1 -->
<svg width="1198pt" height="181pt"
 viewBox="0.00 0.00 1198.00 180.50" xmlns="http://www.w3.org/2000/svg" xmlns:xlink="http://www.w3.org/1999/xlink">
<g id="graph0" class="graph" transform="scale(1 1) rotate(0) translate(4 176.5)">
<title>MercuryMessaging.MmListenerSubscriptionImpl&lt; T &gt;</title>
<!-- Node1 -->
<g id="Node000001" class="node">
<title>Node1</title>
<g id="a_Node000001"><a xlink:title="Generic listener subscription that implements the interface.">
<polygon fill="#999999" stroke="#666666" points="1190,-132 1037,-132 1037,-102 1190,-102 1190,-132"/>
<text text-anchor="start" x="1045" y="-120" font-family="Helvetica,sans-Serif" font-size="10.00">MercuryMessaging.MmListener</text>
<text text-anchor="middle" x="1113.5" y="-109" font-family="Helvetica,sans-Serif" font-size="10.00">SubscriptionImpl&lt; T &gt;</text>
</a>
</g>
</g>
<!-- Node2 -->
<g id="Node000002" class="node">
<title>Node2</title>
<g id="a_Node000002"><a xlink:href="interface_mercury_messaging_1_1_i_mm_listener_subscription.html" target="_top" xlink:title="Non&#45;generic base interface for listener subscriptions.">
<polygon fill="white" stroke="#666666" points="968,-156 813,-156 813,-126 968,-126 968,-156"/>
<text text-anchor="start" x="821" y="-144" font-family="Helvetica,sans-Serif" font-size="10.00">MercuryMessaging.IMmListener</text>
<text text-anchor="middle" x="890.5" y="-133" font-family="Helvetica,sans-Serif" font-size="10.00">Subscription</text>
</a>
</g>
</g>
<!-- Node2&#45;&gt;Node1 -->
<g id="edge1_Node000001_Node000002" class="edge">
<title>Node2&#45;&gt;Node1</title>
<g id="a_edge1_Node000001_Node000002"><a xlink:title=" ">
<path fill="none" stroke="#63b8ff" d="M978.18,-131.59C997.51,-129.49 1017.86,-127.28 1036.71,-125.23"/>
<polygon fill="#63b8ff" stroke="#63b8ff" points="977.74,-128.11 968.17,-132.67 978.49,-135.07 977.74,-128.11"/>
</a>
</g>
</g>
<!-- Node3 -->
<g id="Node000003" class="node">
<title>Node3</title>
<g id="a_Node000003"><a xlink:title=" ">
<polygon fill="white" stroke="#666666" points="694.5,-140.5 627.5,-140.5 627.5,-121.5 694.5,-121.5 694.5,-140.5"/>
<text text-anchor="middle" x="661" y="-128.5" font-family="Helvetica,sans-Serif" font-size="10.00">IDisposable</text>
</a>
</g>
</g>
<!-- Node3&#45;&gt;Node2 -->
<g id="edge2_Node000002_Node000003" class="edge">
<title>Node3&#45;&gt;Node2</title>
<g id="a_edge2_Node000002_Node000003"><a xlink:title=" ">
<path fill="none" stroke="#63b8ff" d="M704.84,-132.88C735.19,-134.22 776.75,-136.04 812.75,-137.63"/>
<polygon fill="#63b8ff" stroke="#63b8ff" points="704.74,-129.38 694.6,-132.43 704.43,-136.37 704.74,-129.38"/>
</a>
</g>
</g>
<!-- Node4 -->
<g id="Node000004" class="node">
<title>Node4</title>
<g id="a_Node000004"><a xlink:href="class_mercury_messaging_1_1_mm_listener_subscription-1-g.html" target="_top" xlink:title="Represents an active message listener subscription.">
<polygon fill="white" stroke="#666666" points="967,-108 814,-108 814,-78 967,-78 967,-108"/>
<text text-anchor="start" x="822" y="-96" font-family="Helvetica,sans-Serif" font-size="10.00">MercuryMessaging.MmListener</text>
<text text-anchor="middle" x="890.5" y="-85" font-family="Helvetica,sans-Serif" font-size="10.00">Subscription&lt; T &gt;</text>
</a>
</g>
</g>
<!-- Node3&#45;&gt;Node4 -->
<g id="edge4_Node000004_Node000003" class="edge">
<title>Node3&#45;&gt;Node4</title>
<g id="a_edge4_Node000004_Node000003"><a xlink:title=" ">
<path fill="none" stroke="#63b8ff" d="M704.52,-123.9C735.17,-118.78 777.37,-111.73 813.72,-105.66"/>
<polygon fill="#63b8ff" stroke="#63b8ff" points="703.88,-120.46 694.6,-125.56 705.04,-127.36 703.88,-120.46"/>
</a>
</g>
</g>
<!-- Node4&#45;&gt;Node1 -->
<g id="edge3_Node000001_Node000004" class="edge">
<title>Node4&#45;&gt;Node1</title>
<g id="a_edge3_Node000001_Node000004"><a xlink:title=" ">
<path fill="none" stroke="#9a32cd" stroke-dasharray="5,2" d="M977.14,-101.55C991.13,-103 1005.47,-104.51 1019,-106 1024.85,-106.64 1030.9,-107.32 1036.99,-108.01"/>
<polygon fill="#9a32cd" stroke="#9a32cd" points="977.34,-98.05 967.03,-100.51 976.62,-105.01 977.34,-98.05"/>
</a>
</g>
<text text-anchor="start" x="989.5" y="-111.5" font-family="Helvetica,sans-Serif" font-size="10.00" fill="grey">_inner</text>
</g>
<!-- Node5 -->
<g id="Node000005" class="node">
<title>Node5</title>
<g id="a_Node000005"><a xlink:href="class_mercury_messaging_1_1_mm_relay_node.html" target="_top" xlink:title="Base routing node of Mercury XM.">
<polygon fill="white" stroke="#666666" points="744,-93.5 578,-93.5 578,-74.5 744,-74.5 744,-93.5"/>
<text text-anchor="middle" x="661" y="-81.5" font-family="Helvetica,sans-Serif" font-size="10.00">MercuryMessaging.MmRelayNode</text>
</a>
</g>
</g>
<!-- Node5&#45;&gt;Node4 -->
<g id="edge5_Node000004_Node000005" class="edge">
<title>Node5&#45;&gt;Node4</title>
<g id="a_edge5_Node000004_Node000005"><a xlink:title=" ">
<path fill="none" stroke="#9a32cd" stroke-dasharray="5,2" d="M754.62,-83.78C768.17,-84.02 781.95,-84.4 795,-85 801.17,-85.28 807.56,-85.66 813.97,-86.09"/>
<polygon fill="#9a32cd" stroke="#9a32cd" points="754.38,-80.28 744.33,-83.63 754.27,-87.28 754.38,-80.28"/>
</a>
</g>
<text text-anchor="start" x="765.5" y="-90.5" font-family="Helvetica,sans-Serif" font-size="10.00" fill="grey">_relay</text>
</g>
<!-- Node6 -->
<g id="Node000006" class="node">
<title>Node6</title>
<g id="a_Node000006"><a xlink:href="class_mercury_messaging_1_1_mm_responder.html" target="_top" xlink:title="Base implmentation of IMmResponder.">
<polygon fill="white" stroke="#666666" points="464,-154.5 299,-154.5 299,-135.5 464,-135.5 464,-154.5"/>
<text text-anchor="middle" x="381.5" y="-142.5" font-family="Helvetica,sans-Serif" font-size="10.00">MercuryMessaging.MmResponder</text>
</a>
</g>
</g>
<!-- Node6&#45;&gt;Node5 -->
<g id="edge6_Node000005_Node000006" class="edge">
<title>Node6&#45;&gt;Node5</title>
<g id="a_edge6_Node000005_Node000006"><a xlink:title=" ">
<path fill="none" stroke="#63b8ff" d="M448.05,-133.65C481.65,-127.52 523.15,-119.49 560,-111 582.43,-105.83 607.43,-99.08 626.82,-93.62"/>
<polygon fill="#63b8ff" stroke="#63b8ff" points="447.11,-130.26 437.89,-135.49 448.35,-137.15 447.11,-130.26"/>
</a>
</g>
</g>
<!-- Node7 -->
<g id="Node000007" class="node">
<title>Node7</title>
<g id="a_Node000007"><a xlink:title=" ">
<polygon fill="white" stroke="#666666" points="220,-172.5 137,-172.5 137,-153.5 220,-153.5 220,-172.5"/>
<text text-anchor="middle" x="178.5" y="-160.5" font-family="Helvetica,sans-Serif" font-size="10.00">MonoBehaviour</text>
</a>
</g>
</g>
<!-- Node7&#45;&gt;Node6 -->
<g id="edge7_Node000006_Node000007" class="edge">
<title>Node7&#45;&gt;Node6</title>
<g id="a_edge7_Node000006_Node000007"><a xlink:title=" ">
<path fill="none" stroke="#63b8ff" d="M230.35,-158.45C251.1,-156.59 275.63,-154.39 298.78,-152.32"/>
<polygon fill="#63b8ff" stroke="#63b8ff" points="229.82,-154.98 220.18,-159.36 230.45,-161.95 229.82,-154.98"/>
</a>
</g>
</g>
<!-- Node8 -->
<g id="Node000008" class="node">
<title>Node8</title>
<g id="a_Node000008"><a xlink:href="interface_mercury_messaging_1_1_i_mm_responder.html" target="_top" xlink:title="The core of MercuryMessaging.">
<polygon fill="white" stroke="#666666" points="262,-135.5 95,-135.5 95,-116.5 262,-116.5 262,-135.5"/>
<text text-anchor="middle" x="178.5" y="-123.5" font-family="Helvetica,sans-Serif" font-size="10.00">MercuryMessaging.IMmResponder</text>
</a>
</g>
</g>
<!-- Node8&#45;&gt;Node6 -->
<g id="edge8_Node000006_Node000008" class="edge">
<title>Node8&#45;&gt;Node6</title>
<g id="a_edge8_Node000006_Node000008"><a xlink:title=" ">
<path fill="none" stroke="#63b8ff" d="M272.14,-134.76C281.05,-135.6 290.05,-136.45 298.85,-137.28"/>
<polygon fill="#63b8ff" stroke="#63b8ff" points="272.41,-131.27 262.12,-133.81 271.75,-138.24 272.41,-131.27"/>
</a>
</g>
</g>
<!-- Node9 -->
<g id="Node000009" class="node">
<title>Node9</title>
<g id="a_Node000009"><a xlink:href="interface_mercury_messaging_1_1_i_mm_node.html" target="_top" xlink:title="Defines methods required by an MmResponder &amp; utility methods making invocation MmMethods with built&#45;i...">
<polygon fill="white" stroke="#666666" points="453,-117.5 310,-117.5 310,-98.5 453,-98.5 453,-117.5"/>
<text text-anchor="middle" x="381.5" y="-105.5" font-family="Helvetica,sans-Serif" font-size="10.00">MercuryMessaging.IMmNode</text>
</a>
</g>
</g>
<!-- Node9&#45;&gt;Node5 -->
<g id="edge9_Node000005_Node000009" class="edge">
<title>Node9&#45;&gt;Node5</title>
<g id="a_edge9_Node000005_Node000009"><a xlink:title=" ">
<path fill="none" stroke="#63b8ff" d="M463.45,-101.97C493.75,-99.62 528.47,-96.82 560,-94 565.82,-93.48 571.83,-92.92 577.88,-92.35"/>
<polygon fill="#63b8ff" stroke="#63b8ff" points="463.06,-98.49 453.35,-102.75 463.59,-105.47 463.06,-98.49"/>
</a>
</g>
</g>
<!-- Node10 -->
<g id="Node000010" class="node">
<title>Node10</title>
<g id="a_Node000010"><a xlink:href="class_mercury_messaging_1_1_mm_circular_buffer-1-g.html" target="_top" xlink:title="Fixed&#45;size circular buffer that automatically overwrites oldest entries Used for message history trac...">
<polygon fill="white" stroke="#666666" points="457.5,-78 305.5,-78 305.5,-48 457.5,-48 457.5,-78"/>
<text text-anchor="start" x="313.5" y="-66" font-family="Helvetica,sans-Serif" font-size="10.00">MercuryMessaging.MmCircular</text>
<text text-anchor="middle" x="381.5" y="-55" font-family="Helvetica,sans-Serif" font-size="10.00">Buffer&lt; T &gt;</text>
</a>
</g>
</g>
<!-- Node10&#45;&gt;Node5 -->
<g id="edge10_Node000005_Node000010" class="edge">
<title>Node10&#45;&gt;Node5</title>
<g id="a_edge10_Node000005_Node000010"><a xlink:title=" ">
<path fill="none" stroke="#9a32cd" stroke-dasharray="5,2" d="M468.02,-58.59C497.26,-58.12 530.13,-58.75 560,-62 582.09,-64.4 606.45,-69.7 625.6,-74.5"/>
<polygon fill="#9a32cd" stroke="#9a32cd" points="467.76,-55.1 457.83,-58.8 467.9,-62.09 467.76,-55.1"/>
</a>
</g>
<text text-anchor="start" x="485" y="-83" font-family="Helvetica,sans-Serif" font-size="10.00" fill="grey">messageInList</text>
<text text-anchor="start" x="485" y="-68" font-family="Helvetica,sans-Serif" font-size="10.00" fill="grey">messageOutList</text>
</g>
<!-- Node11 -->
<g id="Node000011" class="node">
<title>Node11</title>
<g id="a_Node000011"><a xlink:title=" ">
<polygon fill="white" stroke="#666666" points="225.5,-72.5 131.5,-72.5 131.5,-53.5 225.5,-53.5 225.5,-72.5"/>
<text text-anchor="middle" x="178.5" y="-60.5" font-family="Helvetica,sans-Serif" font-size="10.00">IEnumerable&lt; T &gt;</text>
</a>
</g>
</g>
<!-- Node11&#45;&gt;Node10 -->
<g id="edge11_Node000010_Node000011" class="edge">
<title>Node11&#45;&gt;Node10</title>
<g id="a_edge11_Node000010_Node000011"><a xlink:title=" ">
<path fill="none" stroke="#63b8ff" d="M235.91,-63C257.47,-63 282.42,-63 305.45,-63"/>
<polygon fill="#63b8ff" stroke="#63b8ff" points="235.61,-59.5 225.61,-63 235.61,-66.5 235.61,-59.5"/>
</a>
</g>
</g>
<!-- Node12 -->
<g id="Node000012" class="node">
<title>Node12</title>
<g id="a_Node000012"><a xlink:href="class_mercury_messaging_1_1_mm_routing_table.html" target="_top" xlink:title="A form of Reorderable List ReorderableList&lt;T&gt; specifically for all derivations of MmResponder.">
<polygon fill="white" stroke="#666666" points="457.5,-30 305.5,-30 305.5,0 457.5,0 457.5,-30"/>
<text text-anchor="start" x="313.5" y="-18" font-family="Helvetica,sans-Serif" font-size="10.00">MercuryMessaging.MmRouting</text>
<text text-anchor="middle" x="381.5" y="-7" font-family="Helvetica,sans-Serif" font-size="10.00">Table</text>
</a>
</g>
</g>
<!-- Node12&#45;&gt;Node5 -->
<g id="edge12_Node000005_Node000012" class="edge">
<title>Node12&#45;&gt;Node5</title>
<g id="a_edge12_Node000005_Node000012"><a xlink:title=" ">
<path fill="none" stroke="#9a32cd" stroke-dasharray="5,2" d="M468.11,-20.1C497.63,-23.3 530.65,-28.52 560,-37 590.96,-45.95 624.35,-63.39 643.65,-74.33"/>
<polygon fill="#9a32cd" stroke="#9a32cd" points="468.13,-16.59 457.83,-19.05 467.42,-23.55 468.13,-16.59"/>
</a>
</g>
<text text-anchor="start" x="493" y="-42.5" font-family="Helvetica,sans-Serif" font-size="10.00" fill="grey">RoutingTable</text>
</g>
<!-- Node13 -->
<g id="Node000013" class="node">
<title>Node13</title>
<g id="a_Node000013"><a xlink:href="class_mercury_messaging_1_1_reorderable_list-1-g.html" target="_top" xlink:title=" ">
<polygon fill="white" stroke="#666666" points="255.5,-30 101.5,-30 101.5,0 255.5,0 255.5,-30"/>
<text text-anchor="start" x="109.5" y="-18" font-family="Helvetica,sans-Serif" font-size="10.00">MercuryMessaging.Reorderable</text>
<text text-anchor="middle" x="178.5" y="-7" font-family="Helvetica,sans-Serif" font-size="10.00">List&lt; T &gt;</text>
</a>
</g>
</g>
<!-- Node13&#45;&gt;Node12 -->
<g id="edge13_Node000012_Node000013" class="edge">
<title>Node13&#45;&gt;Node12</title>
<g id="a_edge13_Node000012_Node000013"><a xlink:title=" ">
<path fill="none" stroke="#63b8ff" d="M266.14,-15C279.17,-15 292.51,-15 305.27,-15"/>
<polygon fill="#63b8ff" stroke="#63b8ff" points="265.78,-11.5 255.78,-15 265.78,-18.5 265.78,-11.5"/>
</a>
</g>
</g>
<!-- Node14 -->
<g id="Node000014" class="node">
<title>Node14</title>
<g id="a_Node000014"><a xlink:title=" ">
<polygon fill="white" stroke="#666666" points="58,-24.5 0,-24.5 0,-5.5 58,-5.5 58,-24.5"/>
<text text-anchor="middle" x="29" y="-12.5" font-family="Helvetica,sans-Serif" font-size="10.00">IList&lt; T &gt;</text>
</a>
</g>
</g>
<!-- Node14&#45;&gt;Node13 -->
<g id="edge14_Node000013_Node000014" class="edge">
<title>Node14&#45;&gt;Node13</title>
<g id="a_edge14_Node000013_Node000014"><a xlink:title=" ">
<path fill="none" stroke="#63b8ff" d="M68.25,-15C78.45,-15 89.85,-15 101.32,-15"/>
<polygon fill="#63b8ff" stroke="#63b8ff" points="68.09,-11.5 58.09,-15 68.09,-18.5 68.09,-11.5"/>
</a>
</g>
</g>
</g>
</svg>
