<?xml version="1.0" encoding="UTF-8" standalone="no"?>
<!DOCTYPE svg PUBLIC "-//W3C//DTD SVG 1.1//EN"
 "http://www.w3.org/Graphics/SVG/1.1/DTD/svg11.dtd">
<!-- Generated by graphviz version 2.44.1 (20200629.0800)
 -->
<!-- Title: MercuryMessaging.MmTemporalRunner Pages: 1 -->
<svg width="324pt" height="177pt"
 viewBox="0.00 0.00 324.00 177.00" xmlns="http://www.w3.org/2000/svg" xmlns:xlink="http://www.w3.org/1999/xlink">
<g id="graph0" class="graph" transform="scale(1 1) rotate(0) translate(4 173)">
<title>MercuryMessaging.MmTemporalRunner</title>
<!-- Node1 -->
<g id="Node000001" class="node">
<title>Node1</title>
<g id="a_Node000001"><a xlink:title="MonoBehaviour that runs temporal coroutines.">
<polygon fill="#999999" stroke="#666666" points="158,-30 0,-30 0,0 158,0 158,-30"/>
<text text-anchor="start" x="8" y="-18" font-family="Helvetica,sans-Serif" font-size="10.00">MercuryMessaging.MmTemporal</text>
<text text-anchor="middle" x="79" y="-7" font-family="Helvetica,sans-Serif" font-size="10.00">Runner</text>
</a>
</g>
</g>
<!-- Node2 -->
<g id="Node000002" class="node">
<title>Node2</title>
<g id="a_Node000002"><a xlink:title=" ">
<polygon fill="white" stroke="#666666" points="116.5,-169 33.5,-169 33.5,-150 116.5,-150 116.5,-169"/>
<text text-anchor="middle" x="75" y="-157" font-family="Helvetica,sans-Serif" font-size="10.00">MonoBehaviour</text>
</a>
</g>
</g>
<!-- Node2&#45;&gt;Node1 -->
<g id="edge1_Node000001_Node000002" class="edge">
<title>Node2&#45;&gt;Node1</title>
<g id="a_edge1_Node000001_Node000002"><a xlink:title=" ">
<path fill="none" stroke="#63b8ff" d="M75.53,-139.54C76.35,-110.58 77.88,-55.99 78.6,-30.19"/>
<polygon fill="#63b8ff" stroke="#63b8ff" points="72.03,-139.49 75.25,-149.59 79.03,-139.69 72.03,-139.49"/>
</a>
</g>
</g>
<!-- Node3 -->
<g id="Node000003" class="node">
<title>Node3</title>
<g id="a_Node000003"><a xlink:href="class_mercury_messaging_1_1_mm_temporal_runner.html" target="_top" xlink:title="MonoBehaviour that runs temporal coroutines.">
<polygon fill="white" stroke="#666666" points="249,-113 91,-113 91,-83 249,-83 249,-113"/>
<text text-anchor="start" x="99" y="-101" font-family="Helvetica,sans-Serif" font-size="10.00">MercuryMessaging.MmTemporal</text>
<text text-anchor="middle" x="170" y="-90" font-family="Helvetica,sans-Serif" font-size="10.00">Runner</text>
</a>
</g>
</g>
<!-- Node2&#45;&gt;Node3 -->
<g id="edge3_Node000003_Node000002" class="edge">
<title>Node2&#45;&gt;Node3</title>
<g id="a_edge3_Node000003_Node000002"><a xlink:title=" ">
<path fill="none" stroke="#63b8ff" d="M97.34,-144.51C112.49,-135.02 132.45,-122.52 147.61,-113.02"/>
<polygon fill="#63b8ff" stroke="#63b8ff" points="95.23,-141.7 88.61,-149.98 98.94,-147.63 95.23,-141.7"/>
</a>
</g>
</g>
<!-- Node3&#45;&gt;Node1 -->
<g id="edge2_Node000001_Node000003" class="edge">
<title>Node3&#45;&gt;Node1</title>
<g id="a_edge2_Node000001_Node000003"><a xlink:title=" ">
<path fill="none" stroke="#9a32cd" stroke-dasharray="5,2" d="M146.64,-76.21C130.44,-61.79 109.28,-42.95 94.97,-30.22"/>
<polygon fill="#9a32cd" stroke="#9a32cd" points="144.35,-78.86 154.15,-82.89 149.01,-73.63 144.35,-78.86"/>
</a>
</g>
<text text-anchor="start" x="135.5" y="-53.5" font-family="Helvetica,sans-Serif" font-size="10.00" fill="grey">_instance</text>
</g>
<!-- Node3&#45;&gt;Node3 -->
<g id="edge4_Node000003_Node000003" class="edge">
<title>Node3&#45;&gt;Node3</title>
<g id="a_edge4_Node000003_Node000003"><a xlink:title=" ">
<path fill="none" stroke="#9a32cd" stroke-dasharray="5,2" d="M259.16,-102.02C264.07,-101.04 267,-99.7 267,-98 267,-95.34 259.87,-93.57 249.16,-92.68"/>
<polygon fill="#9a32cd" stroke="#9a32cd" points="258.63,-98.56 249.16,-103.32 259.53,-105.5 258.63,-98.56"/>
</a>
</g>
<text text-anchor="start" x="270.5" y="-95" font-family="Helvetica,sans-Serif" font-size="10.00" fill="grey">_instance</text>
</g>
</g>
</svg>
