<?xml version="1.0" encoding="UTF-8" standalone="no"?>
<!DOCTYPE svg PUBLIC "-//W3C//DTD SVG 1.1//EN"
 "http://www.w3.org/Graphics/SVG/1.1/DTD/svg11.dtd">
<!-- Generated by graphviz version 2.44.1 (20200629.0800)
 -->
<!-- Title: MercuryMessaging.MmGuiHandler Pages: 1 -->
<svg width="246pt" height="82pt"
 viewBox="0.00 0.00 246.00 82.00" xmlns="http://www.w3.org/2000/svg" xmlns:xlink="http://www.w3.org/1999/xlink">
<g id="graph0" class="graph" transform="scale(1 1) rotate(0) translate(4 78)">
<title>MercuryMessaging.MmGuiHandler</title>
<!-- Node1 -->
<g id="Node000001" class="node">
<title>Node1</title>
<g id="a_Node000001"><a xlink:title=" ">
<polygon fill="#999999" stroke="#666666" points="189,-19 22,-19 22,0 189,0 189,-19"/>
<text text-anchor="middle" x="105.5" y="-7" font-family="Helvetica,sans-Serif" font-size="10.00">MercuryMessaging.MmGuiHandler</text>
</a>
</g>
</g>
<!-- Node2 -->
<g id="Node000002" class="node">
<title>Node2</title>
<g id="a_Node000002"><a xlink:title=" ">
<polygon fill="white" stroke="#666666" points="83,-74 0,-74 0,-55 83,-55 83,-74"/>
<text text-anchor="middle" x="41.5" y="-62" font-family="Helvetica,sans-Serif" font-size="10.00">MonoBehaviour</text>
</a>
</g>
</g>
<!-- Node2&#45;&gt;Node1 -->
<g id="edge1_Node000001_Node000002" class="edge">
<title>Node2&#45;&gt;Node1</title>
<g id="a_edge1_Node000001_Node000002"><a xlink:title=" ">
<path fill="none" stroke="#63b8ff" d="M59.49,-48.6C70.96,-39.11 85.41,-27.13 95.03,-19.17"/>
<polygon fill="#63b8ff" stroke="#63b8ff" points="57.25,-45.91 51.78,-54.98 61.72,-51.3 57.25,-45.91"/>
</a>
</g>
</g>
<!-- Node3 -->
<g id="Node000003" class="node">
<title>Node3</title>
<g id="a_Node000003"><a xlink:href="interface_mercury_messaging_1_1_i_mm_g_u_i.html" target="_top" xlink:title="Defines interface for basic GUI requirements in Mercury.">
<polygon fill="white" stroke="#666666" points="238,-74 101,-74 101,-55 238,-55 238,-74"/>
<text text-anchor="middle" x="169.5" y="-62" font-family="Helvetica,sans-Serif" font-size="10.00">MercuryMessaging.IMmGUI</text>
</a>
</g>
</g>
<!-- Node3&#45;&gt;Node1 -->
<g id="edge2_Node000001_Node000003" class="edge">
<title>Node3&#45;&gt;Node1</title>
<g id="a_edge2_Node000001_Node000003"><a xlink:title=" ">
<path fill="none" stroke="#63b8ff" d="M151.51,-48.6C140.04,-39.11 125.59,-27.13 115.97,-19.17"/>
<polygon fill="#63b8ff" stroke="#63b8ff" points="149.28,-51.3 159.22,-54.98 153.75,-45.91 149.28,-51.3"/>
</a>
</g>
</g>
</g>
</svg>
