<?xml version="1.0" encoding="UTF-8" standalone="no"?>
<!DOCTYPE svg PUBLIC "-//W3C//DTD SVG 1.1//EN"
 "http://www.w3.org/Graphics/SVG/1.1/DTD/svg11.dtd">
<!-- Generated by graphviz version 2.44.1 (20200629.0800)
 -->
<!-- Title: MercuryMessaging.Task.MmTaskCollectionDesigner Pages: 1 -->
<svg width="254pt" height="104pt"
 viewBox="0.00 0.00 254.00 104.00" xmlns="http://www.w3.org/2000/svg" xmlns:xlink="http://www.w3.org/1999/xlink">
<g id="graph0" class="graph" transform="scale(1 1) rotate(0) translate(4 100)">
<title>MercuryMessaging.Task.MmTaskCollectionDesigner</title>
<!-- Node1 -->
<g id="Node000001" class="node">
<title>Node1</title>
<g id="a_Node000001"><a xlink:title=" ">
<polygon fill="#999999" stroke="#666666" points="179,-30 36,-30 36,0 179,0 179,-30"/>
<text text-anchor="start" x="44" y="-18" font-family="Helvetica,sans-Serif" font-size="10.00">MercuryMessaging.Task.Mm</text>
<text text-anchor="middle" x="107.5" y="-7" font-family="Helvetica,sans-Serif" font-size="10.00">TaskCollectionDesigner</text>
</a>
</g>
</g>
<!-- Node2 -->
<g id="Node000002" class="node">
<title>Node2</title>
<g id="a_Node000002"><a xlink:title=" ">
<polygon fill="white" stroke="#666666" points="83,-90.5 0,-90.5 0,-71.5 83,-71.5 83,-90.5"/>
<text text-anchor="middle" x="41.5" y="-78.5" font-family="Helvetica,sans-Serif" font-size="10.00">MonoBehaviour</text>
</a>
</g>
</g>
<!-- Node2&#45;&gt;Node1 -->
<g id="edge1_Node000001_Node000002" class="edge">
<title>Node2&#45;&gt;Node1</title>
<g id="a_edge1_Node000001_Node000002"><a xlink:title=" ">
<path fill="none" stroke="#63b8ff" d="M57.89,-64.1C68.65,-53.68 82.58,-40.16 92.94,-30.12"/>
<polygon fill="#63b8ff" stroke="#63b8ff" points="55.14,-61.89 50.4,-71.37 60.02,-66.92 55.14,-61.89"/>
</a>
</g>
</g>
<!-- Node3 -->
<g id="Node000003" class="node">
<title>Node3</title>
<g id="a_Node000003"><a xlink:href="interface_mercury_messaging_1_1_task_1_1_i_mm_task_collection_designer.html" target="_top" xlink:title="Task collection designers need to handle generation and saving of MmTaskInfos.">
<polygon fill="white" stroke="#666666" points="246,-96 101,-96 101,-66 246,-66 246,-96"/>
<text text-anchor="start" x="109" y="-84" font-family="Helvetica,sans-Serif" font-size="10.00">MercuryMessaging.Task.IMm</text>
<text text-anchor="middle" x="173.5" y="-73" font-family="Helvetica,sans-Serif" font-size="10.00">TaskCollectionDesigner</text>
</a>
</g>
</g>
<!-- Node3&#45;&gt;Node1 -->
<g id="edge2_Node000001_Node000003" class="edge">
<title>Node3&#45;&gt;Node1</title>
<g id="a_edge2_Node000001_Node000003"><a xlink:title=" ">
<path fill="none" stroke="#63b8ff" d="M151.48,-58.65C141.81,-49.27 130.73,-38.53 122.11,-30.16"/>
<polygon fill="#63b8ff" stroke="#63b8ff" points="149.24,-61.35 158.85,-65.8 154.11,-56.32 149.24,-61.35"/>
</a>
</g>
</g>
</g>
</svg>
