<?xml version="1.0" encoding="UTF-8" standalone="no"?>
<!DOCTYPE svg PUBLIC "-//W3C//DTD SVG 1.1//EN"
 "http://www.w3.org/Graphics/SVG/1.1/DTD/svg11.dtd">
<!-- Generated by graphviz version 2.44.1 (20200629.0800)
 -->
<!-- Title: MercuryMessaging.MmQuickNode Pages: 1 -->
<svg width="364pt" height="192pt"
 viewBox="0.00 0.00 364.00 192.00" xmlns="http://www.w3.org/2000/svg" xmlns:xlink="http://www.w3.org/1999/xlink">
<g id="graph0" class="graph" transform="scale(1 1) rotate(0) translate(4 188)">
<title>MercuryMessaging.MmQuickNode</title>
<!-- Node1 -->
<g id="Node000001" class="node">
<title>Node1</title>
<g id="a_Node000001"><a xlink:title="Modification of the standard MmRelayNode that allows skipping of standard checks to allow for faster ...">
<polygon fill="#999999" stroke="#666666" points="282,-19 115,-19 115,0 282,0 282,-19"/>
<text text-anchor="middle" x="198.5" y="-7" font-family="Helvetica,sans-Serif" font-size="10.00">MercuryMessaging.MmQuickNode</text>
</a>
</g>
</g>
<!-- Node2 -->
<g id="Node000002" class="node">
<title>Node2</title>
<g id="a_Node000002"><a xlink:href="class_mercury_messaging_1_1_mm_relay_node.html" target="_top" xlink:title="Base routing node of Mercury XM.">
<polygon fill="white" stroke="#666666" points="281.5,-74 115.5,-74 115.5,-55 281.5,-55 281.5,-74"/>
<text text-anchor="middle" x="198.5" y="-62" font-family="Helvetica,sans-Serif" font-size="10.00">MercuryMessaging.MmRelayNode</text>
</a>
</g>
</g>
<!-- Node2&#45;&gt;Node1 -->
<g id="edge1_Node000001_Node000002" class="edge">
<title>Node2&#45;&gt;Node1</title>
<g id="a_edge1_Node000001_Node000002"><a xlink:title=" ">
<path fill="none" stroke="#63b8ff" d="M198.5,-44.66C198.5,-35.93 198.5,-25.99 198.5,-19.09"/>
<polygon fill="#63b8ff" stroke="#63b8ff" points="195,-44.75 198.5,-54.75 202,-44.75 195,-44.75"/>
</a>
</g>
</g>
<!-- Node3 -->
<g id="Node000003" class="node">
<title>Node3</title>
<g id="a_Node000003"><a xlink:href="class_mercury_messaging_1_1_mm_responder.html" target="_top" xlink:title="Base implmentation of IMmResponder.">
<polygon fill="white" stroke="#666666" points="195,-129 30,-129 30,-110 195,-110 195,-129"/>
<text text-anchor="middle" x="112.5" y="-117" font-family="Helvetica,sans-Serif" font-size="10.00">MercuryMessaging.MmResponder</text>
</a>
</g>
</g>
<!-- Node3&#45;&gt;Node2 -->
<g id="edge2_Node000002_Node000003" class="edge">
<title>Node3&#45;&gt;Node2</title>
<g id="a_edge2_Node000002_Node000003"><a xlink:title=" ">
<path fill="none" stroke="#63b8ff" d="M134.9,-104.7C150.57,-95.04 171.01,-82.44 184.43,-74.17"/>
<polygon fill="#63b8ff" stroke="#63b8ff" points="132.99,-101.76 126.32,-109.98 136.67,-107.72 132.99,-101.76"/>
</a>
</g>
</g>
<!-- Node4 -->
<g id="Node000004" class="node">
<title>Node4</title>
<g id="a_Node000004"><a xlink:title=" ">
<polygon fill="white" stroke="#666666" points="83,-184 0,-184 0,-165 83,-165 83,-184"/>
<text text-anchor="middle" x="41.5" y="-172" font-family="Helvetica,sans-Serif" font-size="10.00">MonoBehaviour</text>
</a>
</g>
</g>
<!-- Node4&#45;&gt;Node3 -->
<g id="edge3_Node000003_Node000004" class="edge">
<title>Node4&#45;&gt;Node3</title>
<g id="a_edge3_Node000003_Node000004"><a xlink:title=" ">
<path fill="none" stroke="#63b8ff" d="M61.09,-158.88C73.87,-149.34 90.11,-137.21 100.89,-129.17"/>
<polygon fill="#63b8ff" stroke="#63b8ff" points="58.83,-156.2 52.91,-164.98 63.01,-161.81 58.83,-156.2"/>
</a>
</g>
</g>
<!-- Node5 -->
<g id="Node000005" class="node">
<title>Node5</title>
<g id="a_Node000005"><a xlink:href="interface_mercury_messaging_1_1_i_mm_responder.html" target="_top" xlink:title="The core of MercuryMessaging.">
<polygon fill="white" stroke="#666666" points="268,-184 101,-184 101,-165 268,-165 268,-184"/>
<text text-anchor="middle" x="184.5" y="-172" font-family="Helvetica,sans-Serif" font-size="10.00">MercuryMessaging.IMmResponder</text>
</a>
</g>
</g>
<!-- Node5&#45;&gt;Node3 -->
<g id="edge4_Node000003_Node000005" class="edge">
<title>Node5&#45;&gt;Node3</title>
<g id="a_edge4_Node000003_Node000005"><a xlink:title=" ">
<path fill="none" stroke="#63b8ff" d="M164.63,-158.88C151.68,-149.34 135.2,-137.21 124.28,-129.17"/>
<polygon fill="#63b8ff" stroke="#63b8ff" points="162.8,-161.88 172.93,-164.98 166.95,-156.24 162.8,-161.88"/>
</a>
</g>
</g>
<!-- Node6 -->
<g id="Node000006" class="node">
<title>Node6</title>
<g id="a_Node000006"><a xlink:href="interface_mercury_messaging_1_1_i_mm_node.html" target="_top" xlink:title="Defines methods required by an MmResponder &amp; utility methods making invocation MmMethods with built&#45;i...">
<polygon fill="white" stroke="#666666" points="356,-129 213,-129 213,-110 356,-110 356,-129"/>
<text text-anchor="middle" x="284.5" y="-117" font-family="Helvetica,sans-Serif" font-size="10.00">MercuryMessaging.IMmNode</text>
</a>
</g>
</g>
<!-- Node6&#45;&gt;Node2 -->
<g id="edge5_Node000002_Node000006" class="edge">
<title>Node6&#45;&gt;Node2</title>
<g id="a_edge5_Node000002_Node000006"><a xlink:title=" ">
<path fill="none" stroke="#63b8ff" d="M262.1,-104.7C246.43,-95.04 225.99,-82.44 212.57,-74.17"/>
<polygon fill="#63b8ff" stroke="#63b8ff" points="260.33,-107.72 270.68,-109.98 264.01,-101.76 260.33,-107.72"/>
</a>
</g>
</g>
</g>
</svg>
