<?xml version="1.0" encoding="UTF-8" standalone="no"?>
<!DOCTYPE svg PUBLIC "-//W3C//DTD SVG 1.1//EN"
 "http://www.w3.org/Graphics/SVG/1.1/DTD/svg11.dtd">
<!-- Generated by graphviz version 2.44.1 (20200629.0800)
 -->
<!-- Title: MercuryMessaging.StandardLibrary.Animation.Interpolator&lt; T &gt; Pages: 1 -->
<svg width="498pt" height="254pt"
 viewBox="0.00 0.00 498.00 253.50" xmlns="http://www.w3.org/2000/svg" xmlns:xlink="http://www.w3.org/1999/xlink">
<g id="graph0" class="graph" transform="scale(1 1) rotate(0) translate(4 249.5)">
<title>MercuryMessaging.StandardLibrary.Animation.Interpolator&lt; T &gt;</title>
<!-- Node1 -->
<g id="Node000001" class="node">
<title>Node1</title>
<g id="a_Node000001"><a xlink:title=" ">
<polygon fill="#999999" stroke="#666666" points="286,-143.5 119,-143.5 119,-113.5 286,-113.5 286,-143.5"/>
<text text-anchor="start" x="127" y="-131.5" font-family="Helvetica,sans-Serif" font-size="10.00">MercuryMessaging.Standard</text>
<text text-anchor="middle" x="202.5" y="-120.5" font-family="Helvetica,sans-Serif" font-size="10.00">Library.Animation.Interpolator&lt; T &gt;</text>
</a>
</g>
</g>
<!-- Node3 -->
<g id="Node000003" class="node">
<title>Node3</title>
<g id="a_Node000003"><a xlink:href="class_mercury_messaging_1_1_standard_library_1_1_animation_1_1_interpolator_alpha.html" target="_top" xlink:title=" ">
<polygon fill="white" stroke="#666666" points="490,-245.5 322,-245.5 322,-215.5 490,-215.5 490,-245.5"/>
<text text-anchor="start" x="330" y="-233.5" font-family="Helvetica,sans-Serif" font-size="10.00">MercuryMessaging.Standard</text>
<text text-anchor="middle" x="406" y="-222.5" font-family="Helvetica,sans-Serif" font-size="10.00">Library.Animation.InterpolatorAlpha</text>
</a>
</g>
</g>
<!-- Node1&#45;&gt;Node3 -->
<g id="edge2_Node000001_Node000003" class="edge">
<title>Node1&#45;&gt;Node3</title>
<g id="a_edge2_Node000001_Node000003"><a xlink:title=" ">
<path fill="none" stroke="#63b8ff" d="M230.54,-149.72C253.7,-167.04 288.53,-191.08 322,-206.5 329.22,-209.83 337.01,-212.81 344.82,-215.44"/>
<polygon fill="#63b8ff" stroke="#63b8ff" points="232.64,-146.92 222.56,-143.68 228.42,-152.5 232.64,-146.92"/>
</a>
</g>
</g>
<!-- Node4 -->
<g id="Node000004" class="node">
<title>Node4</title>
<g id="a_Node000004"><a xlink:href="class_mercury_messaging_1_1_standard_library_1_1_animation_1_1_interpolator_color.html" target="_top" xlink:title=" ">
<polygon fill="white" stroke="#666666" points="489,-197.5 323,-197.5 323,-167.5 489,-167.5 489,-197.5"/>
<text text-anchor="start" x="331" y="-185.5" font-family="Helvetica,sans-Serif" font-size="10.00">MercuryMessaging.Standard</text>
<text text-anchor="middle" x="406" y="-174.5" font-family="Helvetica,sans-Serif" font-size="10.00">Library.Animation.InterpolatorColor</text>
</a>
</g>
</g>
<!-- Node1&#45;&gt;Node4 -->
<g id="edge3_Node000001_Node000004" class="edge">
<title>Node1&#45;&gt;Node4</title>
<g id="a_edge3_Node000001_Node000004"><a xlink:title=" ">
<path fill="none" stroke="#63b8ff" d="M269.29,-146.13C294.98,-153.02 324.14,-160.83 348.82,-167.45"/>
<polygon fill="#63b8ff" stroke="#63b8ff" points="270.19,-142.75 259.63,-143.54 268.38,-149.51 270.19,-142.75"/>
</a>
</g>
</g>
<!-- Node5 -->
<g id="Node000005" class="node">
<title>Node5</title>
<g id="a_Node000005"><a xlink:href="class_mercury_messaging_1_1_standard_library_1_1_animation_1_1_interpolator_matrix.html" target="_top" xlink:title=" ">
<polygon fill="white" stroke="#666666" points="477.5,-149 334.5,-149 334.5,-108 477.5,-108 477.5,-149"/>
<text text-anchor="start" x="342.5" y="-137" font-family="Helvetica,sans-Serif" font-size="10.00">MercuryMessaging.Standard</text>
<text text-anchor="start" x="342.5" y="-126" font-family="Helvetica,sans-Serif" font-size="10.00">Library.Animation.Interpolator</text>
<text text-anchor="middle" x="406" y="-115" font-family="Helvetica,sans-Serif" font-size="10.00">Matrix</text>
</a>
</g>
</g>
<!-- Node1&#45;&gt;Node5 -->
<g id="edge4_Node000001_Node000005" class="edge">
<title>Node1&#45;&gt;Node5</title>
<g id="a_edge4_Node000001_Node000005"><a xlink:title=" ">
<path fill="none" stroke="#63b8ff" d="M296.22,-128.5C308.98,-128.5 321.91,-128.5 334.19,-128.5"/>
<polygon fill="#63b8ff" stroke="#63b8ff" points="296.04,-125 286.04,-128.5 296.04,-132 296.04,-125"/>
</a>
</g>
</g>
<!-- Node6 -->
<g id="Node000006" class="node">
<title>Node6</title>
<g id="a_Node000006"><a xlink:href="class_mercury_messaging_1_1_standard_library_1_1_animation_1_1_interpolator_orbit.html" target="_top" xlink:title=" ">
<polygon fill="white" stroke="#666666" points="488,-89.5 324,-89.5 324,-59.5 488,-59.5 488,-89.5"/>
<text text-anchor="start" x="332" y="-77.5" font-family="Helvetica,sans-Serif" font-size="10.00">MercuryMessaging.Standard</text>
<text text-anchor="middle" x="406" y="-66.5" font-family="Helvetica,sans-Serif" font-size="10.00">Library.Animation.InterpolatorOrbit</text>
</a>
</g>
</g>
<!-- Node1&#45;&gt;Node6 -->
<g id="edge5_Node000001_Node000006" class="edge">
<title>Node1&#45;&gt;Node6</title>
<g id="a_edge5_Node000001_Node000006"><a xlink:title=" ">
<path fill="none" stroke="#63b8ff" d="M269.29,-110.87C294.98,-103.98 324.14,-96.17 348.82,-89.55"/>
<polygon fill="#63b8ff" stroke="#63b8ff" points="268.38,-107.49 259.63,-113.46 270.19,-114.25 268.38,-107.49"/>
</a>
</g>
</g>
<!-- Node7 -->
<g id="Node000007" class="node">
<title>Node7</title>
<g id="a_Node000007"><a xlink:href="class_mercury_messaging_1_1_standard_library_1_1_animation_1_1_interpolator_rotation.html" target="_top" xlink:title=" ">
<polygon fill="white" stroke="#666666" points="477.5,-41 334.5,-41 334.5,0 477.5,0 477.5,-41"/>
<text text-anchor="start" x="342.5" y="-29" font-family="Helvetica,sans-Serif" font-size="10.00">MercuryMessaging.Standard</text>
<text text-anchor="start" x="342.5" y="-18" font-family="Helvetica,sans-Serif" font-size="10.00">Library.Animation.Interpolator</text>
<text text-anchor="middle" x="406" y="-7" font-family="Helvetica,sans-Serif" font-size="10.00">Rotation</text>
</a>
</g>
</g>
<!-- Node1&#45;&gt;Node7 -->
<g id="edge6_Node000001_Node000007" class="edge">
<title>Node1&#45;&gt;Node7</title>
<g id="a_edge6_Node000001_Node000007"><a xlink:title=" ">
<path fill="none" stroke="#63b8ff" d="M231.54,-107.31C254.86,-90.37 289.39,-66.84 322,-50.5 328.71,-47.14 335.9,-43.96 343.12,-41.03"/>
<polygon fill="#63b8ff" stroke="#63b8ff" points="229.16,-104.71 223.17,-113.45 233.31,-110.36 229.16,-104.71"/>
</a>
</g>
</g>
<!-- Node2 -->
<g id="Node000002" class="node">
<title>Node2</title>
<g id="a_Node000002"><a xlink:title=" ">
<polygon fill="white" stroke="#666666" points="83,-138 0,-138 0,-119 83,-119 83,-138"/>
<text text-anchor="middle" x="41.5" y="-126" font-family="Helvetica,sans-Serif" font-size="10.00">MonoBehaviour</text>
</a>
</g>
</g>
<!-- Node2&#45;&gt;Node1 -->
<g id="edge1_Node000001_Node000002" class="edge">
<title>Node2&#45;&gt;Node1</title>
<g id="a_edge1_Node000001_Node000002"><a xlink:title=" ">
<path fill="none" stroke="#63b8ff" d="M93.19,-128.5C101.43,-128.5 110.15,-128.5 118.92,-128.5"/>
<polygon fill="#63b8ff" stroke="#63b8ff" points="93.03,-125 83.03,-128.5 93.03,-132 93.03,-125"/>
</a>
</g>
</g>
</g>
</svg>
