<?xml version="1.0" encoding="UTF-8" standalone="no"?>
<!DOCTYPE svg PUBLIC "-//W3C//DTD SVG 1.1//EN"
 "http://www.w3.org/Graphics/SVG/1.1/DTD/svg11.dtd">
<!-- Generated by graphviz version 2.44.1 (20200629.0800)
 -->
<!-- Title: MercuryMessaging.MmAppStateSwitchResponder Pages: 1 -->
<svg width="431pt" height="289pt"
 viewBox="0.00 0.00 431.00 289.00" xmlns="http://www.w3.org/2000/svg" xmlns:xlink="http://www.w3.org/1999/xlink">
<g id="graph0" class="graph" transform="scale(1 1) rotate(0) translate(4 285)">
<title>MercuryMessaging.MmAppStateSwitchResponder</title>
<!-- Node1 -->
<g id="Node000001" class="node">
<title>Node1</title>
<g id="a_Node000001"><a xlink:title="MmSwitchResponder for controlling MmAppStates.">
<polygon fill="#999999" stroke="#666666" points="337,-30 178,-30 178,0 337,0 337,-30"/>
<text text-anchor="start" x="186" y="-18" font-family="Helvetica,sans-Serif" font-size="10.00">MercuryMessaging.MmAppState</text>
<text text-anchor="middle" x="257.5" y="-7" font-family="Helvetica,sans-Serif" font-size="10.00">SwitchResponder</text>
</a>
</g>
</g>
<!-- Node2 -->
<g id="Node000002" class="node">
<title>Node2</title>
<g id="a_Node000002"><a xlink:href="class_mercury_messaging_1_1_mm_switch_responder.html" target="_top" xlink:title="Controller for MmRelaySwitchNode.">
<polygon fill="white" stroke="#666666" points="275.5,-97 127.5,-97 127.5,-67 275.5,-67 275.5,-97"/>
<text text-anchor="start" x="135.5" y="-85" font-family="Helvetica,sans-Serif" font-size="10.00">MercuryMessaging.MmSwitch</text>
<text text-anchor="middle" x="201.5" y="-74" font-family="Helvetica,sans-Serif" font-size="10.00">Responder</text>
</a>
</g>
</g>
<!-- Node2&#45;&gt;Node1 -->
<g id="edge1_Node000001_Node000002" class="edge">
<title>Node2&#45;&gt;Node1</title>
<g id="a_edge1_Node000001_Node000002"><a xlink:title=" ">
<path fill="none" stroke="#63b8ff" d="M220.25,-59.24C228.54,-49.62 238.04,-38.59 245.37,-30.08"/>
<polygon fill="#63b8ff" stroke="#63b8ff" points="217.53,-57.04 213.65,-66.9 222.83,-61.6 217.53,-57.04"/>
</a>
</g>
</g>
<!-- Node3 -->
<g id="Node000003" class="node">
<title>Node3</title>
<g id="a_Node000003"><a xlink:href="class_mercury_messaging_1_1_mm_base_responder.html" target="_top" xlink:title="MmResponder that implements a switch handling the framework&#45;provided MmMethods.">
<polygon fill="white" stroke="#666666" points="272.5,-169 84.5,-169 84.5,-150 272.5,-150 272.5,-169"/>
<text text-anchor="middle" x="178.5" y="-157" font-family="Helvetica,sans-Serif" font-size="10.00">MercuryMessaging.MmBaseResponder</text>
</a>
</g>
</g>
<!-- Node3&#45;&gt;Node2 -->
<g id="edge2_Node000002_Node000003" class="edge">
<title>Node3&#45;&gt;Node2</title>
<g id="a_edge2_Node000002_Node000003"><a xlink:title=" ">
<path fill="none" stroke="#63b8ff" d="M184.14,-139.97C188.16,-126.78 193.49,-109.31 197.17,-97.21"/>
<polygon fill="#63b8ff" stroke="#63b8ff" points="180.7,-139.25 181.14,-149.84 187.4,-141.29 180.7,-139.25"/>
</a>
</g>
</g>
<!-- Node4 -->
<g id="Node000004" class="node">
<title>Node4</title>
<g id="a_Node000004"><a xlink:href="class_mercury_messaging_1_1_mm_responder.html" target="_top" xlink:title="Base implmentation of IMmResponder.">
<polygon fill="white" stroke="#666666" points="215,-225 50,-225 50,-206 215,-206 215,-225"/>
<text text-anchor="middle" x="132.5" y="-213" font-family="Helvetica,sans-Serif" font-size="10.00">MercuryMessaging.MmResponder</text>
</a>
</g>
</g>
<!-- Node4&#45;&gt;Node3 -->
<g id="edge3_Node000003_Node000004" class="edge">
<title>Node4&#45;&gt;Node3</title>
<g id="a_edge3_Node000003_Node000004"><a xlink:title=" ">
<path fill="none" stroke="#63b8ff" d="M146.61,-197.93C154.68,-188.47 164.46,-176.98 171.05,-169.25"/>
<polygon fill="#63b8ff" stroke="#63b8ff" points="143.92,-195.7 140.1,-205.58 149.25,-200.24 143.92,-195.7"/>
</a>
</g>
</g>
<!-- Node5 -->
<g id="Node000005" class="node">
<title>Node5</title>
<g id="a_Node000005"><a xlink:title=" ">
<polygon fill="white" stroke="#666666" points="268,-281 185,-281 185,-262 268,-262 268,-281"/>
<text text-anchor="middle" x="226.5" y="-269" font-family="Helvetica,sans-Serif" font-size="10.00">MonoBehaviour</text>
</a>
</g>
</g>
<!-- Node5&#45;&gt;Node4 -->
<g id="edge4_Node000004_Node000005" class="edge">
<title>Node5&#45;&gt;Node4</title>
<g id="a_edge4_Node000004_Node000005"><a xlink:title=" ">
<path fill="none" stroke="#63b8ff" d="M202.44,-256.68C185.14,-246.74 162.35,-233.65 147.57,-225.15"/>
<polygon fill="#63b8ff" stroke="#63b8ff" points="200.98,-259.88 211.4,-261.82 204.47,-253.81 200.98,-259.88"/>
</a>
</g>
</g>
<!-- Node7 -->
<g id="Node000007" class="node">
<title>Node7</title>
<g id="a_Node000007"><a xlink:href="class_mercury_messaging_1_1_mm_gui_handler.html" target="_top" xlink:title=" ">
<polygon fill="white" stroke="#666666" points="400,-225 233,-225 233,-206 400,-206 400,-225"/>
<text text-anchor="middle" x="316.5" y="-213" font-family="Helvetica,sans-Serif" font-size="10.00">MercuryMessaging.MmGuiHandler</text>
</a>
</g>
</g>
<!-- Node5&#45;&gt;Node7 -->
<g id="edge7_Node000007_Node000005" class="edge">
<title>Node5&#45;&gt;Node7</title>
<g id="a_edge7_Node000007_Node000005"><a xlink:title=" ">
<path fill="none" stroke="#63b8ff" d="M249.54,-256.68C266.1,-246.74 287.92,-233.65 302.08,-225.15"/>
<polygon fill="#63b8ff" stroke="#63b8ff" points="247.73,-253.68 240.96,-261.82 251.34,-259.68 247.73,-253.68"/>
</a>
</g>
</g>
<!-- Node6 -->
<g id="Node000006" class="node">
<title>Node6</title>
<g id="a_Node000006"><a xlink:href="interface_mercury_messaging_1_1_i_mm_responder.html" target="_top" xlink:title="The core of MercuryMessaging.">
<polygon fill="white" stroke="#666666" points="167,-281 0,-281 0,-262 167,-262 167,-281"/>
<text text-anchor="middle" x="83.5" y="-269" font-family="Helvetica,sans-Serif" font-size="10.00">MercuryMessaging.IMmResponder</text>
</a>
</g>
</g>
<!-- Node6&#45;&gt;Node4 -->
<g id="edge5_Node000004_Node000006" class="edge">
<title>Node6&#45;&gt;Node4</title>
<g id="a_edge5_Node000004_Node000006"><a xlink:title=" ">
<path fill="none" stroke="#63b8ff" d="M98.53,-253.93C107.12,-244.47 117.54,-232.98 124.56,-225.25"/>
<polygon fill="#63b8ff" stroke="#63b8ff" points="95.72,-251.83 91.59,-261.58 100.9,-256.53 95.72,-251.83"/>
</a>
</g>
</g>
<!-- Node7&#45;&gt;Node1 -->
<g id="edge6_Node000001_Node000007" class="edge">
<title>Node7&#45;&gt;Node1</title>
<g id="a_edge6_Node000001_Node000007"><a xlink:title=" ">
<path fill="none" stroke="#9a32cd" stroke-dasharray="5,2" d="M314.12,-195.85C310.13,-167.41 300.86,-111.78 284.5,-67 279.76,-54.01 272.28,-40.21 266.4,-30.24"/>
<polygon fill="#9a32cd" stroke="#9a32cd" points="310.68,-196.51 315.48,-205.96 317.62,-195.58 310.68,-196.51"/>
</a>
</g>
<text text-anchor="start" x="306" y="-120.5" font-family="Helvetica,sans-Serif" font-size="10.00" fill="grey">MmGuiHandler</text>
</g>
<!-- Node8 -->
<g id="Node000008" class="node">
<title>Node8</title>
<g id="a_Node000008"><a xlink:href="interface_mercury_messaging_1_1_i_mm_g_u_i.html" target="_top" xlink:title="Defines interface for basic GUI requirements in Mercury.">
<polygon fill="white" stroke="#666666" points="423,-281 286,-281 286,-262 423,-262 423,-281"/>
<text text-anchor="middle" x="354.5" y="-269" font-family="Helvetica,sans-Serif" font-size="10.00">MercuryMessaging.IMmGUI</text>
</a>
</g>
</g>
<!-- Node8&#45;&gt;Node7 -->
<g id="edge8_Node000007_Node000008" class="edge">
<title>Node8&#45;&gt;Node7</title>
<g id="a_edge8_Node000007_Node000008"><a xlink:title=" ">
<path fill="none" stroke="#63b8ff" d="M342.44,-253.36C335.86,-244 327.99,-232.83 322.66,-225.25"/>
<polygon fill="#63b8ff" stroke="#63b8ff" points="339.61,-255.42 348.23,-261.58 345.33,-251.39 339.61,-255.42"/>
</a>
</g>
</g>
</g>
</svg>
