<?xml version="1.0" encoding="UTF-8" standalone="no"?>
<!DOCTYPE svg PUBLIC "-//W3C//DTD SVG 1.1//EN"
 "http://www.w3.org/Graphics/SVG/1.1/DTD/svg11.dtd">
<!-- Generated by graphviz version 2.44.1 (20200629.0800)
 -->
<!-- Title: MercuryMessaging.MmRelaySwitchNode Pages: 1 -->
<svg width="364pt" height="203pt"
 viewBox="0.00 0.00 364.00 203.00" xmlns="http://www.w3.org/2000/svg" xmlns:xlink="http://www.w3.org/1999/xlink">
<g id="graph0" class="graph" transform="scale(1 1) rotate(0) translate(4 199)">
<title>MercuryMessaging.MmRelaySwitchNode</title>
<!-- Node1 -->
<g id="Node000001" class="node">
<title>Node1</title>
<g id="a_Node000001"><a xlink:title="an MmRelayNode with an FSM to allow for limited MmResponder selection in the MmRelayNode&#39;s MmRoutingT...">
<polygon fill="#999999" stroke="#666666" points="270,-30 127,-30 127,0 270,0 270,-30"/>
<text text-anchor="start" x="135" y="-18" font-family="Helvetica,sans-Serif" font-size="10.00">MercuryMessaging.MmRelay</text>
<text text-anchor="middle" x="198.5" y="-7" font-family="Helvetica,sans-Serif" font-size="10.00">SwitchNode</text>
</a>
</g>
</g>
<!-- Node2 -->
<g id="Node000002" class="node">
<title>Node2</title>
<g id="a_Node000002"><a xlink:href="class_mercury_messaging_1_1_mm_relay_node.html" target="_top" xlink:title="Base routing node of Mercury XM.">
<polygon fill="white" stroke="#666666" points="281.5,-85 115.5,-85 115.5,-66 281.5,-66 281.5,-85"/>
<text text-anchor="middle" x="198.5" y="-73" font-family="Helvetica,sans-Serif" font-size="10.00">MercuryMessaging.MmRelayNode</text>
</a>
</g>
</g>
<!-- Node2&#45;&gt;Node1 -->
<g id="edge1_Node000001_Node000002" class="edge">
<title>Node2&#45;&gt;Node1</title>
<g id="a_edge1_Node000001_Node000002"><a xlink:title=" ">
<path fill="none" stroke="#63b8ff" d="M198.5,-55.65C198.5,-47.36 198.5,-37.78 198.5,-30.11"/>
<polygon fill="#63b8ff" stroke="#63b8ff" points="195,-55.87 198.5,-65.87 202,-55.87 195,-55.87"/>
</a>
</g>
</g>
<!-- Node3 -->
<g id="Node000003" class="node">
<title>Node3</title>
<g id="a_Node000003"><a xlink:href="class_mercury_messaging_1_1_mm_responder.html" target="_top" xlink:title="Base implmentation of IMmResponder.">
<polygon fill="white" stroke="#666666" points="195,-140 30,-140 30,-121 195,-121 195,-140"/>
<text text-anchor="middle" x="112.5" y="-128" font-family="Helvetica,sans-Serif" font-size="10.00">MercuryMessaging.MmResponder</text>
</a>
</g>
</g>
<!-- Node3&#45;&gt;Node2 -->
<g id="edge2_Node000002_Node000003" class="edge">
<title>Node3&#45;&gt;Node2</title>
<g id="a_edge2_Node000002_Node000003"><a xlink:title=" ">
<path fill="none" stroke="#63b8ff" d="M134.9,-115.7C150.57,-106.04 171.01,-93.44 184.43,-85.17"/>
<polygon fill="#63b8ff" stroke="#63b8ff" points="132.99,-112.76 126.32,-120.98 136.67,-118.72 132.99,-112.76"/>
</a>
</g>
</g>
<!-- Node4 -->
<g id="Node000004" class="node">
<title>Node4</title>
<g id="a_Node000004"><a xlink:title=" ">
<polygon fill="white" stroke="#666666" points="83,-195 0,-195 0,-176 83,-176 83,-195"/>
<text text-anchor="middle" x="41.5" y="-183" font-family="Helvetica,sans-Serif" font-size="10.00">MonoBehaviour</text>
</a>
</g>
</g>
<!-- Node4&#45;&gt;Node3 -->
<g id="edge3_Node000003_Node000004" class="edge">
<title>Node4&#45;&gt;Node3</title>
<g id="a_edge3_Node000003_Node000004"><a xlink:title=" ">
<path fill="none" stroke="#63b8ff" d="M61.09,-169.88C73.87,-160.34 90.11,-148.21 100.89,-140.17"/>
<polygon fill="#63b8ff" stroke="#63b8ff" points="58.83,-167.2 52.91,-175.98 63.01,-172.81 58.83,-167.2"/>
</a>
</g>
</g>
<!-- Node5 -->
<g id="Node000005" class="node">
<title>Node5</title>
<g id="a_Node000005"><a xlink:href="interface_mercury_messaging_1_1_i_mm_responder.html" target="_top" xlink:title="The core of MercuryMessaging.">
<polygon fill="white" stroke="#666666" points="268,-195 101,-195 101,-176 268,-176 268,-195"/>
<text text-anchor="middle" x="184.5" y="-183" font-family="Helvetica,sans-Serif" font-size="10.00">MercuryMessaging.IMmResponder</text>
</a>
</g>
</g>
<!-- Node5&#45;&gt;Node3 -->
<g id="edge4_Node000003_Node000005" class="edge">
<title>Node5&#45;&gt;Node3</title>
<g id="a_edge4_Node000003_Node000005"><a xlink:title=" ">
<path fill="none" stroke="#63b8ff" d="M164.63,-169.88C151.68,-160.34 135.2,-148.21 124.28,-140.17"/>
<polygon fill="#63b8ff" stroke="#63b8ff" points="162.8,-172.88 172.93,-175.98 166.95,-167.24 162.8,-172.88"/>
</a>
</g>
</g>
<!-- Node6 -->
<g id="Node000006" class="node">
<title>Node6</title>
<g id="a_Node000006"><a xlink:href="interface_mercury_messaging_1_1_i_mm_node.html" target="_top" xlink:title="Defines methods required by an MmResponder &amp; utility methods making invocation MmMethods with built&#45;i...">
<polygon fill="white" stroke="#666666" points="356,-140 213,-140 213,-121 356,-121 356,-140"/>
<text text-anchor="middle" x="284.5" y="-128" font-family="Helvetica,sans-Serif" font-size="10.00">MercuryMessaging.IMmNode</text>
</a>
</g>
</g>
<!-- Node6&#45;&gt;Node2 -->
<g id="edge5_Node000002_Node000006" class="edge">
<title>Node6&#45;&gt;Node2</title>
<g id="a_edge5_Node000002_Node000006"><a xlink:title=" ">
<path fill="none" stroke="#63b8ff" d="M262.1,-115.7C246.43,-106.04 225.99,-93.44 212.57,-85.17"/>
<polygon fill="#63b8ff" stroke="#63b8ff" points="260.33,-118.72 270.68,-120.98 264.01,-112.76 260.33,-118.72"/>
</a>
</g>
</g>
</g>
</svg>
