<?xml version="1.0" encoding="UTF-8" standalone="no"?>
<!DOCTYPE svg PUBLIC "-//W3C//DTD SVG 1.1//EN"
 "http://www.w3.org/Graphics/SVG/1.1/DTD/svg11.dtd">
<!-- Generated by graphviz version 2.44.1 (20200629.0800)
 -->
<!-- Title: MercuryMessaging.MmMessageBool Pages: 1 -->
<svg width="186pt" height="249pt"
 viewBox="0.00 0.00 186.00 249.00" xmlns="http://www.w3.org/2000/svg" xmlns:xlink="http://www.w3.org/1999/xlink">
<g id="graph0" class="graph" transform="scale(1 1) rotate(0) translate(4 245)">
<title>MercuryMessaging.MmMessageBool</title>
<!-- Node1 -->
<g id="Node000001" class="node">
<title>Node1</title>
<g id="a_Node000001"><a xlink:title="MmMessage with bool payload.">
<polygon fill="#999999" stroke="#666666" points="178,-19 0,-19 0,0 178,0 178,-19"/>
<text text-anchor="middle" x="89" y="-7" font-family="Helvetica,sans-Serif" font-size="10.00">MercuryMessaging.MmMessageBool</text>
</a>
</g>
</g>
<!-- Node2 -->
<g id="Node000002" class="node">
<title>Node2</title>
<g id="a_Node000002"><a xlink:href="class_mercury_messaging_1_1_mm_message.html" target="_top" xlink:title="Base class for messages passed through MmInvoke.">
<polygon fill="white" stroke="#666666" points="168,-75 10,-75 10,-56 168,-56 168,-75"/>
<text text-anchor="middle" x="89" y="-63" font-family="Helvetica,sans-Serif" font-size="10.00">MercuryMessaging.MmMessage</text>
</a>
</g>
</g>
<!-- Node2&#45;&gt;Node1 -->
<g id="edge1_Node000001_Node000002" class="edge">
<title>Node2&#45;&gt;Node1</title>
<g id="a_edge1_Node000001_Node000002"><a xlink:title=" ">
<path fill="none" stroke="#63b8ff" d="M89,-45.3C89,-36.41 89,-26.28 89,-19.25"/>
<polygon fill="#63b8ff" stroke="#63b8ff" points="85.5,-45.58 89,-55.58 92.5,-45.58 85.5,-45.58"/>
</a>
</g>
</g>
<!-- Node3 -->
<g id="Node000003" class="node">
<title>Node3</title>
<g id="a_Node000003"><a xlink:href="class_mercury_messaging_1_1_mm_metadata_block.html" target="_top" xlink:title="MmMetadataBlock is a collection of settings allowing you to specify the precise invocation path of an...">
<polygon fill="white" stroke="#666666" points="168.5,-158 9.5,-158 9.5,-128 168.5,-128 168.5,-158"/>
<text text-anchor="start" x="17.5" y="-146" font-family="Helvetica,sans-Serif" font-size="10.00">MercuryMessaging.MmMetadata</text>
<text text-anchor="middle" x="89" y="-135" font-family="Helvetica,sans-Serif" font-size="10.00">Block</text>
</a>
</g>
</g>
<!-- Node3&#45;&gt;Node2 -->
<g id="edge2_Node000002_Node000003" class="edge">
<title>Node3&#45;&gt;Node2</title>
<g id="a_edge2_Node000002_Node000003"><a xlink:title=" ">
<path fill="none" stroke="#9a32cd" stroke-dasharray="5,2" d="M89,-117.4C89,-102.81 89,-85.22 89,-75.01"/>
<polygon fill="#9a32cd" stroke="#9a32cd" points="85.5,-117.8 89,-127.8 92.5,-117.8 85.5,-117.8"/>
</a>
</g>
<text text-anchor="start" x="92" y="-98.5" font-family="Helvetica,sans-Serif" font-size="10.00" fill="grey">MetadataBlock</text>
</g>
<!-- Node4 -->
<g id="Node000004" class="node">
<title>Node4</title>
<g id="a_Node000004"><a xlink:href="class_mercury_messaging_1_1_mm_routing_options.html" target="_top" xlink:title="Configuration options for advanced message routing behavior.">
<polygon fill="white" stroke="#666666" points="165,-241 13,-241 13,-211 165,-211 165,-241"/>
<text text-anchor="start" x="21" y="-229" font-family="Helvetica,sans-Serif" font-size="10.00">MercuryMessaging.MmRouting</text>
<text text-anchor="middle" x="89" y="-218" font-family="Helvetica,sans-Serif" font-size="10.00">Options</text>
</a>
</g>
</g>
<!-- Node4&#45;&gt;Node3 -->
<g id="edge3_Node000003_Node000004" class="edge">
<title>Node4&#45;&gt;Node3</title>
<g id="a_edge3_Node000003_Node000004"><a xlink:title=" ">
<path fill="none" stroke="#9a32cd" stroke-dasharray="5,2" d="M89,-200.59C89,-186.75 89,-169.91 89,-158.22"/>
<polygon fill="#9a32cd" stroke="#9a32cd" points="85.5,-200.89 89,-210.89 92.5,-200.89 85.5,-200.89"/>
</a>
</g>
<text text-anchor="start" x="92" y="-181.5" font-family="Helvetica,sans-Serif" font-size="10.00" fill="grey">Options</text>
</g>
</g>
</svg>
