<?xml version="1.0" encoding="UTF-8" standalone="no"?>
<!DOCTYPE svg PUBLIC "-//W3C//DTD SVG 1.1//EN"
 "http://www.w3.org/Graphics/SVG/1.1/DTD/svg11.dtd">
<!-- Generated by graphviz version 2.44.1 (20200629.0800)
 -->
<!-- Title: MercuryMessaging.StandardLibrary.Input.KeyboardHandler Pages: 1 -->
<svg width="258pt" height="110pt"
 viewBox="0.00 0.00 257.50 110.00" xmlns="http://www.w3.org/2000/svg" xmlns:xlink="http://www.w3.org/1999/xlink">
<g id="graph0" class="graph" transform="scale(1 1) rotate(0) translate(4 106)">
<title>MercuryMessaging.StandardLibrary.Input.KeyboardHandler</title>
<!-- Node1 -->
<g id="Node000001" class="node">
<title>Node1</title>
<g id="a_Node000001"><a xlink:title="Sample Keyboard Handler, useful for creating simple input handling using MercuryMessaging.">
<polygon fill="#999999" stroke="#666666" points="182,-30 35,-30 35,0 182,0 182,-30"/>
<text text-anchor="start" x="43" y="-18" font-family="Helvetica,sans-Serif" font-size="10.00">MercuryMessaging.Standard</text>
<text text-anchor="middle" x="108.5" y="-7" font-family="Helvetica,sans-Serif" font-size="10.00">Library.Input.KeyboardHandler</text>
</a>
</g>
</g>
<!-- Node2 -->
<g id="Node000002" class="node">
<title>Node2</title>
<g id="a_Node000002"><a xlink:title=" ">
<polygon fill="white" stroke="#666666" points="83,-102 0,-102 0,-83 83,-83 83,-102"/>
<text text-anchor="middle" x="41.5" y="-90" font-family="Helvetica,sans-Serif" font-size="10.00">MonoBehaviour</text>
</a>
</g>
</g>
<!-- Node2&#45;&gt;Node1 -->
<g id="edge1_Node000001_Node000002" class="edge">
<title>Node2&#45;&gt;Node1</title>
<g id="a_edge1_Node000001_Node000002"><a xlink:title=" ">
<path fill="none" stroke="#63b8ff" d="M55.88,-75.3C67.78,-61.89 84.51,-43.03 95.89,-30.21"/>
<polygon fill="#63b8ff" stroke="#63b8ff" points="53.21,-73.04 49.19,-82.84 58.44,-77.68 53.21,-73.04"/>
</a>
</g>
</g>
<!-- Node3 -->
<g id="Node000003" class="node">
<title>Node3</title>
<g id="a_Node000003"><a xlink:href="class_mercury_messaging_1_1_mm_logger.html" target="_top" xlink:title="Mercury&#39;s Logger is used throughout the framework to log: Framework, MmResponder, Application,...">
<polygon fill="white" stroke="#666666" points="249.5,-102 101.5,-102 101.5,-83 249.5,-83 249.5,-102"/>
<text text-anchor="middle" x="175.5" y="-90" font-family="Helvetica,sans-Serif" font-size="10.00">MercuryMessaging.MmLogger</text>
</a>
</g>
</g>
<!-- Node3&#45;&gt;Node1 -->
<g id="edge2_Node000001_Node000003" class="edge">
<title>Node3&#45;&gt;Node1</title>
<g id="a_edge2_Node000001_Node000003"><a xlink:title=" ">
<path fill="none" stroke="#9a32cd" stroke-dasharray="5,2" d="M161.12,-75.3C149.22,-61.89 132.49,-43.03 121.11,-30.21"/>
<polygon fill="#9a32cd" stroke="#9a32cd" points="158.56,-77.68 167.81,-82.84 163.79,-73.04 158.56,-77.68"/>
</a>
</g>
<text text-anchor="start" x="154.5" y="-53.5" font-family="Helvetica,sans-Serif" font-size="10.00" fill="grey">LogMessage</text>
</g>
</g>
</svg>
