<?xml version="1.0" encoding="UTF-8" standalone="no"?>
<!DOCTYPE svg PUBLIC "-//W3C//DTD SVG 1.1//EN"
 "http://www.w3.org/Graphics/SVG/1.1/DTD/svg11.dtd">
<!-- Generated by graphviz version 2.44.1 (20200629.0800)
 -->
<!-- Title: MercuryMessaging.MmNetworkResponder Pages: 1 -->
<svg width="266pt" height="104pt"
 viewBox="0.00 0.00 265.50 104.00" xmlns="http://www.w3.org/2000/svg" xmlns:xlink="http://www.w3.org/1999/xlink">
<g id="graph0" class="graph" transform="scale(1 1) rotate(0) translate(4 100)">
<title>MercuryMessaging.MmNetworkResponder</title>
<!-- Node1 -->
<g id="Node000001" class="node">
<title>Node1</title>
<g id="a_Node000001"><a xlink:title=" ">
<polygon fill="#999999" stroke="#666666" points="187.5,-30 33.5,-30 33.5,0 187.5,0 187.5,-30"/>
<text text-anchor="start" x="41.5" y="-18" font-family="Helvetica,sans-Serif" font-size="10.00">MercuryMessaging.MmNetwork</text>
<text text-anchor="middle" x="110.5" y="-7" font-family="Helvetica,sans-Serif" font-size="10.00">Responder</text>
</a>
</g>
</g>
<!-- Node2 -->
<g id="Node000002" class="node">
<title>Node2</title>
<g id="a_Node000002"><a xlink:title=" ">
<polygon fill="white" stroke="#666666" points="83,-90.5 0,-90.5 0,-71.5 83,-71.5 83,-90.5"/>
<text text-anchor="middle" x="41.5" y="-78.5" font-family="Helvetica,sans-Serif" font-size="10.00">MonoBehaviour</text>
</a>
</g>
</g>
<!-- Node2&#45;&gt;Node1 -->
<g id="edge1_Node000001_Node000002" class="edge">
<title>Node2&#45;&gt;Node1</title>
<g id="a_edge1_Node000001_Node000002"><a xlink:title=" ">
<path fill="none" stroke="#63b8ff" d="M58.31,-64.41C69.59,-53.94 84.34,-40.26 95.28,-30.12"/>
<polygon fill="#63b8ff" stroke="#63b8ff" points="55.76,-62 50.81,-71.37 60.52,-67.13 55.76,-62"/>
</a>
</g>
</g>
<!-- Node3 -->
<g id="Node000003" class="node">
<title>Node3</title>
<g id="a_Node000003"><a xlink:href="interface_mercury_messaging_1_1_i_mm_network_responder.html" target="_top" xlink:title="Implement this interface to utilize your chosen Networking framework with Mercury XM.">
<polygon fill="white" stroke="#666666" points="257.5,-96 101.5,-96 101.5,-66 257.5,-66 257.5,-96"/>
<text text-anchor="start" x="109.5" y="-84" font-family="Helvetica,sans-Serif" font-size="10.00">MercuryMessaging.IMmNetwork</text>
<text text-anchor="middle" x="179.5" y="-73" font-family="Helvetica,sans-Serif" font-size="10.00">Responder</text>
</a>
</g>
</g>
<!-- Node3&#45;&gt;Node1 -->
<g id="edge2_Node000001_Node000003" class="edge">
<title>Node3&#45;&gt;Node1</title>
<g id="a_edge2_Node000001_Node000003"><a xlink:title=" ">
<path fill="none" stroke="#63b8ff" d="M156.78,-58.92C146.6,-49.49 134.87,-38.61 125.77,-30.16"/>
<polygon fill="#63b8ff" stroke="#63b8ff" points="154.47,-61.56 164.19,-65.8 159.24,-56.43 154.47,-61.56"/>
</a>
</g>
</g>
</g>
</svg>
