<?xml version="1.0" encoding="UTF-8" standalone="no"?>
<!DOCTYPE svg PUBLIC "-//W3C//DTD SVG 1.1//EN"
 "http://www.w3.org/Graphics/SVG/1.1/DTD/svg11.dtd">
<!-- Generated by graphviz version 2.44.1 (20200629.0800)
 -->
<!-- Title: MercuryMessaging.Task.MmTransformationTaskInfo Pages: 1 -->
<svg width="316pt" height="188pt"
 viewBox="0.00 0.00 316.00 188.00" xmlns="http://www.w3.org/2000/svg" xmlns:xlink="http://www.w3.org/1999/xlink">
<g id="graph0" class="graph" transform="scale(1 1) rotate(0) translate(4 184)">
<title>MercuryMessaging.Task.MmTransformationTaskInfo</title>
<!-- Node1 -->
<g id="Node000001" class="node">
<title>Node1</title>
<g id="a_Node000001"><a xlink:title="A task info that supports tasks requiring 3D transformations meet particular requirements.">
<polygon fill="#999999" stroke="#666666" points="226,-30 83,-30 83,0 226,0 226,-30"/>
<text text-anchor="start" x="91" y="-18" font-family="Helvetica,sans-Serif" font-size="10.00">MercuryMessaging.Task.Mm</text>
<text text-anchor="middle" x="154.5" y="-7" font-family="Helvetica,sans-Serif" font-size="10.00">TransformationTaskInfo</text>
</a>
</g>
</g>
<!-- Node2 -->
<g id="Node000002" class="node">
<title>Node2</title>
<g id="a_Node000002"><a xlink:href="class_mercury_messaging_1_1_task_1_1_mm_task_info.html" target="_top" xlink:title="MmTaskInfo contains basic information for tasks in the Mercury environment.">
<polygon fill="white" stroke="#666666" points="146,-113 3,-113 3,-83 146,-83 146,-113"/>
<text text-anchor="start" x="11" y="-101" font-family="Helvetica,sans-Serif" font-size="10.00">MercuryMessaging.Task.Mm</text>
<text text-anchor="middle" x="74.5" y="-90" font-family="Helvetica,sans-Serif" font-size="10.00">TaskInfo</text>
</a>
</g>
</g>
<!-- Node2&#45;&gt;Node1 -->
<g id="edge1_Node000001_Node000002" class="edge">
<title>Node2&#45;&gt;Node1</title>
<g id="a_edge1_Node000001_Node000002"><a xlink:title=" ">
<path fill="none" stroke="#63b8ff" d="M95.81,-75.42C109.95,-61.1 128.11,-42.72 140.46,-30.22"/>
<polygon fill="#63b8ff" stroke="#63b8ff" points="92.97,-73.32 88.43,-82.89 97.95,-78.24 92.97,-73.32"/>
</a>
</g>
</g>
<!-- Node3 -->
<g id="Node000003" class="node">
<title>Node3</title>
<g id="a_Node000003"><a xlink:href="interface_mercury_messaging_1_1_task_1_1_i_mm_task_info.html" target="_top" xlink:title="Interface defining structure with basic organizational information.">
<polygon fill="white" stroke="#666666" points="145,-180 0,-180 0,-150 145,-150 145,-180"/>
<text text-anchor="start" x="8" y="-168" font-family="Helvetica,sans-Serif" font-size="10.00">MercuryMessaging.Task.IMm</text>
<text text-anchor="middle" x="72.5" y="-157" font-family="Helvetica,sans-Serif" font-size="10.00">TaskInfo</text>
</a>
</g>
</g>
<!-- Node3&#45;&gt;Node2 -->
<g id="edge2_Node000002_Node000003" class="edge">
<title>Node3&#45;&gt;Node2</title>
<g id="a_edge2_Node000002_Node000003"><a xlink:title=" ">
<path fill="none" stroke="#63b8ff" d="M73.25,-139.61C73.53,-130.65 73.83,-120.82 74.07,-113.08"/>
<polygon fill="#63b8ff" stroke="#63b8ff" points="69.74,-139.79 72.93,-149.9 76.74,-140.01 69.74,-139.79"/>
</a>
</g>
</g>
<!-- Node4 -->
<g id="Node000004" class="node">
<title>Node4</title>
<g id="a_Node000004"><a xlink:href="interface_mercury_messaging_1_1_task_1_1_i_mm_serializable.html" target="_top" xlink:title="Interface defining serializable structure to be used in IMmMessages.">
<polygon fill="white" stroke="#666666" points="308,-180 163,-180 163,-150 308,-150 308,-180"/>
<text text-anchor="start" x="171" y="-168" font-family="Helvetica,sans-Serif" font-size="10.00">MercuryMessaging.Task.IMm</text>
<text text-anchor="middle" x="235.5" y="-157" font-family="Helvetica,sans-Serif" font-size="10.00">Serializable</text>
</a>
</g>
</g>
<!-- Node4&#45;&gt;Node2 -->
<g id="edge3_Node000002_Node000004" class="edge">
<title>Node4&#45;&gt;Node2</title>
<g id="a_edge3_Node000002_Node000004"><a xlink:title=" ">
<path fill="none" stroke="#63b8ff" d="M191.02,-146.04C165.26,-135.64 133.3,-122.74 109.37,-113.08"/>
<polygon fill="#63b8ff" stroke="#63b8ff" points="189.98,-149.4 200.57,-149.9 192.6,-142.91 189.98,-149.4"/>
</a>
</g>
</g>
<!-- Node5 -->
<g id="Node000005" class="node">
<title>Node5</title>
<g id="a_Node000005"><a xlink:href="class_mercury_messaging_1_1_task_1_1_mm_transform_task_threshold.html" target="_top" xlink:title="This class contains transformation threshold information for MmTransformationTaskInfos.">
<polygon fill="white" stroke="#666666" points="307,-113 164,-113 164,-83 307,-83 307,-113"/>
<text text-anchor="start" x="172" y="-101" font-family="Helvetica,sans-Serif" font-size="10.00">MercuryMessaging.Task.Mm</text>
<text text-anchor="middle" x="235.5" y="-90" font-family="Helvetica,sans-Serif" font-size="10.00">TransformTaskThreshold</text>
</a>
</g>
</g>
<!-- Node4&#45;&gt;Node5 -->
<g id="edge5_Node000005_Node000004" class="edge">
<title>Node4&#45;&gt;Node5</title>
<g id="a_edge5_Node000005_Node000004"><a xlink:title=" ">
<path fill="none" stroke="#63b8ff" d="M235.5,-139.61C235.5,-130.65 235.5,-120.82 235.5,-113.08"/>
<polygon fill="#63b8ff" stroke="#63b8ff" points="232,-139.9 235.5,-149.9 239,-139.9 232,-139.9"/>
</a>
</g>
</g>
<!-- Node5&#45;&gt;Node1 -->
<g id="edge4_Node000001_Node000005" class="edge">
<title>Node5&#45;&gt;Node1</title>
<g id="a_edge4_Node000001_Node000005"><a xlink:title=" ">
<path fill="none" stroke="#9a32cd" stroke-dasharray="5,2" d="M214.32,-75.82C199.95,-61.45 181.34,-42.84 168.72,-30.22"/>
<polygon fill="#9a32cd" stroke="#9a32cd" points="211.84,-78.29 221.39,-82.89 216.79,-73.34 211.84,-78.29"/>
</a>
</g>
<text text-anchor="start" x="205" y="-53.5" font-family="Helvetica,sans-Serif" font-size="10.00" fill="grey">Threshold</text>
</g>
</g>
</svg>
