<?xml version="1.0" encoding="UTF-8" standalone="no"?>
<!DOCTYPE svg PUBLIC "-//W3C//DTD SVG 1.1//EN"
 "http://www.w3.org/Graphics/SVG/1.1/DTD/svg11.dtd">
<!-- Generated by graphviz version 2.44.1 (20200629.0800)
 -->
<!-- Title: MercuryMessaging.Task.MmTransformTaskInfoFileLoader Pages: 1 -->
<svg width="258pt" height="170pt"
 viewBox="0.00 0.00 258.00 170.00" xmlns="http://www.w3.org/2000/svg" xmlns:xlink="http://www.w3.org/1999/xlink">
<g id="graph0" class="graph" transform="scale(1 1) rotate(0) translate(4 166)">
<title>MercuryMessaging.Task.MmTransformTaskInfoFileLoader</title>
<!-- Node1 -->
<g id="Node000001" class="node">
<title>Node1</title>
<g id="a_Node000001"><a xlink:title="This is a basic&#45;straight derivation of MmTaskInfoCollectionFileLoader for MmTransformationTaskInfo.">
<polygon fill="#999999" stroke="#666666" points="180,-30 37,-30 37,0 180,0 180,-30"/>
<text text-anchor="start" x="45" y="-18" font-family="Helvetica,sans-Serif" font-size="10.00">MercuryMessaging.Task.Mm</text>
<text text-anchor="middle" x="108.5" y="-7" font-family="Helvetica,sans-Serif" font-size="10.00">TransformTaskInfoFileLoader</text>
</a>
</g>
</g>
<!-- Node2 -->
<g id="Node000002" class="node">
<title>Node2</title>
<g id="a_Node000002"><a xlink:href="class_mercury_messaging_1_1_task_1_1_mm_task_info_collection_file_loader-1-g.html" target="_top" xlink:title="Base implementation of IMmTaskInfoCollectionLoader, specifically for use in loading from file.">
<polygon fill="white" stroke="#666666" points="191,-96 26,-96 26,-66 191,-66 191,-96"/>
<text text-anchor="start" x="34" y="-84" font-family="Helvetica,sans-Serif" font-size="10.00">MercuryMessaging.Task.Mm</text>
<text text-anchor="middle" x="108.5" y="-73" font-family="Helvetica,sans-Serif" font-size="10.00">TaskInfoCollectionFileLoader&lt; U &gt;</text>
</a>
</g>
</g>
<!-- Node2&#45;&gt;Node1 -->
<g id="edge1_Node000001_Node000002" class="edge">
<title>Node2&#45;&gt;Node1</title>
<g id="a_edge1_Node000001_Node000002"><a xlink:title=" ">
<path fill="none" stroke="#63b8ff" d="M108.5,-55.54C108.5,-46.96 108.5,-37.61 108.5,-30.16"/>
<polygon fill="#63b8ff" stroke="#63b8ff" points="105,-55.8 108.5,-65.8 112,-55.8 105,-55.8"/>
</a>
</g>
</g>
<!-- Node3 -->
<g id="Node000003" class="node">
<title>Node3</title>
<g id="a_Node000003"><a xlink:title=" ">
<polygon fill="white" stroke="#666666" points="83,-156.5 0,-156.5 0,-137.5 83,-137.5 83,-156.5"/>
<text text-anchor="middle" x="41.5" y="-144.5" font-family="Helvetica,sans-Serif" font-size="10.00">MonoBehaviour</text>
</a>
</g>
</g>
<!-- Node3&#45;&gt;Node2 -->
<g id="edge2_Node000002_Node000003" class="edge">
<title>Node3&#45;&gt;Node2</title>
<g id="a_edge2_Node000002_Node000003"><a xlink:title=" ">
<path fill="none" stroke="#63b8ff" d="M57.82,-130.41C68.78,-119.94 83.1,-106.26 93.72,-96.12"/>
<polygon fill="#63b8ff" stroke="#63b8ff" points="55.35,-127.93 50.54,-137.37 60.18,-132.99 55.35,-127.93"/>
</a>
</g>
</g>
<!-- Node4 -->
<g id="Node000004" class="node">
<title>Node4</title>
<g id="a_Node000004"><a xlink:href="interface_mercury_messaging_1_1_task_1_1_i_mm_task_info_collection_loader-1-g.html" target="_top" xlink:title="Defines interfaces for loading Task Info collections.">
<polygon fill="white" stroke="#666666" points="250,-162 101,-162 101,-132 250,-132 250,-162"/>
<text text-anchor="start" x="109" y="-150" font-family="Helvetica,sans-Serif" font-size="10.00">MercuryMessaging.Task.IMm</text>
<text text-anchor="middle" x="175.5" y="-139" font-family="Helvetica,sans-Serif" font-size="10.00">TaskInfoCollectionLoader&lt; U &gt;</text>
</a>
</g>
</g>
<!-- Node4&#45;&gt;Node2 -->
<g id="edge3_Node000002_Node000004" class="edge">
<title>Node4&#45;&gt;Node2</title>
<g id="a_edge3_Node000002_Node000004"><a xlink:title=" ">
<path fill="none" stroke="#63b8ff" d="M153.15,-124.65C143.33,-115.27 132.08,-104.53 123.33,-96.16"/>
<polygon fill="#63b8ff" stroke="#63b8ff" points="150.98,-127.42 160.63,-131.8 155.82,-122.36 150.98,-127.42"/>
</a>
</g>
</g>
</g>
</svg>
