<?xml version="1.0" encoding="UTF-8" standalone="no"?>
<!DOCTYPE svg PUBLIC "-//W3C//DTD SVG 1.1//EN"
 "http://www.w3.org/Graphics/SVG/1.1/DTD/svg11.dtd">
<!-- Generated by graphviz version 2.44.1 (20200629.0800)
 -->
<!-- Title: MercuryMessaging.Task.MmTransformationTaskInfo Pages: 1 -->
<svg width="316pt" height="236pt"
 viewBox="0.00 0.00 316.00 236.00" xmlns="http://www.w3.org/2000/svg" xmlns:xlink="http://www.w3.org/1999/xlink">
<g id="graph0" class="graph" transform="scale(1 1) rotate(0) translate(4 232)">
<title>MercuryMessaging.Task.MmTransformationTaskInfo</title>
<!-- Node1 -->
<g id="Node000001" class="node">
<title>Node1</title>
<g id="a_Node000001"><a xlink:title="A task info that supports tasks requiring 3D transformations meet particular requirements.">
<polygon fill="#999999" stroke="#666666" points="225,-96 82,-96 82,-66 225,-66 225,-96"/>
<text text-anchor="start" x="90" y="-84" font-family="Helvetica,sans-Serif" font-size="10.00">MercuryMessaging.Task.Mm</text>
<text text-anchor="middle" x="153.5" y="-73" font-family="Helvetica,sans-Serif" font-size="10.00">TransformationTaskInfo</text>
</a>
</g>
</g>
<!-- Node5 -->
<g id="Node000005" class="node">
<title>Node5</title>
<g id="a_Node000005"><a xlink:href="class_mercury_messaging_1_1_task_1_1_mm_look_at_task_info.html" target="_top" xlink:title=" ">
<polygon fill="white" stroke="#666666" points="225,-30 82,-30 82,0 225,0 225,-30"/>
<text text-anchor="start" x="90" y="-18" font-family="Helvetica,sans-Serif" font-size="10.00">MercuryMessaging.Task.Mm</text>
<text text-anchor="middle" x="153.5" y="-7" font-family="Helvetica,sans-Serif" font-size="10.00">LookAtTaskInfo</text>
</a>
</g>
</g>
<!-- Node1&#45;&gt;Node5 -->
<g id="edge4_Node000001_Node000005" class="edge">
<title>Node1&#45;&gt;Node5</title>
<g id="a_edge4_Node000001_Node000005"><a xlink:title=" ">
<path fill="none" stroke="#63b8ff" d="M153.5,-55.54C153.5,-46.96 153.5,-37.61 153.5,-30.16"/>
<polygon fill="#63b8ff" stroke="#63b8ff" points="150,-55.8 153.5,-65.8 157,-55.8 150,-55.8"/>
</a>
</g>
</g>
<!-- Node2 -->
<g id="Node000002" class="node">
<title>Node2</title>
<g id="a_Node000002"><a xlink:href="class_mercury_messaging_1_1_task_1_1_mm_task_info.html" target="_top" xlink:title="MmTaskInfo contains basic information for tasks in the Mercury environment.">
<polygon fill="white" stroke="#666666" points="225,-162 82,-162 82,-132 225,-132 225,-162"/>
<text text-anchor="start" x="90" y="-150" font-family="Helvetica,sans-Serif" font-size="10.00">MercuryMessaging.Task.Mm</text>
<text text-anchor="middle" x="153.5" y="-139" font-family="Helvetica,sans-Serif" font-size="10.00">TaskInfo</text>
</a>
</g>
</g>
<!-- Node2&#45;&gt;Node1 -->
<g id="edge1_Node000001_Node000002" class="edge">
<title>Node2&#45;&gt;Node1</title>
<g id="a_edge1_Node000001_Node000002"><a xlink:title=" ">
<path fill="none" stroke="#63b8ff" d="M153.5,-121.54C153.5,-112.96 153.5,-103.61 153.5,-96.16"/>
<polygon fill="#63b8ff" stroke="#63b8ff" points="150,-121.8 153.5,-131.8 157,-121.8 150,-121.8"/>
</a>
</g>
</g>
<!-- Node3 -->
<g id="Node000003" class="node">
<title>Node3</title>
<g id="a_Node000003"><a xlink:href="interface_mercury_messaging_1_1_task_1_1_i_mm_task_info.html" target="_top" xlink:title="Interface defining structure with basic organizational information.">
<polygon fill="white" stroke="#666666" points="145,-228 0,-228 0,-198 145,-198 145,-228"/>
<text text-anchor="start" x="8" y="-216" font-family="Helvetica,sans-Serif" font-size="10.00">MercuryMessaging.Task.IMm</text>
<text text-anchor="middle" x="72.5" y="-205" font-family="Helvetica,sans-Serif" font-size="10.00">TaskInfo</text>
</a>
</g>
</g>
<!-- Node3&#45;&gt;Node2 -->
<g id="edge2_Node000002_Node000003" class="edge">
<title>Node3&#45;&gt;Node2</title>
<g id="a_edge2_Node000002_Node000003"><a xlink:title=" ">
<path fill="none" stroke="#63b8ff" d="M98.47,-191.48C110.58,-181.91 124.68,-170.77 135.57,-162.16"/>
<polygon fill="#63b8ff" stroke="#63b8ff" points="96.15,-188.85 90.48,-197.8 100.49,-194.34 96.15,-188.85"/>
</a>
</g>
</g>
<!-- Node4 -->
<g id="Node000004" class="node">
<title>Node4</title>
<g id="a_Node000004"><a xlink:href="interface_mercury_messaging_1_1_task_1_1_i_mm_serializable.html" target="_top" xlink:title="Interface defining serializable structure to be used in IMmMessages.">
<polygon fill="white" stroke="#666666" points="308,-228 163,-228 163,-198 308,-198 308,-228"/>
<text text-anchor="start" x="171" y="-216" font-family="Helvetica,sans-Serif" font-size="10.00">MercuryMessaging.Task.IMm</text>
<text text-anchor="middle" x="235.5" y="-205" font-family="Helvetica,sans-Serif" font-size="10.00">Serializable</text>
</a>
</g>
</g>
<!-- Node4&#45;&gt;Node2 -->
<g id="edge3_Node000002_Node000004" class="edge">
<title>Node4&#45;&gt;Node2</title>
<g id="a_edge3_Node000002_Node000004"><a xlink:title=" ">
<path fill="none" stroke="#63b8ff" d="M209.21,-191.48C196.95,-181.91 182.68,-170.77 171.65,-162.16"/>
<polygon fill="#63b8ff" stroke="#63b8ff" points="207.26,-194.4 217.3,-197.8 211.57,-188.88 207.26,-194.4"/>
</a>
</g>
</g>
</g>
</svg>
