<?xml version="1.0" encoding="UTF-8" standalone="no"?>
<!DOCTYPE svg PUBLIC "-//W3C//DTD SVG 1.1//EN"
 "http://www.w3.org/Graphics/SVG/1.1/DTD/svg11.dtd">
<!-- Generated by graphviz version 2.44.1 (20200629.0800)
 -->
<!-- Title: MercuryMessaging.Task.MmTransformTaskInfoFileLoader Pages: 1 -->
<svg width="922pt" height="104pt"
 viewBox="0.00 0.00 922.00 104.19" xmlns="http://www.w3.org/2000/svg" xmlns:xlink="http://www.w3.org/1999/xlink">
<g id="graph0" class="graph" transform="scale(1 1) rotate(0) translate(4 100.19)">
<title>MercuryMessaging.Task.MmTransformTaskInfoFileLoader</title>
<!-- Node1 -->
<g id="Node000001" class="node">
<title>Node1</title>
<g id="a_Node000001"><a xlink:title="This is a basic&#45;straight derivation of MmTaskInfoCollectionFileLoader for MmTransformationTaskInfo.">
<polygon fill="#999999" stroke="#666666" points="914,-78 771,-78 771,-48 914,-48 914,-78"/>
<text text-anchor="start" x="779" y="-66" font-family="Helvetica,sans-Serif" font-size="10.00">MercuryMessaging.Task.Mm</text>
<text text-anchor="middle" x="842.5" y="-55" font-family="Helvetica,sans-Serif" font-size="10.00">TransformTaskInfoFileLoader</text>
</a>
</g>
</g>
<!-- Node2 -->
<g id="Node000002" class="node">
<title>Node2</title>
<g id="a_Node000002"><a xlink:href="class_mercury_messaging_1_1_task_1_1_mm_task_info_collection_file_loader-1-g.html" target="_top" xlink:title="Base implementation of IMmTaskInfoCollectionLoader, specifically for use in loading from file.">
<polygon fill="white" stroke="#666666" points="734,-78 569,-78 569,-48 734,-48 734,-78"/>
<text text-anchor="start" x="577" y="-66" font-family="Helvetica,sans-Serif" font-size="10.00">MercuryMessaging.Task.Mm</text>
<text text-anchor="middle" x="651.5" y="-55" font-family="Helvetica,sans-Serif" font-size="10.00">TaskInfoCollectionFileLoader&lt; U &gt;</text>
</a>
</g>
</g>
<!-- Node2&#45;&gt;Node1 -->
<g id="edge1_Node000001_Node000002" class="edge">
<title>Node2&#45;&gt;Node1</title>
<g id="a_edge1_Node000001_Node000002"><a xlink:title=" ">
<path fill="none" stroke="#63b8ff" d="M744.15,-63C753.16,-63 762.19,-63 770.93,-63"/>
<polygon fill="#63b8ff" stroke="#63b8ff" points="744.02,-59.5 734.02,-63 744.02,-66.5 744.02,-59.5"/>
</a>
</g>
</g>
<!-- Node3 -->
<g id="Node000003" class="node">
<title>Node3</title>
<g id="a_Node000003"><a xlink:title=" ">
<polygon fill="white" stroke="#666666" points="83,-93.5 0,-93.5 0,-74.5 83,-74.5 83,-93.5"/>
<text text-anchor="middle" x="41.5" y="-81.5" font-family="Helvetica,sans-Serif" font-size="10.00">MonoBehaviour</text>
</a>
</g>
</g>
<!-- Node3&#45;&gt;Node2 -->
<g id="edge2_Node000002_Node000003" class="edge">
<title>Node3&#45;&gt;Node2</title>
<g id="a_edge2_Node000002_Node000003"><a xlink:title=" ">
<path fill="none" stroke="#63b8ff" d="M93.22,-88.86C96.19,-88.96 99.13,-89.01 102,-89 301.57,-88.42 352.83,-107.61 551,-84 562.92,-82.58 575.53,-80.43 587.62,-78.04"/>
<polygon fill="#63b8ff" stroke="#63b8ff" points="93.27,-85.36 83.11,-88.36 92.93,-92.35 93.27,-85.36"/>
</a>
</g>
</g>
<!-- Node6 -->
<g id="Node000006" class="node">
<title>Node6</title>
<g id="a_Node000006"><a xlink:href="class_mercury_messaging_1_1_data_1_1_mm_data_path.html" target="_top" xlink:title="Simplifies data file directory preparation/access.">
<polygon fill="white" stroke="#666666" points="262,-78 120,-78 120,-48 262,-48 262,-78"/>
<text text-anchor="start" x="128" y="-66" font-family="Helvetica,sans-Serif" font-size="10.00">MercuryMessaging.Data.Mm</text>
<text text-anchor="middle" x="191" y="-55" font-family="Helvetica,sans-Serif" font-size="10.00">DataPath</text>
</a>
</g>
</g>
<!-- Node3&#45;&gt;Node6 -->
<g id="edge6_Node000006_Node000003" class="edge">
<title>Node3&#45;&gt;Node6</title>
<g id="a_edge6_Node000006_Node000003"><a xlink:title=" ">
<path fill="none" stroke="#63b8ff" d="M93.12,-76.79C101.79,-75.56 110.93,-74.26 120,-72.97"/>
<polygon fill="#63b8ff" stroke="#63b8ff" points="92.6,-73.33 83.2,-78.21 93.59,-80.26 92.6,-73.33"/>
</a>
</g>
</g>
<!-- Node4 -->
<g id="Node000004" class="node">
<title>Node4</title>
<g id="a_Node000004"><a xlink:href="interface_mercury_messaging_1_1_task_1_1_i_mm_task_info_collection_loader-1-g.html" target="_top" xlink:title="Defines interfaces for loading Task Info collections.">
<polygon fill="white" stroke="#666666" points="448,-30 299,-30 299,0 448,0 448,-30"/>
<text text-anchor="start" x="307" y="-18" font-family="Helvetica,sans-Serif" font-size="10.00">MercuryMessaging.Task.IMm</text>
<text text-anchor="middle" x="373.5" y="-7" font-family="Helvetica,sans-Serif" font-size="10.00">TaskInfoCollectionLoader&lt; U &gt;</text>
</a>
</g>
</g>
<!-- Node4&#45;&gt;Node2 -->
<g id="edge3_Node000002_Node000004" class="edge">
<title>Node4&#45;&gt;Node2</title>
<g id="a_edge3_Node000002_Node000004"><a xlink:title=" ">
<path fill="none" stroke="#63b8ff" d="M458.31,-29.58C493.38,-35.68 534.01,-42.74 568.84,-48.8"/>
<polygon fill="#63b8ff" stroke="#63b8ff" points="458.55,-26.07 448.1,-27.8 457.35,-32.96 458.55,-26.07"/>
</a>
</g>
</g>
<!-- Node5 -->
<g id="Node000005" class="node">
<title>Node5</title>
<g id="a_Node000005"><a xlink:href="class_mercury_messaging_1_1_data_1_1_mm_task_user_configurator.html" target="_top" xlink:title="User configuration script for use by MmDataCollector.">
<polygon fill="white" stroke="#666666" points="444.5,-78 302.5,-78 302.5,-48 444.5,-48 444.5,-78"/>
<text text-anchor="start" x="310.5" y="-66" font-family="Helvetica,sans-Serif" font-size="10.00">MercuryMessaging.Data.Mm</text>
<text text-anchor="middle" x="373.5" y="-55" font-family="Helvetica,sans-Serif" font-size="10.00">TaskUserConfigurator</text>
</a>
</g>
</g>
<!-- Node5&#45;&gt;Node2 -->
<g id="edge4_Node000002_Node000005" class="edge">
<title>Node5&#45;&gt;Node2</title>
<g id="a_edge4_Node000002_Node000005"><a xlink:title=" ">
<path fill="none" stroke="#9a32cd" stroke-dasharray="5,2" d="M454.91,-63C490.73,-63 532.85,-63 568.81,-63"/>
<polygon fill="#9a32cd" stroke="#9a32cd" points="454.5,-59.5 444.5,-63 454.5,-66.5 454.5,-59.5"/>
</a>
</g>
<text text-anchor="start" x="469.5" y="-68.5" font-family="Helvetica,sans-Serif" font-size="10.00" fill="grey">MmTaskUserData</text>
</g>
<!-- Node6&#45;&gt;Node5 -->
<g id="edge5_Node000005_Node000006" class="edge">
<title>Node6&#45;&gt;Node5</title>
<g id="a_edge5_Node000005_Node000006"><a xlink:title=" ">
<path fill="none" stroke="#63b8ff" d="M272.1,-63C282.23,-63 292.54,-63 302.5,-63"/>
<polygon fill="#63b8ff" stroke="#63b8ff" points="272.04,-59.5 262.04,-63 272.04,-66.5 272.04,-59.5"/>
</a>
</g>
</g>
</g>
</svg>
