<?xml version="1.0" encoding="UTF-8" standalone="no"?>
<!DOCTYPE svg PUBLIC "-//W3C//DTD SVG 1.1//EN"
 "http://www.w3.org/Graphics/SVG/1.1/DTD/svg11.dtd">
<!-- Generated by graphviz version 2.44.1 (20200629.0800)
 -->
<!-- Title: MercuryMessaging.MmMessageTransform Pages: 1 -->
<svg width="346pt" height="276pt"
 viewBox="0.00 0.00 346.00 276.00" xmlns="http://www.w3.org/2000/svg" xmlns:xlink="http://www.w3.org/1999/xlink">
<g id="graph0" class="graph" transform="scale(1 1) rotate(0) translate(4 272)">
<title>MercuryMessaging.MmMessageTransform</title>
<!-- Node1 -->
<g id="Node000001" class="node">
<title>Node1</title>
<g id="a_Node000001"><a xlink:title="MmMessage with MmTransform payload.">
<polygon fill="#999999" stroke="#666666" points="247.5,-30 89.5,-30 89.5,0 247.5,0 247.5,-30"/>
<text text-anchor="start" x="97.5" y="-18" font-family="Helvetica,sans-Serif" font-size="10.00">MercuryMessaging.MmMessage</text>
<text text-anchor="middle" x="168.5" y="-7" font-family="Helvetica,sans-Serif" font-size="10.00">Transform</text>
</a>
</g>
</g>
<!-- Node2 -->
<g id="Node000002" class="node">
<title>Node2</title>
<g id="a_Node000002"><a xlink:href="class_mercury_messaging_1_1_mm_message.html" target="_top" xlink:title="Base class for messages passed through MmInvoke.">
<polygon fill="white" stroke="#666666" points="158.5,-102 0.5,-102 0.5,-83 158.5,-83 158.5,-102"/>
<text text-anchor="middle" x="79.5" y="-90" font-family="Helvetica,sans-Serif" font-size="10.00">MercuryMessaging.MmMessage</text>
</a>
</g>
</g>
<!-- Node2&#45;&gt;Node1 -->
<g id="edge1_Node000001_Node000002" class="edge">
<title>Node2&#45;&gt;Node1</title>
<g id="a_edge1_Node000001_Node000002"><a xlink:title=" ">
<path fill="none" stroke="#63b8ff" d="M97.71,-76.05C113.56,-62.61 136.35,-43.27 151.75,-30.21"/>
<polygon fill="#63b8ff" stroke="#63b8ff" points="95.07,-73.7 89.71,-82.84 99.6,-79.04 95.07,-73.7"/>
</a>
</g>
</g>
<!-- Node3 -->
<g id="Node000003" class="node">
<title>Node3</title>
<g id="a_Node000003"><a xlink:href="class_mercury_messaging_1_1_mm_metadata_block.html" target="_top" xlink:title="MmMetadataBlock is a collection of settings allowing you to specify the precise invocation path of an...">
<polygon fill="white" stroke="#666666" points="159,-185 0,-185 0,-155 159,-155 159,-185"/>
<text text-anchor="start" x="8" y="-173" font-family="Helvetica,sans-Serif" font-size="10.00">MercuryMessaging.MmMetadata</text>
<text text-anchor="middle" x="79.5" y="-162" font-family="Helvetica,sans-Serif" font-size="10.00">Block</text>
</a>
</g>
</g>
<!-- Node3&#45;&gt;Node2 -->
<g id="edge2_Node000002_Node000003" class="edge">
<title>Node3&#45;&gt;Node2</title>
<g id="a_edge2_Node000002_Node000003"><a xlink:title=" ">
<path fill="none" stroke="#9a32cd" stroke-dasharray="5,2" d="M79.5,-144.4C79.5,-129.81 79.5,-112.22 79.5,-102.01"/>
<polygon fill="#9a32cd" stroke="#9a32cd" points="76,-144.8 79.5,-154.8 83,-144.8 76,-144.8"/>
</a>
</g>
<text text-anchor="start" x="82.5" y="-125.5" font-family="Helvetica,sans-Serif" font-size="10.00" fill="grey">MetadataBlock</text>
</g>
<!-- Node4 -->
<g id="Node000004" class="node">
<title>Node4</title>
<g id="a_Node000004"><a xlink:href="class_mercury_messaging_1_1_mm_routing_options.html" target="_top" xlink:title="Configuration options for advanced message routing behavior.">
<polygon fill="white" stroke="#666666" points="155.5,-268 3.5,-268 3.5,-238 155.5,-238 155.5,-268"/>
<text text-anchor="start" x="11.5" y="-256" font-family="Helvetica,sans-Serif" font-size="10.00">MercuryMessaging.MmRouting</text>
<text text-anchor="middle" x="79.5" y="-245" font-family="Helvetica,sans-Serif" font-size="10.00">Options</text>
</a>
</g>
</g>
<!-- Node4&#45;&gt;Node3 -->
<g id="edge3_Node000003_Node000004" class="edge">
<title>Node4&#45;&gt;Node3</title>
<g id="a_edge3_Node000003_Node000004"><a xlink:title=" ">
<path fill="none" stroke="#9a32cd" stroke-dasharray="5,2" d="M79.5,-227.59C79.5,-213.75 79.5,-196.91 79.5,-185.22"/>
<polygon fill="#9a32cd" stroke="#9a32cd" points="76,-227.89 79.5,-237.89 83,-227.89 76,-227.89"/>
</a>
</g>
<text text-anchor="start" x="82.5" y="-208.5" font-family="Helvetica,sans-Serif" font-size="10.00" fill="grey">Options</text>
</g>
<!-- Node5 -->
<g id="Node000005" class="node">
<title>Node5</title>
<g id="a_Node000005"><a xlink:href="struct_mercury_messaging_1_1_mm_transform.html" target="_top" xlink:title="A struct containing the translation, rotation and scale of a transformation.">
<polygon fill="white" stroke="#666666" points="338,-102 177,-102 177,-83 338,-83 338,-102"/>
<text text-anchor="middle" x="257.5" y="-90" font-family="Helvetica,sans-Serif" font-size="10.00">MercuryMessaging.MmTransform</text>
</a>
</g>
</g>
<!-- Node5&#45;&gt;Node1 -->
<g id="edge4_Node000001_Node000005" class="edge">
<title>Node5&#45;&gt;Node1</title>
<g id="a_edge4_Node000001_Node000005"><a xlink:title=" ">
<path fill="none" stroke="#9a32cd" stroke-dasharray="5,2" d="M239.29,-76.05C223.44,-62.61 200.65,-43.27 185.25,-30.21"/>
<polygon fill="#9a32cd" stroke="#9a32cd" points="237.4,-79.04 247.29,-82.84 241.93,-73.7 237.4,-79.04"/>
</a>
</g>
<text text-anchor="start" x="228.5" y="-53.5" font-family="Helvetica,sans-Serif" font-size="10.00" fill="grey">MmTransform</text>
</g>
</g>
</svg>
