<?xml version="1.0" encoding="UTF-8" standalone="no"?>
<!DOCTYPE svg PUBLIC "-//W3C//DTD SVG 1.1//EN"
 "http://www.w3.org/Graphics/SVG/1.1/DTD/svg11.dtd">
<!-- Generated by graphviz version 2.44.1 (20200629.0800)
 -->
<!-- Title: MercuryMessaging.StandardLibrary.Animation.ColorChanger Pages: 1 -->
<svg width="337pt" height="333pt"
 viewBox="0.00 0.00 337.00 333.00" xmlns="http://www.w3.org/2000/svg" xmlns:xlink="http://www.w3.org/1999/xlink">
<g id="graph0" class="graph" transform="scale(1 1) rotate(0) translate(4 329)">
<title>MercuryMessaging.StandardLibrary.Animation.ColorChanger</title>
<!-- Node1 -->
<g id="Node000001" class="node">
<title>Node1</title>
<g id="a_Node000001"><a xlink:title=" ">
<polygon fill="#999999" stroke="#666666" points="179,-30 25,-30 25,0 179,0 179,-30"/>
<text text-anchor="start" x="33" y="-18" font-family="Helvetica,sans-Serif" font-size="10.00">MercuryMessaging.Standard</text>
<text text-anchor="middle" x="102" y="-7" font-family="Helvetica,sans-Serif" font-size="10.00">Library.Animation.ColorChanger</text>
</a>
</g>
</g>
<!-- Node2 -->
<g id="Node000002" class="node">
<title>Node2</title>
<g id="a_Node000002"><a xlink:href="class_mercury_messaging_1_1_standard_library_1_1_animation_1_1_material_changer-2-g.html" target="_top" xlink:title=" ">
<polygon fill="white" stroke="#666666" points="185,-108 19,-108 19,-67 185,-67 185,-108"/>
<text text-anchor="start" x="27" y="-96" font-family="Helvetica,sans-Serif" font-size="10.00">MercuryMessaging.Standard</text>
<text text-anchor="start" x="27" y="-85" font-family="Helvetica,sans-Serif" font-size="10.00">Library.Animation.MaterialChanger</text>
<text text-anchor="middle" x="102" y="-74" font-family="Helvetica,sans-Serif" font-size="10.00">&lt; T, TI &gt;</text>
</a>
</g>
</g>
<!-- Node2&#45;&gt;Node1 -->
<g id="edge1_Node000001_Node000002" class="edge">
<title>Node2&#45;&gt;Node1</title>
<g id="a_edge1_Node000001_Node000002"><a xlink:title=" ">
<path fill="none" stroke="#63b8ff" d="M102,-56.58C102,-47.51 102,-37.95 102,-30.39"/>
<polygon fill="#63b8ff" stroke="#63b8ff" points="98.5,-56.86 102,-66.86 105.5,-56.86 98.5,-56.86"/>
</a>
</g>
</g>
<!-- Node3 -->
<g id="Node000003" class="node">
<title>Node3</title>
<g id="a_Node000003"><a xlink:title=" ">
<polygon fill="white" stroke="#666666" points="127.5,-185.5 44.5,-185.5 44.5,-166.5 127.5,-166.5 127.5,-185.5"/>
<text text-anchor="middle" x="86" y="-173.5" font-family="Helvetica,sans-Serif" font-size="10.00">MonoBehaviour</text>
</a>
</g>
</g>
<!-- Node3&#45;&gt;Node2 -->
<g id="edge2_Node000002_Node000003" class="edge">
<title>Node3&#45;&gt;Node2</title>
<g id="a_edge2_Node000002_Node000003"><a xlink:title=" ">
<path fill="none" stroke="#63b8ff" d="M89.46,-156.31C92.09,-142.07 95.71,-122.52 98.38,-108.07"/>
<polygon fill="#63b8ff" stroke="#63b8ff" points="85.97,-155.92 87.59,-166.39 92.85,-157.19 85.97,-155.92"/>
</a>
</g>
</g>
<!-- Node4 -->
<g id="Node000004" class="node">
<title>Node4</title>
<g id="a_Node000004"><a xlink:href="class_mercury_messaging_1_1_finite_state_machine-1-g.html" target="_top" xlink:title="Finite State Machine, supporting generic types states.">
<polygon fill="white" stroke="#666666" points="294.5,-191 145.5,-191 145.5,-161 294.5,-161 294.5,-191"/>
<text text-anchor="start" x="153.5" y="-179" font-family="Helvetica,sans-Serif" font-size="10.00">MercuryMessaging.FiniteState</text>
<text text-anchor="middle" x="220" y="-168" font-family="Helvetica,sans-Serif" font-size="10.00">Machine&lt; T &gt;</text>
</a>
</g>
</g>
<!-- Node4&#45;&gt;Node2 -->
<g id="edge3_Node000002_Node000004" class="edge">
<title>Node4&#45;&gt;Node2</title>
<g id="a_edge3_Node000002_Node000004"><a xlink:title=" ">
<path fill="none" stroke="#9a32cd" stroke-dasharray="5,2" d="M192.7,-154.99C173.45,-140.88 147.81,-122.08 128.7,-108.08"/>
<polygon fill="#9a32cd" stroke="#9a32cd" points="190.64,-157.82 200.78,-160.91 194.78,-152.17 190.64,-157.82"/>
</a>
</g>
<text text-anchor="start" x="179" y="-131.5" font-family="Helvetica,sans-Serif" font-size="10.00" fill="grey">materialFSM</text>
</g>
<!-- Node5 -->
<g id="Node000005" class="node">
<title>Node5</title>
<g id="a_Node000005"><a xlink:href="class_mercury_messaging_1_1_keyed_list-2-g.html" target="_top" xlink:title=" ">
<polygon fill="white" stroke="#666666" points="183,-258 37,-258 37,-228 183,-228 183,-258"/>
<text text-anchor="start" x="45" y="-246" font-family="Helvetica,sans-Serif" font-size="10.00">MercuryMessaging.KeyedList</text>
<text text-anchor="middle" x="110" y="-235" font-family="Helvetica,sans-Serif" font-size="10.00">&lt; K, V &gt;</text>
</a>
</g>
</g>
<!-- Node5&#45;&gt;Node4 -->
<g id="edge4_Node000004_Node000005" class="edge">
<title>Node5&#45;&gt;Node4</title>
<g id="a_edge4_Node000004_Node000005"><a xlink:title=" ">
<path fill="none" stroke="#63b8ff" d="M142.5,-222.8C159.71,-212.62 180.48,-200.35 196.18,-191.08"/>
<polygon fill="#63b8ff" stroke="#63b8ff" points="140.7,-219.8 133.87,-227.9 144.26,-225.82 140.7,-219.8"/>
</a>
</g>
</g>
<!-- Node6 -->
<g id="Node000006" class="node">
<title>Node6</title>
<g id="a_Node000006"><a xlink:title=" ">
<polygon fill="white" stroke="#666666" points="100,-319.5 0,-319.5 0,-300.5 100,-300.5 100,-319.5"/>
<text text-anchor="middle" x="50" y="-307.5" font-family="Helvetica,sans-Serif" font-size="10.00">IDictionary&lt; K, V &gt;</text>
</a>
</g>
</g>
<!-- Node6&#45;&gt;Node5 -->
<g id="edge5_Node000005_Node000006" class="edge">
<title>Node6&#45;&gt;Node5</title>
<g id="a_edge5_Node000005_Node000006"><a xlink:title=" ">
<path fill="none" stroke="#63b8ff" d="M64.95,-292.8C74.8,-282.13 87.57,-268.3 96.99,-258.09"/>
<polygon fill="#63b8ff" stroke="#63b8ff" points="62.3,-290.51 58.09,-300.23 67.45,-295.26 62.3,-290.51"/>
</a>
</g>
</g>
<!-- Node7 -->
<g id="Node000007" class="node">
<title>Node7</title>
<g id="a_Node000007"><a xlink:title=" ">
<polygon fill="white" stroke="#666666" points="221.5,-325 118.5,-325 118.5,-295 221.5,-295 221.5,-325"/>
<text text-anchor="start" x="126.5" y="-313" font-family="Helvetica,sans-Serif" font-size="10.00">IList&lt; KeyValuePair</text>
<text text-anchor="middle" x="170" y="-302" font-family="Helvetica,sans-Serif" font-size="10.00">&lt; K, V &gt; &gt;</text>
</a>
</g>
</g>
<!-- Node7&#45;&gt;Node5 -->
<g id="edge6_Node000005_Node000007" class="edge">
<title>Node7&#45;&gt;Node5</title>
<g id="a_edge6_Node000005_Node000007"><a xlink:title=" ">
<path fill="none" stroke="#63b8ff" d="M150.18,-287.52C141.24,-277.84 130.93,-266.67 122.99,-258.08"/>
<polygon fill="#63b8ff" stroke="#63b8ff" points="147.63,-289.92 156.98,-294.9 152.77,-285.17 147.63,-289.92"/>
</a>
</g>
</g>
<!-- Node8 -->
<g id="Node000008" class="node">
<title>Node8</title>
<g id="a_Node000008"><a xlink:href="interface_mercury_messaging_1_1_i_finite_state_machine-1-g.html" target="_top" xlink:title="Defines required methods for a Finite State Machine.">
<polygon fill="white" stroke="#666666" points="329,-258 201,-258 201,-228 329,-228 329,-258"/>
<text text-anchor="start" x="209" y="-246" font-family="Helvetica,sans-Serif" font-size="10.00">MercuryMessaging.IFinite</text>
<text text-anchor="middle" x="265" y="-235" font-family="Helvetica,sans-Serif" font-size="10.00">StateMachine&lt; T &gt;</text>
</a>
</g>
</g>
<!-- Node8&#45;&gt;Node4 -->
<g id="edge7_Node000004_Node000008" class="edge">
<title>Node8&#45;&gt;Node4</title>
<g id="a_edge7_Node000004_Node000008"><a xlink:title=" ">
<path fill="none" stroke="#63b8ff" d="M249.53,-219.66C242.97,-210.18 235.52,-199.42 229.75,-191.08"/>
<polygon fill="#63b8ff" stroke="#63b8ff" points="246.67,-221.67 255.24,-227.9 252.42,-217.68 246.67,-221.67"/>
</a>
</g>
</g>
</g>
</svg>
