<?xml version="1.0" encoding="UTF-8" standalone="no"?>
<!DOCTYPE svg PUBLIC "-//W3C//DTD SVG 1.1//EN"
 "http://www.w3.org/Graphics/SVG/1.1/DTD/svg11.dtd">
<!-- Generated by graphviz version 2.44.1 (20200629.0800)
 -->
<!-- Title: MercuryMessaging.StandardLibrary.Animation.InterpolatorAlpha Pages: 1 -->
<svg width="498pt" height="98pt"
 viewBox="0.00 0.00 498.00 97.50" xmlns="http://www.w3.org/2000/svg" xmlns:xlink="http://www.w3.org/1999/xlink">
<g id="graph0" class="graph" transform="scale(1 1) rotate(0) translate(4 93.5)">
<title>MercuryMessaging.StandardLibrary.Animation.InterpolatorAlpha</title>
<!-- Node1 -->
<g id="Node000001" class="node">
<title>Node1</title>
<g id="a_Node000001"><a xlink:title=" ">
<polygon fill="#999999" stroke="#666666" points="490,-62.5 322,-62.5 322,-32.5 490,-32.5 490,-62.5"/>
<text text-anchor="start" x="330" y="-50.5" font-family="Helvetica,sans-Serif" font-size="10.00">MercuryMessaging.Standard</text>
<text text-anchor="middle" x="406" y="-39.5" font-family="Helvetica,sans-Serif" font-size="10.00">Library.Animation.InterpolatorAlpha</text>
</a>
</g>
</g>
<!-- Node2 -->
<g id="Node000002" class="node">
<title>Node2</title>
<g id="a_Node000002"><a xlink:href="class_mercury_messaging_1_1_standard_library_1_1_animation_1_1_interpolator-1-g.html" target="_top" xlink:title=" ">
<polygon fill="white" stroke="#666666" points="286,-89.5 119,-89.5 119,-59.5 286,-59.5 286,-89.5"/>
<text text-anchor="start" x="127" y="-77.5" font-family="Helvetica,sans-Serif" font-size="10.00">MercuryMessaging.Standard</text>
<text text-anchor="middle" x="202.5" y="-66.5" font-family="Helvetica,sans-Serif" font-size="10.00">Library.Animation.Interpolator&lt; T &gt;</text>
</a>
</g>
</g>
<!-- Node2&#45;&gt;Node1 -->
<g id="edge1_Node000001_Node000002" class="edge">
<title>Node2&#45;&gt;Node1</title>
<g id="a_edge1_Node000001_Node000002"><a xlink:title=" ">
<path fill="none" stroke="#63b8ff" d="M296.1,-62.09C304.72,-60.94 313.41,-59.77 321.94,-58.63"/>
<polygon fill="#63b8ff" stroke="#63b8ff" points="295.49,-58.64 286.04,-63.44 296.42,-65.58 295.49,-58.64"/>
</a>
</g>
</g>
<!-- Node3 -->
<g id="Node000003" class="node">
<title>Node3</title>
<g id="a_Node000003"><a xlink:title=" ">
<polygon fill="white" stroke="#666666" points="83,-84 0,-84 0,-65 83,-65 83,-84"/>
<text text-anchor="middle" x="41.5" y="-72" font-family="Helvetica,sans-Serif" font-size="10.00">MonoBehaviour</text>
</a>
</g>
</g>
<!-- Node3&#45;&gt;Node2 -->
<g id="edge2_Node000002_Node000003" class="edge">
<title>Node3&#45;&gt;Node2</title>
<g id="a_edge2_Node000002_Node000003"><a xlink:title=" ">
<path fill="none" stroke="#63b8ff" d="M93.19,-74.5C101.43,-74.5 110.15,-74.5 118.92,-74.5"/>
<polygon fill="#63b8ff" stroke="#63b8ff" points="93.03,-71 83.03,-74.5 93.03,-78 93.03,-71"/>
</a>
</g>
</g>
<!-- Node4 -->
<g id="Node000004" class="node">
<title>Node4</title>
<g id="a_Node000004"><a xlink:href="interface_mercury_messaging_1_1_standard_library_1_1_animation_1_1_interpolator_material-1-g.html" target="_top" xlink:title=" ">
<polygon fill="white" stroke="#666666" points="274,-41 131,-41 131,0 274,0 274,-41"/>
<text text-anchor="start" x="139" y="-29" font-family="Helvetica,sans-Serif" font-size="10.00">MercuryMessaging.Standard</text>
<text text-anchor="start" x="139" y="-18" font-family="Helvetica,sans-Serif" font-size="10.00">Library.Animation.Interpolator</text>
<text text-anchor="middle" x="202.5" y="-7" font-family="Helvetica,sans-Serif" font-size="10.00">Material&lt; T &gt;</text>
</a>
</g>
</g>
<!-- Node4&#45;&gt;Node1 -->
<g id="edge3_Node000001_Node000004" class="edge">
<title>Node4&#45;&gt;Node1</title>
<g id="a_edge3_Node000001_Node000004"><a xlink:title=" ">
<path fill="none" stroke="#63b8ff" d="M284.51,-31.35C296.85,-33.01 309.6,-34.72 321.98,-36.38"/>
<polygon fill="#63b8ff" stroke="#63b8ff" points="284.63,-27.84 274.26,-29.98 283.7,-34.78 284.63,-27.84"/>
</a>
</g>
</g>
</g>
</svg>
