<?xml version="1.0" encoding="UTF-8" standalone="no"?>
<!DOCTYPE svg PUBLIC "-//W3C//DTD SVG 1.1//EN"
 "http://www.w3.org/Graphics/SVG/1.1/DTD/svg11.dtd">
<!-- Generated by graphviz version 2.44.1 (20200629.0800)
 -->
<!-- Title: MercuryMessaging.Task.MmLookAtTaskInfo Pages: 1 -->
<svg width="741pt" height="92pt"
 viewBox="0.00 0.00 741.00 92.00" xmlns="http://www.w3.org/2000/svg" xmlns:xlink="http://www.w3.org/1999/xlink">
<g id="graph0" class="graph" transform="scale(1 1) rotate(0) translate(4 88)">
<title>MercuryMessaging.Task.MmLookAtTaskInfo</title>
<!-- Node1 -->
<g id="Node000001" class="node">
<title>Node1</title>
<g id="a_Node000001"><a xlink:title=" ">
<polygon fill="#999999" stroke="#666666" points="733,-30 590,-30 590,0 733,0 733,-30"/>
<text text-anchor="start" x="598" y="-18" font-family="Helvetica,sans-Serif" font-size="10.00">MercuryMessaging.Task.Mm</text>
<text text-anchor="middle" x="661.5" y="-7" font-family="Helvetica,sans-Serif" font-size="10.00">LookAtTaskInfo</text>
</a>
</g>
</g>
<!-- Node2 -->
<g id="Node000002" class="node">
<title>Node2</title>
<g id="a_Node000002"><a xlink:href="class_mercury_messaging_1_1_task_1_1_mm_transformation_task_info.html" target="_top" xlink:title="A task info that supports tasks requiring 3D transformations meet particular requirements.">
<polygon fill="white" stroke="#666666" points="553,-68 410,-68 410,-38 553,-38 553,-68"/>
<text text-anchor="start" x="418" y="-56" font-family="Helvetica,sans-Serif" font-size="10.00">MercuryMessaging.Task.Mm</text>
<text text-anchor="middle" x="481.5" y="-45" font-family="Helvetica,sans-Serif" font-size="10.00">TransformationTaskInfo</text>
</a>
</g>
</g>
<!-- Node2&#45;&gt;Node1 -->
<g id="edge1_Node000001_Node000002" class="edge">
<title>Node2&#45;&gt;Node1</title>
<g id="a_edge1_Node000001_Node000002"><a xlink:title=" ">
<path fill="none" stroke="#63b8ff" d="M562.69,-35.88C571.83,-33.93 581.08,-31.95 590.08,-30.03"/>
<polygon fill="#63b8ff" stroke="#63b8ff" points="561.9,-32.47 552.85,-37.98 563.36,-39.32 561.9,-32.47"/>
</a>
</g>
</g>
<!-- Node3 -->
<g id="Node000003" class="node">
<title>Node3</title>
<g id="a_Node000003"><a xlink:href="class_mercury_messaging_1_1_task_1_1_mm_task_info.html" target="_top" xlink:title="MmTaskInfo contains basic information for tasks in the Mercury environment.">
<polygon fill="white" stroke="#666666" points="325,-83 182,-83 182,-53 325,-53 325,-83"/>
<text text-anchor="start" x="190" y="-71" font-family="Helvetica,sans-Serif" font-size="10.00">MercuryMessaging.Task.Mm</text>
<text text-anchor="middle" x="253.5" y="-60" font-family="Helvetica,sans-Serif" font-size="10.00">TaskInfo</text>
</a>
</g>
</g>
<!-- Node3&#45;&gt;Node2 -->
<g id="edge2_Node000002_Node000003" class="edge">
<title>Node3&#45;&gt;Node2</title>
<g id="a_edge2_Node000002_Node000003"><a xlink:title=" ">
<path fill="none" stroke="#63b8ff" d="M335.34,-62.63C359.63,-61.02 386.09,-59.27 409.68,-57.7"/>
<polygon fill="#63b8ff" stroke="#63b8ff" points="334.82,-59.16 325.08,-63.32 335.29,-66.15 334.82,-59.16"/>
</a>
</g>
</g>
<!-- Node4 -->
<g id="Node000004" class="node">
<title>Node4</title>
<g id="a_Node000004"><a xlink:href="interface_mercury_messaging_1_1_task_1_1_i_mm_task_info.html" target="_top" xlink:title="Interface defining structure with basic organizational information.">
<polygon fill="white" stroke="#666666" points="145,-84 0,-84 0,-54 145,-54 145,-84"/>
<text text-anchor="start" x="8" y="-72" font-family="Helvetica,sans-Serif" font-size="10.00">MercuryMessaging.Task.IMm</text>
<text text-anchor="middle" x="72.5" y="-61" font-family="Helvetica,sans-Serif" font-size="10.00">TaskInfo</text>
</a>
</g>
</g>
<!-- Node4&#45;&gt;Node3 -->
<g id="edge3_Node000003_Node000004" class="edge">
<title>Node4&#45;&gt;Node3</title>
<g id="a_edge3_Node000003_Node000004"><a xlink:title=" ">
<path fill="none" stroke="#63b8ff" d="M155.09,-68.54C164.06,-68.49 173.15,-68.44 181.97,-68.39"/>
<polygon fill="#63b8ff" stroke="#63b8ff" points="155,-65.04 145.02,-68.6 155.04,-72.04 155,-65.04"/>
</a>
</g>
</g>
<!-- Node5 -->
<g id="Node000005" class="node">
<title>Node5</title>
<g id="a_Node000005"><a xlink:href="interface_mercury_messaging_1_1_task_1_1_i_mm_serializable.html" target="_top" xlink:title="Interface defining serializable structure to be used in IMmMessages.">
<polygon fill="white" stroke="#666666" points="145,-35 0,-35 0,-5 145,-5 145,-35"/>
<text text-anchor="start" x="8" y="-23" font-family="Helvetica,sans-Serif" font-size="10.00">MercuryMessaging.Task.IMm</text>
<text text-anchor="middle" x="72.5" y="-12" font-family="Helvetica,sans-Serif" font-size="10.00">Serializable</text>
</a>
</g>
</g>
<!-- Node5&#45;&gt;Node3 -->
<g id="edge4_Node000003_Node000005" class="edge">
<title>Node5&#45;&gt;Node3</title>
<g id="a_edge4_Node000003_Node000005"><a xlink:title=" ">
<path fill="none" stroke="#63b8ff" d="M139.32,-37.65C158.11,-42.69 178.41,-48.13 196.55,-53"/>
<polygon fill="#63b8ff" stroke="#63b8ff" points="140.21,-34.27 129.65,-35.06 138.4,-41.03 140.21,-34.27"/>
</a>
</g>
</g>
<!-- Node6 -->
<g id="Node000006" class="node">
<title>Node6</title>
<g id="a_Node000006"><a xlink:href="class_mercury_messaging_1_1_task_1_1_mm_transform_task_threshold.html" target="_top" xlink:title="This class contains transformation threshold information for MmTransformationTaskInfos.">
<polygon fill="white" stroke="#666666" points="325,-34 182,-34 182,-4 325,-4 325,-34"/>
<text text-anchor="start" x="190" y="-22" font-family="Helvetica,sans-Serif" font-size="10.00">MercuryMessaging.Task.Mm</text>
<text text-anchor="middle" x="253.5" y="-11" font-family="Helvetica,sans-Serif" font-size="10.00">TransformTaskThreshold</text>
</a>
</g>
</g>
<!-- Node5&#45;&gt;Node6 -->
<g id="edge6_Node000006_Node000005" class="edge">
<title>Node5&#45;&gt;Node6</title>
<g id="a_edge6_Node000006_Node000005"><a xlink:title=" ">
<path fill="none" stroke="#63b8ff" d="M155.09,-19.54C164.06,-19.49 173.15,-19.44 181.97,-19.39"/>
<polygon fill="#63b8ff" stroke="#63b8ff" points="155,-16.04 145.02,-19.6 155.04,-23.04 155,-16.04"/>
</a>
</g>
</g>
<!-- Node6&#45;&gt;Node1 -->
<g id="edge7_Node000001_Node000006" class="edge">
<title>Node6&#45;&gt;Node1</title>
<g id="a_edge7_Node000001_Node000006"><a xlink:title=" ">
<path fill="none" stroke="#9a32cd" stroke-dasharray="5,2" d="M335.43,-14.67C359.43,-13.57 385.77,-12.55 410,-12 473.54,-10.57 489.45,-11.11 553,-12 564.95,-12.17 577.64,-12.44 589.96,-12.75"/>
<polygon fill="#9a32cd" stroke="#9a32cd" points="335.13,-11.18 325.31,-15.14 335.46,-18.17 335.13,-11.18"/>
</a>
</g>
<text text-anchor="start" x="460.5" y="-17.5" font-family="Helvetica,sans-Serif" font-size="10.00" fill="grey">Threshold</text>
</g>
<!-- Node6&#45;&gt;Node2 -->
<g id="edge5_Node000002_Node000006" class="edge">
<title>Node6&#45;&gt;Node2</title>
<g id="a_edge5_Node000002_Node000006"><a xlink:title=" ">
<path fill="none" stroke="#9a32cd" stroke-dasharray="5,2" d="M335.17,-29.73C353.84,-32.33 373.63,-35.17 392,-38 397.7,-38.88 403.6,-39.81 409.52,-40.77"/>
<polygon fill="#9a32cd" stroke="#9a32cd" points="335.6,-26.25 325.22,-28.35 334.64,-33.19 335.6,-26.25"/>
</a>
</g>
<text text-anchor="start" x="346.5" y="-43.5" font-family="Helvetica,sans-Serif" font-size="10.00" fill="grey">Threshold</text>
</g>
</g>
</svg>
