<?xml version="1.0" encoding="UTF-8" standalone="no"?>
<!DOCTYPE svg PUBLIC "-//W3C//DTD SVG 1.1//EN"
 "http://www.w3.org/Graphics/SVG/1.1/DTD/svg11.dtd">
<!-- Generated by graphviz version 2.44.1 (20200629.0800)
 -->
<!-- Title: MercuryMessaging.StandardLibrary.Animation.MaterialChanger&lt; T, TI &gt; Pages: 1 -->
<svg width="337pt" height="266pt"
 viewBox="0.00 0.00 337.00 266.00" xmlns="http://www.w3.org/2000/svg" xmlns:xlink="http://www.w3.org/1999/xlink">
<g id="graph0" class="graph" transform="scale(1 1) rotate(0) translate(4 262)">
<title>MercuryMessaging.StandardLibrary.Animation.MaterialChanger&lt; T, TI &gt;</title>
<!-- Node1 -->
<g id="Node000001" class="node">
<title>Node1</title>
<g id="a_Node000001"><a xlink:title=" ">
<polygon fill="#999999" stroke="#666666" points="185,-41 19,-41 19,0 185,0 185,-41"/>
<text text-anchor="start" x="27" y="-29" font-family="Helvetica,sans-Serif" font-size="10.00">MercuryMessaging.Standard</text>
<text text-anchor="start" x="27" y="-18" font-family="Helvetica,sans-Serif" font-size="10.00">Library.Animation.MaterialChanger</text>
<text text-anchor="middle" x="102" y="-7" font-family="Helvetica,sans-Serif" font-size="10.00">&lt; T, TI &gt;</text>
</a>
</g>
</g>
<!-- Node2 -->
<g id="Node000002" class="node">
<title>Node2</title>
<g id="a_Node000002"><a xlink:title=" ">
<polygon fill="white" stroke="#666666" points="127.5,-118.5 44.5,-118.5 44.5,-99.5 127.5,-99.5 127.5,-118.5"/>
<text text-anchor="middle" x="86" y="-106.5" font-family="Helvetica,sans-Serif" font-size="10.00">MonoBehaviour</text>
</a>
</g>
</g>
<!-- Node2&#45;&gt;Node1 -->
<g id="edge1_Node000001_Node000002" class="edge">
<title>Node2&#45;&gt;Node1</title>
<g id="a_edge1_Node000001_Node000002"><a xlink:title=" ">
<path fill="none" stroke="#63b8ff" d="M89.46,-89.31C92.09,-75.07 95.71,-55.52 98.38,-41.07"/>
<polygon fill="#63b8ff" stroke="#63b8ff" points="85.97,-88.92 87.59,-99.39 92.85,-90.19 85.97,-88.92"/>
</a>
</g>
</g>
<!-- Node3 -->
<g id="Node000003" class="node">
<title>Node3</title>
<g id="a_Node000003"><a xlink:href="class_mercury_messaging_1_1_finite_state_machine-1-g.html" target="_top" xlink:title="Finite State Machine, supporting generic types states.">
<polygon fill="white" stroke="#666666" points="294.5,-124 145.5,-124 145.5,-94 294.5,-94 294.5,-124"/>
<text text-anchor="start" x="153.5" y="-112" font-family="Helvetica,sans-Serif" font-size="10.00">MercuryMessaging.FiniteState</text>
<text text-anchor="middle" x="220" y="-101" font-family="Helvetica,sans-Serif" font-size="10.00">Machine&lt; T &gt;</text>
</a>
</g>
</g>
<!-- Node3&#45;&gt;Node1 -->
<g id="edge2_Node000001_Node000003" class="edge">
<title>Node3&#45;&gt;Node1</title>
<g id="a_edge2_Node000001_Node000003"><a xlink:title=" ">
<path fill="none" stroke="#9a32cd" stroke-dasharray="5,2" d="M192.7,-87.99C173.45,-73.88 147.81,-55.08 128.7,-41.08"/>
<polygon fill="#9a32cd" stroke="#9a32cd" points="190.64,-90.82 200.78,-93.91 194.78,-85.17 190.64,-90.82"/>
</a>
</g>
<text text-anchor="start" x="179" y="-64.5" font-family="Helvetica,sans-Serif" font-size="10.00" fill="grey">materialFSM</text>
</g>
<!-- Node4 -->
<g id="Node000004" class="node">
<title>Node4</title>
<g id="a_Node000004"><a xlink:href="class_mercury_messaging_1_1_keyed_list-2-g.html" target="_top" xlink:title=" ">
<polygon fill="white" stroke="#666666" points="183,-191 37,-191 37,-161 183,-161 183,-191"/>
<text text-anchor="start" x="45" y="-179" font-family="Helvetica,sans-Serif" font-size="10.00">MercuryMessaging.KeyedList</text>
<text text-anchor="middle" x="110" y="-168" font-family="Helvetica,sans-Serif" font-size="10.00">&lt; K, V &gt;</text>
</a>
</g>
</g>
<!-- Node4&#45;&gt;Node3 -->
<g id="edge3_Node000003_Node000004" class="edge">
<title>Node4&#45;&gt;Node3</title>
<g id="a_edge3_Node000003_Node000004"><a xlink:title=" ">
<path fill="none" stroke="#63b8ff" d="M142.5,-155.8C159.71,-145.62 180.48,-133.35 196.18,-124.08"/>
<polygon fill="#63b8ff" stroke="#63b8ff" points="140.7,-152.8 133.87,-160.9 144.26,-158.82 140.7,-152.8"/>
</a>
</g>
</g>
<!-- Node5 -->
<g id="Node000005" class="node">
<title>Node5</title>
<g id="a_Node000005"><a xlink:title=" ">
<polygon fill="white" stroke="#666666" points="100,-252.5 0,-252.5 0,-233.5 100,-233.5 100,-252.5"/>
<text text-anchor="middle" x="50" y="-240.5" font-family="Helvetica,sans-Serif" font-size="10.00">IDictionary&lt; K, V &gt;</text>
</a>
</g>
</g>
<!-- Node5&#45;&gt;Node4 -->
<g id="edge4_Node000004_Node000005" class="edge">
<title>Node5&#45;&gt;Node4</title>
<g id="a_edge4_Node000004_Node000005"><a xlink:title=" ">
<path fill="none" stroke="#63b8ff" d="M64.95,-225.8C74.8,-215.13 87.57,-201.3 96.99,-191.09"/>
<polygon fill="#63b8ff" stroke="#63b8ff" points="62.3,-223.51 58.09,-233.23 67.45,-228.26 62.3,-223.51"/>
</a>
</g>
</g>
<!-- Node6 -->
<g id="Node000006" class="node">
<title>Node6</title>
<g id="a_Node000006"><a xlink:title=" ">
<polygon fill="white" stroke="#666666" points="221.5,-258 118.5,-258 118.5,-228 221.5,-228 221.5,-258"/>
<text text-anchor="start" x="126.5" y="-246" font-family="Helvetica,sans-Serif" font-size="10.00">IList&lt; KeyValuePair</text>
<text text-anchor="middle" x="170" y="-235" font-family="Helvetica,sans-Serif" font-size="10.00">&lt; K, V &gt; &gt;</text>
</a>
</g>
</g>
<!-- Node6&#45;&gt;Node4 -->
<g id="edge5_Node000004_Node000006" class="edge">
<title>Node6&#45;&gt;Node4</title>
<g id="a_edge5_Node000004_Node000006"><a xlink:title=" ">
<path fill="none" stroke="#63b8ff" d="M150.18,-220.52C141.24,-210.84 130.93,-199.67 122.99,-191.08"/>
<polygon fill="#63b8ff" stroke="#63b8ff" points="147.63,-222.92 156.98,-227.9 152.77,-218.17 147.63,-222.92"/>
</a>
</g>
</g>
<!-- Node7 -->
<g id="Node000007" class="node">
<title>Node7</title>
<g id="a_Node000007"><a xlink:href="interface_mercury_messaging_1_1_i_finite_state_machine-1-g.html" target="_top" xlink:title="Defines required methods for a Finite State Machine.">
<polygon fill="white" stroke="#666666" points="329,-191 201,-191 201,-161 329,-161 329,-191"/>
<text text-anchor="start" x="209" y="-179" font-family="Helvetica,sans-Serif" font-size="10.00">MercuryMessaging.IFinite</text>
<text text-anchor="middle" x="265" y="-168" font-family="Helvetica,sans-Serif" font-size="10.00">StateMachine&lt; T &gt;</text>
</a>
</g>
</g>
<!-- Node7&#45;&gt;Node3 -->
<g id="edge6_Node000003_Node000007" class="edge">
<title>Node7&#45;&gt;Node3</title>
<g id="a_edge6_Node000003_Node000007"><a xlink:title=" ">
<path fill="none" stroke="#63b8ff" d="M249.53,-152.66C242.97,-143.18 235.52,-132.42 229.75,-124.08"/>
<polygon fill="#63b8ff" stroke="#63b8ff" points="246.67,-154.67 255.24,-160.9 252.42,-150.68 246.67,-154.67"/>
</a>
</g>
</g>
</g>
</svg>
