<?xml version="1.0" encoding="UTF-8" standalone="no"?>
<!DOCTYPE svg PUBLIC "-//W3C//DTD SVG 1.1//EN"
 "http://www.w3.org/Graphics/SVG/1.1/DTD/svg11.dtd">
<!-- Generated by graphviz version 2.44.1 (20200629.0800)
 -->
<!-- Title: MercuryMessaging.MmRelayNode Pages: 1 -->
<svg width="781pt" height="124pt"
 viewBox="0.00 0.00 781.00 123.50" xmlns="http://www.w3.org/2000/svg" xmlns:xlink="http://www.w3.org/1999/xlink">
<g id="graph0" class="graph" transform="scale(1 1) rotate(0) translate(4 119.5)">
<title>MercuryMessaging.MmRelayNode</title>
<!-- Node1 -->
<g id="Node000001" class="node">
<title>Node1</title>
<g id="a_Node000001"><a xlink:title="Base routing node of Mercury XM.">
<polygon fill="#999999" stroke="#666666" points="570,-72.5 404,-72.5 404,-53.5 570,-53.5 570,-72.5"/>
<text text-anchor="middle" x="487" y="-60.5" font-family="Helvetica,sans-Serif" font-size="10.00">MercuryMessaging.MmRelayNode</text>
</a>
</g>
</g>
<!-- Node6 -->
<g id="Node000006" class="node">
<title>Node6</title>
<g id="a_Node000006"><a xlink:href="class_mercury_messaging_1_1_mm_quick_node.html" target="_top" xlink:title="Modification of the standard MmRelayNode that allows skipping of standard checks to allow for faster ...">
<polygon fill="white" stroke="#666666" points="773,-115.5 606,-115.5 606,-96.5 773,-96.5 773,-115.5"/>
<text text-anchor="middle" x="689.5" y="-103.5" font-family="Helvetica,sans-Serif" font-size="10.00">MercuryMessaging.MmQuickNode</text>
</a>
</g>
</g>
<!-- Node1&#45;&gt;Node6 -->
<g id="edge5_Node000001_Node000006" class="edge">
<title>Node1&#45;&gt;Node6</title>
<g id="a_edge5_Node000001_Node000006"><a xlink:title=" ">
<path fill="none" stroke="#63b8ff" d="M542.55,-74.7C574.44,-81.54 614.17,-90.06 644.13,-96.48"/>
<polygon fill="#63b8ff" stroke="#63b8ff" points="543.01,-71.22 532.5,-72.54 541.54,-78.06 543.01,-71.22"/>
</a>
</g>
</g>
<!-- Node7 -->
<g id="Node000007" class="node">
<title>Node7</title>
<g id="a_Node000007"><a xlink:href="class_mercury_messaging_1_1_mm_relay_app_state_node.html" target="_top" xlink:title="MmRelayNode for handling MmAppStateResponder.">
<polygon fill="white" stroke="#666666" points="761,-78 618,-78 618,-48 761,-48 761,-78"/>
<text text-anchor="start" x="626" y="-66" font-family="Helvetica,sans-Serif" font-size="10.00">MercuryMessaging.MmRelay</text>
<text text-anchor="middle" x="689.5" y="-55" font-family="Helvetica,sans-Serif" font-size="10.00">AppStateNode</text>
</a>
</g>
</g>
<!-- Node1&#45;&gt;Node7 -->
<g id="edge6_Node000001_Node000007" class="edge">
<title>Node1&#45;&gt;Node7</title>
<g id="a_edge6_Node000001_Node000007"><a xlink:title=" ">
<path fill="none" stroke="#63b8ff" d="M580.19,-63C592.8,-63 605.58,-63 617.72,-63"/>
<polygon fill="#63b8ff" stroke="#63b8ff" points="580.13,-59.5 570.13,-63 580.13,-66.5 580.13,-59.5"/>
</a>
</g>
</g>
<!-- Node8 -->
<g id="Node000008" class="node">
<title>Node8</title>
<g id="a_Node000008"><a xlink:href="class_mercury_messaging_1_1_mm_relay_switch_node.html" target="_top" xlink:title="an MmRelayNode with an FSM to allow for limited MmResponder selection in the MmRelayNode&#39;s MmRoutingT...">
<polygon fill="white" stroke="#666666" points="761,-30 618,-30 618,0 761,0 761,-30"/>
<text text-anchor="start" x="626" y="-18" font-family="Helvetica,sans-Serif" font-size="10.00">MercuryMessaging.MmRelay</text>
<text text-anchor="middle" x="689.5" y="-7" font-family="Helvetica,sans-Serif" font-size="10.00">SwitchNode</text>
</a>
</g>
</g>
<!-- Node1&#45;&gt;Node8 -->
<g id="edge7_Node000001_Node000008" class="edge">
<title>Node1&#45;&gt;Node8</title>
<g id="a_edge7_Node000001_Node000008"><a xlink:title=" ">
<path fill="none" stroke="#63b8ff" d="M537.93,-51.05C564.45,-44.7 597.32,-36.83 625.58,-30.06"/>
<polygon fill="#63b8ff" stroke="#63b8ff" points="537,-47.67 528.09,-53.4 538.63,-54.48 537,-47.67"/>
</a>
</g>
</g>
<!-- Node2 -->
<g id="Node000002" class="node">
<title>Node2</title>
<g id="a_Node000002"><a xlink:href="class_mercury_messaging_1_1_mm_responder.html" target="_top" xlink:title="Base implmentation of IMmResponder.">
<polygon fill="white" stroke="#666666" points="368,-91.5 203,-91.5 203,-72.5 368,-72.5 368,-91.5"/>
<text text-anchor="middle" x="285.5" y="-79.5" font-family="Helvetica,sans-Serif" font-size="10.00">MercuryMessaging.MmResponder</text>
</a>
</g>
</g>
<!-- Node2&#45;&gt;Node1 -->
<g id="edge1_Node000001_Node000002" class="edge">
<title>Node2&#45;&gt;Node1</title>
<g id="a_edge1_Node000001_Node000002"><a xlink:title=" ">
<path fill="none" stroke="#63b8ff" d="M378.18,-73.27C386.71,-72.46 395.32,-71.64 403.76,-70.83"/>
<polygon fill="#63b8ff" stroke="#63b8ff" points="377.84,-69.78 368.22,-74.22 378.51,-76.75 377.84,-69.78"/>
</a>
</g>
</g>
<!-- Node3 -->
<g id="Node000003" class="node">
<title>Node3</title>
<g id="a_Node000003"><a xlink:title=" ">
<polygon fill="white" stroke="#666666" points="125,-109.5 42,-109.5 42,-90.5 125,-90.5 125,-109.5"/>
<text text-anchor="middle" x="83.5" y="-97.5" font-family="Helvetica,sans-Serif" font-size="10.00">MonoBehaviour</text>
</a>
</g>
</g>
<!-- Node3&#45;&gt;Node2 -->
<g id="edge2_Node000002_Node000003" class="edge">
<title>Node3&#45;&gt;Node2</title>
<g id="a_edge2_Node000002_Node000003"><a xlink:title=" ">
<path fill="none" stroke="#63b8ff" d="M135.48,-95.41C155.91,-93.57 179.97,-91.41 202.72,-89.36"/>
<polygon fill="#63b8ff" stroke="#63b8ff" points="135.1,-91.93 125.46,-96.31 135.73,-98.9 135.1,-91.93"/>
</a>
</g>
</g>
<!-- Node4 -->
<g id="Node000004" class="node">
<title>Node4</title>
<g id="a_Node000004"><a xlink:href="interface_mercury_messaging_1_1_i_mm_responder.html" target="_top" xlink:title="The core of MercuryMessaging.">
<polygon fill="white" stroke="#666666" points="167,-72.5 0,-72.5 0,-53.5 167,-53.5 167,-72.5"/>
<text text-anchor="middle" x="83.5" y="-60.5" font-family="Helvetica,sans-Serif" font-size="10.00">MercuryMessaging.IMmResponder</text>
</a>
</g>
</g>
<!-- Node4&#45;&gt;Node2 -->
<g id="edge3_Node000002_Node000004" class="edge">
<title>Node4&#45;&gt;Node2</title>
<g id="a_edge3_Node000002_Node000004"><a xlink:title=" ">
<path fill="none" stroke="#63b8ff" d="M177.05,-71.79C185.66,-72.61 194.34,-73.43 202.83,-74.24"/>
<polygon fill="#63b8ff" stroke="#63b8ff" points="177.29,-68.3 167,-70.84 176.63,-75.27 177.29,-68.3"/>
</a>
</g>
</g>
<!-- Node5 -->
<g id="Node000005" class="node">
<title>Node5</title>
<g id="a_Node000005"><a xlink:href="interface_mercury_messaging_1_1_i_mm_node.html" target="_top" xlink:title="Defines methods required by an MmResponder &amp; utility methods making invocation MmMethods with built&#45;i...">
<polygon fill="white" stroke="#666666" points="357,-54.5 214,-54.5 214,-35.5 357,-35.5 357,-54.5"/>
<text text-anchor="middle" x="285.5" y="-42.5" font-family="Helvetica,sans-Serif" font-size="10.00">MercuryMessaging.IMmNode</text>
</a>
</g>
</g>
<!-- Node5&#45;&gt;Node1 -->
<g id="edge4_Node000001_Node000005" class="edge">
<title>Node5&#45;&gt;Node1</title>
<g id="a_edge4_Node000001_Node000005"><a xlink:title=" ">
<path fill="none" stroke="#63b8ff" d="M367.17,-52.28C379.27,-53.37 391.76,-54.5 403.89,-55.59"/>
<polygon fill="#63b8ff" stroke="#63b8ff" points="367.39,-48.78 357.12,-51.37 366.76,-55.76 367.39,-48.78"/>
</a>
</g>
</g>
</g>
</svg>
