<?xml version="1.0" encoding="UTF-8" standalone="no"?>
<!DOCTYPE svg PUBLIC "-//W3C//DTD SVG 1.1//EN"
 "http://www.w3.org/Graphics/SVG/1.1/DTD/svg11.dtd">
<!-- Generated by graphviz version 2.44.1 (20200629.0800)
 -->
<!-- Title: MercuryMessaging.ResponderHandlerBuilder Pages: 1 -->
<svg width="276pt" height="289pt"
 viewBox="0.00 0.00 276.00 289.00" xmlns="http://www.w3.org/2000/svg" xmlns:xlink="http://www.w3.org/1999/xlink">
<g id="graph0" class="graph" transform="scale(1 1) rotate(0) translate(4 285)">
<title>MercuryMessaging.ResponderHandlerBuilder</title>
<!-- Node1 -->
<g id="Node000001" class="node">
<title>Node1</title>
<g id="a_Node000001"><a xlink:title="Fluent builder for configuring message handlers on MmExtendableResponder.">
<polygon fill="#999999" stroke="#666666" points="187,-30 38,-30 38,0 187,0 187,-30"/>
<text text-anchor="start" x="46" y="-18" font-family="Helvetica,sans-Serif" font-size="10.00">MercuryMessaging.Responder</text>
<text text-anchor="middle" x="112.5" y="-7" font-family="Helvetica,sans-Serif" font-size="10.00">HandlerBuilder</text>
</a>
</g>
</g>
<!-- Node2 -->
<g id="Node000002" class="node">
<title>Node2</title>
<g id="a_Node000002"><a xlink:href="class_mercury_messaging_1_1_mm_extendable_responder.html" target="_top" xlink:title="Base responder with extensible custom method handling via registration API.">
<polygon fill="white" stroke="#666666" points="196,-113 29,-113 29,-83 196,-83 196,-113"/>
<text text-anchor="start" x="37" y="-101" font-family="Helvetica,sans-Serif" font-size="10.00">MercuryMessaging.MmExtendable</text>
<text text-anchor="middle" x="112.5" y="-90" font-family="Helvetica,sans-Serif" font-size="10.00">Responder</text>
</a>
</g>
</g>
<!-- Node2&#45;&gt;Node1 -->
<g id="edge1_Node000001_Node000002" class="edge">
<title>Node2&#45;&gt;Node1</title>
<g id="a_edge1_Node000001_Node000002"><a xlink:title=" ">
<path fill="none" stroke="#9a32cd" stroke-dasharray="5,2" d="M112.5,-72.59C112.5,-58.75 112.5,-41.91 112.5,-30.22"/>
<polygon fill="#9a32cd" stroke="#9a32cd" points="109,-72.89 112.5,-82.89 116,-72.89 109,-72.89"/>
</a>
</g>
<text text-anchor="start" x="116" y="-53.5" font-family="Helvetica,sans-Serif" font-size="10.00" fill="grey">_responder</text>
</g>
<!-- Node3 -->
<g id="Node000003" class="node">
<title>Node3</title>
<g id="a_Node000003"><a xlink:href="class_mercury_messaging_1_1_mm_base_responder.html" target="_top" xlink:title="MmResponder that implements a switch handling the framework&#45;provided MmMethods.">
<polygon fill="white" stroke="#666666" points="206.5,-169 18.5,-169 18.5,-150 206.5,-150 206.5,-169"/>
<text text-anchor="middle" x="112.5" y="-157" font-family="Helvetica,sans-Serif" font-size="10.00">MercuryMessaging.MmBaseResponder</text>
</a>
</g>
</g>
<!-- Node3&#45;&gt;Node2 -->
<g id="edge2_Node000002_Node000003" class="edge">
<title>Node3&#45;&gt;Node2</title>
<g id="a_edge2_Node000002_Node000003"><a xlink:title=" ">
<path fill="none" stroke="#63b8ff" d="M112.5,-139.73C112.5,-131.09 112.5,-121 112.5,-113.02"/>
<polygon fill="#63b8ff" stroke="#63b8ff" points="109,-139.98 112.5,-149.98 116,-139.98 109,-139.98"/>
</a>
</g>
</g>
<!-- Node4 -->
<g id="Node000004" class="node">
<title>Node4</title>
<g id="a_Node000004"><a xlink:href="class_mercury_messaging_1_1_mm_responder.html" target="_top" xlink:title="Base implmentation of IMmResponder.">
<polygon fill="white" stroke="#666666" points="195,-225 30,-225 30,-206 195,-206 195,-225"/>
<text text-anchor="middle" x="112.5" y="-213" font-family="Helvetica,sans-Serif" font-size="10.00">MercuryMessaging.MmResponder</text>
</a>
</g>
</g>
<!-- Node4&#45;&gt;Node3 -->
<g id="edge3_Node000003_Node000004" class="edge">
<title>Node4&#45;&gt;Node3</title>
<g id="a_edge3_Node000003_Node000004"><a xlink:title=" ">
<path fill="none" stroke="#63b8ff" d="M112.5,-195.3C112.5,-186.41 112.5,-176.28 112.5,-169.25"/>
<polygon fill="#63b8ff" stroke="#63b8ff" points="109,-195.58 112.5,-205.58 116,-195.58 109,-195.58"/>
</a>
</g>
</g>
<!-- Node5 -->
<g id="Node000005" class="node">
<title>Node5</title>
<g id="a_Node000005"><a xlink:title=" ">
<polygon fill="white" stroke="#666666" points="83,-281 0,-281 0,-262 83,-262 83,-281"/>
<text text-anchor="middle" x="41.5" y="-269" font-family="Helvetica,sans-Serif" font-size="10.00">MonoBehaviour</text>
</a>
</g>
</g>
<!-- Node5&#45;&gt;Node4 -->
<g id="edge4_Node000004_Node000005" class="edge">
<title>Node5&#45;&gt;Node4</title>
<g id="a_edge4_Node000004_Node000005"><a xlink:title=" ">
<path fill="none" stroke="#63b8ff" d="M61.09,-255.6C73.87,-245.88 90.11,-233.53 100.89,-225.33"/>
<polygon fill="#63b8ff" stroke="#63b8ff" points="58.75,-252.98 52.91,-261.82 62.99,-258.56 58.75,-252.98"/>
</a>
</g>
</g>
<!-- Node6 -->
<g id="Node000006" class="node">
<title>Node6</title>
<g id="a_Node000006"><a xlink:href="interface_mercury_messaging_1_1_i_mm_responder.html" target="_top" xlink:title="The core of MercuryMessaging.">
<polygon fill="white" stroke="#666666" points="268,-281 101,-281 101,-262 268,-262 268,-281"/>
<text text-anchor="middle" x="184.5" y="-269" font-family="Helvetica,sans-Serif" font-size="10.00">MercuryMessaging.IMmResponder</text>
</a>
</g>
</g>
<!-- Node6&#45;&gt;Node4 -->
<g id="edge5_Node000004_Node000006" class="edge">
<title>Node6&#45;&gt;Node4</title>
<g id="a_edge5_Node000004_Node000006"><a xlink:title=" ">
<path fill="none" stroke="#63b8ff" d="M164.63,-255.6C151.68,-245.88 135.2,-233.53 124.28,-225.33"/>
<polygon fill="#63b8ff" stroke="#63b8ff" points="162.83,-258.62 172.93,-261.82 167.03,-253.02 162.83,-258.62"/>
</a>
</g>
</g>
</g>
</svg>
