<?xml version="1.0" encoding="UTF-8" standalone="no"?>
<!DOCTYPE svg PUBLIC "-//W3C//DTD SVG 1.1//EN"
 "http://www.w3.org/Graphics/SVG/1.1/DTD/svg11.dtd">
<!-- Generated by graphviz version 2.44.1 (20200629.0800)
 -->
<!-- Title: MercuryMessaging.Task.MmTaskResponder&lt; T &gt; Pages: 1 -->
<svg width="1029pt" height="286pt"
 viewBox="0.00 0.00 1029.00 285.50" xmlns="http://www.w3.org/2000/svg" xmlns:xlink="http://www.w3.org/1999/xlink">
<g id="graph0" class="graph" transform="scale(1 1) rotate(0) translate(4 281.5)">
<title>MercuryMessaging.Task.MmTaskResponder&lt; T &gt;</title>
<!-- Node1 -->
<g id="Node000001" class="node">
<title>Node1</title>
<g id="a_Node000001"><a xlink:title="MmTaskResponder are MmBaseResponder that deal with IMmTaskInfos.">
<polygon fill="#999999" stroke="#666666" points="1021,-135 878,-135 878,-105 1021,-105 1021,-135"/>
<text text-anchor="start" x="886" y="-123" font-family="Helvetica,sans-Serif" font-size="10.00">MercuryMessaging.Task.Mm</text>
<text text-anchor="middle" x="949.5" y="-112" font-family="Helvetica,sans-Serif" font-size="10.00">TaskResponder&lt; T &gt;</text>
</a>
</g>
</g>
<!-- Node2 -->
<g id="Node000002" class="node">
<title>Node2</title>
<g id="a_Node000002"><a xlink:href="class_mercury_messaging_1_1_mm_base_responder.html" target="_top" xlink:title="MmResponder that implements a switch handling the framework&#45;provided MmMethods.">
<polygon fill="white" stroke="#666666" points="766,-129.5 578,-129.5 578,-110.5 766,-110.5 766,-129.5"/>
<text text-anchor="middle" x="672" y="-117.5" font-family="Helvetica,sans-Serif" font-size="10.00">MercuryMessaging.MmBaseResponder</text>
</a>
</g>
</g>
<!-- Node2&#45;&gt;Node1 -->
<g id="edge1_Node000001_Node000002" class="edge">
<title>Node2&#45;&gt;Node1</title>
<g id="a_edge1_Node000001_Node000002"><a xlink:title=" ">
<path fill="none" stroke="#63b8ff" d="M776.66,-120C810.46,-120 847.19,-120 877.98,-120"/>
<polygon fill="#63b8ff" stroke="#63b8ff" points="776.27,-116.5 766.27,-120 776.27,-123.5 776.27,-116.5"/>
</a>
</g>
</g>
<!-- Node3 -->
<g id="Node000003" class="node">
<title>Node3</title>
<g id="a_Node000003"><a xlink:href="class_mercury_messaging_1_1_mm_responder.html" target="_top" xlink:title="Base implmentation of IMmResponder.">
<polygon fill="white" stroke="#666666" points="464,-136.5 299,-136.5 299,-117.5 464,-117.5 464,-136.5"/>
<text text-anchor="middle" x="381.5" y="-124.5" font-family="Helvetica,sans-Serif" font-size="10.00">MercuryMessaging.MmResponder</text>
</a>
</g>
</g>
<!-- Node3&#45;&gt;Node2 -->
<g id="edge2_Node000002_Node000003" class="edge">
<title>Node3&#45;&gt;Node2</title>
<g id="a_edge2_Node000002_Node000003"><a xlink:title=" ">
<path fill="none" stroke="#63b8ff" d="M474.15,-124.78C507.3,-123.97 544.73,-123.06 577.99,-122.26"/>
<polygon fill="#63b8ff" stroke="#63b8ff" points="473.93,-121.28 464.02,-125.02 474.1,-128.28 473.93,-121.28"/>
</a>
</g>
</g>
<!-- Node11 -->
<g id="Node000011" class="node">
<title>Node11</title>
<g id="a_Node000011"><a xlink:href="class_mercury_messaging_1_1_mm_relay_node.html" target="_top" xlink:title="Base routing node of Mercury XM.">
<polygon fill="white" stroke="#666666" points="755,-187.5 589,-187.5 589,-168.5 755,-168.5 755,-187.5"/>
<text text-anchor="middle" x="672" y="-175.5" font-family="Helvetica,sans-Serif" font-size="10.00">MercuryMessaging.MmRelayNode</text>
</a>
</g>
</g>
<!-- Node3&#45;&gt;Node11 -->
<g id="edge11_Node000011_Node000003" class="edge">
<title>Node3&#45;&gt;Node11</title>
<g id="a_edge11_Node000011_Node000003"><a xlink:title=" ">
<path fill="none" stroke="#63b8ff" d="M446.38,-138.29C497.52,-147.33 568.46,-159.87 616.85,-168.43"/>
<polygon fill="#63b8ff" stroke="#63b8ff" points="446.88,-134.83 436.43,-136.53 445.66,-141.72 446.88,-134.83"/>
</a>
</g>
</g>
<!-- Node4 -->
<g id="Node000004" class="node">
<title>Node4</title>
<g id="a_Node000004"><a xlink:title=" ">
<polygon fill="white" stroke="#666666" points="220,-146.5 137,-146.5 137,-127.5 220,-127.5 220,-146.5"/>
<text text-anchor="middle" x="178.5" y="-134.5" font-family="Helvetica,sans-Serif" font-size="10.00">MonoBehaviour</text>
</a>
</g>
</g>
<!-- Node4&#45;&gt;Node3 -->
<g id="edge3_Node000003_Node000004" class="edge">
<title>Node4&#45;&gt;Node3</title>
<g id="a_edge3_Node000003_Node000004"><a xlink:title=" ">
<path fill="none" stroke="#63b8ff" d="M230.35,-134.47C251.1,-133.44 275.63,-132.22 298.78,-131.07"/>
<polygon fill="#63b8ff" stroke="#63b8ff" points="229.99,-130.98 220.18,-134.98 230.34,-137.98 229.99,-130.98"/>
</a>
</g>
</g>
<!-- Node5 -->
<g id="Node000005" class="node">
<title>Node5</title>
<g id="a_Node000005"><a xlink:href="interface_mercury_messaging_1_1_i_mm_responder.html" target="_top" xlink:title="The core of MercuryMessaging.">
<polygon fill="white" stroke="#666666" points="262,-109.5 95,-109.5 95,-90.5 262,-90.5 262,-109.5"/>
<text text-anchor="middle" x="178.5" y="-97.5" font-family="Helvetica,sans-Serif" font-size="10.00">MercuryMessaging.IMmResponder</text>
</a>
</g>
</g>
<!-- Node5&#45;&gt;Node3 -->
<g id="edge4_Node000003_Node000005" class="edge">
<title>Node5&#45;&gt;Node3</title>
<g id="a_edge4_Node000003_Node000005"><a xlink:title=" ">
<path fill="none" stroke="#63b8ff" d="M260.4,-110.87C276.68,-113.05 293.68,-115.34 309.6,-117.48"/>
<polygon fill="#63b8ff" stroke="#63b8ff" points="260.74,-107.38 250.37,-109.52 259.81,-114.32 260.74,-107.38"/>
</a>
</g>
</g>
<!-- Node6 -->
<g id="Node000006" class="node">
<title>Node6</title>
<g id="a_Node000006"><a xlink:href="class_mercury_messaging_1_1_finite_state_machine-1-g.html" target="_top" xlink:title="Finite State Machine, supporting generic types states.">
<polygon fill="white" stroke="#666666" points="746.5,-78 597.5,-78 597.5,-48 746.5,-48 746.5,-78"/>
<text text-anchor="start" x="605.5" y="-66" font-family="Helvetica,sans-Serif" font-size="10.00">MercuryMessaging.FiniteState</text>
<text text-anchor="middle" x="672" y="-55" font-family="Helvetica,sans-Serif" font-size="10.00">Machine&lt; T &gt;</text>
</a>
</g>
</g>
<!-- Node6&#45;&gt;Node1 -->
<g id="edge5_Node000001_Node000006" class="edge">
<title>Node6&#45;&gt;Node1</title>
<g id="a_edge5_Node000001_Node000006"><a xlink:title=" ">
<path fill="none" stroke="#9a32cd" stroke-dasharray="5,2" d="M756.73,-78.33C789.06,-84.45 826.31,-91.76 860,-99 868.65,-100.86 877.74,-102.91 886.68,-104.98"/>
<polygon fill="#9a32cd" stroke="#9a32cd" points="757.34,-74.88 746.86,-76.47 756.04,-81.76 757.34,-74.88"/>
</a>
</g>
<text text-anchor="start" x="789" y="-104.5" font-family="Helvetica,sans-Serif" font-size="10.00" fill="grey">TaskStateFSM</text>
</g>
<!-- Node7 -->
<g id="Node000007" class="node">
<title>Node7</title>
<g id="a_Node000007"><a xlink:href="class_mercury_messaging_1_1_keyed_list-2-g.html" target="_top" xlink:title=" ">
<polygon fill="white" stroke="#666666" points="454.5,-78 308.5,-78 308.5,-48 454.5,-48 454.5,-78"/>
<text text-anchor="start" x="316.5" y="-66" font-family="Helvetica,sans-Serif" font-size="10.00">MercuryMessaging.KeyedList</text>
<text text-anchor="middle" x="381.5" y="-55" font-family="Helvetica,sans-Serif" font-size="10.00">&lt; K, V &gt;</text>
</a>
</g>
</g>
<!-- Node7&#45;&gt;Node6 -->
<g id="edge6_Node000006_Node000007" class="edge">
<title>Node7&#45;&gt;Node6</title>
<g id="a_edge6_Node000006_Node000007"><a xlink:title=" ">
<path fill="none" stroke="#63b8ff" d="M464.71,-63C506.49,-63 556.85,-63 597.35,-63"/>
<polygon fill="#63b8ff" stroke="#63b8ff" points="464.56,-59.5 454.56,-63 464.56,-66.5 464.56,-59.5"/>
</a>
</g>
</g>
<!-- Node8 -->
<g id="Node000008" class="node">
<title>Node8</title>
<g id="a_Node000008"><a xlink:title=" ">
<polygon fill="white" stroke="#666666" points="228.5,-72.5 128.5,-72.5 128.5,-53.5 228.5,-53.5 228.5,-72.5"/>
<text text-anchor="middle" x="178.5" y="-60.5" font-family="Helvetica,sans-Serif" font-size="10.00">IDictionary&lt; K, V &gt;</text>
</a>
</g>
</g>
<!-- Node8&#45;&gt;Node7 -->
<g id="edge7_Node000007_Node000008" class="edge">
<title>Node8&#45;&gt;Node7</title>
<g id="a_edge7_Node000007_Node000008"><a xlink:title=" ">
<path fill="none" stroke="#63b8ff" d="M238.77,-63C260.56,-63 285.48,-63 308.28,-63"/>
<polygon fill="#63b8ff" stroke="#63b8ff" points="238.67,-59.5 228.67,-63 238.67,-66.5 238.67,-59.5"/>
</a>
</g>
</g>
<!-- Node9 -->
<g id="Node000009" class="node">
<title>Node9</title>
<g id="a_Node000009"><a xlink:title=" ">
<polygon fill="white" stroke="#666666" points="230,-35 127,-35 127,-5 230,-5 230,-35"/>
<text text-anchor="start" x="135" y="-23" font-family="Helvetica,sans-Serif" font-size="10.00">IList&lt; KeyValuePair</text>
<text text-anchor="middle" x="178.5" y="-12" font-family="Helvetica,sans-Serif" font-size="10.00">&lt; K, V &gt; &gt;</text>
</a>
</g>
</g>
<!-- Node9&#45;&gt;Node7 -->
<g id="edge8_Node000007_Node000009" class="edge">
<title>Node9&#45;&gt;Node7</title>
<g id="a_edge8_Node000007_Node000009"><a xlink:title=" ">
<path fill="none" stroke="#63b8ff" d="M240.11,-32.97C262.15,-37.68 287.24,-43.05 310.06,-47.93"/>
<polygon fill="#63b8ff" stroke="#63b8ff" points="240.73,-29.52 230.22,-30.85 239.27,-36.37 240.73,-29.52"/>
</a>
</g>
</g>
<!-- Node10 -->
<g id="Node000010" class="node">
<title>Node10</title>
<g id="a_Node000010"><a xlink:href="interface_mercury_messaging_1_1_i_finite_state_machine-1-g.html" target="_top" xlink:title="Defines required methods for a Finite State Machine.">
<polygon fill="white" stroke="#666666" points="445.5,-30 317.5,-30 317.5,0 445.5,0 445.5,-30"/>
<text text-anchor="start" x="325.5" y="-18" font-family="Helvetica,sans-Serif" font-size="10.00">MercuryMessaging.IFinite</text>
<text text-anchor="middle" x="381.5" y="-7" font-family="Helvetica,sans-Serif" font-size="10.00">StateMachine&lt; T &gt;</text>
</a>
</g>
</g>
<!-- Node10&#45;&gt;Node6 -->
<g id="edge9_Node000006_Node000010" class="edge">
<title>Node10&#45;&gt;Node6</title>
<g id="a_edge9_Node000006_Node000010"><a xlink:title=" ">
<path fill="none" stroke="#63b8ff" d="M455.73,-27.18C499.12,-34.4 553.93,-43.52 597.39,-50.75"/>
<polygon fill="#63b8ff" stroke="#63b8ff" points="456.25,-23.72 445.81,-25.53 455.1,-30.63 456.25,-23.72"/>
</a>
</g>
</g>
<!-- Node11&#45;&gt;Node1 -->
<g id="edge10_Node000001_Node000011" class="edge">
<title>Node11&#45;&gt;Node1</title>
<g id="a_edge10_Node000001_Node000011"><a xlink:title=" ">
<path fill="none" stroke="#9a32cd" stroke-dasharray="5,2" d="M728.2,-166.38C771.27,-157.31 831.39,-144.65 877.95,-134.85"/>
<polygon fill="#9a32cd" stroke="#9a32cd" points="727.25,-163 718.18,-168.49 728.69,-169.85 727.25,-163"/>
</a>
</g>
<text text-anchor="start" x="787" y="-159.5" font-family="Helvetica,sans-Serif" font-size="10.00" fill="grey">_mmRelayNode</text>
</g>
<!-- Node12 -->
<g id="Node000012" class="node">
<title>Node12</title>
<g id="a_Node000012"><a xlink:href="interface_mercury_messaging_1_1_i_mm_node.html" target="_top" xlink:title="Defines methods required by an MmResponder &amp; utility methods making invocation MmMethods with built&#45;i...">
<polygon fill="white" stroke="#666666" points="453,-277.5 310,-277.5 310,-258.5 453,-258.5 453,-277.5"/>
<text text-anchor="middle" x="381.5" y="-265.5" font-family="Helvetica,sans-Serif" font-size="10.00">MercuryMessaging.IMmNode</text>
</a>
</g>
</g>
<!-- Node12&#45;&gt;Node11 -->
<g id="edge12_Node000011_Node000012" class="edge">
<title>Node12&#45;&gt;Node11</title>
<g id="a_edge12_Node000011_Node000012"><a xlink:title=" ">
<path fill="none" stroke="#63b8ff" d="M463.46,-264.59C494.33,-261.47 529.43,-255.68 560,-245 599.1,-231.35 639.34,-202.71 658.88,-187.68"/>
<polygon fill="#63b8ff" stroke="#63b8ff" points="462.79,-261.14 453.16,-265.55 463.44,-268.11 462.79,-261.14"/>
</a>
</g>
</g>
<!-- Node13 -->
<g id="Node000013" class="node">
<title>Node13</title>
<g id="a_Node000013"><a xlink:href="class_mercury_messaging_1_1_mm_circular_buffer-1-g.html" target="_top" xlink:title="Fixed&#45;size circular buffer that automatically overwrites oldest entries Used for message history trac...">
<polygon fill="white" stroke="#666666" points="457.5,-240 305.5,-240 305.5,-210 457.5,-210 457.5,-240"/>
<text text-anchor="start" x="313.5" y="-228" font-family="Helvetica,sans-Serif" font-size="10.00">MercuryMessaging.MmCircular</text>
<text text-anchor="middle" x="381.5" y="-217" font-family="Helvetica,sans-Serif" font-size="10.00">Buffer&lt; T &gt;</text>
</a>
</g>
</g>
<!-- Node13&#45;&gt;Node11 -->
<g id="edge13_Node000011_Node000013" class="edge">
<title>Node13&#45;&gt;Node11</title>
<g id="a_edge13_Node000011_Node000013"><a xlink:title=" ">
<path fill="none" stroke="#9a32cd" stroke-dasharray="5,2" d="M467.85,-211.77C497.08,-207.17 529.98,-201.94 560,-197 578.33,-193.99 598.34,-190.59 616.26,-187.52"/>
<polygon fill="#9a32cd" stroke="#9a32cd" points="467.01,-208.36 457.67,-213.36 468.1,-215.27 467.01,-208.36"/>
</a>
</g>
<text text-anchor="start" x="485" y="-230" font-family="Helvetica,sans-Serif" font-size="10.00" fill="grey">messageInList</text>
<text text-anchor="start" x="485" y="-215" font-family="Helvetica,sans-Serif" font-size="10.00" fill="grey">messageOutList</text>
</g>
<!-- Node14 -->
<g id="Node000014" class="node">
<title>Node14</title>
<g id="a_Node000014"><a xlink:title=" ">
<polygon fill="white" stroke="#666666" points="225.5,-234.5 131.5,-234.5 131.5,-215.5 225.5,-215.5 225.5,-234.5"/>
<text text-anchor="middle" x="178.5" y="-222.5" font-family="Helvetica,sans-Serif" font-size="10.00">IEnumerable&lt; T &gt;</text>
</a>
</g>
</g>
<!-- Node14&#45;&gt;Node13 -->
<g id="edge14_Node000013_Node000014" class="edge">
<title>Node14&#45;&gt;Node13</title>
<g id="a_edge14_Node000013_Node000014"><a xlink:title=" ">
<path fill="none" stroke="#63b8ff" d="M235.91,-225C257.47,-225 282.42,-225 305.45,-225"/>
<polygon fill="#63b8ff" stroke="#63b8ff" points="235.61,-221.5 225.61,-225 235.61,-228.5 235.61,-221.5"/>
</a>
</g>
</g>
<!-- Node15 -->
<g id="Node000015" class="node">
<title>Node15</title>
<g id="a_Node000015"><a xlink:href="class_mercury_messaging_1_1_mm_routing_table.html" target="_top" xlink:title="A form of Reorderable List ReorderableList&lt;T&gt; specifically for all derivations of MmResponder.">
<polygon fill="white" stroke="#666666" points="457.5,-192 305.5,-192 305.5,-162 457.5,-162 457.5,-192"/>
<text text-anchor="start" x="313.5" y="-180" font-family="Helvetica,sans-Serif" font-size="10.00">MercuryMessaging.MmRouting</text>
<text text-anchor="middle" x="381.5" y="-169" font-family="Helvetica,sans-Serif" font-size="10.00">Table</text>
</a>
</g>
</g>
<!-- Node15&#45;&gt;Node11 -->
<g id="edge15_Node000011_Node000015" class="edge">
<title>Node15&#45;&gt;Node11</title>
<g id="a_edge15_Node000011_Node000015"><a xlink:title=" ">
<path fill="none" stroke="#9a32cd" stroke-dasharray="5,2" d="M467.65,-177.3C505.98,-177.43 551.03,-177.58 588.98,-177.72"/>
<polygon fill="#9a32cd" stroke="#9a32cd" points="467.56,-173.79 457.55,-177.26 467.53,-180.79 467.56,-173.79"/>
</a>
</g>
<text text-anchor="start" x="493" y="-182.5" font-family="Helvetica,sans-Serif" font-size="10.00" fill="grey">RoutingTable</text>
</g>
<!-- Node16 -->
<g id="Node000016" class="node">
<title>Node16</title>
<g id="a_Node000016"><a xlink:href="class_mercury_messaging_1_1_reorderable_list-1-g.html" target="_top" xlink:title=" ">
<polygon fill="white" stroke="#666666" points="255.5,-195 101.5,-195 101.5,-165 255.5,-165 255.5,-195"/>
<text text-anchor="start" x="109.5" y="-183" font-family="Helvetica,sans-Serif" font-size="10.00">MercuryMessaging.Reorderable</text>
<text text-anchor="middle" x="178.5" y="-172" font-family="Helvetica,sans-Serif" font-size="10.00">List&lt; T &gt;</text>
</a>
</g>
</g>
<!-- Node16&#45;&gt;Node15 -->
<g id="edge16_Node000015_Node000016" class="edge">
<title>Node16&#45;&gt;Node15</title>
<g id="a_edge16_Node000015_Node000016"><a xlink:title=" ">
<path fill="none" stroke="#63b8ff" d="M266.14,-178.71C279.17,-178.51 292.51,-178.31 305.27,-178.12"/>
<polygon fill="#63b8ff" stroke="#63b8ff" points="265.72,-175.21 255.78,-178.86 265.83,-182.21 265.72,-175.21"/>
</a>
</g>
</g>
<!-- Node17 -->
<g id="Node000017" class="node">
<title>Node17</title>
<g id="a_Node000017"><a xlink:title=" ">
<polygon fill="white" stroke="#666666" points="58,-189.5 0,-189.5 0,-170.5 58,-170.5 58,-189.5"/>
<text text-anchor="middle" x="29" y="-177.5" font-family="Helvetica,sans-Serif" font-size="10.00">IList&lt; T &gt;</text>
</a>
</g>
</g>
<!-- Node17&#45;&gt;Node16 -->
<g id="edge17_Node000016_Node000017" class="edge">
<title>Node17&#45;&gt;Node16</title>
<g id="a_edge17_Node000016_Node000017"><a xlink:title=" ">
<path fill="none" stroke="#63b8ff" d="M68.25,-180C78.45,-180 89.85,-180 101.32,-180"/>
<polygon fill="#63b8ff" stroke="#63b8ff" points="68.09,-176.5 58.09,-180 68.09,-183.5 68.09,-176.5"/>
</a>
</g>
</g>
</g>
</svg>
