<?xml version="1.0" encoding="UTF-8" standalone="no"?>
<!DOCTYPE svg PUBLIC "-//W3C//DTD SVG 1.1//EN"
 "http://www.w3.org/Graphics/SVG/1.1/DTD/svg11.dtd">
<!-- Generated by graphviz version 2.44.1 (20200629.0800)
 -->
<!-- Title: MercuryMessaging.MmGuiResponder Pages: 1 -->
<svg width="370pt" height="211pt"
 viewBox="0.00 0.00 370.00 211.00" xmlns="http://www.w3.org/2000/svg" xmlns:xlink="http://www.w3.org/1999/xlink">
<g id="graph0" class="graph" transform="scale(1 1) rotate(0) translate(4 207)">
<title>MercuryMessaging.MmGuiResponder</title>
<!-- Node1 -->
<g id="Node000001" class="node">
<title>Node1</title>
<g id="a_Node000001"><a xlink:title="GUI Interaction Component &#45; Adapter for IMmGUI objects.">
<polygon fill="#999999" stroke="#666666" points="292.5,-19 112.5,-19 112.5,0 292.5,0 292.5,-19"/>
<text text-anchor="middle" x="202.5" y="-7" font-family="Helvetica,sans-Serif" font-size="10.00">MercuryMessaging.MmGuiResponder</text>
</a>
</g>
</g>
<!-- Node2 -->
<g id="Node000002" class="node">
<title>Node2</title>
<g id="a_Node000002"><a xlink:href="class_mercury_messaging_1_1_mm_base_responder.html" target="_top" xlink:title="MmResponder that implements a switch handling the framework&#45;provided MmMethods.">
<polygon fill="white" stroke="#666666" points="206.5,-91 18.5,-91 18.5,-72 206.5,-72 206.5,-91"/>
<text text-anchor="middle" x="112.5" y="-79" font-family="Helvetica,sans-Serif" font-size="10.00">MercuryMessaging.MmBaseResponder</text>
</a>
</g>
</g>
<!-- Node2&#45;&gt;Node1 -->
<g id="edge1_Node000001_Node000002" class="edge">
<title>Node2&#45;&gt;Node1</title>
<g id="a_edge1_Node000001_Node000002"><a xlink:title=" ">
<path fill="none" stroke="#63b8ff" d="M131.68,-65.58C149.84,-51.46 176.48,-30.74 191.37,-19.15"/>
<polygon fill="#63b8ff" stroke="#63b8ff" points="129.28,-63.01 123.54,-71.92 133.58,-68.54 129.28,-63.01"/>
</a>
</g>
</g>
<!-- Node3 -->
<g id="Node000003" class="node">
<title>Node3</title>
<g id="a_Node000003"><a xlink:href="class_mercury_messaging_1_1_mm_responder.html" target="_top" xlink:title="Base implmentation of IMmResponder.">
<polygon fill="white" stroke="#666666" points="195,-147 30,-147 30,-128 195,-128 195,-147"/>
<text text-anchor="middle" x="112.5" y="-135" font-family="Helvetica,sans-Serif" font-size="10.00">MercuryMessaging.MmResponder</text>
</a>
</g>
</g>
<!-- Node3&#45;&gt;Node2 -->
<g id="edge2_Node000002_Node000003" class="edge">
<title>Node3&#45;&gt;Node2</title>
<g id="a_edge2_Node000002_Node000003"><a xlink:title=" ">
<path fill="none" stroke="#63b8ff" d="M112.5,-117.3C112.5,-108.41 112.5,-98.28 112.5,-91.25"/>
<polygon fill="#63b8ff" stroke="#63b8ff" points="109,-117.58 112.5,-127.58 116,-117.58 109,-117.58"/>
</a>
</g>
</g>
<!-- Node4 -->
<g id="Node000004" class="node">
<title>Node4</title>
<g id="a_Node000004"><a xlink:title=" ">
<polygon fill="white" stroke="#666666" points="83,-203 0,-203 0,-184 83,-184 83,-203"/>
<text text-anchor="middle" x="41.5" y="-191" font-family="Helvetica,sans-Serif" font-size="10.00">MonoBehaviour</text>
</a>
</g>
</g>
<!-- Node4&#45;&gt;Node3 -->
<g id="edge3_Node000003_Node000004" class="edge">
<title>Node4&#45;&gt;Node3</title>
<g id="a_edge3_Node000003_Node000004"><a xlink:title=" ">
<path fill="none" stroke="#63b8ff" d="M61.09,-177.6C73.87,-167.88 90.11,-155.53 100.89,-147.33"/>
<polygon fill="#63b8ff" stroke="#63b8ff" points="58.75,-174.98 52.91,-183.82 62.99,-180.56 58.75,-174.98"/>
</a>
</g>
</g>
<!-- Node5 -->
<g id="Node000005" class="node">
<title>Node5</title>
<g id="a_Node000005"><a xlink:href="interface_mercury_messaging_1_1_i_mm_responder.html" target="_top" xlink:title="The core of MercuryMessaging.">
<polygon fill="white" stroke="#666666" points="268,-203 101,-203 101,-184 268,-184 268,-203"/>
<text text-anchor="middle" x="184.5" y="-191" font-family="Helvetica,sans-Serif" font-size="10.00">MercuryMessaging.IMmResponder</text>
</a>
</g>
</g>
<!-- Node5&#45;&gt;Node3 -->
<g id="edge4_Node000003_Node000005" class="edge">
<title>Node5&#45;&gt;Node3</title>
<g id="a_edge4_Node000003_Node000005"><a xlink:title=" ">
<path fill="none" stroke="#63b8ff" d="M164.63,-177.6C151.68,-167.88 135.2,-155.53 124.28,-147.33"/>
<polygon fill="#63b8ff" stroke="#63b8ff" points="162.83,-180.62 172.93,-183.82 167.03,-175.02 162.83,-180.62"/>
</a>
</g>
</g>
<!-- Node6 -->
<g id="Node000006" class="node">
<title>Node6</title>
<g id="a_Node000006"><a xlink:href="interface_mercury_messaging_1_1_i_mm_g_u_i.html" target="_top" xlink:title="Defines interface for basic GUI requirements in Mercury.">
<polygon fill="white" stroke="#666666" points="362,-91 225,-91 225,-72 362,-72 362,-91"/>
<text text-anchor="middle" x="293.5" y="-79" font-family="Helvetica,sans-Serif" font-size="10.00">MercuryMessaging.IMmGUI</text>
</a>
</g>
</g>
<!-- Node6&#45;&gt;Node1 -->
<g id="edge5_Node000001_Node000006" class="edge">
<title>Node6&#45;&gt;Node1</title>
<g id="a_edge5_Node000001_Node000006"><a xlink:title=" ">
<path fill="none" stroke="#9a32cd" stroke-dasharray="5,2" d="M274.11,-65.58C255.74,-51.46 228.81,-30.74 213.75,-19.15"/>
<polygon fill="#9a32cd" stroke="#9a32cd" points="272.28,-68.59 282.34,-71.92 276.55,-63.05 272.28,-68.59"/>
</a>
</g>
<text text-anchor="start" x="262.5" y="-42.5" font-family="Helvetica,sans-Serif" font-size="10.00" fill="grey">GUIHandler</text>
</g>
</g>
</svg>
