<?xml version="1.0" encoding="UTF-8" standalone="no"?>
<!DOCTYPE svg PUBLIC "-//W3C//DTD SVG 1.1//EN"
 "http://www.w3.org/Graphics/SVG/1.1/DTD/svg11.dtd">
<!-- Generated by graphviz version 2.44.1 (20200629.0800)
 -->
<!-- Title: MercuryMessaging.MmMessage Pages: 1 -->
<svg width="387pt" height="1326pt"
 viewBox="0.00 0.00 387.00 1325.50" xmlns="http://www.w3.org/2000/svg" xmlns:xlink="http://www.w3.org/1999/xlink">
<g id="graph0" class="graph" transform="scale(1 1) rotate(0) translate(4 1321.5)">
<title>MercuryMessaging.MmMessage</title>
<!-- Node1 -->
<g id="Node000001" class="node">
<title>Node1</title>
<g id="a_Node000001"><a xlink:title="Base class for messages passed through MmInvoke.">
<polygon fill="#999999" stroke="#666666" points="158,-684.5 0,-684.5 0,-665.5 158,-665.5 158,-684.5"/>
<text text-anchor="middle" x="79" y="-672.5" font-family="Helvetica,sans-Serif" font-size="10.00">MercuryMessaging.MmMessage</text>
</a>
</g>
</g>
<!-- Node2 -->
<g id="Node000002" class="node">
<title>Node2</title>
<g id="a_Node000002"><a xlink:href="class_mercury_messaging_1_1_mm_message_bool.html" target="_top" xlink:title="MmMessage with bool payload.">
<polygon fill="white" stroke="#666666" points="375.5,-1317.5 197.5,-1317.5 197.5,-1298.5 375.5,-1298.5 375.5,-1317.5"/>
<text text-anchor="middle" x="286.5" y="-1305.5" font-family="Helvetica,sans-Serif" font-size="10.00">MercuryMessaging.MmMessageBool</text>
</a>
</g>
</g>
<!-- Node1&#45;&gt;Node2 -->
<g id="edge1_Node000001_Node000002" class="edge">
<title>Node1&#45;&gt;Node2</title>
<g id="a_edge1_Node000001_Node000002"><a xlink:title=" ">
<path fill="none" stroke="#63b8ff" d="M80.81,-694.94C85.1,-790.61 108.36,-1201.53 194,-1289 197.63,-1292.71 201.79,-1295.79 206.27,-1298.34"/>
<polygon fill="#63b8ff" stroke="#63b8ff" points="84.3,-694.72 80.38,-684.88 77.31,-695.02 84.3,-694.72"/>
</a>
</g>
</g>
<!-- Node3 -->
<g id="Node000003" class="node">
<title>Node3</title>
<g id="a_Node000003"><a xlink:href="class_mercury_messaging_1_1_mm_message_byte_array.html" target="_top" xlink:title="MmMessage with byte array payload.">
<polygon fill="white" stroke="#666666" points="365.5,-1280 207.5,-1280 207.5,-1250 365.5,-1250 365.5,-1280"/>
<text text-anchor="start" x="215.5" y="-1268" font-family="Helvetica,sans-Serif" font-size="10.00">MercuryMessaging.MmMessage</text>
<text text-anchor="middle" x="286.5" y="-1257" font-family="Helvetica,sans-Serif" font-size="10.00">ByteArray</text>
</a>
</g>
</g>
<!-- Node1&#45;&gt;Node3 -->
<g id="edge2_Node000001_Node000003" class="edge">
<title>Node1&#45;&gt;Node3</title>
<g id="a_edge2_Node000001_Node000003"><a xlink:title=" ">
<path fill="none" stroke="#63b8ff" d="M81.25,-695C87.35,-785.91 116.8,-1159.21 194,-1241 197.95,-1245.18 202.52,-1248.67 207.48,-1251.57"/>
<polygon fill="#63b8ff" stroke="#63b8ff" points="84.74,-694.68 80.6,-684.93 77.75,-695.14 84.74,-694.68"/>
</a>
</g>
</g>
<!-- Node4 -->
<g id="Node000004" class="node">
<title>Node4</title>
<g id="a_Node000004"><a xlink:href="class_mercury_messaging_1_1_mm_message_float.html" target="_top" xlink:title="MmMessage with float payload.">
<polygon fill="white" stroke="#666666" points="365.5,-1232 207.5,-1232 207.5,-1202 365.5,-1202 365.5,-1232"/>
<text text-anchor="start" x="215.5" y="-1220" font-family="Helvetica,sans-Serif" font-size="10.00">MercuryMessaging.MmMessage</text>
<text text-anchor="middle" x="286.5" y="-1209" font-family="Helvetica,sans-Serif" font-size="10.00">Float</text>
</a>
</g>
</g>
<!-- Node1&#45;&gt;Node4 -->
<g id="edge3_Node000001_Node000004" class="edge">
<title>Node1&#45;&gt;Node4</title>
<g id="a_edge3_Node000001_Node000004"><a xlink:title=" ">
<path fill="none" stroke="#63b8ff" d="M81.62,-694.64C89.08,-780.13 122.79,-1118.89 194,-1193 197.87,-1197.03 202.32,-1200.41 207.14,-1203.24"/>
<polygon fill="#63b8ff" stroke="#63b8ff" points="85.1,-694.17 80.76,-684.5 78.12,-694.77 85.1,-694.17"/>
</a>
</g>
</g>
<!-- Node5 -->
<g id="Node000005" class="node">
<title>Node5</title>
<g id="a_Node000005"><a xlink:href="class_mercury_messaging_1_1_mm_message_game_object.html" target="_top" xlink:title="MmMessage with MmMessageGameObject payload.">
<polygon fill="white" stroke="#666666" points="365.5,-1184 207.5,-1184 207.5,-1154 365.5,-1154 365.5,-1184"/>
<text text-anchor="start" x="215.5" y="-1172" font-family="Helvetica,sans-Serif" font-size="10.00">MercuryMessaging.MmMessage</text>
<text text-anchor="middle" x="286.5" y="-1161" font-family="Helvetica,sans-Serif" font-size="10.00">GameObject</text>
</a>
</g>
</g>
<!-- Node1&#45;&gt;Node5 -->
<g id="edge4_Node000001_Node000005" class="edge">
<title>Node1&#45;&gt;Node5</title>
<g id="a_edge4_Node000001_Node000005"><a xlink:title=" ">
<path fill="none" stroke="#63b8ff" d="M82.15,-695.1C91.23,-776.28 128.97,-1078.75 194,-1145 197.91,-1148.98 202.4,-1152.33 207.24,-1155.15"/>
<polygon fill="#63b8ff" stroke="#63b8ff" points="85.59,-694.34 81.02,-684.79 78.63,-695.11 85.59,-694.34"/>
</a>
</g>
</g>
<!-- Node6 -->
<g id="Node000006" class="node">
<title>Node6</title>
<g id="a_Node000006"><a xlink:href="class_mercury_messaging_1_1_mm_message_int.html" target="_top" xlink:title="MmMessage with int payload.">
<polygon fill="white" stroke="#666666" points="371,-1135.5 202,-1135.5 202,-1116.5 371,-1116.5 371,-1135.5"/>
<text text-anchor="middle" x="286.5" y="-1123.5" font-family="Helvetica,sans-Serif" font-size="10.00">MercuryMessaging.MmMessageInt</text>
</a>
</g>
</g>
<!-- Node1&#45;&gt;Node6 -->
<g id="edge5_Node000001_Node000006" class="edge">
<title>Node1&#45;&gt;Node6</title>
<g id="a_edge5_Node000001_Node000006"><a xlink:title=" ">
<path fill="none" stroke="#63b8ff" d="M82.49,-695.04C92.49,-772.15 132.16,-1048.37 194,-1107 198,-1110.8 202.56,-1113.92 207.44,-1116.48"/>
<polygon fill="#63b8ff" stroke="#63b8ff" points="85.92,-694.27 81.19,-684.79 78.98,-695.15 85.92,-694.27"/>
</a>
</g>
</g>
<!-- Node7 -->
<g id="Node000007" class="node">
<title>Node7</title>
<g id="a_Node000007"><a xlink:href="class_mercury_messaging_1_1_mm_message_quaternion.html" target="_top" xlink:title="MmMessage with Quaternion payload.">
<polygon fill="white" stroke="#666666" points="365.5,-1098 207.5,-1098 207.5,-1068 365.5,-1068 365.5,-1098"/>
<text text-anchor="start" x="215.5" y="-1086" font-family="Helvetica,sans-Serif" font-size="10.00">MercuryMessaging.MmMessage</text>
<text text-anchor="middle" x="286.5" y="-1075" font-family="Helvetica,sans-Serif" font-size="10.00">Quaternion</text>
</a>
</g>
</g>
<!-- Node1&#45;&gt;Node7 -->
<g id="edge6_Node000001_Node000007" class="edge">
<title>Node1&#45;&gt;Node7</title>
<g id="a_edge6_Node000001_Node000007"><a xlink:title=" ">
<path fill="none" stroke="#63b8ff" d="M79.56,-694.94C79.32,-758.12 87.48,-955.84 194,-1059 198.01,-1062.88 202.57,-1066.16 207.46,-1068.92"/>
<polygon fill="#63b8ff" stroke="#63b8ff" points="83.06,-694.8 79.68,-684.76 76.07,-694.71 83.06,-694.8"/>
</a>
</g>
</g>
<!-- Node8 -->
<g id="Node000008" class="node">
<title>Node8</title>
<g id="a_Node000008"><a xlink:href="class_mercury_messaging_1_1_mm_message_serializable.html" target="_top" xlink:title="MmMessage that sends a serialized object as payload You need to assign your implementation of the IMS...">
<polygon fill="white" stroke="#666666" points="365.5,-1050 207.5,-1050 207.5,-1020 365.5,-1020 365.5,-1050"/>
<text text-anchor="start" x="215.5" y="-1038" font-family="Helvetica,sans-Serif" font-size="10.00">MercuryMessaging.MmMessage</text>
<text text-anchor="middle" x="286.5" y="-1027" font-family="Helvetica,sans-Serif" font-size="10.00">Serializable</text>
</a>
</g>
</g>
<!-- Node1&#45;&gt;Node8 -->
<g id="edge7_Node000001_Node000008" class="edge">
<title>Node1&#45;&gt;Node8</title>
<g id="a_edge7_Node000001_Node000008"><a xlink:title=" ">
<path fill="none" stroke="#63b8ff" d="M80.55,-695.08C83.27,-753.16 99.35,-922.8 194,-1011 197.97,-1014.69 202.43,-1017.84 207.2,-1020.5"/>
<polygon fill="#63b8ff" stroke="#63b8ff" points="84.04,-694.59 80.16,-684.73 77.04,-694.85 84.04,-694.59"/>
</a>
</g>
</g>
<!-- Node9 -->
<g id="Node000009" class="node">
<title>Node9</title>
<g id="a_Node000009"><a xlink:href="class_mercury_messaging_1_1_mm_message_string.html" target="_top" xlink:title="MmMessage with string payload.">
<polygon fill="white" stroke="#666666" points="365.5,-1002 207.5,-1002 207.5,-972 365.5,-972 365.5,-1002"/>
<text text-anchor="start" x="215.5" y="-990" font-family="Helvetica,sans-Serif" font-size="10.00">MercuryMessaging.MmMessage</text>
<text text-anchor="middle" x="286.5" y="-979" font-family="Helvetica,sans-Serif" font-size="10.00">String</text>
</a>
</g>
</g>
<!-- Node1&#45;&gt;Node9 -->
<g id="edge8_Node000001_Node000009" class="edge">
<title>Node1&#45;&gt;Node9</title>
<g id="a_edge8_Node000001_Node000009"><a xlink:title=" ">
<path fill="none" stroke="#63b8ff" d="M81.83,-694.96C87.71,-747.27 110.94,-889.38 194,-963 198.06,-966.59 202.59,-969.66 207.4,-972.28"/>
<polygon fill="#63b8ff" stroke="#63b8ff" points="85.28,-694.29 80.77,-684.7 78.31,-695.01 85.28,-694.29"/>
</a>
</g>
</g>
<!-- Node10 -->
<g id="Node000010" class="node">
<title>Node10</title>
<g id="a_Node000010"><a xlink:href="class_mercury_messaging_1_1_mm_message_transform.html" target="_top" xlink:title="MmMessage with MmTransform payload.">
<polygon fill="white" stroke="#666666" points="365.5,-954 207.5,-954 207.5,-924 365.5,-924 365.5,-954"/>
<text text-anchor="start" x="215.5" y="-942" font-family="Helvetica,sans-Serif" font-size="10.00">MercuryMessaging.MmMessage</text>
<text text-anchor="middle" x="286.5" y="-931" font-family="Helvetica,sans-Serif" font-size="10.00">Transform</text>
</a>
</g>
</g>
<!-- Node1&#45;&gt;Node10 -->
<g id="edge9_Node000001_Node000010" class="edge">
<title>Node1&#45;&gt;Node10</title>
<g id="a_edge9_Node000001_Node000010"><a xlink:title=" ">
<path fill="none" stroke="#63b8ff" d="M83.46,-694.38C92.66,-740.13 122.14,-855.46 194,-915 198.17,-918.46 202.79,-921.42 207.67,-923.96"/>
<polygon fill="#63b8ff" stroke="#63b8ff" points="86.89,-693.72 81.58,-684.55 80.02,-695.03 86.89,-693.72"/>
</a>
</g>
</g>
<!-- Node11 -->
<g id="Node000011" class="node">
<title>Node11</title>
<g id="a_Node000011"><a xlink:href="class_mercury_messaging_1_1_mm_message_transform_list.html" target="_top" xlink:title="MmMessage with Transform List payload.">
<polygon fill="white" stroke="#666666" points="365.5,-906 207.5,-906 207.5,-876 365.5,-876 365.5,-906"/>
<text text-anchor="start" x="215.5" y="-894" font-family="Helvetica,sans-Serif" font-size="10.00">MercuryMessaging.MmMessage</text>
<text text-anchor="middle" x="286.5" y="-883" font-family="Helvetica,sans-Serif" font-size="10.00">TransformList</text>
</a>
</g>
</g>
<!-- Node1&#45;&gt;Node11 -->
<g id="edge10_Node000001_Node000011" class="edge">
<title>Node1&#45;&gt;Node11</title>
<g id="a_edge10_Node000001_Node000011"><a xlink:title=" ">
<path fill="none" stroke="#63b8ff" d="M85.93,-694.39C98.87,-733.37 133.44,-821.37 194,-867 198.59,-870.46 203.64,-873.42 208.93,-875.96"/>
<polygon fill="#63b8ff" stroke="#63b8ff" points="89.23,-693.23 82.85,-684.78 82.56,-695.37 89.23,-693.23"/>
</a>
</g>
</g>
<!-- Node12 -->
<g id="Node000012" class="node">
<title>Node12</title>
<g id="a_Node000012"><a xlink:href="class_mercury_messaging_1_1_mm_message_vector3.html" target="_top" xlink:title="MmMessage with Vector3 payload.">
<polygon fill="white" stroke="#666666" points="365.5,-858 207.5,-858 207.5,-828 365.5,-828 365.5,-858"/>
<text text-anchor="start" x="215.5" y="-846" font-family="Helvetica,sans-Serif" font-size="10.00">MercuryMessaging.MmMessage</text>
<text text-anchor="middle" x="286.5" y="-835" font-family="Helvetica,sans-Serif" font-size="10.00">Vector3</text>
</a>
</g>
</g>
<!-- Node1&#45;&gt;Node12 -->
<g id="edge11_Node000001_Node000012" class="edge">
<title>Node1&#45;&gt;Node12</title>
<g id="a_edge11_Node000001_Node000012"><a xlink:title=" ">
<path fill="none" stroke="#63b8ff" d="M89.56,-693.74C106.35,-724.72 144.14,-786.42 194,-819 199.22,-822.41 204.91,-825.34 210.81,-827.86"/>
<polygon fill="#63b8ff" stroke="#63b8ff" points="92.62,-692.05 84.86,-684.84 86.43,-695.32 92.62,-692.05"/>
</a>
</g>
</g>
<!-- Node13 -->
<g id="Node000013" class="node">
<title>Node13</title>
<g id="a_Node000013"><a xlink:href="class_mercury_messaging_1_1_mm_message_vector4.html" target="_top" xlink:title="MmMessage with Vector4 payload.">
<polygon fill="white" stroke="#666666" points="365.5,-810 207.5,-810 207.5,-780 365.5,-780 365.5,-810"/>
<text text-anchor="start" x="215.5" y="-798" font-family="Helvetica,sans-Serif" font-size="10.00">MercuryMessaging.MmMessage</text>
<text text-anchor="middle" x="286.5" y="-787" font-family="Helvetica,sans-Serif" font-size="10.00">Vector4</text>
</a>
</g>
</g>
<!-- Node1&#45;&gt;Node13 -->
<g id="edge12_Node000001_Node000013" class="edge">
<title>Node1&#45;&gt;Node13</title>
<g id="a_edge12_Node000001_Node000013"><a xlink:title=" ">
<path fill="none" stroke="#63b8ff" d="M95.36,-691.94C115.82,-713.46 154.08,-750.31 194,-771 200.56,-774.4 207.64,-777.35 214.86,-779.9"/>
<polygon fill="#63b8ff" stroke="#63b8ff" points="97.81,-689.43 88.43,-684.5 92.69,-694.2 97.81,-689.43"/>
</a>
</g>
</g>
<!-- Node14 -->
<g id="Node000014" class="node">
<title>Node14</title>
<g id="a_Node000014"><a xlink:href="class_mercury_messaging_1_1_standard_library_1_1_input_1_1_mm_input6_d_o_f_message.html" target="_top" xlink:title="6DOF (Six Degrees of Freedom) input message.">
<polygon fill="white" stroke="#666666" points="374.5,-762 198.5,-762 198.5,-732 374.5,-732 374.5,-762"/>
<text text-anchor="start" x="206.5" y="-750" font-family="Helvetica,sans-Serif" font-size="10.00">MercuryMessaging.Standard</text>
<text text-anchor="middle" x="286.5" y="-739" font-family="Helvetica,sans-Serif" font-size="10.00">Library.Input.MmInput6DOFMessage</text>
</a>
</g>
</g>
<!-- Node1&#45;&gt;Node14 -->
<g id="edge13_Node000001_Node000014" class="edge">
<title>Node1&#45;&gt;Node14</title>
<g id="a_edge13_Node000001_Node000014"><a xlink:title=" ">
<path fill="none" stroke="#63b8ff" d="M109.38,-688.73C132.14,-699.04 164.64,-713.03 194,-723 203.33,-726.17 213.31,-729.17 223.13,-731.91"/>
<polygon fill="#63b8ff" stroke="#63b8ff" points="110.81,-685.54 100.26,-684.56 107.9,-691.9 110.81,-685.54"/>
</a>
</g>
</g>
<!-- Node15 -->
<g id="Node000015" class="node">
<title>Node15</title>
<g id="a_Node000015"><a xlink:href="class_mercury_messaging_1_1_standard_library_1_1_input_1_1_mm_input_axis_message.html" target="_top" xlink:title="Axis input message.">
<polygon fill="white" stroke="#666666" points="371.5,-714 201.5,-714 201.5,-684 371.5,-684 371.5,-714"/>
<text text-anchor="start" x="209.5" y="-702" font-family="Helvetica,sans-Serif" font-size="10.00">MercuryMessaging.Standard</text>
<text text-anchor="middle" x="286.5" y="-691" font-family="Helvetica,sans-Serif" font-size="10.00">Library.Input.MmInputAxisMessage</text>
</a>
</g>
</g>
<!-- Node1&#45;&gt;Node15 -->
<g id="edge14_Node000001_Node000015" class="edge">
<title>Node1&#45;&gt;Node15</title>
<g id="a_edge14_Node000001_Node000015"><a xlink:title=" ">
<path fill="none" stroke="#63b8ff" d="M168.26,-685.31C179.21,-686.59 190.39,-687.89 201.28,-689.16"/>
<polygon fill="#63b8ff" stroke="#63b8ff" points="168.62,-681.83 158.28,-684.14 167.8,-688.78 168.62,-681.83"/>
</a>
</g>
</g>
<!-- Node16 -->
<g id="Node000016" class="node">
<title>Node16</title>
<g id="a_Node000016"><a xlink:href="class_mercury_messaging_1_1_standard_library_1_1_input_1_1_mm_input_button_message.html" target="_top" xlink:title="Button input message.">
<polygon fill="white" stroke="#666666" points="376,-666 197,-666 197,-636 376,-636 376,-666"/>
<text text-anchor="start" x="205" y="-654" font-family="Helvetica,sans-Serif" font-size="10.00">MercuryMessaging.Standard</text>
<text text-anchor="middle" x="286.5" y="-643" font-family="Helvetica,sans-Serif" font-size="10.00">Library.Input.MmInputButtonMessage</text>
</a>
</g>
</g>
<!-- Node1&#45;&gt;Node16 -->
<g id="edge15_Node000001_Node000016" class="edge">
<title>Node1&#45;&gt;Node16</title>
<g id="a_edge15_Node000001_Node000016"><a xlink:title=" ">
<path fill="none" stroke="#63b8ff" d="M168.4,-664.68C177.81,-663.58 187.38,-662.46 196.79,-661.36"/>
<polygon fill="#63b8ff" stroke="#63b8ff" points="167.8,-661.22 158.28,-665.86 168.62,-668.17 167.8,-661.22"/>
</a>
</g>
</g>
<!-- Node17 -->
<g id="Node000017" class="node">
<title>Node17</title>
<g id="a_Node000017"><a xlink:href="class_mercury_messaging_1_1_standard_library_1_1_input_1_1_mm_input_controller_state_message.html" target="_top" xlink:title="Controller connection state message.">
<polygon fill="white" stroke="#666666" points="362.5,-617.5 210.5,-617.5 210.5,-576.5 362.5,-576.5 362.5,-617.5"/>
<text text-anchor="start" x="218.5" y="-605.5" font-family="Helvetica,sans-Serif" font-size="10.00">MercuryMessaging.Standard</text>
<text text-anchor="start" x="218.5" y="-594.5" font-family="Helvetica,sans-Serif" font-size="10.00">Library.Input.MmInputController</text>
<text text-anchor="middle" x="286.5" y="-583.5" font-family="Helvetica,sans-Serif" font-size="10.00">StateMessage</text>
</a>
</g>
</g>
<!-- Node1&#45;&gt;Node17 -->
<g id="edge16_Node000001_Node000017" class="edge">
<title>Node1&#45;&gt;Node17</title>
<g id="a_edge16_Node000001_Node000017"><a xlink:title=" ">
<path fill="none" stroke="#63b8ff" d="M110.39,-661.4C133.2,-651.4 165.31,-637.72 194,-627 202.46,-623.84 211.42,-620.68 220.29,-617.66"/>
<polygon fill="#63b8ff" stroke="#63b8ff" points="108.96,-658.21 101.22,-665.45 111.78,-664.62 108.96,-658.21"/>
</a>
</g>
</g>
<!-- Node18 -->
<g id="Node000018" class="node">
<title>Node18</title>
<g id="a_Node000018"><a xlink:href="class_mercury_messaging_1_1_standard_library_1_1_input_1_1_mm_input_gaze_message.html" target="_top" xlink:title="Eye tracking gaze message.">
<polygon fill="white" stroke="#666666" points="373,-558 200,-558 200,-528 373,-528 373,-558"/>
<text text-anchor="start" x="208" y="-546" font-family="Helvetica,sans-Serif" font-size="10.00">MercuryMessaging.Standard</text>
<text text-anchor="middle" x="286.5" y="-535" font-family="Helvetica,sans-Serif" font-size="10.00">Library.Input.MmInputGazeMessage</text>
</a>
</g>
</g>
<!-- Node1&#45;&gt;Node18 -->
<g id="edge17_Node000001_Node000018" class="edge">
<title>Node1&#45;&gt;Node18</title>
<g id="a_edge17_Node000001_Node000018"><a xlink:title=" ">
<path fill="none" stroke="#63b8ff" d="M93.81,-657.52C113.53,-633.74 152.02,-591.49 194,-568 200.9,-564.14 208.43,-560.85 216.1,-558.05"/>
<polygon fill="#63b8ff" stroke="#63b8ff" points="91.02,-655.4 87.43,-665.37 96.45,-659.82 91.02,-655.4"/>
</a>
</g>
</g>
<!-- Node19 -->
<g id="Node000019" class="node">
<title>Node19</title>
<g id="a_Node000019"><a xlink:href="class_mercury_messaging_1_1_standard_library_1_1_input_1_1_mm_input_gesture_message.html" target="_top" xlink:title="Hand gesture recognition message.">
<polygon fill="white" stroke="#666666" points="379,-510 194,-510 194,-480 379,-480 379,-510"/>
<text text-anchor="start" x="202" y="-498" font-family="Helvetica,sans-Serif" font-size="10.00">MercuryMessaging.Standard</text>
<text text-anchor="middle" x="286.5" y="-487" font-family="Helvetica,sans-Serif" font-size="10.00">Library.Input.MmInputGestureMessage</text>
</a>
</g>
</g>
<!-- Node1&#45;&gt;Node19 -->
<g id="edge18_Node000001_Node000019" class="edge">
<title>Node1&#45;&gt;Node19</title>
<g id="a_edge18_Node000001_Node000019"><a xlink:title=" ">
<path fill="none" stroke="#63b8ff" d="M88.68,-655.66C104.6,-622.42 141.72,-554.62 194,-519 199.02,-515.58 204.5,-512.64 210.21,-510.13"/>
<polygon fill="#63b8ff" stroke="#63b8ff" points="85.3,-654.6 84.26,-665.15 91.65,-657.56 85.3,-654.6"/>
</a>
</g>
</g>
<!-- Node20 -->
<g id="Node000020" class="node">
<title>Node20</title>
<g id="a_Node000020"><a xlink:href="class_mercury_messaging_1_1_standard_library_1_1_input_1_1_mm_input_haptic_message.html" target="_top" xlink:title="Haptic feedback request message.">
<polygon fill="white" stroke="#666666" points="375.5,-462 197.5,-462 197.5,-432 375.5,-432 375.5,-462"/>
<text text-anchor="start" x="205.5" y="-450" font-family="Helvetica,sans-Serif" font-size="10.00">MercuryMessaging.Standard</text>
<text text-anchor="middle" x="286.5" y="-439" font-family="Helvetica,sans-Serif" font-size="10.00">Library.Input.MmInputHapticMessage</text>
</a>
</g>
</g>
<!-- Node1&#45;&gt;Node20 -->
<g id="edge19_Node000001_Node000020" class="edge">
<title>Node1&#45;&gt;Node20</title>
<g id="a_edge19_Node000001_Node000020"><a xlink:title=" ">
<path fill="none" stroke="#63b8ff" d="M85.31,-655.25C97.38,-614.3 130.82,-519.92 194,-471 198.42,-467.58 203.27,-464.65 208.37,-462.13"/>
<polygon fill="#63b8ff" stroke="#63b8ff" points="81.89,-654.51 82.53,-665.09 88.62,-656.42 81.89,-654.51"/>
</a>
</g>
</g>
<!-- Node21 -->
<g id="Node000021" class="node">
<title>Node21</title>
<g id="a_Node000021"><a xlink:href="class_mercury_messaging_1_1_standard_library_1_1_input_1_1_mm_input_touch_message.html" target="_top" xlink:title="Touch surface input message.">
<polygon fill="white" stroke="#666666" points="374.5,-414 198.5,-414 198.5,-384 374.5,-384 374.5,-414"/>
<text text-anchor="start" x="206.5" y="-402" font-family="Helvetica,sans-Serif" font-size="10.00">MercuryMessaging.Standard</text>
<text text-anchor="middle" x="286.5" y="-391" font-family="Helvetica,sans-Serif" font-size="10.00">Library.Input.MmInputTouchMessage</text>
</a>
</g>
</g>
<!-- Node1&#45;&gt;Node21 -->
<g id="edge20_Node000001_Node000021" class="edge">
<title>Node1&#45;&gt;Node21</title>
<g id="a_edge20_Node000001_Node000021"><a xlink:title=" ">
<path fill="none" stroke="#63b8ff" d="M82.98,-655.63C91.29,-608.3 119.28,-486.1 194,-423 198.02,-419.61 202.46,-416.69 207.15,-414.18"/>
<polygon fill="#63b8ff" stroke="#63b8ff" points="79.52,-655.06 81.34,-665.49 86.43,-656.2 79.52,-655.06"/>
</a>
</g>
</g>
<!-- Node22 -->
<g id="Node000022" class="node">
<title>Node22</title>
<g id="a_Node000022"><a xlink:href="class_mercury_messaging_1_1_standard_library_1_1_u_i_1_1_mm_u_i_cancel_message.html" target="_top" xlink:title="UI cancel message.">
<polygon fill="white" stroke="#666666" points="364.5,-366 208.5,-366 208.5,-336 364.5,-336 364.5,-366"/>
<text text-anchor="start" x="216.5" y="-354" font-family="Helvetica,sans-Serif" font-size="10.00">MercuryMessaging.Standard</text>
<text text-anchor="middle" x="286.5" y="-343" font-family="Helvetica,sans-Serif" font-size="10.00">Library.UI.MmUICancelMessage</text>
</a>
</g>
</g>
<!-- Node1&#45;&gt;Node22 -->
<g id="edge21_Node000001_Node000022" class="edge">
<title>Node1&#45;&gt;Node22</title>
<g id="a_edge21_Node000001_Node000022"><a xlink:title=" ">
<path fill="none" stroke="#63b8ff" d="M81.45,-655.3C86.47,-601.74 107.9,-452.37 194,-375 198.28,-371.16 203.09,-367.92 208.22,-365.19"/>
<polygon fill="#63b8ff" stroke="#63b8ff" points="77.94,-655.21 80.59,-665.47 84.92,-655.8 77.94,-655.21"/>
</a>
</g>
</g>
<!-- Node23 -->
<g id="Node000023" class="node">
<title>Node23</title>
<g id="a_Node000023"><a xlink:href="class_mercury_messaging_1_1_standard_library_1_1_u_i_1_1_mm_u_i_click_message.html" target="_top" xlink:title="UI click/tap message.">
<polygon fill="white" stroke="#666666" points="360.5,-318 212.5,-318 212.5,-288 360.5,-288 360.5,-318"/>
<text text-anchor="start" x="220.5" y="-306" font-family="Helvetica,sans-Serif" font-size="10.00">MercuryMessaging.Standard</text>
<text text-anchor="middle" x="286.5" y="-295" font-family="Helvetica,sans-Serif" font-size="10.00">Library.UI.MmUIClickMessage</text>
</a>
</g>
</g>
<!-- Node1&#45;&gt;Node23 -->
<g id="edge22_Node000001_Node000023" class="edge">
<title>Node1&#45;&gt;Node23</title>
<g id="a_edge22_Node000001_Node000023"><a xlink:title=" ">
<path fill="none" stroke="#63b8ff" d="M80.28,-654.99C82.23,-595.64 96.37,-418.94 194,-327 199.38,-321.93 205.7,-317.91 212.45,-314.71"/>
<polygon fill="#63b8ff" stroke="#63b8ff" points="76.77,-655.16 80.03,-665.24 83.77,-655.33 76.77,-655.16"/>
</a>
</g>
</g>
<!-- Node24 -->
<g id="Node000024" class="node">
<title>Node24</title>
<g id="a_Node000024"><a xlink:href="class_mercury_messaging_1_1_standard_library_1_1_u_i_1_1_mm_u_i_drag_message.html" target="_top" xlink:title="UI drag message.">
<polygon fill="white" stroke="#666666" points="359.5,-270 213.5,-270 213.5,-240 359.5,-240 359.5,-270"/>
<text text-anchor="start" x="221.5" y="-258" font-family="Helvetica,sans-Serif" font-size="10.00">MercuryMessaging.Standard</text>
<text text-anchor="middle" x="286.5" y="-247" font-family="Helvetica,sans-Serif" font-size="10.00">Library.UI.MmUIDragMessage</text>
</a>
</g>
</g>
<!-- Node1&#45;&gt;Node24 -->
<g id="edge23_Node000001_Node000024" class="edge">
<title>Node1&#45;&gt;Node24</title>
<g id="a_edge23_Node000001_Node000024"><a xlink:title=" ">
<path fill="none" stroke="#63b8ff" d="M79.35,-654.89C78.41,-590.24 84.62,-385.81 194,-279 199.52,-273.61 206.1,-269.39 213.16,-266.09"/>
<polygon fill="#63b8ff" stroke="#63b8ff" points="75.86,-655.36 79.58,-665.27 82.86,-655.2 75.86,-655.36"/>
</a>
</g>
</g>
<!-- Node25 -->
<g id="Node000025" class="node">
<title>Node25</title>
<g id="a_Node000025"><a xlink:href="class_mercury_messaging_1_1_standard_library_1_1_u_i_1_1_mm_u_i_focus_message.html" target="_top" xlink:title="UI focus message.">
<polygon fill="white" stroke="#666666" points="363,-222 210,-222 210,-192 363,-192 363,-222"/>
<text text-anchor="start" x="218" y="-210" font-family="Helvetica,sans-Serif" font-size="10.00">MercuryMessaging.Standard</text>
<text text-anchor="middle" x="286.5" y="-199" font-family="Helvetica,sans-Serif" font-size="10.00">Library.UI.MmUIFocusMessage</text>
</a>
</g>
</g>
<!-- Node1&#45;&gt;Node25 -->
<g id="edge24_Node000001_Node000025" class="edge">
<title>Node1&#45;&gt;Node25</title>
<g id="a_edge24_Node000001_Node000025"><a xlink:title=" ">
<path fill="none" stroke="#63b8ff" d="M82.44,-655.02C92.37,-576.87 132.2,-293.12 194,-231 198.63,-226.34 204.05,-222.56 209.9,-219.48"/>
<polygon fill="#63b8ff" stroke="#63b8ff" points="78.91,-655.02 81.15,-665.37 85.86,-655.88 78.91,-655.02"/>
</a>
</g>
</g>
<!-- Node26 -->
<g id="Node000026" class="node">
<title>Node26</title>
<g id="a_Node000026"><a xlink:href="class_mercury_messaging_1_1_standard_library_1_1_u_i_1_1_mm_u_i_hover_message.html" target="_top" xlink:title="UI hover message.">
<polygon fill="white" stroke="#666666" points="361.5,-174 211.5,-174 211.5,-144 361.5,-144 361.5,-174"/>
<text text-anchor="start" x="219.5" y="-162" font-family="Helvetica,sans-Serif" font-size="10.00">MercuryMessaging.Standard</text>
<text text-anchor="middle" x="286.5" y="-151" font-family="Helvetica,sans-Serif" font-size="10.00">Library.UI.MmUIHoverMessage</text>
</a>
</g>
</g>
<!-- Node1&#45;&gt;Node26 -->
<g id="edge25_Node000001_Node000026" class="edge">
<title>Node1&#45;&gt;Node26</title>
<g id="a_edge25_Node000001_Node000026"><a xlink:title=" ">
<path fill="none" stroke="#63b8ff" d="M81.9,-655.03C90.24,-571.69 126.16,-252.82 194,-183 198.92,-177.94 204.77,-173.89 211.1,-170.68"/>
<polygon fill="#63b8ff" stroke="#63b8ff" points="78.4,-654.88 80.91,-665.17 85.37,-655.56 78.4,-654.88"/>
</a>
</g>
</g>
<!-- Node27 -->
<g id="Node000027" class="node">
<title>Node27</title>
<g id="a_Node000027"><a xlink:href="class_mercury_messaging_1_1_standard_library_1_1_u_i_1_1_mm_u_i_scroll_message.html" target="_top" xlink:title="UI scroll message.">
<polygon fill="white" stroke="#666666" points="362,-126 211,-126 211,-96 362,-96 362,-126"/>
<text text-anchor="start" x="219" y="-114" font-family="Helvetica,sans-Serif" font-size="10.00">MercuryMessaging.Standard</text>
<text text-anchor="middle" x="286.5" y="-103" font-family="Helvetica,sans-Serif" font-size="10.00">Library.UI.MmUIScrollMessage</text>
</a>
</g>
</g>
<!-- Node1&#45;&gt;Node27 -->
<g id="edge26_Node000001_Node000027" class="edge">
<title>Node1&#45;&gt;Node27</title>
<g id="a_edge26_Node000001_Node000027"><a xlink:title=" ">
<path fill="none" stroke="#63b8ff" d="M81.46,-655.08C88.3,-566.89 120.08,-212.59 194,-135 198.87,-129.89 204.69,-125.81 210.99,-122.58"/>
<polygon fill="#63b8ff" stroke="#63b8ff" points="77.96,-654.86 80.7,-665.1 84.94,-655.39 77.96,-654.86"/>
</a>
</g>
</g>
<!-- Node28 -->
<g id="Node000028" class="node">
<title>Node28</title>
<g id="a_Node000028"><a xlink:href="class_mercury_messaging_1_1_standard_library_1_1_u_i_1_1_mm_u_i_select_message.html" target="_top" xlink:title="UI selection message.">
<polygon fill="white" stroke="#666666" points="363.5,-78 209.5,-78 209.5,-48 363.5,-48 363.5,-78"/>
<text text-anchor="start" x="217.5" y="-66" font-family="Helvetica,sans-Serif" font-size="10.00">MercuryMessaging.Standard</text>
<text text-anchor="middle" x="286.5" y="-55" font-family="Helvetica,sans-Serif" font-size="10.00">Library.UI.MmUISelectMessage</text>
</a>
</g>
</g>
<!-- Node1&#45;&gt;Node28 -->
<g id="edge27_Node000001_Node000028" class="edge">
<title>Node1&#45;&gt;Node28</title>
<g id="a_edge27_Node000001_Node000028"><a xlink:title=" ">
<path fill="none" stroke="#63b8ff" d="M81.08,-655.11C86.54,-562.27 113.97,-172.41 194,-87 198.38,-82.33 203.55,-78.52 209.16,-75.42"/>
<polygon fill="#63b8ff" stroke="#63b8ff" points="77.59,-654.95 80.51,-665.14 84.58,-655.35 77.59,-654.95"/>
</a>
</g>
</g>
<!-- Node29 -->
<g id="Node000029" class="node">
<title>Node29</title>
<g id="a_Node000029"><a xlink:href="class_mercury_messaging_1_1_standard_library_1_1_u_i_1_1_mm_u_i_submit_message.html" target="_top" xlink:title="UI submit message.">
<polygon fill="white" stroke="#666666" points="365,-30 208,-30 208,0 365,0 365,-30"/>
<text text-anchor="start" x="216" y="-18" font-family="Helvetica,sans-Serif" font-size="10.00">MercuryMessaging.Standard</text>
<text text-anchor="middle" x="286.5" y="-7" font-family="Helvetica,sans-Serif" font-size="10.00">Library.UI.MmUISubmitMessage</text>
</a>
</g>
</g>
<!-- Node1&#45;&gt;Node29 -->
<g id="edge28_Node000001_Node000029" class="edge">
<title>Node1&#45;&gt;Node29</title>
<g id="a_edge28_Node000001_Node000029"><a xlink:title=" ">
<path fill="none" stroke="#63b8ff" d="M80.77,-655.07C84.93,-557.62 107.87,-132.23 194,-39 198.01,-34.66 202.7,-31.06 207.81,-28.09"/>
<polygon fill="#63b8ff" stroke="#63b8ff" points="77.26,-655.15 80.35,-665.28 84.26,-655.44 77.26,-655.15"/>
</a>
</g>
</g>
</g>
</svg>
