<?xml version="1.0" encoding="UTF-8" standalone="no"?>
<!DOCTYPE svg PUBLIC "-//W3C//DTD SVG 1.1//EN"
 "http://www.w3.org/Graphics/SVG/1.1/DTD/svg11.dtd">
<!-- Generated by graphviz version 2.44.1 (20200629.0800)
 -->
<!-- Title: MercuryMessaging.StandardLibrary.Input.MmInputControllerStateMessage Pages: 1 -->
<svg width="167pt" height="271pt"
 viewBox="0.00 0.00 167.00 271.00" xmlns="http://www.w3.org/2000/svg" xmlns:xlink="http://www.w3.org/1999/xlink">
<g id="graph0" class="graph" transform="scale(1 1) rotate(0) translate(4 267)">
<title>MercuryMessaging.StandardLibrary.Input.MmInputControllerStateMessage</title>
<!-- Node1 -->
<g id="Node000001" class="node">
<title>Node1</title>
<g id="a_Node000001"><a xlink:title="Controller connection state message.">
<polygon fill="#999999" stroke="#666666" points="155.5,-41 3.5,-41 3.5,0 155.5,0 155.5,-41"/>
<text text-anchor="start" x="11.5" y="-29" font-family="Helvetica,sans-Serif" font-size="10.00">MercuryMessaging.Standard</text>
<text text-anchor="start" x="11.5" y="-18" font-family="Helvetica,sans-Serif" font-size="10.00">Library.Input.MmInputController</text>
<text text-anchor="middle" x="79.5" y="-7" font-family="Helvetica,sans-Serif" font-size="10.00">StateMessage</text>
</a>
</g>
</g>
<!-- Node2 -->
<g id="Node000002" class="node">
<title>Node2</title>
<g id="a_Node000002"><a xlink:href="class_mercury_messaging_1_1_mm_message.html" target="_top" xlink:title="Base class for messages passed through MmInvoke.">
<polygon fill="white" stroke="#666666" points="158.5,-97 0.5,-97 0.5,-78 158.5,-78 158.5,-97"/>
<text text-anchor="middle" x="79.5" y="-85" font-family="Helvetica,sans-Serif" font-size="10.00">MercuryMessaging.MmMessage</text>
</a>
</g>
</g>
<!-- Node2&#45;&gt;Node1 -->
<g id="edge1_Node000001_Node000002" class="edge">
<title>Node2&#45;&gt;Node1</title>
<g id="a_edge1_Node000001_Node000002"><a xlink:title=" ">
<path fill="none" stroke="#63b8ff" d="M79.5,-67.54C79.5,-59.21 79.5,-49.44 79.5,-41.04"/>
<polygon fill="#63b8ff" stroke="#63b8ff" points="76,-67.73 79.5,-77.73 83,-67.73 76,-67.73"/>
</a>
</g>
</g>
<!-- Node3 -->
<g id="Node000003" class="node">
<title>Node3</title>
<g id="a_Node000003"><a xlink:href="class_mercury_messaging_1_1_mm_metadata_block.html" target="_top" xlink:title="MmMetadataBlock is a collection of settings allowing you to specify the precise invocation path of an...">
<polygon fill="white" stroke="#666666" points="159,-180 0,-180 0,-150 159,-150 159,-180"/>
<text text-anchor="start" x="8" y="-168" font-family="Helvetica,sans-Serif" font-size="10.00">MercuryMessaging.MmMetadata</text>
<text text-anchor="middle" x="79.5" y="-157" font-family="Helvetica,sans-Serif" font-size="10.00">Block</text>
</a>
</g>
</g>
<!-- Node3&#45;&gt;Node2 -->
<g id="edge2_Node000002_Node000003" class="edge">
<title>Node3&#45;&gt;Node2</title>
<g id="a_edge2_Node000002_Node000003"><a xlink:title=" ">
<path fill="none" stroke="#9a32cd" stroke-dasharray="5,2" d="M79.5,-139.4C79.5,-124.81 79.5,-107.22 79.5,-97.01"/>
<polygon fill="#9a32cd" stroke="#9a32cd" points="76,-139.8 79.5,-149.8 83,-139.8 76,-139.8"/>
</a>
</g>
<text text-anchor="start" x="82.5" y="-120.5" font-family="Helvetica,sans-Serif" font-size="10.00" fill="grey">MetadataBlock</text>
</g>
<!-- Node4 -->
<g id="Node000004" class="node">
<title>Node4</title>
<g id="a_Node000004"><a xlink:href="class_mercury_messaging_1_1_mm_routing_options.html" target="_top" xlink:title="Configuration options for advanced message routing behavior.">
<polygon fill="white" stroke="#666666" points="155.5,-263 3.5,-263 3.5,-233 155.5,-233 155.5,-263"/>
<text text-anchor="start" x="11.5" y="-251" font-family="Helvetica,sans-Serif" font-size="10.00">MercuryMessaging.MmRouting</text>
<text text-anchor="middle" x="79.5" y="-240" font-family="Helvetica,sans-Serif" font-size="10.00">Options</text>
</a>
</g>
</g>
<!-- Node4&#45;&gt;Node3 -->
<g id="edge3_Node000003_Node000004" class="edge">
<title>Node4&#45;&gt;Node3</title>
<g id="a_edge3_Node000003_Node000004"><a xlink:title=" ">
<path fill="none" stroke="#9a32cd" stroke-dasharray="5,2" d="M79.5,-222.59C79.5,-208.75 79.5,-191.91 79.5,-180.22"/>
<polygon fill="#9a32cd" stroke="#9a32cd" points="76,-222.89 79.5,-232.89 83,-222.89 76,-222.89"/>
</a>
</g>
<text text-anchor="start" x="82.5" y="-203.5" font-family="Helvetica,sans-Serif" font-size="10.00" fill="grey">Options</text>
</g>
</g>
</svg>
