<?xml version="1.0" encoding="UTF-8" standalone="no"?>
<!DOCTYPE svg PUBLIC "-//W3C//DTD SVG 1.1//EN"
 "http://www.w3.org/Graphics/SVG/1.1/DTD/svg11.dtd">
<!-- Generated by graphviz version 2.44.1 (20200629.0800)
 -->
<!-- Title: MercuryMessaging.Task.MmTaskResponder&lt; T &gt; Pages: 1 -->
<svg width="276pt" height="269pt"
 viewBox="0.00 0.00 276.00 269.00" xmlns="http://www.w3.org/2000/svg" xmlns:xlink="http://www.w3.org/1999/xlink">
<g id="graph0" class="graph" transform="scale(1 1) rotate(0) translate(4 265)">
<title>MercuryMessaging.Task.MmTaskResponder&lt; T &gt;</title>
<!-- Node1 -->
<g id="Node000001" class="node">
<title>Node1</title>
<g id="a_Node000001"><a xlink:title="MmTaskResponder are MmBaseResponder that deal with IMmTaskInfos.">
<polygon fill="#999999" stroke="#666666" points="184,-96 41,-96 41,-66 184,-66 184,-96"/>
<text text-anchor="start" x="49" y="-84" font-family="Helvetica,sans-Serif" font-size="10.00">MercuryMessaging.Task.Mm</text>
<text text-anchor="middle" x="112.5" y="-73" font-family="Helvetica,sans-Serif" font-size="10.00">TaskResponder&lt; T &gt;</text>
</a>
</g>
</g>
<!-- Node6 -->
<g id="Node000006" class="node">
<title>Node6</title>
<g id="a_Node000006"><a xlink:href="class_mercury_messaging_1_1_task_1_1_mm_transformation_task_responder-1-g.html" target="_top" xlink:title="Responder useful for creating MmTaskResponders handling transformation tasks in Unity.">
<polygon fill="white" stroke="#666666" points="198,-30 27,-30 27,0 198,0 198,-30"/>
<text text-anchor="start" x="35" y="-18" font-family="Helvetica,sans-Serif" font-size="10.00">MercuryMessaging.Task.Mm</text>
<text text-anchor="middle" x="112.5" y="-7" font-family="Helvetica,sans-Serif" font-size="10.00">TransformationTaskResponder&lt; T &gt;</text>
</a>
</g>
</g>
<!-- Node1&#45;&gt;Node6 -->
<g id="edge5_Node000001_Node000006" class="edge">
<title>Node1&#45;&gt;Node6</title>
<g id="a_edge5_Node000001_Node000006"><a xlink:title=" ">
<path fill="none" stroke="#63b8ff" d="M112.5,-55.54C112.5,-46.96 112.5,-37.61 112.5,-30.16"/>
<polygon fill="#63b8ff" stroke="#63b8ff" points="109,-55.8 112.5,-65.8 116,-55.8 109,-55.8"/>
</a>
</g>
</g>
<!-- Node2 -->
<g id="Node000002" class="node">
<title>Node2</title>
<g id="a_Node000002"><a xlink:href="class_mercury_messaging_1_1_mm_base_responder.html" target="_top" xlink:title="MmResponder that implements a switch handling the framework&#45;provided MmMethods.">
<polygon fill="white" stroke="#666666" points="206.5,-151 18.5,-151 18.5,-132 206.5,-132 206.5,-151"/>
<text text-anchor="middle" x="112.5" y="-139" font-family="Helvetica,sans-Serif" font-size="10.00">MercuryMessaging.MmBaseResponder</text>
</a>
</g>
</g>
<!-- Node2&#45;&gt;Node1 -->
<g id="edge1_Node000001_Node000002" class="edge">
<title>Node2&#45;&gt;Node1</title>
<g id="a_edge1_Node000001_Node000002"><a xlink:title=" ">
<path fill="none" stroke="#63b8ff" d="M112.5,-121.65C112.5,-113.36 112.5,-103.78 112.5,-96.11"/>
<polygon fill="#63b8ff" stroke="#63b8ff" points="109,-121.87 112.5,-131.87 116,-121.87 109,-121.87"/>
</a>
</g>
</g>
<!-- Node3 -->
<g id="Node000003" class="node">
<title>Node3</title>
<g id="a_Node000003"><a xlink:href="class_mercury_messaging_1_1_mm_responder.html" target="_top" xlink:title="Base implmentation of IMmResponder.">
<polygon fill="white" stroke="#666666" points="195,-206 30,-206 30,-187 195,-187 195,-206"/>
<text text-anchor="middle" x="112.5" y="-194" font-family="Helvetica,sans-Serif" font-size="10.00">MercuryMessaging.MmResponder</text>
</a>
</g>
</g>
<!-- Node3&#45;&gt;Node2 -->
<g id="edge2_Node000002_Node000003" class="edge">
<title>Node3&#45;&gt;Node2</title>
<g id="a_edge2_Node000002_Node000003"><a xlink:title=" ">
<path fill="none" stroke="#63b8ff" d="M112.5,-176.66C112.5,-167.93 112.5,-157.99 112.5,-151.09"/>
<polygon fill="#63b8ff" stroke="#63b8ff" points="109,-176.75 112.5,-186.75 116,-176.75 109,-176.75"/>
</a>
</g>
</g>
<!-- Node4 -->
<g id="Node000004" class="node">
<title>Node4</title>
<g id="a_Node000004"><a xlink:title=" ">
<polygon fill="white" stroke="#666666" points="83,-261 0,-261 0,-242 83,-242 83,-261"/>
<text text-anchor="middle" x="41.5" y="-249" font-family="Helvetica,sans-Serif" font-size="10.00">MonoBehaviour</text>
</a>
</g>
</g>
<!-- Node4&#45;&gt;Node3 -->
<g id="edge3_Node000003_Node000004" class="edge">
<title>Node4&#45;&gt;Node3</title>
<g id="a_edge3_Node000003_Node000004"><a xlink:title=" ">
<path fill="none" stroke="#63b8ff" d="M61.09,-235.88C73.87,-226.34 90.11,-214.21 100.89,-206.17"/>
<polygon fill="#63b8ff" stroke="#63b8ff" points="58.83,-233.2 52.91,-241.98 63.01,-238.81 58.83,-233.2"/>
</a>
</g>
</g>
<!-- Node5 -->
<g id="Node000005" class="node">
<title>Node5</title>
<g id="a_Node000005"><a xlink:href="interface_mercury_messaging_1_1_i_mm_responder.html" target="_top" xlink:title="The core of MercuryMessaging.">
<polygon fill="white" stroke="#666666" points="268,-261 101,-261 101,-242 268,-242 268,-261"/>
<text text-anchor="middle" x="184.5" y="-249" font-family="Helvetica,sans-Serif" font-size="10.00">MercuryMessaging.IMmResponder</text>
</a>
</g>
</g>
<!-- Node5&#45;&gt;Node3 -->
<g id="edge4_Node000003_Node000005" class="edge">
<title>Node5&#45;&gt;Node3</title>
<g id="a_edge4_Node000003_Node000005"><a xlink:title=" ">
<path fill="none" stroke="#63b8ff" d="M164.63,-235.88C151.68,-226.34 135.2,-214.21 124.28,-206.17"/>
<polygon fill="#63b8ff" stroke="#63b8ff" points="162.8,-238.88 172.93,-241.98 166.95,-233.24 162.8,-238.88"/>
</a>
</g>
</g>
</g>
</svg>
