<?xml version="1.0" encoding="UTF-8" standalone="no"?>
<!DOCTYPE svg PUBLIC "-//W3C//DTD SVG 1.1//EN"
 "http://www.w3.org/Graphics/SVG/1.1/DTD/svg11.dtd">
<!-- Generated by graphviz version 2.44.1 (20200629.0800)
 -->
<!-- Title: MercuryMessaging.StandardLibrary.Input.MmInputHapticMessage Pages: 1 -->
<svg width="186pt" height="260pt"
 viewBox="0.00 0.00 186.00 260.00" xmlns="http://www.w3.org/2000/svg" xmlns:xlink="http://www.w3.org/1999/xlink">
<g id="graph0" class="graph" transform="scale(1 1) rotate(0) translate(4 256)">
<title>MercuryMessaging.StandardLibrary.Input.MmInputHapticMessage</title>
<!-- Node1 -->
<g id="Node000001" class="node">
<title>Node1</title>
<g id="a_Node000001"><a xlink:title="Haptic feedback request message.">
<polygon fill="#999999" stroke="#666666" points="178,-30 0,-30 0,0 178,0 178,-30"/>
<text text-anchor="start" x="8" y="-18" font-family="Helvetica,sans-Serif" font-size="10.00">MercuryMessaging.Standard</text>
<text text-anchor="middle" x="89" y="-7" font-family="Helvetica,sans-Serif" font-size="10.00">Library.Input.MmInputHapticMessage</text>
</a>
</g>
</g>
<!-- Node2 -->
<g id="Node000002" class="node">
<title>Node2</title>
<g id="a_Node000002"><a xlink:href="class_mercury_messaging_1_1_mm_message.html" target="_top" xlink:title="Base class for messages passed through MmInvoke.">
<polygon fill="white" stroke="#666666" points="168,-86 10,-86 10,-67 168,-67 168,-86"/>
<text text-anchor="middle" x="89" y="-74" font-family="Helvetica,sans-Serif" font-size="10.00">MercuryMessaging.MmMessage</text>
</a>
</g>
</g>
<!-- Node2&#45;&gt;Node1 -->
<g id="edge1_Node000001_Node000002" class="edge">
<title>Node2&#45;&gt;Node1</title>
<g id="a_edge1_Node000001_Node000002"><a xlink:title=" ">
<path fill="none" stroke="#63b8ff" d="M89,-56.73C89,-48.09 89,-38 89,-30.02"/>
<polygon fill="#63b8ff" stroke="#63b8ff" points="85.5,-56.98 89,-66.98 92.5,-56.98 85.5,-56.98"/>
</a>
</g>
</g>
<!-- Node3 -->
<g id="Node000003" class="node">
<title>Node3</title>
<g id="a_Node000003"><a xlink:href="class_mercury_messaging_1_1_mm_metadata_block.html" target="_top" xlink:title="MmMetadataBlock is a collection of settings allowing you to specify the precise invocation path of an...">
<polygon fill="white" stroke="#666666" points="168.5,-169 9.5,-169 9.5,-139 168.5,-139 168.5,-169"/>
<text text-anchor="start" x="17.5" y="-157" font-family="Helvetica,sans-Serif" font-size="10.00">MercuryMessaging.MmMetadata</text>
<text text-anchor="middle" x="89" y="-146" font-family="Helvetica,sans-Serif" font-size="10.00">Block</text>
</a>
</g>
</g>
<!-- Node3&#45;&gt;Node2 -->
<g id="edge2_Node000002_Node000003" class="edge">
<title>Node3&#45;&gt;Node2</title>
<g id="a_edge2_Node000002_Node000003"><a xlink:title=" ">
<path fill="none" stroke="#9a32cd" stroke-dasharray="5,2" d="M89,-128.4C89,-113.81 89,-96.22 89,-86.01"/>
<polygon fill="#9a32cd" stroke="#9a32cd" points="85.5,-128.8 89,-138.8 92.5,-128.8 85.5,-128.8"/>
</a>
</g>
<text text-anchor="start" x="92" y="-109.5" font-family="Helvetica,sans-Serif" font-size="10.00" fill="grey">MetadataBlock</text>
</g>
<!-- Node4 -->
<g id="Node000004" class="node">
<title>Node4</title>
<g id="a_Node000004"><a xlink:href="class_mercury_messaging_1_1_mm_routing_options.html" target="_top" xlink:title="Configuration options for advanced message routing behavior.">
<polygon fill="white" stroke="#666666" points="165,-252 13,-252 13,-222 165,-222 165,-252"/>
<text text-anchor="start" x="21" y="-240" font-family="Helvetica,sans-Serif" font-size="10.00">MercuryMessaging.MmRouting</text>
<text text-anchor="middle" x="89" y="-229" font-family="Helvetica,sans-Serif" font-size="10.00">Options</text>
</a>
</g>
</g>
<!-- Node4&#45;&gt;Node3 -->
<g id="edge3_Node000003_Node000004" class="edge">
<title>Node4&#45;&gt;Node3</title>
<g id="a_edge3_Node000003_Node000004"><a xlink:title=" ">
<path fill="none" stroke="#9a32cd" stroke-dasharray="5,2" d="M89,-211.59C89,-197.75 89,-180.91 89,-169.22"/>
<polygon fill="#9a32cd" stroke="#9a32cd" points="85.5,-211.89 89,-221.89 92.5,-211.89 85.5,-211.89"/>
</a>
</g>
<text text-anchor="start" x="92" y="-192.5" font-family="Helvetica,sans-Serif" font-size="10.00" fill="grey">Options</text>
</g>
</g>
</svg>
