<?xml version="1.0" encoding="UTF-8" standalone="no"?>
<!DOCTYPE svg PUBLIC "-//W3C//DTD SVG 1.1//EN"
 "http://www.w3.org/Graphics/SVG/1.1/DTD/svg11.dtd">
<!-- Generated by graphviz version 2.44.1 (20200629.0800)
 -->
<!-- Title: MercuryMessaging.StandardLibrary.Animation.InterpolatorColor Pages: 1 -->
<svg width="576pt" height="149pt"
 viewBox="0.00 0.00 576.00 148.50" xmlns="http://www.w3.org/2000/svg" xmlns:xlink="http://www.w3.org/1999/xlink">
<g id="graph0" class="graph" transform="scale(1 1) rotate(0) translate(4 144.5)">
<title>MercuryMessaging.StandardLibrary.Animation.InterpolatorColor</title>
<!-- Node1 -->
<g id="Node000001" class="node">
<title>Node1</title>
<g id="a_Node000001"><a xlink:title=" ">
<polygon fill="#999999" stroke="#666666" points="568,-86.5 402,-86.5 402,-56.5 568,-56.5 568,-86.5"/>
<text text-anchor="start" x="410" y="-74.5" font-family="Helvetica,sans-Serif" font-size="10.00">MercuryMessaging.Standard</text>
<text text-anchor="middle" x="485" y="-63.5" font-family="Helvetica,sans-Serif" font-size="10.00">Library.Animation.InterpolatorColor</text>
</a>
</g>
</g>
<!-- Node2 -->
<g id="Node000002" class="node">
<title>Node2</title>
<g id="a_Node000002"><a xlink:href="class_mercury_messaging_1_1_standard_library_1_1_animation_1_1_interpolator-1-g.html" target="_top" xlink:title=" ">
<polygon fill="white" stroke="#666666" points="287,-140.5 120,-140.5 120,-110.5 287,-110.5 287,-140.5"/>
<text text-anchor="start" x="128" y="-128.5" font-family="Helvetica,sans-Serif" font-size="10.00">MercuryMessaging.Standard</text>
<text text-anchor="middle" x="203.5" y="-117.5" font-family="Helvetica,sans-Serif" font-size="10.00">Library.Animation.Interpolator&lt; T &gt;</text>
</a>
</g>
</g>
<!-- Node2&#45;&gt;Node1 -->
<g id="edge1_Node000001_Node000002" class="edge">
<title>Node2&#45;&gt;Node1</title>
<g id="a_edge1_Node000001_Node000002"><a xlink:title=" ">
<path fill="none" stroke="#63b8ff" d="M292.47,-108.5C328.9,-101.47 370.78,-93.37 406.08,-86.55"/>
<polygon fill="#63b8ff" stroke="#63b8ff" points="291.51,-105.12 282.36,-110.46 292.84,-112 291.51,-105.12"/>
</a>
</g>
</g>
<!-- Node3 -->
<g id="Node000003" class="node">
<title>Node3</title>
<g id="a_Node000003"><a xlink:title=" ">
<polygon fill="white" stroke="#666666" points="83,-135 0,-135 0,-116 83,-116 83,-135"/>
<text text-anchor="middle" x="41.5" y="-123" font-family="Helvetica,sans-Serif" font-size="10.00">MonoBehaviour</text>
</a>
</g>
</g>
<!-- Node3&#45;&gt;Node2 -->
<g id="edge2_Node000002_Node000003" class="edge">
<title>Node3&#45;&gt;Node2</title>
<g id="a_edge2_Node000002_Node000003"><a xlink:title=" ">
<path fill="none" stroke="#63b8ff" d="M93.31,-125.5C101.76,-125.5 110.72,-125.5 119.72,-125.5"/>
<polygon fill="#63b8ff" stroke="#63b8ff" points="93.29,-122 83.29,-125.5 93.29,-129 93.29,-122"/>
</a>
</g>
</g>
<!-- Node4 -->
<g id="Node000004" class="node">
<title>Node4</title>
<g id="a_Node000004"><a xlink:href="interface_mercury_messaging_1_1_standard_library_1_1_animation_1_1_interpolator_material-1-g.html" target="_top" xlink:title=" ">
<polygon fill="white" stroke="#666666" points="275,-92 132,-92 132,-51 275,-51 275,-92"/>
<text text-anchor="start" x="140" y="-80" font-family="Helvetica,sans-Serif" font-size="10.00">MercuryMessaging.Standard</text>
<text text-anchor="start" x="140" y="-69" font-family="Helvetica,sans-Serif" font-size="10.00">Library.Animation.Interpolator</text>
<text text-anchor="middle" x="203.5" y="-58" font-family="Helvetica,sans-Serif" font-size="10.00">Material&lt; T &gt;</text>
</a>
</g>
</g>
<!-- Node4&#45;&gt;Node1 -->
<g id="edge3_Node000001_Node000004" class="edge">
<title>Node4&#45;&gt;Node1</title>
<g id="a_edge3_Node000001_Node000004"><a xlink:title=" ">
<path fill="none" stroke="#63b8ff" d="M285.17,-71.5C321.79,-71.5 365.04,-71.5 401.84,-71.5"/>
<polygon fill="#63b8ff" stroke="#63b8ff" points="285.03,-68 275.03,-71.5 285.03,-75 285.03,-68"/>
</a>
</g>
</g>
<!-- Node5 -->
<g id="Node000005" class="node">
<title>Node5</title>
<g id="a_Node000005"><a xlink:href="struct_mercury_messaging_1_1_h_s_b_color.html" target="_top" xlink:title="From: http://wiki.unity3d.com/index.php?title=HSBColor.">
<polygon fill="white" stroke="#666666" points="276,-19 131,-19 131,0 276,0 276,-19"/>
<text text-anchor="middle" x="203.5" y="-7" font-family="Helvetica,sans-Serif" font-size="10.00">MercuryMessaging.HSBColor</text>
</a>
</g>
</g>
<!-- Node5&#45;&gt;Node1 -->
<g id="edge4_Node000001_Node000005" class="edge">
<title>Node5&#45;&gt;Node1</title>
<g id="a_edge4_Node000001_Node000005"><a xlink:title=" ">
<path fill="none" stroke="#9a32cd" stroke-dasharray="5,2" d="M286.68,-7.51C317.64,-8.58 352.88,-12.01 384,-20.5 412.2,-28.2 441.69,-44.38 461.27,-56.47"/>
<polygon fill="#9a32cd" stroke="#9a32cd" points="286.44,-4 276.35,-7.23 286.26,-11 286.44,-4"/>
</a>
</g>
<text text-anchor="start" x="308.5" y="-56" font-family="Helvetica,sans-Serif" font-size="10.00" fill="grey">hsbValueBegin</text>
<text text-anchor="start" x="308.5" y="-41" font-family="Helvetica,sans-Serif" font-size="10.00" fill="grey">hsbValueCurrent</text>
<text text-anchor="start" x="308.5" y="-26" font-family="Helvetica,sans-Serif" font-size="10.00" fill="grey">hsbValueEnd</text>
</g>
</g>
</svg>
