<?xml version="1.0" encoding="UTF-8" standalone="no"?>
<!DOCTYPE svg PUBLIC "-//W3C//DTD SVG 1.1//EN"
 "http://www.w3.org/Graphics/SVG/1.1/DTD/svg11.dtd">
<!-- Generated by graphviz version 2.44.1 (20200629.0800)
 -->
<!-- Title: MercuryMessaging.Network.MmNetworkBridge Pages: 1 -->
<svg width="297pt" height="177pt"
 viewBox="0.00 0.00 297.00 177.00" xmlns="http://www.w3.org/2000/svg" xmlns:xlink="http://www.w3.org/1999/xlink">
<g id="graph0" class="graph" transform="scale(1 1) rotate(0) translate(4 173)">
<title>MercuryMessaging.Network.MmNetworkBridge</title>
<!-- Node1 -->
<g id="Node000001" class="node">
<title>Node1</title>
<g id="a_Node000001"><a xlink:title="Central orchestrator for MercuryMessaging network communication.">
<polygon fill="#999999" stroke="#666666" points="140,-30 0,-30 0,0 140,0 140,-30"/>
<text text-anchor="start" x="8" y="-18" font-family="Helvetica,sans-Serif" font-size="10.00">MercuryMessaging.Network.</text>
<text text-anchor="middle" x="70" y="-7" font-family="Helvetica,sans-Serif" font-size="10.00">MmNetworkBridge</text>
</a>
</g>
</g>
<!-- Node2 -->
<g id="Node000002" class="node">
<title>Node2</title>
<g id="a_Node000002"><a xlink:title=" ">
<polygon fill="white" stroke="#666666" points="107.5,-169 24.5,-169 24.5,-150 107.5,-150 107.5,-169"/>
<text text-anchor="middle" x="66" y="-157" font-family="Helvetica,sans-Serif" font-size="10.00">MonoBehaviour</text>
</a>
</g>
</g>
<!-- Node2&#45;&gt;Node1 -->
<g id="edge1_Node000001_Node000002" class="edge">
<title>Node2&#45;&gt;Node1</title>
<g id="a_edge1_Node000001_Node000002"><a xlink:title=" ">
<path fill="none" stroke="#63b8ff" d="M66.53,-139.54C67.35,-110.58 68.88,-55.99 69.6,-30.19"/>
<polygon fill="#63b8ff" stroke="#63b8ff" points="63.03,-139.49 66.25,-149.59 70.03,-139.69 63.03,-139.49"/>
</a>
</g>
</g>
<!-- Node3 -->
<g id="Node000003" class="node">
<title>Node3</title>
<g id="a_Node000003"><a xlink:href="class_mercury_messaging_1_1_network_1_1_mm_network_bridge.html" target="_top" xlink:title="Central orchestrator for MercuryMessaging network communication.">
<polygon fill="white" stroke="#666666" points="222,-113 82,-113 82,-83 222,-83 222,-113"/>
<text text-anchor="start" x="90" y="-101" font-family="Helvetica,sans-Serif" font-size="10.00">MercuryMessaging.Network.</text>
<text text-anchor="middle" x="152" y="-90" font-family="Helvetica,sans-Serif" font-size="10.00">MmNetworkBridge</text>
</a>
</g>
</g>
<!-- Node2&#45;&gt;Node3 -->
<g id="edge3_Node000003_Node000002" class="edge">
<title>Node2&#45;&gt;Node3</title>
<g id="a_edge3_Node000003_Node000002"><a xlink:title=" ">
<path fill="none" stroke="#63b8ff" d="M86.61,-144.24C100.28,-134.78 118.13,-122.43 131.73,-113.02"/>
<polygon fill="#63b8ff" stroke="#63b8ff" points="84.55,-141.41 78.32,-149.98 88.54,-147.16 84.55,-141.41"/>
</a>
</g>
</g>
<!-- Node3&#45;&gt;Node1 -->
<g id="edge2_Node000001_Node000003" class="edge">
<title>Node3&#45;&gt;Node1</title>
<g id="a_edge2_Node000001_Node000003"><a xlink:title=" ">
<path fill="none" stroke="#9a32cd" stroke-dasharray="5,2" d="M130.55,-75.82C116.01,-61.45 97.17,-42.84 84.39,-30.22"/>
<polygon fill="#9a32cd" stroke="#9a32cd" points="128.14,-78.35 137.72,-82.89 133.06,-73.37 128.14,-78.35"/>
</a>
</g>
<text text-anchor="start" x="121.5" y="-53.5" font-family="Helvetica,sans-Serif" font-size="10.00" fill="grey">_instance</text>
</g>
<!-- Node3&#45;&gt;Node3 -->
<g id="edge4_Node000003_Node000003" class="edge">
<title>Node3&#45;&gt;Node3</title>
<g id="a_edge4_Node000003_Node000003"><a xlink:title=" ">
<path fill="none" stroke="#9a32cd" stroke-dasharray="5,2" d="M232.08,-102.19C237.02,-101.2 240,-99.8 240,-98 240,-95.19 232.75,-93.36 222.07,-92.53"/>
<polygon fill="#9a32cd" stroke="#9a32cd" points="231.54,-98.73 222.07,-103.47 232.43,-105.67 231.54,-98.73"/>
</a>
</g>
<text text-anchor="start" x="243.5" y="-95" font-family="Helvetica,sans-Serif" font-size="10.00" fill="grey">_instance</text>
</g>
</g>
</svg>
