<?xml version="1.0" encoding="UTF-8" standalone="no"?>
<!DOCTYPE svg PUBLIC "-//W3C//DTD SVG 1.1//EN"
 "http://www.w3.org/Graphics/SVG/1.1/DTD/svg11.dtd">
<!-- Generated by graphviz version 2.44.1 (20200629.0800)
 -->
<!-- Title: MercuryMessaging.FsmConfigBuilder&lt; T &gt; Pages: 1 -->
<svg width="337pt" height="285pt"
 viewBox="0.00 0.00 337.00 285.00" xmlns="http://www.w3.org/2000/svg" xmlns:xlink="http://www.w3.org/1999/xlink">
<g id="graph0" class="graph" transform="scale(1 1) rotate(0) translate(4 281)">
<title>MercuryMessaging.FsmConfigBuilder&lt; T &gt;</title>
<!-- Node1 -->
<g id="Node000001" class="node">
<title>Node1</title>
<g id="a_Node000001"><a xlink:title="Fluent builder for configuring FiniteStateMachine event handlers.">
<polygon fill="#999999" stroke="#666666" points="261.5,-30 112.5,-30 112.5,0 261.5,0 261.5,-30"/>
<text text-anchor="start" x="120.5" y="-18" font-family="Helvetica,sans-Serif" font-size="10.00">MercuryMessaging.FsmConfig</text>
<text text-anchor="middle" x="187" y="-7" font-family="Helvetica,sans-Serif" font-size="10.00">Builder&lt; T &gt;</text>
</a>
</g>
</g>
<!-- Node2 -->
<g id="Node000002" class="node">
<title>Node2</title>
<g id="a_Node000002"><a xlink:href="class_mercury_messaging_1_1_finite_state_machine-1-g.html" target="_top" xlink:title="Finite State Machine, supporting generic types states.">
<polygon fill="white" stroke="#666666" points="261.5,-143 112.5,-143 112.5,-113 261.5,-113 261.5,-143"/>
<text text-anchor="start" x="120.5" y="-131" font-family="Helvetica,sans-Serif" font-size="10.00">MercuryMessaging.FiniteState</text>
<text text-anchor="middle" x="187" y="-120" font-family="Helvetica,sans-Serif" font-size="10.00">Machine&lt; T &gt;</text>
</a>
</g>
</g>
<!-- Node2&#45;&gt;Node1 -->
<g id="edge1_Node000001_Node000002" class="edge">
<title>Node2&#45;&gt;Node1</title>
<g id="a_edge1_Node000001_Node000002"><a xlink:title=" ">
<path fill="none" stroke="#9a32cd" stroke-dasharray="5,2" d="M187,-102.67C187,-80.52 187,-48.58 187,-30.29"/>
<polygon fill="#9a32cd" stroke="#9a32cd" points="183.5,-102.94 187,-112.94 190.5,-102.94 183.5,-102.94"/>
</a>
</g>
<text text-anchor="start" x="190.5" y="-83.5" font-family="Helvetica,sans-Serif" font-size="10.00" fill="grey">_fsm</text>
<text text-anchor="start" x="190.5" y="-68.5" font-family="Helvetica,sans-Serif" font-size="10.00" fill="grey">_globalEnter</text>
<text text-anchor="start" x="190.5" y="-53.5" font-family="Helvetica,sans-Serif" font-size="10.00" fill="grey">_globalExit</text>
</g>
<!-- Node3 -->
<g id="Node000003" class="node">
<title>Node3</title>
<g id="a_Node000003"><a xlink:href="class_mercury_messaging_1_1_keyed_list-2-g.html" target="_top" xlink:title=" ">
<polygon fill="white" stroke="#666666" points="183,-210 37,-210 37,-180 183,-180 183,-210"/>
<text text-anchor="start" x="45" y="-198" font-family="Helvetica,sans-Serif" font-size="10.00">MercuryMessaging.KeyedList</text>
<text text-anchor="middle" x="110" y="-187" font-family="Helvetica,sans-Serif" font-size="10.00">&lt; K, V &gt;</text>
</a>
</g>
</g>
<!-- Node3&#45;&gt;Node2 -->
<g id="edge2_Node000002_Node000003" class="edge">
<title>Node3&#45;&gt;Node2</title>
<g id="a_edge2_Node000002_Node000003"><a xlink:title=" ">
<path fill="none" stroke="#63b8ff" d="M134.42,-173.38C146.12,-163.51 159.84,-151.93 170.32,-143.08"/>
<polygon fill="#63b8ff" stroke="#63b8ff" points="132.09,-170.77 126.71,-179.9 136.61,-176.12 132.09,-170.77"/>
</a>
</g>
</g>
<!-- Node4 -->
<g id="Node000004" class="node">
<title>Node4</title>
<g id="a_Node000004"><a xlink:title=" ">
<polygon fill="white" stroke="#666666" points="100,-271.5 0,-271.5 0,-252.5 100,-252.5 100,-271.5"/>
<text text-anchor="middle" x="50" y="-259.5" font-family="Helvetica,sans-Serif" font-size="10.00">IDictionary&lt; K, V &gt;</text>
</a>
</g>
</g>
<!-- Node4&#45;&gt;Node3 -->
<g id="edge3_Node000003_Node000004" class="edge">
<title>Node4&#45;&gt;Node3</title>
<g id="a_edge3_Node000003_Node000004"><a xlink:title=" ">
<path fill="none" stroke="#63b8ff" d="M64.95,-244.8C74.8,-234.13 87.57,-220.3 96.99,-210.09"/>
<polygon fill="#63b8ff" stroke="#63b8ff" points="62.3,-242.51 58.09,-252.23 67.45,-247.26 62.3,-242.51"/>
</a>
</g>
</g>
<!-- Node5 -->
<g id="Node000005" class="node">
<title>Node5</title>
<g id="a_Node000005"><a xlink:title=" ">
<polygon fill="white" stroke="#666666" points="221.5,-277 118.5,-277 118.5,-247 221.5,-247 221.5,-277"/>
<text text-anchor="start" x="126.5" y="-265" font-family="Helvetica,sans-Serif" font-size="10.00">IList&lt; KeyValuePair</text>
<text text-anchor="middle" x="170" y="-254" font-family="Helvetica,sans-Serif" font-size="10.00">&lt; K, V &gt; &gt;</text>
</a>
</g>
</g>
<!-- Node5&#45;&gt;Node3 -->
<g id="edge4_Node000003_Node000005" class="edge">
<title>Node5&#45;&gt;Node3</title>
<g id="a_edge4_Node000003_Node000005"><a xlink:title=" ">
<path fill="none" stroke="#63b8ff" d="M150.18,-239.52C141.24,-229.84 130.93,-218.67 122.99,-210.08"/>
<polygon fill="#63b8ff" stroke="#63b8ff" points="147.63,-241.92 156.98,-246.9 152.77,-237.17 147.63,-241.92"/>
</a>
</g>
</g>
<!-- Node6 -->
<g id="Node000006" class="node">
<title>Node6</title>
<g id="a_Node000006"><a xlink:href="interface_mercury_messaging_1_1_i_finite_state_machine-1-g.html" target="_top" xlink:title="Defines required methods for a Finite State Machine.">
<polygon fill="white" stroke="#666666" points="329,-210 201,-210 201,-180 329,-180 329,-210"/>
<text text-anchor="start" x="209" y="-198" font-family="Helvetica,sans-Serif" font-size="10.00">MercuryMessaging.IFinite</text>
<text text-anchor="middle" x="265" y="-187" font-family="Helvetica,sans-Serif" font-size="10.00">StateMachine&lt; T &gt;</text>
</a>
</g>
</g>
<!-- Node6&#45;&gt;Node2 -->
<g id="edge5_Node000002_Node000006" class="edge">
<title>Node6&#45;&gt;Node2</title>
<g id="a_edge5_Node000002_Node000006"><a xlink:title=" ">
<path fill="none" stroke="#63b8ff" d="M240.26,-173.38C228.41,-163.51 214.52,-151.93 203.89,-143.08"/>
<polygon fill="#63b8ff" stroke="#63b8ff" points="238.15,-176.18 248.08,-179.9 242.63,-170.81 238.15,-176.18"/>
</a>
</g>
</g>
</g>
</svg>
