<?xml version="1.0" encoding="UTF-8" standalone="no"?>
<!DOCTYPE svg PUBLIC "-//W3C//DTD SVG 1.1//EN"
 "http://www.w3.org/Graphics/SVG/1.1/DTD/svg11.dtd">
<!-- Generated by graphviz version 2.44.1 (20200629.0800)
 -->
<!-- Title: MercuryMessaging.StandardLibrary.Input.MmInput6DOFMessage Pages: 1 -->
<svg width="184pt" height="260pt"
 viewBox="0.00 0.00 184.00 260.00" xmlns="http://www.w3.org/2000/svg" xmlns:xlink="http://www.w3.org/1999/xlink">
<g id="graph0" class="graph" transform="scale(1 1) rotate(0) translate(4 256)">
<title>MercuryMessaging.StandardLibrary.Input.MmInput6DOFMessage</title>
<!-- Node1 -->
<g id="Node000001" class="node">
<title>Node1</title>
<g id="a_Node000001"><a xlink:title="6DOF (Six Degrees of Freedom) input message.">
<polygon fill="#999999" stroke="#666666" points="176,-30 0,-30 0,0 176,0 176,-30"/>
<text text-anchor="start" x="8" y="-18" font-family="Helvetica,sans-Serif" font-size="10.00">MercuryMessaging.Standard</text>
<text text-anchor="middle" x="88" y="-7" font-family="Helvetica,sans-Serif" font-size="10.00">Library.Input.MmInput6DOFMessage</text>
</a>
</g>
</g>
<!-- Node2 -->
<g id="Node000002" class="node">
<title>Node2</title>
<g id="a_Node000002"><a xlink:href="class_mercury_messaging_1_1_mm_message.html" target="_top" xlink:title="Base class for messages passed through MmInvoke.">
<polygon fill="white" stroke="#666666" points="167,-86 9,-86 9,-67 167,-67 167,-86"/>
<text text-anchor="middle" x="88" y="-74" font-family="Helvetica,sans-Serif" font-size="10.00">MercuryMessaging.MmMessage</text>
</a>
</g>
</g>
<!-- Node2&#45;&gt;Node1 -->
<g id="edge1_Node000001_Node000002" class="edge">
<title>Node2&#45;&gt;Node1</title>
<g id="a_edge1_Node000001_Node000002"><a xlink:title=" ">
<path fill="none" stroke="#63b8ff" d="M88,-56.73C88,-48.09 88,-38 88,-30.02"/>
<polygon fill="#63b8ff" stroke="#63b8ff" points="84.5,-56.98 88,-66.98 91.5,-56.98 84.5,-56.98"/>
</a>
</g>
</g>
<!-- Node3 -->
<g id="Node000003" class="node">
<title>Node3</title>
<g id="a_Node000003"><a xlink:href="class_mercury_messaging_1_1_mm_metadata_block.html" target="_top" xlink:title="MmMetadataBlock is a collection of settings allowing you to specify the precise invocation path of an...">
<polygon fill="white" stroke="#666666" points="167.5,-169 8.5,-169 8.5,-139 167.5,-139 167.5,-169"/>
<text text-anchor="start" x="16.5" y="-157" font-family="Helvetica,sans-Serif" font-size="10.00">MercuryMessaging.MmMetadata</text>
<text text-anchor="middle" x="88" y="-146" font-family="Helvetica,sans-Serif" font-size="10.00">Block</text>
</a>
</g>
</g>
<!-- Node3&#45;&gt;Node2 -->
<g id="edge2_Node000002_Node000003" class="edge">
<title>Node3&#45;&gt;Node2</title>
<g id="a_edge2_Node000002_Node000003"><a xlink:title=" ">
<path fill="none" stroke="#9a32cd" stroke-dasharray="5,2" d="M88,-128.4C88,-113.81 88,-96.22 88,-86.01"/>
<polygon fill="#9a32cd" stroke="#9a32cd" points="84.5,-128.8 88,-138.8 91.5,-128.8 84.5,-128.8"/>
</a>
</g>
<text text-anchor="start" x="91" y="-109.5" font-family="Helvetica,sans-Serif" font-size="10.00" fill="grey">MetadataBlock</text>
</g>
<!-- Node4 -->
<g id="Node000004" class="node">
<title>Node4</title>
<g id="a_Node000004"><a xlink:href="class_mercury_messaging_1_1_mm_routing_options.html" target="_top" xlink:title="Configuration options for advanced message routing behavior.">
<polygon fill="white" stroke="#666666" points="164,-252 12,-252 12,-222 164,-222 164,-252"/>
<text text-anchor="start" x="20" y="-240" font-family="Helvetica,sans-Serif" font-size="10.00">MercuryMessaging.MmRouting</text>
<text text-anchor="middle" x="88" y="-229" font-family="Helvetica,sans-Serif" font-size="10.00">Options</text>
</a>
</g>
</g>
<!-- Node4&#45;&gt;Node3 -->
<g id="edge3_Node000003_Node000004" class="edge">
<title>Node4&#45;&gt;Node3</title>
<g id="a_edge3_Node000003_Node000004"><a xlink:title=" ">
<path fill="none" stroke="#9a32cd" stroke-dasharray="5,2" d="M88,-211.59C88,-197.75 88,-180.91 88,-169.22"/>
<polygon fill="#9a32cd" stroke="#9a32cd" points="84.5,-211.89 88,-221.89 91.5,-211.89 84.5,-211.89"/>
</a>
</g>
<text text-anchor="start" x="91" y="-192.5" font-family="Helvetica,sans-Serif" font-size="10.00" fill="grey">Options</text>
</g>
</g>
</svg>
