<?xml version="1.0" encoding="UTF-8" standalone="no"?>
<!DOCTYPE svg PUBLIC "-//W3C//DTD SVG 1.1//EN"
 "http://www.w3.org/Graphics/SVG/1.1/DTD/svg11.dtd">
<!-- Generated by graphviz version 2.44.1 (20200629.0800)
 -->
<!-- Title: MercuryMessaging.MmRoutingTableItem Pages: 1 -->
<svg width="276pt" height="166pt"
 viewBox="0.00 0.00 276.00 166.00" xmlns="http://www.w3.org/2000/svg" xmlns:xlink="http://www.w3.org/1999/xlink">
<g id="graph0" class="graph" transform="scale(1 1) rotate(0) translate(4 162)">
<title>MercuryMessaging.MmRoutingTableItem</title>
<!-- Node1 -->
<g id="Node000001" class="node">
<title>Node1</title>
<g id="a_Node000001"><a xlink:title="Wrapper objects for MmResponders for use in MmRoutingTables.">
<polygon fill="#999999" stroke="#666666" points="188.5,-30 36.5,-30 36.5,0 188.5,0 188.5,-30"/>
<text text-anchor="start" x="44.5" y="-18" font-family="Helvetica,sans-Serif" font-size="10.00">MercuryMessaging.MmRouting</text>
<text text-anchor="middle" x="112.5" y="-7" font-family="Helvetica,sans-Serif" font-size="10.00">TableItem</text>
</a>
</g>
</g>
<!-- Node2 -->
<g id="Node000002" class="node">
<title>Node2</title>
<g id="a_Node000002"><a xlink:href="class_mercury_messaging_1_1_mm_responder.html" target="_top" xlink:title="Base implmentation of IMmResponder.">
<polygon fill="white" stroke="#666666" points="195,-102 30,-102 30,-83 195,-83 195,-102"/>
<text text-anchor="middle" x="112.5" y="-90" font-family="Helvetica,sans-Serif" font-size="10.00">MercuryMessaging.MmResponder</text>
</a>
</g>
</g>
<!-- Node2&#45;&gt;Node1 -->
<g id="edge1_Node000001_Node000002" class="edge">
<title>Node2&#45;&gt;Node1</title>
<g id="a_edge1_Node000001_Node000002"><a xlink:title=" ">
<path fill="none" stroke="#9a32cd" stroke-dasharray="5,2" d="M112.5,-72.57C112.5,-59.43 112.5,-42.18 112.5,-30.21"/>
<polygon fill="#9a32cd" stroke="#9a32cd" points="109,-72.84 112.5,-82.84 116,-72.84 109,-72.84"/>
</a>
</g>
<text text-anchor="start" x="116" y="-53.5" font-family="Helvetica,sans-Serif" font-size="10.00" fill="grey">Responder</text>
</g>
<!-- Node3 -->
<g id="Node000003" class="node">
<title>Node3</title>
<g id="a_Node000003"><a xlink:title=" ">
<polygon fill="white" stroke="#666666" points="83,-158 0,-158 0,-139 83,-139 83,-158"/>
<text text-anchor="middle" x="41.5" y="-146" font-family="Helvetica,sans-Serif" font-size="10.00">MonoBehaviour</text>
</a>
</g>
</g>
<!-- Node3&#45;&gt;Node2 -->
<g id="edge2_Node000002_Node000003" class="edge">
<title>Node3&#45;&gt;Node2</title>
<g id="a_edge2_Node000002_Node000003"><a xlink:title=" ">
<path fill="none" stroke="#63b8ff" d="M61.09,-132.6C73.87,-122.88 90.11,-110.53 100.89,-102.33"/>
<polygon fill="#63b8ff" stroke="#63b8ff" points="58.75,-129.98 52.91,-138.82 62.99,-135.56 58.75,-129.98"/>
</a>
</g>
</g>
<!-- Node4 -->
<g id="Node000004" class="node">
<title>Node4</title>
<g id="a_Node000004"><a xlink:href="interface_mercury_messaging_1_1_i_mm_responder.html" target="_top" xlink:title="The core of MercuryMessaging.">
<polygon fill="white" stroke="#666666" points="268,-158 101,-158 101,-139 268,-139 268,-158"/>
<text text-anchor="middle" x="184.5" y="-146" font-family="Helvetica,sans-Serif" font-size="10.00">MercuryMessaging.IMmResponder</text>
</a>
</g>
</g>
<!-- Node4&#45;&gt;Node2 -->
<g id="edge3_Node000002_Node000004" class="edge">
<title>Node4&#45;&gt;Node2</title>
<g id="a_edge3_Node000002_Node000004"><a xlink:title=" ">
<path fill="none" stroke="#63b8ff" d="M164.63,-132.6C151.68,-122.88 135.2,-110.53 124.28,-102.33"/>
<polygon fill="#63b8ff" stroke="#63b8ff" points="162.83,-135.62 172.93,-138.82 167.03,-130.02 162.83,-135.62"/>
</a>
</g>
</g>
</g>
</svg>
