<?xml version="1.0" encoding="UTF-8" standalone="no"?>
<!DOCTYPE svg PUBLIC "-//W3C//DTD SVG 1.1//EN"
 "http://www.w3.org/Graphics/SVG/1.1/DTD/svg11.dtd">
<!-- Generated by graphviz version 2.44.1 (20200629.0800)
 -->
<!-- Title: Graphical Class Hierarchy Pages: 1 -->
<svg width="455pt" height="182pt"
 viewBox="0.00 0.00 455.00 182.00" xmlns="http://www.w3.org/2000/svg" xmlns:xlink="http://www.w3.org/1999/xlink">
<g id="graph0" class="graph" transform="scale(1 1) rotate(0) translate(4 178)">
<title>Graphical Class Hierarchy</title>
<!-- Node0 -->
<g id="Node000000" class="node">
<title>Node0</title>
<g id="a_Node000000"><a xlink:title=" ">
<polygon fill="#e0e0e0" stroke="#999999" points="67,-96.5 0,-96.5 0,-77.5 67,-77.5 67,-96.5"/>
<text text-anchor="middle" x="33.5" y="-84.5" font-family="Helvetica,sans-Serif" font-size="10.00">IDisposable</text>
</a>
</g>
</g>
<!-- Node1 -->
<g id="Node000001" class="node">
<title>Node1</title>
<g id="a_Node000001"><a xlink:href="interface_mercury_messaging_1_1_i_mm_listener_subscription.html" target="_top" xlink:title="Non&#45;generic base interface for listener subscriptions.">
<polygon fill="white" stroke="#666666" points="258,-174 103,-174 103,-144 258,-144 258,-174"/>
<text text-anchor="start" x="111" y="-162" font-family="Helvetica,sans-Serif" font-size="10.00">MercuryMessaging.IMmListener</text>
<text text-anchor="middle" x="180.5" y="-151" font-family="Helvetica,sans-Serif" font-size="10.00">Subscription</text>
</a>
</g>
</g>
<!-- Node0&#45;&gt;Node1 -->
<g id="edge9_Node000000_Node000001" class="edge">
<title>Node0&#45;&gt;Node1</title>
<g id="a_edge9_Node000000_Node000001"><a xlink:title=" ">
<path fill="none" stroke="#63b8ff" d="M53.81,-102.96C67.01,-113.24 85.26,-126.26 103,-135 109.74,-138.32 117.05,-141.31 124.37,-143.96"/>
<polygon fill="#63b8ff" stroke="#63b8ff" points="55.93,-100.17 45.93,-96.68 51.57,-105.65 55.93,-100.17"/>
</a>
</g>
</g>
<!-- Node3 -->
<g id="Node000003" class="node">
<title>Node3</title>
<g id="a_Node000003"><a xlink:href="class_mercury_messaging_1_1_mm_listener_subscription-1-g.html" target="_top" xlink:title="Represents an active message listener subscription.">
<polygon fill="white" stroke="#666666" points="257,-126 104,-126 104,-96 257,-96 257,-126"/>
<text text-anchor="start" x="112" y="-114" font-family="Helvetica,sans-Serif" font-size="10.00">MercuryMessaging.MmListener</text>
<text text-anchor="middle" x="180.5" y="-103" font-family="Helvetica,sans-Serif" font-size="10.00">Subscription&lt; T &gt;</text>
</a>
</g>
</g>
<!-- Node0&#45;&gt;Node3 -->
<g id="edge11_Node000000_Node000003" class="edge">
<title>Node0&#45;&gt;Node3</title>
<g id="a_edge11_Node000000_Node000003"><a xlink:title=" ">
<path fill="none" stroke="#63b8ff" d="M77.01,-94.04C85.48,-95.44 94.62,-96.95 103.82,-98.47"/>
<polygon fill="#63b8ff" stroke="#63b8ff" points="77.48,-90.57 67.04,-92.39 76.34,-97.47 77.48,-90.57"/>
</a>
</g>
</g>
<!-- Node4 -->
<g id="Node000004" class="node">
<title>Node4</title>
<g id="a_Node000004"><a xlink:href="struct_mercury_messaging_1_1_network_1_1_mm_byte_array_pool_1_1_scoped_array.html" target="_top" xlink:title="Scoped array that returns to pool on dispose.">
<polygon fill="white" stroke="#666666" points="258,-78 103,-78 103,-48 258,-48 258,-78"/>
<text text-anchor="start" x="111" y="-66" font-family="Helvetica,sans-Serif" font-size="10.00">MercuryMessaging.Network.</text>
<text text-anchor="middle" x="180.5" y="-55" font-family="Helvetica,sans-Serif" font-size="10.00">MmByteArrayPool.ScopedArray</text>
</a>
</g>
</g>
<!-- Node0&#45;&gt;Node4 -->
<g id="edge12_Node000000_Node000004" class="edge">
<title>Node0&#45;&gt;Node4</title>
<g id="a_edge12_Node000000_Node000004"><a xlink:title=" ">
<path fill="none" stroke="#63b8ff" d="M77.05,-79.96C85.24,-78.6 94.05,-77.14 102.94,-75.67"/>
<polygon fill="#63b8ff" stroke="#63b8ff" points="76.34,-76.53 67.04,-81.61 77.48,-83.43 76.34,-76.53"/>
</a>
</g>
</g>
<!-- Node5 -->
<g id="Node000005" class="node">
<title>Node5</title>
<g id="a_Node000005"><a xlink:href="class_mercury_messaging_1_1_network_1_1_mm_writer.html" target="_top" xlink:title="High&#45;performance binary writer that uses ArrayPool for zero&#45;allocation serialization.">
<polygon fill="white" stroke="#666666" points="250.5,-30 110.5,-30 110.5,0 250.5,0 250.5,-30"/>
<text text-anchor="start" x="118.5" y="-18" font-family="Helvetica,sans-Serif" font-size="10.00">MercuryMessaging.Network.</text>
<text text-anchor="middle" x="180.5" y="-7" font-family="Helvetica,sans-Serif" font-size="10.00">MmWriter</text>
</a>
</g>
</g>
<!-- Node0&#45;&gt;Node5 -->
<g id="edge13_Node000000_Node000005" class="edge">
<title>Node0&#45;&gt;Node5</title>
<g id="a_edge13_Node000000_Node000005"><a xlink:title=" ">
<path fill="none" stroke="#63b8ff" d="M53.81,-71.04C67.01,-60.76 85.26,-47.74 103,-39 109.74,-35.68 117.05,-32.69 124.37,-30.04"/>
<polygon fill="#63b8ff" stroke="#63b8ff" points="51.57,-68.35 45.93,-77.32 55.93,-73.83 51.57,-68.35"/>
</a>
</g>
</g>
<!-- Node2 -->
<g id="Node000002" class="node">
<title>Node2</title>
<g id="a_Node000002"><a xlink:href="class_mercury_messaging_1_1_mm_listener_subscription_impl-1-g.html" target="_top" xlink:title="Generic listener subscription that implements the interface.">
<polygon fill="white" stroke="#666666" points="447,-174 294,-174 294,-144 447,-144 447,-174"/>
<text text-anchor="start" x="302" y="-162" font-family="Helvetica,sans-Serif" font-size="10.00">MercuryMessaging.MmListener</text>
<text text-anchor="middle" x="370.5" y="-151" font-family="Helvetica,sans-Serif" font-size="10.00">SubscriptionImpl&lt; T &gt;</text>
</a>
</g>
</g>
<!-- Node1&#45;&gt;Node2 -->
<g id="edge10_Node000001_Node000002" class="edge">
<title>Node1&#45;&gt;Node2</title>
<g id="a_edge10_Node000001_Node000002"><a xlink:title=" ">
<path fill="none" stroke="#63b8ff" d="M268.25,-159C276.82,-159 285.47,-159 293.92,-159"/>
<polygon fill="#63b8ff" stroke="#63b8ff" points="268.24,-155.5 258.24,-159 268.24,-162.5 268.24,-155.5"/>
</a>
</g>
</g>
</g>
</svg>
