<?xml version="1.0" encoding="UTF-8" standalone="no"?>
<!DOCTYPE svg PUBLIC "-//W3C//DTD SVG 1.1//EN"
 "http://www.w3.org/Graphics/SVG/1.1/DTD/svg11.dtd">
<!-- Generated by graphviz version 2.44.1 (20200629.0800)
 -->
<!-- Title: Graphical Class Hierarchy Pages: 1 -->
<svg width="421pt" height="38pt"
 viewBox="0.00 0.00 421.00 38.00" xmlns="http://www.w3.org/2000/svg" xmlns:xlink="http://www.w3.org/1999/xlink">
<g id="graph0" class="graph" transform="scale(1 1) rotate(0) translate(4 34)">
<title>Graphical Class Hierarchy</title>
<!-- Node0 -->
<g id="Node000000" class="node">
<title>Node0</title>
<g id="a_Node000000"><a xlink:title=" ">
<polygon fill="#e0e0e0" stroke="#999999" points="35,-24.5 0,-24.5 0,-5.5 35,-5.5 35,-24.5"/>
<text text-anchor="middle" x="17.5" y="-12.5" font-family="Helvetica,sans-Serif" font-size="10.00">IList</text>
</a>
</g>
</g>
<!-- Node1 -->
<g id="Node000001" class="node">
<title>Node1</title>
<g id="a_Node000001"><a xlink:href="class_mercury_messaging_1_1_reorderable_list-1-g.html" target="_top" xlink:title=" ">
<polygon fill="white" stroke="#666666" points="225,-30 71,-30 71,0 225,0 225,-30"/>
<text text-anchor="start" x="79" y="-18" font-family="Helvetica,sans-Serif" font-size="10.00">MercuryMessaging.Reorderable</text>
<text text-anchor="middle" x="148" y="-7" font-family="Helvetica,sans-Serif" font-size="10.00">List&lt; T &gt;</text>
</a>
</g>
</g>
<!-- Node0&#45;&gt;Node1 -->
<g id="edge15_Node000000_Node000001" class="edge">
<title>Node0&#45;&gt;Node1</title>
<g id="a_edge15_Node000000_Node000001"><a xlink:title=" ">
<path fill="none" stroke="#63b8ff" d="M45.13,-15C52.86,-15 61.71,-15 70.89,-15"/>
<polygon fill="#63b8ff" stroke="#63b8ff" points="45.04,-11.5 35.04,-15 45.04,-18.5 45.04,-11.5"/>
</a>
</g>
</g>
<!-- Node2 -->
<g id="Node000002" class="node">
<title>Node2</title>
<g id="a_Node000002"><a xlink:href="class_mercury_messaging_1_1_mm_routing_table.html" target="_top" xlink:title="A form of Reorderable List ReorderableList&lt;T&gt; specifically for all derivations of MmResponder.">
<polygon fill="white" stroke="#666666" points="413,-30 261,-30 261,0 413,0 413,-30"/>
<text text-anchor="start" x="269" y="-18" font-family="Helvetica,sans-Serif" font-size="10.00">MercuryMessaging.MmRouting</text>
<text text-anchor="middle" x="337" y="-7" font-family="Helvetica,sans-Serif" font-size="10.00">Table</text>
</a>
</g>
</g>
<!-- Node1&#45;&gt;Node2 -->
<g id="edge16_Node000001_Node000002" class="edge">
<title>Node1&#45;&gt;Node2</title>
<g id="a_edge16_Node000001_Node000002"><a xlink:title=" ">
<path fill="none" stroke="#63b8ff" d="M235.12,-15C243.73,-15 252.43,-15 260.92,-15"/>
<polygon fill="#63b8ff" stroke="#63b8ff" points="235.06,-11.5 225.06,-15 235.06,-18.5 235.06,-11.5"/>
</a>
</g>
</g>
</g>
</svg>
