<?xml version="1.0" encoding="UTF-8" standalone="no"?>
<!DOCTYPE svg PUBLIC "-//W3C//DTD SVG 1.1//EN"
 "http://www.w3.org/Graphics/SVG/1.1/DTD/svg11.dtd">
<!-- Generated by graphviz version 2.44.1 (20200629.0800)
 -->
<!-- Title: Graphical Class Hierarchy Pages: 1 -->
<svg width="255pt" height="86pt"
 viewBox="0.00 0.00 255.00 86.00" xmlns="http://www.w3.org/2000/svg" xmlns:xlink="http://www.w3.org/1999/xlink">
<g id="graph0" class="graph" transform="scale(1 1) rotate(0) translate(4 82)">
<title>Graphical Class Hierarchy</title>
<!-- Node0 -->
<g id="Node000000" class="node">
<title>Node0</title>
<g id="a_Node000000"><a xlink:title=" ">
<polygon fill="#e0e0e0" stroke="#999999" points="53,-48.5 0,-48.5 0,-29.5 53,-29.5 53,-48.5"/>
<text text-anchor="middle" x="26.5" y="-36.5" font-family="Helvetica,sans-Serif" font-size="10.00">Attribute</text>
</a>
</g>
</g>
<!-- Node1 -->
<g id="Node000001" class="node">
<title>Node1</title>
<g id="a_Node000001"><a xlink:href="class_mercury_messaging_1_1_mm_generate_dispatch_attribute.html" target="_top" xlink:title="Marks a responder class for automatic dispatch code generation.">
<polygon fill="white" stroke="#666666" points="247,-78 89,-78 89,-48 247,-48 247,-78"/>
<text text-anchor="start" x="97" y="-66" font-family="Helvetica,sans-Serif" font-size="10.00">MercuryMessaging.MmGenerate</text>
<text text-anchor="middle" x="168" y="-55" font-family="Helvetica,sans-Serif" font-size="10.00">DispatchAttribute</text>
</a>
</g>
</g>
<!-- Node0&#45;&gt;Node1 -->
<g id="edge1_Node000000_Node000001" class="edge">
<title>Node0&#45;&gt;Node1</title>
<g id="a_edge1_Node000000_Node000001"><a xlink:title=" ">
<path fill="none" stroke="#63b8ff" d="M63.06,-45.12C71.04,-46.49 79.8,-48 88.76,-49.54"/>
<polygon fill="#63b8ff" stroke="#63b8ff" points="63.54,-41.65 53.09,-43.4 62.35,-48.55 63.54,-41.65"/>
</a>
</g>
</g>
<!-- Node2 -->
<g id="Node000002" class="node">
<title>Node2</title>
<g id="a_Node000002"><a xlink:href="class_mercury_messaging_1_1_mm_handler_attribute.html" target="_top" xlink:title="Marks a method as a handler for a specific custom MmMethod value.">
<polygon fill="white" stroke="#666666" points="244,-30 92,-30 92,0 244,0 244,-30"/>
<text text-anchor="start" x="100" y="-18" font-family="Helvetica,sans-Serif" font-size="10.00">MercuryMessaging.MmHandler</text>
<text text-anchor="middle" x="168" y="-7" font-family="Helvetica,sans-Serif" font-size="10.00">Attribute</text>
</a>
</g>
</g>
<!-- Node0&#45;&gt;Node2 -->
<g id="edge2_Node000000_Node000002" class="edge">
<title>Node0&#45;&gt;Node2</title>
<g id="a_edge2_Node000000_Node000002"><a xlink:title=" ">
<path fill="none" stroke="#63b8ff" d="M63,-32.89C71.86,-31.37 81.71,-29.67 91.72,-27.95"/>
<polygon fill="#63b8ff" stroke="#63b8ff" points="62.35,-29.45 53.09,-34.6 63.54,-36.35 62.35,-29.45"/>
</a>
</g>
</g>
</g>
</svg>
