<?xml version="1.0" encoding="UTF-8" standalone="no"?>
<!DOCTYPE svg PUBLIC "-//W3C//DTD SVG 1.1//EN"
 "http://www.w3.org/Graphics/SVG/1.1/DTD/svg11.dtd">
<!-- Generated by graphviz version 2.44.1 (20200629.0800)
 -->
<!-- Title: Graphical Class Hierarchy Pages: 1 -->
<svg width="690pt" height="86pt"
 viewBox="0.00 0.00 690.00 86.00" xmlns="http://www.w3.org/2000/svg" xmlns:xlink="http://www.w3.org/1999/xlink">
<g id="graph0" class="graph" transform="scale(1 1) rotate(0) translate(4 82)">
<title>Graphical Class Hierarchy</title>
<!-- Node0 -->
<g id="Node000000" class="node">
<title>Node0</title>
<g id="a_Node000000"><a xlink:href="interface_mercury_messaging_1_1_task_1_1_i_mm_serializable.html" target="_top" xlink:title="Interface defining serializable structure to be used in IMmMessages.">
<polygon fill="white" stroke="#666666" points="145,-30 0,-30 0,0 145,0 145,-30"/>
<text text-anchor="start" x="8" y="-18" font-family="Helvetica,sans-Serif" font-size="10.00">MercuryMessaging.Task.IMm</text>
<text text-anchor="middle" x="72.5" y="-7" font-family="Helvetica,sans-Serif" font-size="10.00">Serializable</text>
</a>
</g>
</g>
<!-- Node1 -->
<g id="Node000001" class="node">
<title>Node1</title>
<g id="a_Node000001"><a xlink:href="class_mercury_messaging_1_1_task_1_1_mm_task_info.html" target="_top" xlink:title="MmTaskInfo contains basic information for tasks in the Mercury environment.">
<polygon fill="white" stroke="#666666" points="324,-78 181,-78 181,-48 324,-48 324,-78"/>
<text text-anchor="start" x="189" y="-66" font-family="Helvetica,sans-Serif" font-size="10.00">MercuryMessaging.Task.Mm</text>
<text text-anchor="middle" x="252.5" y="-55" font-family="Helvetica,sans-Serif" font-size="10.00">TaskInfo</text>
</a>
</g>
</g>
<!-- Node0&#45;&gt;Node1 -->
<g id="edge104_Node000000_Node000001" class="edge">
<title>Node0&#45;&gt;Node1</title>
<g id="a_edge104_Node000000_Node000001"><a xlink:title=" ">
<path fill="none" stroke="#63b8ff" d="M139.21,-32.72C157.83,-37.74 177.91,-43.15 195.87,-48"/>
<polygon fill="#63b8ff" stroke="#63b8ff" points="139.9,-29.28 129.33,-30.06 138.08,-36.04 139.9,-29.28"/>
</a>
</g>
</g>
<!-- Node5 -->
<g id="Node000005" class="node">
<title>Node5</title>
<g id="a_Node000005"><a xlink:href="class_mercury_messaging_1_1_task_1_1_mm_transform_task_threshold.html" target="_top" xlink:title="This class contains transformation threshold information for MmTransformationTaskInfos.">
<polygon fill="white" stroke="#666666" points="324,-30 181,-30 181,0 324,0 324,-30"/>
<text text-anchor="start" x="189" y="-18" font-family="Helvetica,sans-Serif" font-size="10.00">MercuryMessaging.Task.Mm</text>
<text text-anchor="middle" x="252.5" y="-7" font-family="Helvetica,sans-Serif" font-size="10.00">TransformTaskThreshold</text>
</a>
</g>
</g>
<!-- Node0&#45;&gt;Node5 -->
<g id="edge107_Node000000_Node000005" class="edge">
<title>Node0&#45;&gt;Node5</title>
<g id="a_edge107_Node000000_Node000005"><a xlink:title=" ">
<path fill="none" stroke="#63b8ff" d="M155.16,-15C163.75,-15 172.43,-15 180.89,-15"/>
<polygon fill="#63b8ff" stroke="#63b8ff" points="155.13,-11.5 145.13,-15 155.13,-18.5 155.13,-11.5"/>
</a>
</g>
</g>
<!-- Node2 -->
<g id="Node000002" class="node">
<title>Node2</title>
<g id="a_Node000002"><a xlink:href="class_mercury_messaging_1_1_task_1_1_mm_transformation_task_info.html" target="_top" xlink:title="A task info that supports tasks requiring 3D transformations meet particular requirements.">
<polygon fill="white" stroke="#666666" points="503,-78 360,-78 360,-48 503,-48 503,-78"/>
<text text-anchor="start" x="368" y="-66" font-family="Helvetica,sans-Serif" font-size="10.00">MercuryMessaging.Task.Mm</text>
<text text-anchor="middle" x="431.5" y="-55" font-family="Helvetica,sans-Serif" font-size="10.00">TransformationTaskInfo</text>
</a>
</g>
</g>
<!-- Node1&#45;&gt;Node2 -->
<g id="edge105_Node000001_Node000002" class="edge">
<title>Node1&#45;&gt;Node2</title>
<g id="a_edge105_Node000001_Node000002"><a xlink:title=" ">
<path fill="none" stroke="#63b8ff" d="M334.49,-63C342.97,-63 351.54,-63 359.89,-63"/>
<polygon fill="#63b8ff" stroke="#63b8ff" points="334.22,-59.5 324.22,-63 334.22,-66.5 334.22,-59.5"/>
</a>
</g>
</g>
<!-- Node3 -->
<g id="Node000003" class="node">
<title>Node3</title>
<g id="a_Node000003"><a xlink:href="class_mercury_messaging_1_1_task_1_1_mm_look_at_task_info.html" target="_top" xlink:title=" ">
<polygon fill="white" stroke="#666666" points="682,-78 539,-78 539,-48 682,-48 682,-78"/>
<text text-anchor="start" x="547" y="-66" font-family="Helvetica,sans-Serif" font-size="10.00">MercuryMessaging.Task.Mm</text>
<text text-anchor="middle" x="610.5" y="-55" font-family="Helvetica,sans-Serif" font-size="10.00">LookAtTaskInfo</text>
</a>
</g>
</g>
<!-- Node2&#45;&gt;Node3 -->
<g id="edge106_Node000002_Node000003" class="edge">
<title>Node2&#45;&gt;Node3</title>
<g id="a_edge106_Node000002_Node000003"><a xlink:title=" ">
<path fill="none" stroke="#63b8ff" d="M513.49,-63C521.97,-63 530.54,-63 538.89,-63"/>
<polygon fill="#63b8ff" stroke="#63b8ff" points="513.22,-59.5 503.22,-63 513.22,-66.5 513.22,-59.5"/>
</a>
</g>
</g>
<!-- Node4 -->
<g id="Node000004" class="node">
<title>Node4</title>
<g id="a_Node000004"><a xlink:href="interface_mercury_messaging_1_1_task_1_1_i_mm_task_info.html" target="_top" xlink:title="Interface defining structure with basic organizational information.">
<polygon fill="white" stroke="#666666" points="145,-78 0,-78 0,-48 145,-48 145,-78"/>
<text text-anchor="start" x="8" y="-66" font-family="Helvetica,sans-Serif" font-size="10.00">MercuryMessaging.Task.IMm</text>
<text text-anchor="middle" x="72.5" y="-55" font-family="Helvetica,sans-Serif" font-size="10.00">TaskInfo</text>
</a>
</g>
</g>
<!-- Node4&#45;&gt;Node1 -->
<g id="edge108_Node000004_Node000001" class="edge">
<title>Node4&#45;&gt;Node1</title>
<g id="a_edge108_Node000004_Node000001"><a xlink:title=" ">
<path fill="none" stroke="#63b8ff" d="M155.16,-63C163.75,-63 172.43,-63 180.89,-63"/>
<polygon fill="#63b8ff" stroke="#63b8ff" points="155.13,-59.5 145.13,-63 155.13,-66.5 155.13,-59.5"/>
</a>
</g>
</g>
</g>
</svg>
