<?xml version="1.0" encoding="UTF-8" standalone="no"?>
<!DOCTYPE svg PUBLIC "-//W3C//DTD SVG 1.1//EN"
 "http://www.w3.org/Graphics/SVG/1.1/DTD/svg11.dtd">
<!-- Generated by graphviz version 2.44.1 (20200629.0800)
 -->
<!-- Title: Graphical Class Hierarchy Pages: 1 -->
<svg width="324pt" height="134pt"
 viewBox="0.00 0.00 324.00 134.00" xmlns="http://www.w3.org/2000/svg" xmlns:xlink="http://www.w3.org/1999/xlink">
<g id="graph0" class="graph" transform="scale(1 1) rotate(0) translate(4 130)">
<title>Graphical Class Hierarchy</title>
<!-- Node0 -->
<g id="Node000000" class="node">
<title>Node0</title>
<g id="a_Node000000"><a xlink:href="interface_mercury_messaging_1_1_network_1_1_i_mm_game_object_resolver.html" target="_top" xlink:title="Interface for resolving network IDs to GameObjects and vice versa.">
<polygon fill="white" stroke="#666666" points="140,-78 0,-78 0,-48 140,-48 140,-78"/>
<text text-anchor="start" x="8" y="-66" font-family="Helvetica,sans-Serif" font-size="10.00">MercuryMessaging.Network.</text>
<text text-anchor="middle" x="70" y="-55" font-family="Helvetica,sans-Serif" font-size="10.00">IMmGameObjectResolver</text>
</a>
</g>
</g>
<!-- Node1 -->
<g id="Node000001" class="node">
<title>Node1</title>
<g id="a_Node000001"><a xlink:href="class_mercury_messaging_1_1_network_1_1_backends_1_1_fish_net_resolver.html" target="_top" xlink:title="IMmGameObjectResolver implementation for FishNet.">
<polygon fill="white" stroke="#666666" points="316,-126 176,-126 176,-96 316,-96 316,-126"/>
<text text-anchor="start" x="184" y="-114" font-family="Helvetica,sans-Serif" font-size="10.00">MercuryMessaging.Network.</text>
<text text-anchor="middle" x="246" y="-103" font-family="Helvetica,sans-Serif" font-size="10.00">Backends.FishNetResolver</text>
</a>
</g>
</g>
<!-- Node0&#45;&gt;Node1 -->
<g id="edge97_Node000000_Node000001" class="edge">
<title>Node0&#45;&gt;Node1</title>
<g id="a_edge97_Node000000_Node000001"><a xlink:title=" ">
<path fill="none" stroke="#63b8ff" d="M135.23,-80.72C153.43,-85.74 173.06,-91.15 190.62,-96"/>
<polygon fill="#63b8ff" stroke="#63b8ff" points="136.15,-77.34 125.58,-78.06 134.29,-84.09 136.15,-77.34"/>
</a>
</g>
</g>
<!-- Node2 -->
<g id="Node000002" class="node">
<title>Node2</title>
<g id="a_Node000002"><a xlink:href="class_mercury_messaging_1_1_network_1_1_backends_1_1_fusion2_resolver.html" target="_top" xlink:title="IMmGameObjectResolver implementation for Photon Fusion 2.">
<polygon fill="white" stroke="#666666" points="316,-78 176,-78 176,-48 316,-48 316,-78"/>
<text text-anchor="start" x="184" y="-66" font-family="Helvetica,sans-Serif" font-size="10.00">MercuryMessaging.Network.</text>
<text text-anchor="middle" x="246" y="-55" font-family="Helvetica,sans-Serif" font-size="10.00">Backends.Fusion2Resolver</text>
</a>
</g>
</g>
<!-- Node0&#45;&gt;Node2 -->
<g id="edge98_Node000000_Node000002" class="edge">
<title>Node0&#45;&gt;Node2</title>
<g id="a_edge98_Node000000_Node000002"><a xlink:title=" ">
<path fill="none" stroke="#63b8ff" d="M150.03,-63C158.62,-63 167.32,-63 175.78,-63"/>
<polygon fill="#63b8ff" stroke="#63b8ff" points="150.02,-59.5 140.02,-63 150.02,-66.5 150.02,-59.5"/>
</a>
</g>
</g>
<!-- Node3 -->
<g id="Node000003" class="node">
<title>Node3</title>
<g id="a_Node000003"><a xlink:href="class_mercury_messaging_1_1_network_1_1_mm_registry_resolver.html" target="_top" xlink:title="Simple registry&#45;based GameObject resolver.">
<polygon fill="white" stroke="#666666" points="316,-30 176,-30 176,0 316,0 316,-30"/>
<text text-anchor="start" x="184" y="-18" font-family="Helvetica,sans-Serif" font-size="10.00">MercuryMessaging.Network.</text>
<text text-anchor="middle" x="246" y="-7" font-family="Helvetica,sans-Serif" font-size="10.00">MmRegistryResolver</text>
</a>
</g>
</g>
<!-- Node0&#45;&gt;Node3 -->
<g id="edge99_Node000000_Node000003" class="edge">
<title>Node0&#45;&gt;Node3</title>
<g id="a_edge99_Node000000_Node000003"><a xlink:title=" ">
<path fill="none" stroke="#63b8ff" d="M135.23,-45.28C153.43,-40.26 173.06,-34.85 190.62,-30"/>
<polygon fill="#63b8ff" stroke="#63b8ff" points="134.29,-41.91 125.58,-47.94 136.15,-48.66 134.29,-41.91"/>
</a>
</g>
</g>
</g>
</svg>
