<?xml version="1.0" encoding="UTF-8" standalone="no"?>
<!DOCTYPE svg PUBLIC "-//W3C//DTD SVG 1.1//EN"
 "http://www.w3.org/Graphics/SVG/1.1/DTD/svg11.dtd">
<!-- Generated by graphviz version 2.44.1 (20200629.0800)
 -->
<!-- Title: Graphical Class Hierarchy Pages: 1 -->
<svg width="437pt" height="99pt"
 viewBox="0.00 0.00 437.00 98.50" xmlns="http://www.w3.org/2000/svg" xmlns:xlink="http://www.w3.org/1999/xlink">
<g id="graph0" class="graph" transform="scale(1 1) rotate(0) translate(4 94.5)">
<title>Graphical Class Hierarchy</title>
<!-- Node0 -->
<g id="Node000000" class="node">
<title>Node0</title>
<g id="a_Node000000"><a xlink:title=" ">
<polygon fill="#e0e0e0" stroke="#999999" points="62,-90.5 0,-90.5 0,-71.5 62,-71.5 62,-90.5"/>
<text text-anchor="middle" x="31" y="-78.5" font-family="Helvetica,sans-Serif" font-size="10.00">IDictionary</text>
</a>
</g>
</g>
<!-- Node1 -->
<g id="Node000001" class="node">
<title>Node1</title>
<g id="a_Node000001"><a xlink:href="class_mercury_messaging_1_1_keyed_list-2-g.html" target="_top" xlink:title=" ">
<polygon fill="white" stroke="#666666" points="244,-78 98,-78 98,-48 244,-48 244,-78"/>
<text text-anchor="start" x="106" y="-66" font-family="Helvetica,sans-Serif" font-size="10.00">MercuryMessaging.KeyedList</text>
<text text-anchor="middle" x="171" y="-55" font-family="Helvetica,sans-Serif" font-size="10.00">&lt; K, V &gt;</text>
</a>
</g>
</g>
<!-- Node0&#45;&gt;Node1 -->
<g id="edge5_Node000000_Node000001" class="edge">
<title>Node0&#45;&gt;Node1</title>
<g id="a_edge5_Node000000_Node000001"><a xlink:title=" ">
<path fill="none" stroke="#63b8ff" d="M72.46,-75.72C80.51,-74.67 89.19,-73.54 97.94,-72.4"/>
<polygon fill="#63b8ff" stroke="#63b8ff" points="71.75,-72.29 62.28,-77.05 72.65,-79.23 71.75,-72.29"/>
</a>
</g>
</g>
<!-- Node2 -->
<g id="Node000002" class="node">
<title>Node2</title>
<g id="a_Node000002"><a xlink:href="class_mercury_messaging_1_1_finite_state_machine-1-g.html" target="_top" xlink:title="Finite State Machine, supporting generic types states.">
<polygon fill="white" stroke="#666666" points="429,-54 280,-54 280,-24 429,-24 429,-54"/>
<text text-anchor="start" x="288" y="-42" font-family="Helvetica,sans-Serif" font-size="10.00">MercuryMessaging.FiniteState</text>
<text text-anchor="middle" x="354.5" y="-31" font-family="Helvetica,sans-Serif" font-size="10.00">Machine&lt; T &gt;</text>
</a>
</g>
</g>
<!-- Node1&#45;&gt;Node2 -->
<g id="edge6_Node000001_Node000002" class="edge">
<title>Node1&#45;&gt;Node2</title>
<g id="a_edge6_Node000001_Node000002"><a xlink:title=" ">
<path fill="none" stroke="#63b8ff" d="M254.18,-52.13C262.69,-51.01 271.3,-49.87 279.71,-48.76"/>
<polygon fill="#63b8ff" stroke="#63b8ff" points="253.71,-48.66 244.26,-53.45 254.63,-55.6 253.71,-48.66"/>
</a>
</g>
</g>
<!-- Node3 -->
<g id="Node000003" class="node">
<title>Node3</title>
<g id="a_Node000003"><a xlink:href="interface_mercury_messaging_1_1_i_finite_state_machine-1-g.html" target="_top" xlink:title="Defines required methods for a Finite State Machine.">
<polygon fill="white" stroke="#666666" points="235,-30 107,-30 107,0 235,0 235,-30"/>
<text text-anchor="start" x="115" y="-18" font-family="Helvetica,sans-Serif" font-size="10.00">MercuryMessaging.IFinite</text>
<text text-anchor="middle" x="171" y="-7" font-family="Helvetica,sans-Serif" font-size="10.00">StateMachine&lt; T &gt;</text>
</a>
</g>
</g>
<!-- Node3&#45;&gt;Node2 -->
<g id="edge7_Node000003_Node000002" class="edge">
<title>Node3&#45;&gt;Node2</title>
<g id="a_edge7_Node000003_Node000002"><a xlink:title=" ">
<path fill="none" stroke="#63b8ff" d="M245.17,-24.68C256.62,-26.19 268.46,-27.75 279.92,-29.27"/>
<polygon fill="#63b8ff" stroke="#63b8ff" points="245.6,-21.2 235.23,-23.36 244.68,-28.14 245.6,-21.2"/>
</a>
</g>
</g>
<!-- Node4 -->
<g id="Node000004" class="node">
<title>Node4</title>
<g id="a_Node000004"><a xlink:title=" ">
<polygon fill="#e0e0e0" stroke="#999999" points="48.5,-53.5 13.5,-53.5 13.5,-34.5 48.5,-34.5 48.5,-53.5"/>
<text text-anchor="middle" x="31" y="-41.5" font-family="Helvetica,sans-Serif" font-size="10.00">IList</text>
</a>
</g>
</g>
<!-- Node4&#45;&gt;Node1 -->
<g id="edge8_Node000004_Node000001" class="edge">
<title>Node4&#45;&gt;Node1</title>
<g id="a_edge8_Node000004_Node000001"><a xlink:title=" ">
<path fill="none" stroke="#63b8ff" d="M58.67,-47.67C70,-49.23 83.81,-51.13 97.79,-53.06"/>
<polygon fill="#63b8ff" stroke="#63b8ff" points="59.03,-44.19 48.65,-46.29 58.08,-51.12 59.03,-44.19"/>
</a>
</g>
</g>
</g>
</svg>
