<?xml version="1.0" encoding="UTF-8" standalone="no"?>
<!DOCTYPE svg PUBLIC "-//W3C//DTD SVG 1.1//EN"
 "http://www.w3.org/Graphics/SVG/1.1/DTD/svg11.dtd">
<!-- Generated by graphviz version 2.44.1 (20200629.0800)
 -->
<!-- Title: Graphical Class Hierarchy Pages: 1 -->
<svg width="288pt" height="86pt"
 viewBox="0.00 0.00 288.00 86.00" xmlns="http://www.w3.org/2000/svg" xmlns:xlink="http://www.w3.org/1999/xlink">
<g id="graph0" class="graph" transform="scale(1 1) rotate(0) translate(4 82)">
<title>Graphical Class Hierarchy</title>
<!-- Node0 -->
<g id="Node000000" class="node">
<title>Node0</title>
<g id="a_Node000000"><a xlink:title=" ">
<polygon fill="#e0e0e0" stroke="#999999" points="90,-48.5 0,-48.5 0,-29.5 90,-29.5 90,-48.5"/>
<text text-anchor="middle" x="45" y="-36.5" font-family="Helvetica,sans-Serif" font-size="10.00">PropertyAttribute</text>
</a>
</g>
</g>
<!-- Node1 -->
<g id="Node000001" class="node">
<title>Node1</title>
<g id="a_Node000001"><a xlink:href="class_mercury_messaging_1_1_enum_flag_attribute.html" target="_top" xlink:title="Used by MercuryMessaging classes to setup Enum Flags.">
<polygon fill="white" stroke="#666666" points="276,-78 130,-78 130,-48 276,-48 276,-78"/>
<text text-anchor="start" x="138" y="-66" font-family="Helvetica,sans-Serif" font-size="10.00">MercuryMessaging.EnumFlag</text>
<text text-anchor="middle" x="203" y="-55" font-family="Helvetica,sans-Serif" font-size="10.00">Attribute</text>
</a>
</g>
</g>
<!-- Node0&#45;&gt;Node1 -->
<g id="edge109_Node000000_Node000001" class="edge">
<title>Node0&#45;&gt;Node1</title>
<g id="a_edge109_Node000000_Node000001"><a xlink:title=" ">
<path fill="none" stroke="#63b8ff" d="M100.38,-47.37C109.91,-48.83 119.95,-50.38 129.86,-51.9"/>
<polygon fill="#63b8ff" stroke="#63b8ff" points="100.7,-43.87 90.29,-45.81 99.64,-50.79 100.7,-43.87"/>
</a>
</g>
</g>
<!-- Node2 -->
<g id="Node000002" class="node">
<title>Node2</title>
<g id="a_Node000002"><a xlink:href="class_mercury_messaging_1_1_reorderable_list_attribute.html" target="_top" xlink:title=" ">
<polygon fill="white" stroke="#666666" points="280,-30 126,-30 126,0 280,0 280,-30"/>
<text text-anchor="start" x="134" y="-18" font-family="Helvetica,sans-Serif" font-size="10.00">MercuryMessaging.Reorderable</text>
<text text-anchor="middle" x="203" y="-7" font-family="Helvetica,sans-Serif" font-size="10.00">ListAttribute</text>
</a>
</g>
</g>
<!-- Node0&#45;&gt;Node2 -->
<g id="edge110_Node000000_Node000002" class="edge">
<title>Node0&#45;&gt;Node2</title>
<g id="a_edge110_Node000000_Node000002"><a xlink:title=" ">
<path fill="none" stroke="#63b8ff" d="M100.42,-30.63C108.61,-29.37 117.18,-28.05 125.72,-26.74"/>
<polygon fill="#63b8ff" stroke="#63b8ff" points="99.64,-27.21 90.29,-32.19 100.7,-34.13 99.64,-27.21"/>
</a>
</g>
</g>
</g>
</svg>
