<?xml version="1.0" encoding="UTF-8" standalone="no"?>
<!DOCTYPE svg PUBLIC "-//W3C//DTD SVG 1.1//EN"
 "http://www.w3.org/Graphics/SVG/1.1/DTD/svg11.dtd">
<!-- Generated by graphviz version 2.44.1 (20200629.0800)
 -->
<!-- Title: Graphical Class Hierarchy Pages: 1 -->
<svg width="508pt" height="86pt"
 viewBox="0.00 0.00 508.00 86.00" xmlns="http://www.w3.org/2000/svg" xmlns:xlink="http://www.w3.org/1999/xlink">
<g id="graph0" class="graph" transform="scale(1 1) rotate(0) translate(4 82)">
<title>Graphical Class Hierarchy</title>
<!-- Node0 -->
<g id="Node000000" class="node">
<title>Node0</title>
<g id="a_Node000000"><a xlink:href="interface_mercury_messaging_1_1_data_1_1_i_mm_data_handler.html" target="_top" xlink:title="IMmDataHandler implmentations need to support file/stream and tag open/close/write.">
<polygon fill="white" stroke="#666666" points="144,-54 0,-54 0,-24 144,-24 144,-54"/>
<text text-anchor="start" x="8" y="-42" font-family="Helvetica,sans-Serif" font-size="10.00">MercuryMessaging.Data.IMm</text>
<text text-anchor="middle" x="72" y="-31" font-family="Helvetica,sans-Serif" font-size="10.00">DataHandler</text>
</a>
</g>
</g>
<!-- Node1 -->
<g id="Node000001" class="node">
<title>Node1</title>
<g id="a_Node000001"><a xlink:href="class_mercury_messaging_1_1_data_1_1_mm_data_handler_file.html" target="_top" xlink:title="Load from and Save to XML files.">
<polygon fill="white" stroke="#666666" points="322,-54 180,-54 180,-24 322,-24 322,-54"/>
<text text-anchor="start" x="188" y="-42" font-family="Helvetica,sans-Serif" font-size="10.00">MercuryMessaging.Data.Mm</text>
<text text-anchor="middle" x="251" y="-31" font-family="Helvetica,sans-Serif" font-size="10.00">DataHandlerFile</text>
</a>
</g>
</g>
<!-- Node0&#45;&gt;Node1 -->
<g id="edge17_Node000000_Node000001" class="edge">
<title>Node0&#45;&gt;Node1</title>
<g id="a_edge17_Node000000_Node000001"><a xlink:title=" ">
<path fill="none" stroke="#63b8ff" d="M154.48,-39C162.93,-39 171.47,-39 179.78,-39"/>
<polygon fill="#63b8ff" stroke="#63b8ff" points="154.23,-35.5 144.23,-39 154.23,-42.5 154.23,-35.5"/>
</a>
</g>
</g>
<!-- Node2 -->
<g id="Node000002" class="node">
<title>Node2</title>
<g id="a_Node000002"><a xlink:href="class_mercury_messaging_1_1_data_1_1_mm_data_handler_csv.html" target="_top" xlink:title="CSV implementation of the IMmDataHandler.">
<polygon fill="white" stroke="#666666" points="500,-78 358,-78 358,-48 500,-48 500,-78"/>
<text text-anchor="start" x="366" y="-66" font-family="Helvetica,sans-Serif" font-size="10.00">MercuryMessaging.Data.Mm</text>
<text text-anchor="middle" x="429" y="-55" font-family="Helvetica,sans-Serif" font-size="10.00">DataHandlerCsv</text>
</a>
</g>
</g>
<!-- Node1&#45;&gt;Node2 -->
<g id="edge18_Node000001_Node000002" class="edge">
<title>Node1&#45;&gt;Node2</title>
<g id="a_edge18_Node000001_Node000002"><a xlink:title=" ">
<path fill="none" stroke="#63b8ff" d="M332.1,-49.92C340.71,-51.1 349.41,-52.28 357.89,-53.44"/>
<polygon fill="#63b8ff" stroke="#63b8ff" points="332.45,-46.44 322.07,-48.55 331.5,-53.37 332.45,-46.44"/>
</a>
</g>
</g>
<!-- Node3 -->
<g id="Node000003" class="node">
<title>Node3</title>
<g id="a_Node000003"><a xlink:href="class_mercury_messaging_1_1_data_1_1_mm_data_handler_xml.html" target="_top" xlink:title="XML implementation of the IMmDataHandler.">
<polygon fill="white" stroke="#666666" points="500,-30 358,-30 358,0 500,0 500,-30"/>
<text text-anchor="start" x="366" y="-18" font-family="Helvetica,sans-Serif" font-size="10.00">MercuryMessaging.Data.Mm</text>
<text text-anchor="middle" x="429" y="-7" font-family="Helvetica,sans-Serif" font-size="10.00">DataHandlerXml</text>
</a>
</g>
</g>
<!-- Node1&#45;&gt;Node3 -->
<g id="edge19_Node000001_Node000003" class="edge">
<title>Node1&#45;&gt;Node3</title>
<g id="a_edge19_Node000001_Node000003"><a xlink:title=" ">
<path fill="none" stroke="#63b8ff" d="M332.1,-28.08C340.71,-26.9 349.41,-25.72 357.89,-24.56"/>
<polygon fill="#63b8ff" stroke="#63b8ff" points="331.5,-24.63 322.07,-29.45 332.45,-31.56 331.5,-24.63"/>
</a>
</g>
</g>
</g>
</svg>
