<?xml version="1.0" encoding="UTF-8" standalone="no"?>
<!DOCTYPE svg PUBLIC "-//W3C//DTD SVG 1.1//EN"
 "http://www.w3.org/Graphics/SVG/1.1/DTD/svg11.dtd">
<!-- Generated by graphviz version 2.44.1 (20200629.0800)
 -->
<!-- Title: MercuryMessaging.IMmResponder Pages: 1 -->
<svg width="1023pt" height="594pt"
 viewBox="0.00 0.00 1023.00 594.00" xmlns="http://www.w3.org/2000/svg" xmlns:xlink="http://www.w3.org/1999/xlink">
<g id="graph0" class="graph" transform="scale(1 1) rotate(0) translate(4 590)">
<title>MercuryMessaging.IMmResponder</title>
<!-- Node1 -->
<g id="Node000001" class="node">
<title>Node1</title>
<g id="a_Node000001"><a xlink:title="The core of MercuryMessaging.">
<polygon fill="#999999" stroke="#666666" points="167,-211.5 0,-211.5 0,-192.5 167,-192.5 167,-211.5"/>
<text text-anchor="middle" x="83.5" y="-199.5" font-family="Helvetica,sans-Serif" font-size="10.00">MercuryMessaging.IMmResponder</text>
</a>
</g>
</g>
<!-- Node2 -->
<g id="Node000002" class="node">
<title>Node2</title>
<g id="a_Node000002"><a xlink:href="class_mercury_messaging_1_1_mm_responder.html" target="_top" xlink:title="Base implmentation of IMmResponder.">
<polygon fill="white" stroke="#666666" points="368,-211.5 203,-211.5 203,-192.5 368,-192.5 368,-211.5"/>
<text text-anchor="middle" x="285.5" y="-199.5" font-family="Helvetica,sans-Serif" font-size="10.00">MercuryMessaging.MmResponder</text>
</a>
</g>
</g>
<!-- Node1&#45;&gt;Node2 -->
<g id="edge1_Node000001_Node000002" class="edge">
<title>Node1&#45;&gt;Node2</title>
<g id="a_edge1_Node000001_Node000002"><a xlink:title=" ">
<path fill="none" stroke="#63b8ff" d="M177.05,-202C185.66,-202 194.34,-202 202.83,-202"/>
<polygon fill="#63b8ff" stroke="#63b8ff" points="177,-198.5 167,-202 177,-205.5 177,-198.5"/>
</a>
</g>
</g>
<!-- Node3 -->
<g id="Node000003" class="node">
<title>Node3</title>
<g id="a_Node000003"><a xlink:href="class_mercury_messaging_1_1_mm_base_responder.html" target="_top" xlink:title="MmResponder that implements a switch handling the framework&#45;provided MmMethods.">
<polygon fill="white" stroke="#666666" points="592,-350.5 404,-350.5 404,-331.5 592,-331.5 592,-350.5"/>
<text text-anchor="middle" x="498" y="-338.5" font-family="Helvetica,sans-Serif" font-size="10.00">MercuryMessaging.MmBaseResponder</text>
</a>
</g>
</g>
<!-- Node2&#45;&gt;Node3 -->
<g id="edge2_Node000002_Node000003" class="edge">
<title>Node2&#45;&gt;Node3</title>
<g id="a_edge2_Node000002_Node000003"><a xlink:title=" ">
<path fill="none" stroke="#63b8ff" d="M309.46,-217.16C353,-245.91 446.42,-307.6 482.43,-331.38"/>
<polygon fill="#63b8ff" stroke="#63b8ff" points="311.24,-214.14 300.97,-211.55 307.38,-219.99 311.24,-214.14"/>
</a>
</g>
</g>
<!-- Node16 -->
<g id="Node000016" class="node">
<title>Node16</title>
<g id="a_Node000016"><a xlink:href="class_mercury_messaging_1_1_mm_relay_node.html" target="_top" xlink:title="Base routing node of Mercury XM.">
<polygon fill="white" stroke="#666666" points="581,-94.5 415,-94.5 415,-75.5 581,-75.5 581,-94.5"/>
<text text-anchor="middle" x="498" y="-82.5" font-family="Helvetica,sans-Serif" font-size="10.00">MercuryMessaging.MmRelayNode</text>
</a>
</g>
</g>
<!-- Node2&#45;&gt;Node16 -->
<g id="edge15_Node000002_Node000016" class="edge">
<title>Node2&#45;&gt;Node16</title>
<g id="a_edge15_Node000002_Node000016"><a xlink:title=" ">
<path fill="none" stroke="#63b8ff" d="M312.61,-187.49C356.29,-163.21 443.02,-115 479.83,-94.54"/>
<polygon fill="#63b8ff" stroke="#63b8ff" points="310.77,-184.51 303.73,-192.43 314.17,-190.63 310.77,-184.51"/>
</a>
</g>
</g>
<!-- Node4 -->
<g id="Node000004" class="node">
<title>Node4</title>
<g id="a_Node000004"><a xlink:href="class_mercury_messaging_1_1_mm_app_state_responder.html" target="_top" xlink:title="Application State data.">
<polygon fill="white" stroke="#666666" points="797.5,-586 638.5,-586 638.5,-556 797.5,-556 797.5,-586"/>
<text text-anchor="start" x="646.5" y="-574" font-family="Helvetica,sans-Serif" font-size="10.00">MercuryMessaging.MmAppState</text>
<text text-anchor="middle" x="718" y="-563" font-family="Helvetica,sans-Serif" font-size="10.00">Responder</text>
</a>
</g>
</g>
<!-- Node3&#45;&gt;Node4 -->
<g id="edge3_Node000003_Node000004" class="edge">
<title>Node3&#45;&gt;Node4</title>
<g id="a_edge3_Node000003_Node000004"><a xlink:title=" ">
<path fill="none" stroke="#63b8ff" d="M505.46,-360.1C520.29,-400.97 560.76,-497.21 628,-547 632.63,-550.43 637.72,-553.37 643.04,-555.89"/>
<polygon fill="#63b8ff" stroke="#63b8ff" points="508.72,-358.82 502.1,-350.54 502.12,-361.14 508.72,-358.82"/>
</a>
</g>
</g>
<!-- Node5 -->
<g id="Node000005" class="node">
<title>Node5</title>
<g id="a_Node000005"><a xlink:href="class_mercury_messaging_1_1_mm_extendable_responder.html" target="_top" xlink:title="Base responder with extensible custom method handling via registration API.">
<polygon fill="white" stroke="#666666" points="801.5,-538 634.5,-538 634.5,-508 801.5,-508 801.5,-538"/>
<text text-anchor="start" x="642.5" y="-526" font-family="Helvetica,sans-Serif" font-size="10.00">MercuryMessaging.MmExtendable</text>
<text text-anchor="middle" x="718" y="-515" font-family="Helvetica,sans-Serif" font-size="10.00">Responder</text>
</a>
</g>
</g>
<!-- Node3&#45;&gt;Node5 -->
<g id="edge4_Node000003_Node000005" class="edge">
<title>Node3&#45;&gt;Node5</title>
<g id="a_edge4_Node000003_Node000005"><a xlink:title=" ">
<path fill="none" stroke="#63b8ff" d="M508.95,-359.63C527.68,-392.88 571.43,-462.36 628,-499 633.24,-502.39 638.95,-505.31 644.86,-507.81"/>
<polygon fill="#63b8ff" stroke="#63b8ff" points="511.84,-357.63 503.95,-350.56 505.71,-361 511.84,-357.63"/>
</a>
</g>
</g>
<!-- Node6 -->
<g id="Node000006" class="node">
<title>Node6</title>
<g id="a_Node000006"><a xlink:href="class_mercury_messaging_1_1_mm_gui_responder.html" target="_top" xlink:title="GUI Interaction Component &#45; Adapter for IMmGUI objects.">
<polygon fill="white" stroke="#666666" points="808,-489.5 628,-489.5 628,-470.5 808,-470.5 808,-489.5"/>
<text text-anchor="middle" x="718" y="-477.5" font-family="Helvetica,sans-Serif" font-size="10.00">MercuryMessaging.MmGuiResponder</text>
</a>
</g>
</g>
<!-- Node3&#45;&gt;Node6 -->
<g id="edge5_Node000003_Node000006" class="edge">
<title>Node3&#45;&gt;Node6</title>
<g id="a_edge5_Node000003_Node000006"><a xlink:title=" ">
<path fill="none" stroke="#63b8ff" d="M512.59,-358.67C534.06,-385.28 578.51,-435.25 628,-461 635.43,-464.87 643.6,-467.94 651.88,-470.4"/>
<polygon fill="#63b8ff" stroke="#63b8ff" points="515.16,-356.29 506.22,-350.62 509.67,-360.63 515.16,-356.29"/>
</a>
</g>
</g>
<!-- Node7 -->
<g id="Node000007" class="node">
<title>Node7</title>
<g id="a_Node000007"><a xlink:href="class_mercury_messaging_1_1_mm_switch_responder.html" target="_top" xlink:title="Controller for MmRelaySwitchNode.">
<polygon fill="white" stroke="#666666" points="792,-452 644,-452 644,-422 792,-422 792,-452"/>
<text text-anchor="start" x="652" y="-440" font-family="Helvetica,sans-Serif" font-size="10.00">MercuryMessaging.MmSwitch</text>
<text text-anchor="middle" x="718" y="-429" font-family="Helvetica,sans-Serif" font-size="10.00">Responder</text>
</a>
</g>
</g>
<!-- Node3&#45;&gt;Node7 -->
<g id="edge6_Node000003_Node000007" class="edge">
<title>Node3&#45;&gt;Node7</title>
<g id="a_edge6_Node000003_Node000007"><a xlink:title=" ">
<path fill="none" stroke="#63b8ff" d="M521.97,-356.11C547.12,-372.1 589.07,-397.17 628,-413 636.15,-416.32 644.91,-419.31 653.64,-421.98"/>
<polygon fill="#63b8ff" stroke="#63b8ff" points="523.8,-353.13 513.5,-350.66 520.02,-359.02 523.8,-353.13"/>
</a>
</g>
</g>
<!-- Node9 -->
<g id="Node000009" class="node">
<title>Node9</title>
<g id="a_Node000009"><a xlink:href="class_mercury_messaging_1_1_mm_transform_responder.html" target="_top" xlink:title=" ">
<polygon fill="white" stroke="#666666" points="798.5,-404 637.5,-404 637.5,-374 798.5,-374 798.5,-404"/>
<text text-anchor="start" x="645.5" y="-392" font-family="Helvetica,sans-Serif" font-size="10.00">MercuryMessaging.MmTransform</text>
<text text-anchor="middle" x="718" y="-381" font-family="Helvetica,sans-Serif" font-size="10.00">Responder</text>
</a>
</g>
</g>
<!-- Node3&#45;&gt;Node9 -->
<g id="edge8_Node000003_Node000009" class="edge">
<title>Node3&#45;&gt;Node9</title>
<g id="a_edge8_Node000003_Node000009"><a xlink:title=" ">
<path fill="none" stroke="#63b8ff" d="M552.3,-352.74C581.39,-359.14 617.73,-367.14 648.86,-374"/>
<polygon fill="#63b8ff" stroke="#63b8ff" points="552.85,-349.27 542.33,-350.54 551.34,-356.11 552.85,-349.27"/>
</a>
</g>
</g>
<!-- Node10 -->
<g id="Node000010" class="node">
<title>Node10</title>
<g id="a_Node000010"><a xlink:href="class_mercury_messaging_1_1_network_1_1_backends_1_1_network_test_responder.html" target="_top" xlink:title="Test responder that logs all received messages.">
<polygon fill="white" stroke="#666666" points="800,-356 636,-356 636,-326 800,-326 800,-356"/>
<text text-anchor="start" x="644" y="-344" font-family="Helvetica,sans-Serif" font-size="10.00">MercuryMessaging.Network.</text>
<text text-anchor="middle" x="718" y="-333" font-family="Helvetica,sans-Serif" font-size="10.00">Backends.NetworkTestResponder</text>
</a>
</g>
</g>
<!-- Node3&#45;&gt;Node10 -->
<g id="edge9_Node000003_Node000010" class="edge">
<title>Node3&#45;&gt;Node10</title>
<g id="a_edge9_Node000003_Node000010"><a xlink:title=" ">
<path fill="none" stroke="#63b8ff" d="M602.39,-341C613.64,-341 624.98,-341 635.92,-341"/>
<polygon fill="#63b8ff" stroke="#63b8ff" points="602.08,-337.5 592.08,-341 602.08,-344.5 602.08,-337.5"/>
</a>
</g>
</g>
<!-- Node11 -->
<g id="Node000011" class="node">
<title>Node11</title>
<g id="a_Node000011"><a xlink:href="class_mercury_messaging_1_1_standard_library_1_1_input_1_1_mm_input_responder.html" target="_top" xlink:title="Base responder for handling Standard Library Input messages.">
<polygon fill="white" stroke="#666666" points="796.5,-308 639.5,-308 639.5,-278 796.5,-278 796.5,-308"/>
<text text-anchor="start" x="647.5" y="-296" font-family="Helvetica,sans-Serif" font-size="10.00">MercuryMessaging.Standard</text>
<text text-anchor="middle" x="718" y="-285" font-family="Helvetica,sans-Serif" font-size="10.00">Library.Input.MmInputResponder</text>
</a>
</g>
</g>
<!-- Node3&#45;&gt;Node11 -->
<g id="edge10_Node000003_Node000011" class="edge">
<title>Node3&#45;&gt;Node11</title>
<g id="a_edge10_Node000003_Node000011"><a xlink:title=" ">
<path fill="none" stroke="#63b8ff" d="M552.3,-329.26C581.39,-322.86 617.73,-314.86 648.86,-308"/>
<polygon fill="#63b8ff" stroke="#63b8ff" points="551.34,-325.89 542.33,-331.46 552.85,-332.73 551.34,-325.89"/>
</a>
</g>
</g>
<!-- Node12 -->
<g id="Node000012" class="node">
<title>Node12</title>
<g id="a_Node000012"><a xlink:href="class_mercury_messaging_1_1_standard_library_1_1_u_i_1_1_mm_u_i_responder.html" target="_top" xlink:title="Base responder for handling Standard Library UI messages.">
<polygon fill="white" stroke="#666666" points="788.5,-260 647.5,-260 647.5,-230 788.5,-230 788.5,-260"/>
<text text-anchor="start" x="655.5" y="-248" font-family="Helvetica,sans-Serif" font-size="10.00">MercuryMessaging.Standard</text>
<text text-anchor="middle" x="718" y="-237" font-family="Helvetica,sans-Serif" font-size="10.00">Library.UI.MmUIResponder</text>
</a>
</g>
</g>
<!-- Node3&#45;&gt;Node12 -->
<g id="edge11_Node000003_Node000012" class="edge">
<title>Node3&#45;&gt;Node12</title>
<g id="a_edge11_Node000003_Node000012"><a xlink:title=" ">
<path fill="none" stroke="#63b8ff" d="M521.97,-325.89C547.12,-309.9 589.07,-284.83 628,-269 636.15,-265.68 644.91,-262.69 653.64,-260.02"/>
<polygon fill="#63b8ff" stroke="#63b8ff" points="520.02,-322.98 513.5,-331.34 523.8,-328.87 520.02,-322.98"/>
</a>
</g>
</g>
<!-- Node13 -->
<g id="Node000013" class="node">
<title>Node13</title>
<g id="a_Node000013"><a xlink:href="class_mercury_messaging_1_1_task_1_1_mm_task_manager-1-g.html" target="_top" xlink:title="Class to manage a collection of tasks.">
<polygon fill="white" stroke="#666666" points="789.5,-212 646.5,-212 646.5,-182 789.5,-182 789.5,-212"/>
<text text-anchor="start" x="654.5" y="-200" font-family="Helvetica,sans-Serif" font-size="10.00">MercuryMessaging.Task.Mm</text>
<text text-anchor="middle" x="718" y="-189" font-family="Helvetica,sans-Serif" font-size="10.00">TaskManager&lt; U &gt;</text>
</a>
</g>
</g>
<!-- Node3&#45;&gt;Node13 -->
<g id="edge12_Node000003_Node000013" class="edge">
<title>Node3&#45;&gt;Node13</title>
<g id="a_edge12_Node000003_Node000013"><a xlink:title=" ">
<path fill="none" stroke="#63b8ff" d="M513.09,-323.26C534.91,-296.98 579.45,-247.92 628,-221 634.16,-217.59 640.83,-214.64 647.65,-212.09"/>
<polygon fill="#63b8ff" stroke="#63b8ff" points="510.19,-321.27 506.59,-331.23 515.62,-325.7 510.19,-321.27"/>
</a>
</g>
</g>
<!-- Node14 -->
<g id="Node000014" class="node">
<title>Node14</title>
<g id="a_Node000014"><a xlink:href="class_mercury_messaging_1_1_task_1_1_mm_task_responder-1-g.html" target="_top" xlink:title="MmTaskResponder are MmBaseResponder that deal with IMmTaskInfos.">
<polygon fill="white" stroke="#666666" points="789.5,-164 646.5,-164 646.5,-134 789.5,-134 789.5,-164"/>
<text text-anchor="start" x="654.5" y="-152" font-family="Helvetica,sans-Serif" font-size="10.00">MercuryMessaging.Task.Mm</text>
<text text-anchor="middle" x="718" y="-141" font-family="Helvetica,sans-Serif" font-size="10.00">TaskResponder&lt; T &gt;</text>
</a>
</g>
</g>
<!-- Node3&#45;&gt;Node14 -->
<g id="edge13_Node000003_Node000014" class="edge">
<title>Node3&#45;&gt;Node14</title>
<g id="a_edge13_Node000003_Node000014"><a xlink:title=" ">
<path fill="none" stroke="#63b8ff" d="M508.14,-322.14C526.08,-287.16 569.31,-212.27 628,-173 633.59,-169.26 639.74,-166.1 646.11,-163.44"/>
<polygon fill="#63b8ff" stroke="#63b8ff" points="504.92,-320.74 503.58,-331.25 511.18,-323.88 504.92,-320.74"/>
</a>
</g>
</g>
<!-- Node8 -->
<g id="Node000008" class="node">
<title>Node8</title>
<g id="a_Node000008"><a xlink:href="class_mercury_messaging_1_1_mm_app_state_switch_responder.html" target="_top" xlink:title="MmSwitchResponder for controlling MmAppStates.">
<polygon fill="white" stroke="#666666" points="1009,-452 850,-452 850,-422 1009,-422 1009,-452"/>
<text text-anchor="start" x="858" y="-440" font-family="Helvetica,sans-Serif" font-size="10.00">MercuryMessaging.MmAppState</text>
<text text-anchor="middle" x="929.5" y="-429" font-family="Helvetica,sans-Serif" font-size="10.00">SwitchResponder</text>
</a>
</g>
</g>
<!-- Node7&#45;&gt;Node8 -->
<g id="edge7_Node000007_Node000008" class="edge">
<title>Node7&#45;&gt;Node8</title>
<g id="a_edge7_Node000007_Node000008"><a xlink:title=" ">
<path fill="none" stroke="#63b8ff" d="M802.45,-437C818.1,-437 834.42,-437 849.92,-437"/>
<polygon fill="#63b8ff" stroke="#63b8ff" points="802.27,-433.5 792.27,-437 802.27,-440.5 802.27,-433.5"/>
</a>
</g>
</g>
<!-- Node15 -->
<g id="Node000015" class="node">
<title>Node15</title>
<g id="a_Node000015"><a xlink:href="class_mercury_messaging_1_1_task_1_1_mm_transformation_task_responder-1-g.html" target="_top" xlink:title="Responder useful for creating MmTaskResponders handling transformation tasks in Unity.">
<polygon fill="white" stroke="#666666" points="1015,-164 844,-164 844,-134 1015,-134 1015,-164"/>
<text text-anchor="start" x="852" y="-152" font-family="Helvetica,sans-Serif" font-size="10.00">MercuryMessaging.Task.Mm</text>
<text text-anchor="middle" x="929.5" y="-141" font-family="Helvetica,sans-Serif" font-size="10.00">TransformationTaskResponder&lt; T &gt;</text>
</a>
</g>
</g>
<!-- Node14&#45;&gt;Node15 -->
<g id="edge14_Node000014_Node000015" class="edge">
<title>Node14&#45;&gt;Node15</title>
<g id="a_edge14_Node000014_Node000015"><a xlink:title=" ">
<path fill="none" stroke="#63b8ff" d="M799.94,-149C814.27,-149 829.23,-149 843.66,-149"/>
<polygon fill="#63b8ff" stroke="#63b8ff" points="799.64,-145.5 789.64,-149 799.64,-152.5 799.64,-145.5"/>
</a>
</g>
</g>
<!-- Node17 -->
<g id="Node000017" class="node">
<title>Node17</title>
<g id="a_Node000017"><a xlink:href="class_mercury_messaging_1_1_mm_quick_node.html" target="_top" xlink:title="Modification of the standard MmRelayNode that allows skipping of standard checks to allow for faster ...">
<polygon fill="white" stroke="#666666" points="801.5,-115.5 634.5,-115.5 634.5,-96.5 801.5,-96.5 801.5,-115.5"/>
<text text-anchor="middle" x="718" y="-103.5" font-family="Helvetica,sans-Serif" font-size="10.00">MercuryMessaging.MmQuickNode</text>
</a>
</g>
</g>
<!-- Node16&#45;&gt;Node17 -->
<g id="edge16_Node000016_Node000017" class="edge">
<title>Node16&#45;&gt;Node17</title>
<g id="a_edge16_Node000016_Node000017"><a xlink:title=" ">
<path fill="none" stroke="#63b8ff" d="M591.39,-93.9C605.62,-95.27 620.24,-96.68 634.24,-98.03"/>
<polygon fill="#63b8ff" stroke="#63b8ff" points="591.4,-90.38 581.11,-92.91 590.72,-97.35 591.4,-90.38"/>
</a>
</g>
</g>
<!-- Node18 -->
<g id="Node000018" class="node">
<title>Node18</title>
<g id="a_Node000018"><a xlink:href="class_mercury_messaging_1_1_mm_relay_app_state_node.html" target="_top" xlink:title="MmRelayNode for handling MmAppStateResponder.">
<polygon fill="white" stroke="#666666" points="789.5,-78 646.5,-78 646.5,-48 789.5,-48 789.5,-78"/>
<text text-anchor="start" x="654.5" y="-66" font-family="Helvetica,sans-Serif" font-size="10.00">MercuryMessaging.MmRelay</text>
<text text-anchor="middle" x="718" y="-55" font-family="Helvetica,sans-Serif" font-size="10.00">AppStateNode</text>
</a>
</g>
</g>
<!-- Node16&#45;&gt;Node18 -->
<g id="edge17_Node000016_Node000018" class="edge">
<title>Node16&#45;&gt;Node18</title>
<g id="a_edge17_Node000016_Node000018"><a xlink:title=" ">
<path fill="none" stroke="#63b8ff" d="M591.27,-75.69C609.72,-73.83 628.81,-71.9 646.39,-70.13"/>
<polygon fill="#63b8ff" stroke="#63b8ff" points="590.7,-72.23 581.11,-76.71 591.41,-79.19 590.7,-72.23"/>
</a>
</g>
</g>
<!-- Node19 -->
<g id="Node000019" class="node">
<title>Node19</title>
<g id="a_Node000019"><a xlink:href="class_mercury_messaging_1_1_mm_relay_switch_node.html" target="_top" xlink:title="an MmRelayNode with an FSM to allow for limited MmResponder selection in the MmRelayNode&#39;s MmRoutingT...">
<polygon fill="white" stroke="#666666" points="789.5,-30 646.5,-30 646.5,0 789.5,0 789.5,-30"/>
<text text-anchor="start" x="654.5" y="-18" font-family="Helvetica,sans-Serif" font-size="10.00">MercuryMessaging.MmRelay</text>
<text text-anchor="middle" x="718" y="-7" font-family="Helvetica,sans-Serif" font-size="10.00">SwitchNode</text>
</a>
</g>
</g>
<!-- Node16&#45;&gt;Node19 -->
<g id="edge18_Node000016_Node000019" class="edge">
<title>Node16&#45;&gt;Node19</title>
<g id="a_edge18_Node000016_Node000019"><a xlink:title=" ">
<path fill="none" stroke="#63b8ff" d="M533.72,-71.78C559.54,-62.15 595.74,-49.08 628,-39 637.78,-35.94 648.23,-32.92 658.4,-30.09"/>
<polygon fill="#63b8ff" stroke="#63b8ff" points="532.15,-68.63 524.01,-75.42 534.61,-75.18 532.15,-68.63"/>
</a>
</g>
</g>
</g>
</svg>
