<?xml version="1.0" encoding="UTF-8" standalone="no"?>
<!DOCTYPE svg PUBLIC "-//W3C//DTD SVG 1.1//EN"
 "http://www.w3.org/Graphics/SVG/1.1/DTD/svg11.dtd">
<!-- Generated by graphviz version 2.44.1 (20200629.0800)
 -->
<!-- Title: MercuryMessaging.Data.IMmDataHandler Pages: 1 -->
<svg width="310pt" height="170pt"
 viewBox="0.00 0.00 310.00 170.00" xmlns="http://www.w3.org/2000/svg" xmlns:xlink="http://www.w3.org/1999/xlink">
<g id="graph0" class="graph" transform="scale(1 1) rotate(0) translate(4 166)">
<title>MercuryMessaging.Data.IMmDataHandler</title>
<!-- Node1 -->
<g id="Node000001" class="node">
<title>Node1</title>
<g id="a_Node000001"><a xlink:title="IMmDataHandler implmentations need to support file/stream and tag open/close/write.">
<polygon fill="#999999" stroke="#666666" points="223,-162 79,-162 79,-132 223,-132 223,-162"/>
<text text-anchor="start" x="87" y="-150" font-family="Helvetica,sans-Serif" font-size="10.00">MercuryMessaging.Data.IMm</text>
<text text-anchor="middle" x="151" y="-139" font-family="Helvetica,sans-Serif" font-size="10.00">DataHandler</text>
</a>
</g>
</g>
<!-- Node2 -->
<g id="Node000002" class="node">
<title>Node2</title>
<g id="a_Node000002"><a xlink:href="class_mercury_messaging_1_1_data_1_1_mm_data_handler_file.html" target="_top" xlink:title="Load from and Save to XML files.">
<polygon fill="white" stroke="#666666" points="222,-96 80,-96 80,-66 222,-66 222,-96"/>
<text text-anchor="start" x="88" y="-84" font-family="Helvetica,sans-Serif" font-size="10.00">MercuryMessaging.Data.Mm</text>
<text text-anchor="middle" x="151" y="-73" font-family="Helvetica,sans-Serif" font-size="10.00">DataHandlerFile</text>
</a>
</g>
</g>
<!-- Node1&#45;&gt;Node2 -->
<g id="edge1_Node000001_Node000002" class="edge">
<title>Node1&#45;&gt;Node2</title>
<g id="a_edge1_Node000001_Node000002"><a xlink:title=" ">
<path fill="none" stroke="#63b8ff" d="M151,-121.54C151,-112.96 151,-103.61 151,-96.16"/>
<polygon fill="#63b8ff" stroke="#63b8ff" points="147.5,-121.8 151,-131.8 154.5,-121.8 147.5,-121.8"/>
</a>
</g>
</g>
<!-- Node3 -->
<g id="Node000003" class="node">
<title>Node3</title>
<g id="a_Node000003"><a xlink:href="class_mercury_messaging_1_1_data_1_1_mm_data_handler_csv.html" target="_top" xlink:title="CSV implementation of the IMmDataHandler.">
<polygon fill="white" stroke="#666666" points="142,-30 0,-30 0,0 142,0 142,-30"/>
<text text-anchor="start" x="8" y="-18" font-family="Helvetica,sans-Serif" font-size="10.00">MercuryMessaging.Data.Mm</text>
<text text-anchor="middle" x="71" y="-7" font-family="Helvetica,sans-Serif" font-size="10.00">DataHandlerCsv</text>
</a>
</g>
</g>
<!-- Node2&#45;&gt;Node3 -->
<g id="edge2_Node000002_Node000003" class="edge">
<title>Node2&#45;&gt;Node3</title>
<g id="a_edge2_Node000002_Node000003"><a xlink:title=" ">
<path fill="none" stroke="#63b8ff" d="M125.35,-59.48C113.39,-49.91 99.47,-38.77 88.7,-30.16"/>
<polygon fill="#63b8ff" stroke="#63b8ff" points="123.25,-62.28 133.25,-65.8 127.62,-56.82 123.25,-62.28"/>
</a>
</g>
</g>
<!-- Node4 -->
<g id="Node000004" class="node">
<title>Node4</title>
<g id="a_Node000004"><a xlink:href="class_mercury_messaging_1_1_data_1_1_mm_data_handler_xml.html" target="_top" xlink:title="XML implementation of the IMmDataHandler.">
<polygon fill="white" stroke="#666666" points="302,-30 160,-30 160,0 302,0 302,-30"/>
<text text-anchor="start" x="168" y="-18" font-family="Helvetica,sans-Serif" font-size="10.00">MercuryMessaging.Data.Mm</text>
<text text-anchor="middle" x="231" y="-7" font-family="Helvetica,sans-Serif" font-size="10.00">DataHandlerXml</text>
</a>
</g>
</g>
<!-- Node2&#45;&gt;Node4 -->
<g id="edge3_Node000002_Node000004" class="edge">
<title>Node2&#45;&gt;Node4</title>
<g id="a_edge3_Node000002_Node000004"><a xlink:title=" ">
<path fill="none" stroke="#63b8ff" d="M176.65,-59.48C188.61,-49.91 202.53,-38.77 213.3,-30.16"/>
<polygon fill="#63b8ff" stroke="#63b8ff" points="174.38,-56.82 168.75,-65.8 178.75,-62.28 174.38,-56.82"/>
</a>
</g>
</g>
</g>
</svg>
