<?xml version="1.0" encoding="UTF-8" standalone="no"?>
<!DOCTYPE svg PUBLIC "-//W3C//DTD SVG 1.1//EN"
 "http://www.w3.org/Graphics/SVG/1.1/DTD/svg11.dtd">
<!-- Generated by graphviz version 2.44.1 (20200629.0800)
 -->
<!-- Title: MercuryMessaging.StandardLibrary.Animation.InterpolatorMaterial&lt; T &gt; Pages: 1 -->
<svg width="355pt" height="86pt"
 viewBox="0.00 0.00 355.00 86.00" xmlns="http://www.w3.org/2000/svg" xmlns:xlink="http://www.w3.org/1999/xlink">
<g id="graph0" class="graph" transform="scale(1 1) rotate(0) translate(4 82)">
<title>MercuryMessaging.StandardLibrary.Animation.InterpolatorMaterial&lt; T &gt;</title>
<!-- Node1 -->
<g id="Node000001" class="node">
<title>Node1</title>
<g id="a_Node000001"><a xlink:title=" ">
<polygon fill="#999999" stroke="#666666" points="143,-59.5 0,-59.5 0,-18.5 143,-18.5 143,-59.5"/>
<text text-anchor="start" x="8" y="-47.5" font-family="Helvetica,sans-Serif" font-size="10.00">MercuryMessaging.Standard</text>
<text text-anchor="start" x="8" y="-36.5" font-family="Helvetica,sans-Serif" font-size="10.00">Library.Animation.Interpolator</text>
<text text-anchor="middle" x="71.5" y="-25.5" font-family="Helvetica,sans-Serif" font-size="10.00">Material&lt; T &gt;</text>
</a>
</g>
</g>
<!-- Node2 -->
<g id="Node000002" class="node">
<title>Node2</title>
<g id="a_Node000002"><a xlink:href="class_mercury_messaging_1_1_standard_library_1_1_animation_1_1_interpolator_alpha.html" target="_top" xlink:title=" ">
<polygon fill="white" stroke="#666666" points="347,-78 179,-78 179,-48 347,-48 347,-78"/>
<text text-anchor="start" x="187" y="-66" font-family="Helvetica,sans-Serif" font-size="10.00">MercuryMessaging.Standard</text>
<text text-anchor="middle" x="263" y="-55" font-family="Helvetica,sans-Serif" font-size="10.00">Library.Animation.InterpolatorAlpha</text>
</a>
</g>
</g>
<!-- Node1&#45;&gt;Node2 -->
<g id="edge1_Node000001_Node000002" class="edge">
<title>Node1&#45;&gt;Node2</title>
<g id="a_edge1_Node000001_Node000002"><a xlink:title=" ">
<path fill="none" stroke="#63b8ff" d="M153.03,-49.2C161.59,-50.28 170.31,-51.39 178.9,-52.48"/>
<polygon fill="#63b8ff" stroke="#63b8ff" points="153.42,-45.72 143.06,-47.94 152.54,-52.67 153.42,-45.72"/>
</a>
</g>
</g>
<!-- Node3 -->
<g id="Node000003" class="node">
<title>Node3</title>
<g id="a_Node000003"><a xlink:href="class_mercury_messaging_1_1_standard_library_1_1_animation_1_1_interpolator_color.html" target="_top" xlink:title=" ">
<polygon fill="white" stroke="#666666" points="346,-30 180,-30 180,0 346,0 346,-30"/>
<text text-anchor="start" x="188" y="-18" font-family="Helvetica,sans-Serif" font-size="10.00">MercuryMessaging.Standard</text>
<text text-anchor="middle" x="263" y="-7" font-family="Helvetica,sans-Serif" font-size="10.00">Library.Animation.InterpolatorColor</text>
</a>
</g>
</g>
<!-- Node1&#45;&gt;Node3 -->
<g id="edge2_Node000001_Node000003" class="edge">
<title>Node1&#45;&gt;Node3</title>
<g id="a_edge2_Node000001_Node000003"><a xlink:title=" ">
<path fill="none" stroke="#63b8ff" d="M153.01,-28.8C161.9,-27.68 170.96,-26.53 179.87,-25.4"/>
<polygon fill="#63b8ff" stroke="#63b8ff" points="152.54,-25.33 143.06,-30.06 153.42,-32.28 152.54,-25.33"/>
</a>
</g>
</g>
</g>
</svg>
