<?xml version="1.0" encoding="UTF-8" standalone="no"?>
<!DOCTYPE svg PUBLIC "-//W3C//DTD SVG 1.1//EN"
 "http://www.w3.org/Graphics/SVG/1.1/DTD/svg11.dtd">
<!-- Generated by graphviz version 2.44.1 (20200629.0800)
 -->
<!-- Title: MercuryMessaging.IMmNode Pages: 1 -->
<svg width="556pt" height="124pt"
 viewBox="0.00 0.00 556.00 123.50" xmlns="http://www.w3.org/2000/svg" xmlns:xlink="http://www.w3.org/1999/xlink">
<g id="graph0" class="graph" transform="scale(1 1) rotate(0) translate(4 119.5)">
<title>MercuryMessaging.IMmNode</title>
<!-- Node1 -->
<g id="Node000001" class="node">
<title>Node1</title>
<g id="a_Node000001"><a xlink:title="Defines methods required by an MmResponder &amp; utility methods making invocation MmMethods with built&#45;i...">
<polygon fill="#999999" stroke="#666666" points="143,-72.5 0,-72.5 0,-53.5 143,-53.5 143,-72.5"/>
<text text-anchor="middle" x="71.5" y="-60.5" font-family="Helvetica,sans-Serif" font-size="10.00">MercuryMessaging.IMmNode</text>
</a>
</g>
</g>
<!-- Node2 -->
<g id="Node000002" class="node">
<title>Node2</title>
<g id="a_Node000002"><a xlink:href="class_mercury_messaging_1_1_mm_relay_node.html" target="_top" xlink:title="Base routing node of Mercury XM.">
<polygon fill="white" stroke="#666666" points="345,-72.5 179,-72.5 179,-53.5 345,-53.5 345,-72.5"/>
<text text-anchor="middle" x="262" y="-60.5" font-family="Helvetica,sans-Serif" font-size="10.00">MercuryMessaging.MmRelayNode</text>
</a>
</g>
</g>
<!-- Node1&#45;&gt;Node2 -->
<g id="edge1_Node000001_Node000002" class="edge">
<title>Node1&#45;&gt;Node2</title>
<g id="a_edge1_Node000001_Node000002"><a xlink:title=" ">
<path fill="none" stroke="#63b8ff" d="M153.39,-63C161.8,-63 170.35,-63 178.77,-63"/>
<polygon fill="#63b8ff" stroke="#63b8ff" points="153.23,-59.5 143.23,-63 153.23,-66.5 153.23,-59.5"/>
</a>
</g>
</g>
<!-- Node3 -->
<g id="Node000003" class="node">
<title>Node3</title>
<g id="a_Node000003"><a xlink:href="class_mercury_messaging_1_1_mm_quick_node.html" target="_top" xlink:title="Modification of the standard MmRelayNode that allows skipping of standard checks to allow for faster ...">
<polygon fill="white" stroke="#666666" points="548,-115.5 381,-115.5 381,-96.5 548,-96.5 548,-115.5"/>
<text text-anchor="middle" x="464.5" y="-103.5" font-family="Helvetica,sans-Serif" font-size="10.00">MercuryMessaging.MmQuickNode</text>
</a>
</g>
</g>
<!-- Node2&#45;&gt;Node3 -->
<g id="edge2_Node000002_Node000003" class="edge">
<title>Node2&#45;&gt;Node3</title>
<g id="a_edge2_Node000002_Node000003"><a xlink:title=" ">
<path fill="none" stroke="#63b8ff" d="M317.55,-74.7C349.44,-81.54 389.17,-90.06 419.13,-96.48"/>
<polygon fill="#63b8ff" stroke="#63b8ff" points="318.01,-71.22 307.5,-72.54 316.54,-78.06 318.01,-71.22"/>
</a>
</g>
</g>
<!-- Node4 -->
<g id="Node000004" class="node">
<title>Node4</title>
<g id="a_Node000004"><a xlink:href="class_mercury_messaging_1_1_mm_relay_app_state_node.html" target="_top" xlink:title="MmRelayNode for handling MmAppStateResponder.">
<polygon fill="white" stroke="#666666" points="536,-78 393,-78 393,-48 536,-48 536,-78"/>
<text text-anchor="start" x="401" y="-66" font-family="Helvetica,sans-Serif" font-size="10.00">MercuryMessaging.MmRelay</text>
<text text-anchor="middle" x="464.5" y="-55" font-family="Helvetica,sans-Serif" font-size="10.00">AppStateNode</text>
</a>
</g>
</g>
<!-- Node2&#45;&gt;Node4 -->
<g id="edge3_Node000002_Node000004" class="edge">
<title>Node2&#45;&gt;Node4</title>
<g id="a_edge3_Node000002_Node000004"><a xlink:title=" ">
<path fill="none" stroke="#63b8ff" d="M355.19,-63C367.8,-63 380.58,-63 392.72,-63"/>
<polygon fill="#63b8ff" stroke="#63b8ff" points="355.13,-59.5 345.13,-63 355.13,-66.5 355.13,-59.5"/>
</a>
</g>
</g>
<!-- Node5 -->
<g id="Node000005" class="node">
<title>Node5</title>
<g id="a_Node000005"><a xlink:href="class_mercury_messaging_1_1_mm_relay_switch_node.html" target="_top" xlink:title="an MmRelayNode with an FSM to allow for limited MmResponder selection in the MmRelayNode&#39;s MmRoutingT...">
<polygon fill="white" stroke="#666666" points="536,-30 393,-30 393,0 536,0 536,-30"/>
<text text-anchor="start" x="401" y="-18" font-family="Helvetica,sans-Serif" font-size="10.00">MercuryMessaging.MmRelay</text>
<text text-anchor="middle" x="464.5" y="-7" font-family="Helvetica,sans-Serif" font-size="10.00">SwitchNode</text>
</a>
</g>
</g>
<!-- Node2&#45;&gt;Node5 -->
<g id="edge4_Node000002_Node000005" class="edge">
<title>Node2&#45;&gt;Node5</title>
<g id="a_edge4_Node000002_Node000005"><a xlink:title=" ">
<path fill="none" stroke="#63b8ff" d="M312.93,-51.05C339.45,-44.7 372.32,-36.83 400.58,-30.06"/>
<polygon fill="#63b8ff" stroke="#63b8ff" points="312,-47.67 303.09,-53.4 313.63,-54.48 312,-47.67"/>
</a>
</g>
</g>
</g>
</svg>
