<?xml version="1.0" encoding="UTF-8" standalone="no"?>
<!DOCTYPE svg PUBLIC "-//W3C//DTD SVG 1.1//EN"
 "http://www.w3.org/Graphics/SVG/1.1/DTD/svg11.dtd">
<!-- Generated by graphviz version 2.44.1 (20200629.0800)
 -->
<!-- Title: MercuryMessaging.MmTemporalBuilder Pages: 1 -->
<svg width="998pt" height="227pt"
 viewBox="0.00 0.00 998.00 226.50" xmlns="http://www.w3.org/2000/svg" xmlns:xlink="http://www.w3.org/1999/xlink">
<g id="graph0" class="graph" transform="scale(1 1) rotate(0) translate(4 222.5)">
<title>MercuryMessaging.MmTemporalBuilder</title>
<!-- Node1 -->
<g id="Node000001" class="node">
<title>Node1</title>
<g id="a_Node000001"><a xlink:title="Fluent builder for temporal message operations.">
<polygon fill="#999999" stroke="#666666" points="990,-76 832,-76 832,-46 990,-46 990,-76"/>
<text text-anchor="start" x="840" y="-64" font-family="Helvetica,sans-Serif" font-size="10.00">MercuryMessaging.MmTemporal</text>
<text text-anchor="middle" x="911" y="-53" font-family="Helvetica,sans-Serif" font-size="10.00">Builder</text>
</a>
</g>
</g>
<!-- Node2 -->
<g id="Node000002" class="node">
<title>Node2</title>
<g id="a_Node000002"><a xlink:href="class_mercury_messaging_1_1_mm_relay_node.html" target="_top" xlink:title="Base routing node of Mercury XM.">
<polygon fill="white" stroke="#666666" points="744,-116.5 578,-116.5 578,-97.5 744,-97.5 744,-116.5"/>
<text text-anchor="middle" x="661" y="-104.5" font-family="Helvetica,sans-Serif" font-size="10.00">MercuryMessaging.MmRelayNode</text>
</a>
</g>
</g>
<!-- Node2&#45;&gt;Node1 -->
<g id="edge1_Node000001_Node000002" class="edge">
<title>Node2&#45;&gt;Node1</title>
<g id="a_edge1_Node000001_Node000002"><a xlink:title=" ">
<path fill="none" stroke="#9a32cd" stroke-dasharray="5,2" d="M723.29,-95.63C756.06,-89.55 796.77,-82 831.8,-75.5"/>
<polygon fill="#9a32cd" stroke="#9a32cd" points="722.58,-92.2 713.39,-97.47 723.86,-99.09 722.58,-92.2"/>
</a>
</g>
<text text-anchor="start" x="775" y="-93.5" font-family="Helvetica,sans-Serif" font-size="10.00" fill="grey">_relay</text>
</g>
<!-- Node3 -->
<g id="Node000003" class="node">
<title>Node3</title>
<g id="a_Node000003"><a xlink:href="class_mercury_messaging_1_1_mm_responder.html" target="_top" xlink:title="Base implmentation of IMmResponder.">
<polygon fill="white" stroke="#666666" points="464,-200.5 299,-200.5 299,-181.5 464,-181.5 464,-200.5"/>
<text text-anchor="middle" x="381.5" y="-188.5" font-family="Helvetica,sans-Serif" font-size="10.00">MercuryMessaging.MmResponder</text>
</a>
</g>
</g>
<!-- Node3&#45;&gt;Node2 -->
<g id="edge2_Node000002_Node000003" class="edge">
<title>Node3&#45;&gt;Node2</title>
<g id="a_edge2_Node000002_Node000003"><a xlink:title=" ">
<path fill="none" stroke="#63b8ff" d="M474.38,-179.84C502.32,-175.02 532.82,-168.28 560,-159 591.85,-148.13 626.04,-128.39 645.05,-116.61"/>
<polygon fill="#63b8ff" stroke="#63b8ff" points="473.5,-176.44 464.21,-181.54 474.65,-183.35 473.5,-176.44"/>
</a>
</g>
</g>
<!-- Node4 -->
<g id="Node000004" class="node">
<title>Node4</title>
<g id="a_Node000004"><a xlink:title=" ">
<polygon fill="white" stroke="#666666" points="220,-218.5 137,-218.5 137,-199.5 220,-199.5 220,-218.5"/>
<text text-anchor="middle" x="178.5" y="-206.5" font-family="Helvetica,sans-Serif" font-size="10.00">MonoBehaviour</text>
</a>
</g>
</g>
<!-- Node4&#45;&gt;Node3 -->
<g id="edge3_Node000003_Node000004" class="edge">
<title>Node4&#45;&gt;Node3</title>
<g id="a_edge3_Node000003_Node000004"><a xlink:title=" ">
<path fill="none" stroke="#63b8ff" d="M230.35,-204.45C251.1,-202.59 275.63,-200.39 298.78,-198.32"/>
<polygon fill="#63b8ff" stroke="#63b8ff" points="229.82,-200.98 220.18,-205.36 230.45,-207.95 229.82,-200.98"/>
</a>
</g>
</g>
<!-- Node5 -->
<g id="Node000005" class="node">
<title>Node5</title>
<g id="a_Node000005"><a xlink:href="interface_mercury_messaging_1_1_i_mm_responder.html" target="_top" xlink:title="The core of MercuryMessaging.">
<polygon fill="white" stroke="#666666" points="262,-181.5 95,-181.5 95,-162.5 262,-162.5 262,-181.5"/>
<text text-anchor="middle" x="178.5" y="-169.5" font-family="Helvetica,sans-Serif" font-size="10.00">MercuryMessaging.IMmResponder</text>
</a>
</g>
</g>
<!-- Node5&#45;&gt;Node3 -->
<g id="edge4_Node000003_Node000005" class="edge">
<title>Node5&#45;&gt;Node3</title>
<g id="a_edge4_Node000003_Node000005"><a xlink:title=" ">
<path fill="none" stroke="#63b8ff" d="M272.14,-180.76C281.05,-181.6 290.05,-182.45 298.85,-183.28"/>
<polygon fill="#63b8ff" stroke="#63b8ff" points="272.41,-177.27 262.12,-179.81 271.75,-184.24 272.41,-177.27"/>
</a>
</g>
</g>
<!-- Node6 -->
<g id="Node000006" class="node">
<title>Node6</title>
<g id="a_Node000006"><a xlink:href="interface_mercury_messaging_1_1_i_mm_node.html" target="_top" xlink:title="Defines methods required by an MmResponder &amp; utility methods making invocation MmMethods with built&#45;i...">
<polygon fill="white" stroke="#666666" points="453,-163.5 310,-163.5 310,-144.5 453,-144.5 453,-163.5"/>
<text text-anchor="middle" x="381.5" y="-151.5" font-family="Helvetica,sans-Serif" font-size="10.00">MercuryMessaging.IMmNode</text>
</a>
</g>
</g>
<!-- Node6&#45;&gt;Node2 -->
<g id="edge5_Node000002_Node000006" class="edge">
<title>Node6&#45;&gt;Node2</title>
<g id="a_edge5_Node000002_Node000006"><a xlink:title=" ">
<path fill="none" stroke="#63b8ff" d="M463.19,-151.73C493.74,-149.8 528.69,-146.31 560,-140 586.88,-134.59 616.59,-124.19 636.59,-116.5"/>
<polygon fill="#63b8ff" stroke="#63b8ff" points="462.79,-148.25 453.01,-152.32 463.2,-155.23 462.79,-148.25"/>
</a>
</g>
</g>
<!-- Node7 -->
<g id="Node000007" class="node">
<title>Node7</title>
<g id="a_Node000007"><a xlink:href="class_mercury_messaging_1_1_mm_circular_buffer-1-g.html" target="_top" xlink:title="Fixed&#45;size circular buffer that automatically overwrites oldest entries Used for message history trac...">
<polygon fill="white" stroke="#666666" points="457.5,-126 305.5,-126 305.5,-96 457.5,-96 457.5,-126"/>
<text text-anchor="start" x="313.5" y="-114" font-family="Helvetica,sans-Serif" font-size="10.00">MercuryMessaging.MmCircular</text>
<text text-anchor="middle" x="381.5" y="-103" font-family="Helvetica,sans-Serif" font-size="10.00">Buffer&lt; T &gt;</text>
</a>
</g>
</g>
<!-- Node7&#45;&gt;Node2 -->
<g id="edge6_Node000002_Node000007" class="edge">
<title>Node7&#45;&gt;Node2</title>
<g id="a_edge6_Node000002_Node000007"><a xlink:title=" ">
<path fill="none" stroke="#9a32cd" stroke-dasharray="5,2" d="M468.09,-108.28C472.79,-108.18 477.45,-108.08 482,-108 513.21,-107.44 547.5,-107.17 577.58,-107.04"/>
<polygon fill="#9a32cd" stroke="#9a32cd" points="467.65,-104.79 457.74,-108.54 467.82,-111.79 467.65,-104.79"/>
</a>
</g>
<text text-anchor="start" x="485" y="-129" font-family="Helvetica,sans-Serif" font-size="10.00" fill="grey">messageInList</text>
<text text-anchor="start" x="485" y="-114" font-family="Helvetica,sans-Serif" font-size="10.00" fill="grey">messageOutList</text>
</g>
<!-- Node8 -->
<g id="Node000008" class="node">
<title>Node8</title>
<g id="a_Node000008"><a xlink:title=" ">
<polygon fill="white" stroke="#666666" points="225.5,-120.5 131.5,-120.5 131.5,-101.5 225.5,-101.5 225.5,-120.5"/>
<text text-anchor="middle" x="178.5" y="-108.5" font-family="Helvetica,sans-Serif" font-size="10.00">IEnumerable&lt; T &gt;</text>
</a>
</g>
</g>
<!-- Node8&#45;&gt;Node7 -->
<g id="edge7_Node000007_Node000008" class="edge">
<title>Node8&#45;&gt;Node7</title>
<g id="a_edge7_Node000007_Node000008"><a xlink:title=" ">
<path fill="none" stroke="#63b8ff" d="M235.91,-111C257.47,-111 282.42,-111 305.45,-111"/>
<polygon fill="#63b8ff" stroke="#63b8ff" points="235.61,-107.5 225.61,-111 235.61,-114.5 235.61,-107.5"/>
</a>
</g>
</g>
<!-- Node9 -->
<g id="Node000009" class="node">
<title>Node9</title>
<g id="a_Node000009"><a xlink:href="class_mercury_messaging_1_1_mm_routing_table.html" target="_top" xlink:title="A form of Reorderable List ReorderableList&lt;T&gt; specifically for all derivations of MmResponder.">
<polygon fill="white" stroke="#666666" points="457.5,-78 305.5,-78 305.5,-48 457.5,-48 457.5,-78"/>
<text text-anchor="start" x="313.5" y="-66" font-family="Helvetica,sans-Serif" font-size="10.00">MercuryMessaging.MmRouting</text>
<text text-anchor="middle" x="381.5" y="-55" font-family="Helvetica,sans-Serif" font-size="10.00">Table</text>
</a>
</g>
</g>
<!-- Node9&#45;&gt;Node2 -->
<g id="edge8_Node000002_Node000009" class="edge">
<title>Node9&#45;&gt;Node2</title>
<g id="a_edge8_Node000002_Node000009"><a xlink:title=" ">
<path fill="none" stroke="#9a32cd" stroke-dasharray="5,2" d="M468.02,-72.71C497.26,-76.39 530.13,-80.94 560,-86 579.24,-89.26 600.41,-93.6 618.3,-97.48"/>
<polygon fill="#9a32cd" stroke="#9a32cd" points="468.19,-69.2 457.83,-71.44 467.32,-76.15 468.19,-69.2"/>
</a>
</g>
<text text-anchor="start" x="493" y="-91.5" font-family="Helvetica,sans-Serif" font-size="10.00" fill="grey">RoutingTable</text>
</g>
<!-- Node10 -->
<g id="Node000010" class="node">
<title>Node10</title>
<g id="a_Node000010"><a xlink:href="class_mercury_messaging_1_1_reorderable_list-1-g.html" target="_top" xlink:title=" ">
<polygon fill="white" stroke="#666666" points="255.5,-78 101.5,-78 101.5,-48 255.5,-48 255.5,-78"/>
<text text-anchor="start" x="109.5" y="-66" font-family="Helvetica,sans-Serif" font-size="10.00">MercuryMessaging.Reorderable</text>
<text text-anchor="middle" x="178.5" y="-55" font-family="Helvetica,sans-Serif" font-size="10.00">List&lt; T &gt;</text>
</a>
</g>
</g>
<!-- Node10&#45;&gt;Node9 -->
<g id="edge9_Node000009_Node000010" class="edge">
<title>Node10&#45;&gt;Node9</title>
<g id="a_edge9_Node000009_Node000010"><a xlink:title=" ">
<path fill="none" stroke="#63b8ff" d="M266.14,-63C279.17,-63 292.51,-63 305.27,-63"/>
<polygon fill="#63b8ff" stroke="#63b8ff" points="265.78,-59.5 255.78,-63 265.78,-66.5 265.78,-59.5"/>
</a>
</g>
</g>
<!-- Node11 -->
<g id="Node000011" class="node">
<title>Node11</title>
<g id="a_Node000011"><a xlink:title=" ">
<polygon fill="white" stroke="#666666" points="58,-72.5 0,-72.5 0,-53.5 58,-53.5 58,-72.5"/>
<text text-anchor="middle" x="29" y="-60.5" font-family="Helvetica,sans-Serif" font-size="10.00">IList&lt; T &gt;</text>
</a>
</g>
</g>
<!-- Node11&#45;&gt;Node10 -->
<g id="edge10_Node000010_Node000011" class="edge">
<title>Node11&#45;&gt;Node10</title>
<g id="a_edge10_Node000010_Node000011"><a xlink:title=" ">
<path fill="none" stroke="#63b8ff" d="M68.25,-63C78.45,-63 89.85,-63 101.32,-63"/>
<polygon fill="#63b8ff" stroke="#63b8ff" points="68.09,-59.5 58.09,-63 68.09,-66.5 68.09,-59.5"/>
</a>
</g>
</g>
<!-- Node12 -->
<g id="Node000012" class="node">
<title>Node12</title>
<g id="a_Node000012"><a xlink:href="class_mercury_messaging_1_1_mm_metadata_block.html" target="_top" xlink:title="MmMetadataBlock is a collection of settings allowing you to specify the precise invocation path of an...">
<polygon fill="white" stroke="#666666" points="740.5,-55 581.5,-55 581.5,-25 740.5,-25 740.5,-55"/>
<text text-anchor="start" x="589.5" y="-43" font-family="Helvetica,sans-Serif" font-size="10.00">MercuryMessaging.MmMetadata</text>
<text text-anchor="middle" x="661" y="-32" font-family="Helvetica,sans-Serif" font-size="10.00">Block</text>
</a>
</g>
</g>
<!-- Node12&#45;&gt;Node1 -->
<g id="edge11_Node000001_Node000012" class="edge">
<title>Node12&#45;&gt;Node1</title>
<g id="a_edge11_Node000001_Node000012"><a xlink:title=" ">
<path fill="none" stroke="#9a32cd" stroke-dasharray="5,2" d="M750.75,-39.28C771.54,-39.8 793.58,-40.9 814,-43 821.42,-43.76 829.13,-44.8 836.8,-45.98"/>
<polygon fill="#9a32cd" stroke="#9a32cd" points="750.72,-35.78 740.65,-39.07 750.58,-42.78 750.72,-35.78"/>
</a>
</g>
<text text-anchor="start" x="765" y="-48.5" font-family="Helvetica,sans-Serif" font-size="10.00" fill="grey">_metadata</text>
</g>
<!-- Node13 -->
<g id="Node000013" class="node">
<title>Node13</title>
<g id="a_Node000013"><a xlink:href="class_mercury_messaging_1_1_mm_routing_options.html" target="_top" xlink:title="Configuration options for advanced message routing behavior.">
<polygon fill="white" stroke="#666666" points="457.5,-30 305.5,-30 305.5,0 457.5,0 457.5,-30"/>
<text text-anchor="start" x="313.5" y="-18" font-family="Helvetica,sans-Serif" font-size="10.00">MercuryMessaging.MmRouting</text>
<text text-anchor="middle" x="381.5" y="-7" font-family="Helvetica,sans-Serif" font-size="10.00">Options</text>
</a>
</g>
</g>
<!-- Node13&#45;&gt;Node12 -->
<g id="edge12_Node000012_Node000013" class="edge">
<title>Node13&#45;&gt;Node12</title>
<g id="a_edge12_Node000012_Node000013"><a xlink:title=" ">
<path fill="none" stroke="#9a32cd" stroke-dasharray="5,2" d="M467.92,-18.96C497.16,-20.66 530.05,-22.98 560,-26 566.98,-26.7 574.21,-27.53 581.46,-28.42"/>
<polygon fill="#9a32cd" stroke="#9a32cd" points="467.93,-15.45 457.74,-18.38 467.53,-22.44 467.93,-15.45"/>
</a>
</g>
<text text-anchor="start" x="504" y="-31.5" font-family="Helvetica,sans-Serif" font-size="10.00" fill="grey">Options</text>
</g>
</g>
</svg>
