<?xml version="1.0" encoding="UTF-8" standalone="no"?>
<!DOCTYPE svg PUBLIC "-//W3C//DTD SVG 1.1//EN"
 "http://www.w3.org/Graphics/SVG/1.1/DTD/svg11.dtd">
<!-- Generated by graphviz version 2.44.1 (20200629.0800)
 -->
<!-- Title: MercuryMessaging.Network.MmByteArrayPool.ScopedArray Pages: 1 -->
<svg width="234pt" height="121pt"
 viewBox="0.00 0.00 233.50 121.00" xmlns="http://www.w3.org/2000/svg" xmlns:xlink="http://www.w3.org/1999/xlink">
<g id="graph0" class="graph" transform="scale(1 1) rotate(0) translate(4 117)">
<title>MercuryMessaging.Network.MmByteArrayPool.ScopedArray</title>
<!-- Node1 -->
<g id="Node000001" class="node">
<title>Node1</title>
<g id="a_Node000001"><a xlink:title="Scoped array that returns to pool on dispose.">
<polygon fill="#999999" stroke="#666666" points="172,-30 17,-30 17,0 172,0 172,-30"/>
<text text-anchor="start" x="25" y="-18" font-family="Helvetica,sans-Serif" font-size="10.00">MercuryMessaging.Network.</text>
<text text-anchor="middle" x="94.5" y="-7" font-family="Helvetica,sans-Serif" font-size="10.00">MmByteArrayPool.ScopedArray</text>
</a>
</g>
</g>
<!-- Node2 -->
<g id="Node000002" class="node">
<title>Node2</title>
<g id="a_Node000002"><a xlink:title=" ">
<polygon fill="white" stroke="#666666" points="67,-107.5 0,-107.5 0,-88.5 67,-88.5 67,-107.5"/>
<text text-anchor="middle" x="33.5" y="-95.5" font-family="Helvetica,sans-Serif" font-size="10.00">IDisposable</text>
</a>
</g>
</g>
<!-- Node2&#45;&gt;Node1 -->
<g id="edge1_Node000001_Node000002" class="edge">
<title>Node2&#45;&gt;Node1</title>
<g id="a_edge1_Node000001_Node000002"><a xlink:title=" ">
<path fill="none" stroke="#63b8ff" d="M46.26,-80.05C57.44,-65.21 73.48,-43.91 83.95,-30.01"/>
<polygon fill="#63b8ff" stroke="#63b8ff" points="43.25,-78.24 40.03,-88.33 48.84,-82.45 43.25,-78.24"/>
</a>
</g>
</g>
<!-- Node3 -->
<g id="Node000003" class="node">
<title>Node3</title>
<g id="a_Node000003"><a xlink:href="class_mercury_messaging_1_1_network_1_1_mm_byte_array_pool.html" target="_top" xlink:title="Pool for byte arrays of various sizes.">
<polygon fill="white" stroke="#666666" points="225.5,-113 85.5,-113 85.5,-83 225.5,-83 225.5,-113"/>
<text text-anchor="start" x="93.5" y="-101" font-family="Helvetica,sans-Serif" font-size="10.00">MercuryMessaging.Network.</text>
<text text-anchor="middle" x="155.5" y="-90" font-family="Helvetica,sans-Serif" font-size="10.00">MmByteArrayPool</text>
</a>
</g>
</g>
<!-- Node3&#45;&gt;Node1 -->
<g id="edge2_Node000001_Node000003" class="edge">
<title>Node3&#45;&gt;Node1</title>
<g id="a_edge2_Node000001_Node000003"><a xlink:title=" ">
<path fill="none" stroke="#9a32cd" stroke-dasharray="5,2" d="M138.65,-74.62C127.96,-60.43 114.45,-42.49 105.21,-30.22"/>
<polygon fill="#9a32cd" stroke="#9a32cd" points="136.06,-77.01 144.87,-82.89 141.65,-72.8 136.06,-77.01"/>
</a>
</g>
<text text-anchor="start" x="132.5" y="-53.5" font-family="Helvetica,sans-Serif" font-size="10.00" fill="grey">_pool</text>
</g>
</g>
</svg>
