<?xml version="1.0" encoding="UTF-8" standalone="no"?>
<!DOCTYPE svg PUBLIC "-//W3C//DTD SVG 1.1//EN"
 "http://www.w3.org/Graphics/SVG/1.1/DTD/svg11.dtd">
<!-- Generated by graphviz version 2.44.1 (20200629.0800)
 -->
<!-- Title: MercuryMessaging.MmFluentMessage Pages: 1 -->
<svg width="1021pt" height="227pt"
 viewBox="0.00 0.00 1021.00 226.50" xmlns="http://www.w3.org/2000/svg" xmlns:xlink="http://www.w3.org/1999/xlink">
<g id="graph0" class="graph" transform="scale(1 1) rotate(0) translate(4 222.5)">
<title>MercuryMessaging.MmFluentMessage</title>
<!-- Node1 -->
<g id="Node000001" class="node">
<title>Node1</title>
<g id="a_Node000001"><a xlink:title="Fluent message builder for MercuryMessaging.">
<polygon fill="#999999" stroke="#666666" points="1013,-77 867,-77 867,-47 1013,-47 1013,-77"/>
<text text-anchor="start" x="875" y="-65" font-family="Helvetica,sans-Serif" font-size="10.00">MercuryMessaging.MmFluent</text>
<text text-anchor="middle" x="940" y="-54" font-family="Helvetica,sans-Serif" font-size="10.00">Message</text>
</a>
</g>
</g>
<!-- Node2 -->
<g id="Node000002" class="node">
<title>Node2</title>
<g id="a_Node000002"><a xlink:href="class_mercury_messaging_1_1_mm_relay_node.html" target="_top" xlink:title="Base routing node of Mercury XM.">
<polygon fill="white" stroke="#666666" points="749,-116.5 583,-116.5 583,-97.5 749,-97.5 749,-116.5"/>
<text text-anchor="middle" x="666" y="-104.5" font-family="Helvetica,sans-Serif" font-size="10.00">MercuryMessaging.MmRelayNode</text>
</a>
</g>
</g>
<!-- Node2&#45;&gt;Node1 -->
<g id="edge1_Node000001_Node000002" class="edge">
<title>Node2&#45;&gt;Node1</title>
<g id="a_edge1_Node000001_Node000002"><a xlink:title=" ">
<path fill="none" stroke="#9a32cd" stroke-dasharray="5,2" d="M759.32,-96.61C788.13,-92.89 819.97,-88.29 849,-83 858.47,-81.27 868.45,-79.2 878.17,-77.05"/>
<polygon fill="#9a32cd" stroke="#9a32cd" points="758.74,-93.16 749.26,-97.89 759.62,-100.1 758.74,-93.16"/>
</a>
</g>
<text text-anchor="start" x="797.5" y="-99.5" font-family="Helvetica,sans-Serif" font-size="10.00" fill="grey">_relay</text>
</g>
<!-- Node3 -->
<g id="Node000003" class="node">
<title>Node3</title>
<g id="a_Node000003"><a xlink:href="class_mercury_messaging_1_1_mm_responder.html" target="_top" xlink:title="Base implmentation of IMmResponder.">
<polygon fill="white" stroke="#666666" points="464,-200.5 299,-200.5 299,-181.5 464,-181.5 464,-200.5"/>
<text text-anchor="middle" x="381.5" y="-188.5" font-family="Helvetica,sans-Serif" font-size="10.00">MercuryMessaging.MmResponder</text>
</a>
</g>
</g>
<!-- Node3&#45;&gt;Node2 -->
<g id="edge2_Node000002_Node000003" class="edge">
<title>Node3&#45;&gt;Node2</title>
<g id="a_edge2_Node000002_Node000003"><a xlink:title=" ">
<path fill="none" stroke="#63b8ff" d="M472.27,-179.86C500.75,-174.99 532.07,-168.23 560,-159 593.22,-148.02 629.2,-128.32 649.23,-116.58"/>
<polygon fill="#63b8ff" stroke="#63b8ff" points="471.62,-176.42 462.33,-181.5 472.77,-183.32 471.62,-176.42"/>
</a>
</g>
</g>
<!-- Node4 -->
<g id="Node000004" class="node">
<title>Node4</title>
<g id="a_Node000004"><a xlink:title=" ">
<polygon fill="white" stroke="#666666" points="220,-218.5 137,-218.5 137,-199.5 220,-199.5 220,-218.5"/>
<text text-anchor="middle" x="178.5" y="-206.5" font-family="Helvetica,sans-Serif" font-size="10.00">MonoBehaviour</text>
</a>
</g>
</g>
<!-- Node4&#45;&gt;Node3 -->
<g id="edge3_Node000003_Node000004" class="edge">
<title>Node4&#45;&gt;Node3</title>
<g id="a_edge3_Node000003_Node000004"><a xlink:title=" ">
<path fill="none" stroke="#63b8ff" d="M230.35,-204.45C251.1,-202.59 275.63,-200.39 298.78,-198.32"/>
<polygon fill="#63b8ff" stroke="#63b8ff" points="229.82,-200.98 220.18,-205.36 230.45,-207.95 229.82,-200.98"/>
</a>
</g>
</g>
<!-- Node5 -->
<g id="Node000005" class="node">
<title>Node5</title>
<g id="a_Node000005"><a xlink:href="interface_mercury_messaging_1_1_i_mm_responder.html" target="_top" xlink:title="The core of MercuryMessaging.">
<polygon fill="white" stroke="#666666" points="262,-181.5 95,-181.5 95,-162.5 262,-162.5 262,-181.5"/>
<text text-anchor="middle" x="178.5" y="-169.5" font-family="Helvetica,sans-Serif" font-size="10.00">MercuryMessaging.IMmResponder</text>
</a>
</g>
</g>
<!-- Node5&#45;&gt;Node3 -->
<g id="edge4_Node000003_Node000005" class="edge">
<title>Node5&#45;&gt;Node3</title>
<g id="a_edge4_Node000003_Node000005"><a xlink:title=" ">
<path fill="none" stroke="#63b8ff" d="M272.14,-180.76C281.05,-181.6 290.05,-182.45 298.85,-183.28"/>
<polygon fill="#63b8ff" stroke="#63b8ff" points="272.41,-177.27 262.12,-179.81 271.75,-184.24 272.41,-177.27"/>
</a>
</g>
</g>
<!-- Node6 -->
<g id="Node000006" class="node">
<title>Node6</title>
<g id="a_Node000006"><a xlink:href="interface_mercury_messaging_1_1_i_mm_node.html" target="_top" xlink:title="Defines methods required by an MmResponder &amp; utility methods making invocation MmMethods with built&#45;i...">
<polygon fill="white" stroke="#666666" points="453,-163.5 310,-163.5 310,-144.5 453,-144.5 453,-163.5"/>
<text text-anchor="middle" x="381.5" y="-151.5" font-family="Helvetica,sans-Serif" font-size="10.00">MercuryMessaging.IMmNode</text>
</a>
</g>
</g>
<!-- Node6&#45;&gt;Node2 -->
<g id="edge5_Node000002_Node000006" class="edge">
<title>Node6&#45;&gt;Node2</title>
<g id="a_edge5_Node000002_Node000006"><a xlink:title=" ">
<path fill="none" stroke="#63b8ff" d="M463.54,-151.47C493.99,-149.51 528.78,-146.06 560,-140 587.95,-134.58 618.93,-124.29 639.95,-116.63"/>
<polygon fill="#63b8ff" stroke="#63b8ff" points="463.16,-147.98 453.39,-152.07 463.58,-154.97 463.16,-147.98"/>
</a>
</g>
</g>
<!-- Node7 -->
<g id="Node000007" class="node">
<title>Node7</title>
<g id="a_Node000007"><a xlink:href="class_mercury_messaging_1_1_mm_circular_buffer-1-g.html" target="_top" xlink:title="Fixed&#45;size circular buffer that automatically overwrites oldest entries Used for message history trac...">
<polygon fill="white" stroke="#666666" points="457.5,-126 305.5,-126 305.5,-96 457.5,-96 457.5,-126"/>
<text text-anchor="start" x="313.5" y="-114" font-family="Helvetica,sans-Serif" font-size="10.00">MercuryMessaging.MmCircular</text>
<text text-anchor="middle" x="381.5" y="-103" font-family="Helvetica,sans-Serif" font-size="10.00">Buffer&lt; T &gt;</text>
</a>
</g>
</g>
<!-- Node7&#45;&gt;Node2 -->
<g id="edge6_Node000002_Node000007" class="edge">
<title>Node7&#45;&gt;Node2</title>
<g id="a_edge6_Node000002_Node000007"><a xlink:title=" ">
<path fill="none" stroke="#9a32cd" stroke-dasharray="5,2" d="M468.09,-108.28C472.79,-108.18 477.45,-108.08 482,-108 514.88,-107.41 551.08,-107.14 582.55,-107.02"/>
<polygon fill="#9a32cd" stroke="#9a32cd" points="467.65,-104.79 457.74,-108.53 467.82,-111.79 467.65,-104.79"/>
</a>
</g>
<text text-anchor="start" x="485" y="-129" font-family="Helvetica,sans-Serif" font-size="10.00" fill="grey">messageInList</text>
<text text-anchor="start" x="485" y="-114" font-family="Helvetica,sans-Serif" font-size="10.00" fill="grey">messageOutList</text>
</g>
<!-- Node8 -->
<g id="Node000008" class="node">
<title>Node8</title>
<g id="a_Node000008"><a xlink:title=" ">
<polygon fill="white" stroke="#666666" points="225.5,-120.5 131.5,-120.5 131.5,-101.5 225.5,-101.5 225.5,-120.5"/>
<text text-anchor="middle" x="178.5" y="-108.5" font-family="Helvetica,sans-Serif" font-size="10.00">IEnumerable&lt; T &gt;</text>
</a>
</g>
</g>
<!-- Node8&#45;&gt;Node7 -->
<g id="edge7_Node000007_Node000008" class="edge">
<title>Node8&#45;&gt;Node7</title>
<g id="a_edge7_Node000007_Node000008"><a xlink:title=" ">
<path fill="none" stroke="#63b8ff" d="M235.91,-111C257.47,-111 282.42,-111 305.45,-111"/>
<polygon fill="#63b8ff" stroke="#63b8ff" points="235.61,-107.5 225.61,-111 235.61,-114.5 235.61,-107.5"/>
</a>
</g>
</g>
<!-- Node9 -->
<g id="Node000009" class="node">
<title>Node9</title>
<g id="a_Node000009"><a xlink:href="class_mercury_messaging_1_1_mm_routing_table.html" target="_top" xlink:title="A form of Reorderable List ReorderableList&lt;T&gt; specifically for all derivations of MmResponder.">
<polygon fill="white" stroke="#666666" points="457.5,-78 305.5,-78 305.5,-48 457.5,-48 457.5,-78"/>
<text text-anchor="start" x="313.5" y="-66" font-family="Helvetica,sans-Serif" font-size="10.00">MercuryMessaging.MmRouting</text>
<text text-anchor="middle" x="381.5" y="-55" font-family="Helvetica,sans-Serif" font-size="10.00">Table</text>
</a>
</g>
</g>
<!-- Node9&#45;&gt;Node2 -->
<g id="edge8_Node000002_Node000009" class="edge">
<title>Node9&#45;&gt;Node2</title>
<g id="a_edge8_Node000002_Node000009"><a xlink:title=" ">
<path fill="none" stroke="#9a32cd" stroke-dasharray="5,2" d="M467.99,-72.87C497.23,-76.57 530.1,-81.08 560,-86 580.09,-89.31 602.2,-93.63 620.93,-97.49"/>
<polygon fill="#9a32cd" stroke="#9a32cd" points="468.16,-69.37 457.81,-71.6 467.3,-76.31 468.16,-69.37"/>
</a>
</g>
<text text-anchor="start" x="493" y="-91.5" font-family="Helvetica,sans-Serif" font-size="10.00" fill="grey">RoutingTable</text>
</g>
<!-- Node10 -->
<g id="Node000010" class="node">
<title>Node10</title>
<g id="a_Node000010"><a xlink:href="class_mercury_messaging_1_1_reorderable_list-1-g.html" target="_top" xlink:title=" ">
<polygon fill="white" stroke="#666666" points="255.5,-78 101.5,-78 101.5,-48 255.5,-48 255.5,-78"/>
<text text-anchor="start" x="109.5" y="-66" font-family="Helvetica,sans-Serif" font-size="10.00">MercuryMessaging.Reorderable</text>
<text text-anchor="middle" x="178.5" y="-55" font-family="Helvetica,sans-Serif" font-size="10.00">List&lt; T &gt;</text>
</a>
</g>
</g>
<!-- Node10&#45;&gt;Node9 -->
<g id="edge9_Node000009_Node000010" class="edge">
<title>Node10&#45;&gt;Node9</title>
<g id="a_edge9_Node000009_Node000010"><a xlink:title=" ">
<path fill="none" stroke="#63b8ff" d="M266.14,-63C279.17,-63 292.51,-63 305.27,-63"/>
<polygon fill="#63b8ff" stroke="#63b8ff" points="265.78,-59.5 255.78,-63 265.78,-66.5 265.78,-59.5"/>
</a>
</g>
</g>
<!-- Node11 -->
<g id="Node000011" class="node">
<title>Node11</title>
<g id="a_Node000011"><a xlink:title=" ">
<polygon fill="white" stroke="#666666" points="58,-72.5 0,-72.5 0,-53.5 58,-53.5 58,-72.5"/>
<text text-anchor="middle" x="29" y="-60.5" font-family="Helvetica,sans-Serif" font-size="10.00">IList&lt; T &gt;</text>
</a>
</g>
</g>
<!-- Node11&#45;&gt;Node10 -->
<g id="edge10_Node000010_Node000011" class="edge">
<title>Node11&#45;&gt;Node10</title>
<g id="a_edge10_Node000010_Node000011"><a xlink:title=" ">
<path fill="none" stroke="#63b8ff" d="M68.25,-63C78.45,-63 89.85,-63 101.32,-63"/>
<polygon fill="#63b8ff" stroke="#63b8ff" points="68.09,-59.5 58.09,-63 68.09,-66.5 68.09,-59.5"/>
</a>
</g>
</g>
<!-- Node12 -->
<g id="Node000012" class="node">
<title>Node12</title>
<g id="a_Node000012"><a xlink:href="class_mercury_messaging_1_1_mm_predicate_list.html" target="_top" xlink:title="Container for multiple predicates.">
<polygon fill="white" stroke="#666666" points="754,-71.5 578,-71.5 578,-52.5 754,-52.5 754,-71.5"/>
<text text-anchor="middle" x="666" y="-59.5" font-family="Helvetica,sans-Serif" font-size="10.00">MercuryMessaging.MmPredicateList</text>
</a>
</g>
</g>
<!-- Node12&#45;&gt;Node1 -->
<g id="edge11_Node000001_Node000012" class="edge">
<title>Node12&#45;&gt;Node1</title>
<g id="a_edge11_Node000001_Node000012"><a xlink:title=" ">
<path fill="none" stroke="#9a32cd" stroke-dasharray="5,2" d="M764.54,-62C798.31,-62 835.52,-62 866.87,-62"/>
<polygon fill="#9a32cd" stroke="#9a32cd" points="764.18,-58.5 754.18,-62 764.18,-65.5 764.18,-58.5"/>
</a>
</g>
<text text-anchor="start" x="785.5" y="-67.5" font-family="Helvetica,sans-Serif" font-size="10.00" fill="grey">_predicates</text>
</g>
<!-- Node13 -->
<g id="Node000013" class="node">
<title>Node13</title>
<g id="a_Node000013"><a xlink:href="class_mercury_messaging_1_1_mm_metadata_block.html" target="_top" xlink:title="MmMetadataBlock is a collection of settings allowing you to specify the precise invocation path of an...">
<polygon fill="white" stroke="#666666" points="745.5,-32 586.5,-32 586.5,-2 745.5,-2 745.5,-32"/>
<text text-anchor="start" x="594.5" y="-20" font-family="Helvetica,sans-Serif" font-size="10.00">MercuryMessaging.MmMetadata</text>
<text text-anchor="middle" x="666" y="-9" font-family="Helvetica,sans-Serif" font-size="10.00">Block</text>
</a>
</g>
</g>
<!-- Node13&#45;&gt;Node1 -->
<g id="edge12_Node000001_Node000013" class="edge">
<title>Node13&#45;&gt;Node1</title>
<g id="a_edge12_Node000001_Node000013"><a xlink:title=" ">
<path fill="none" stroke="#9a32cd" stroke-dasharray="5,2" d="M755.6,-26.91C785.38,-30.71 818.72,-35.48 849,-41 858.47,-42.73 868.45,-44.8 878.17,-46.95"/>
<polygon fill="#9a32cd" stroke="#9a32cd" points="756.01,-23.44 745.65,-25.66 755.13,-30.38 756.01,-23.44"/>
</a>
</g>
<text text-anchor="start" x="775.5" y="-46.5" font-family="Helvetica,sans-Serif" font-size="10.00" fill="grey">DefaultMetadata</text>
</g>
<!-- Node14 -->
<g id="Node000014" class="node">
<title>Node14</title>
<g id="a_Node000014"><a xlink:href="class_mercury_messaging_1_1_mm_routing_options.html" target="_top" xlink:title="Configuration options for advanced message routing behavior.">
<polygon fill="white" stroke="#666666" points="457.5,-30 305.5,-30 305.5,0 457.5,0 457.5,-30"/>
<text text-anchor="start" x="313.5" y="-18" font-family="Helvetica,sans-Serif" font-size="10.00">MercuryMessaging.MmRouting</text>
<text text-anchor="middle" x="381.5" y="-7" font-family="Helvetica,sans-Serif" font-size="10.00">Options</text>
</a>
</g>
</g>
<!-- Node14&#45;&gt;Node13 -->
<g id="edge13_Node000013_Node000014" class="edge">
<title>Node14&#45;&gt;Node13</title>
<g id="a_edge13_Node000013_Node000014"><a xlink:title=" ">
<path fill="none" stroke="#9a32cd" stroke-dasharray="5,2" d="M468.26,-15.61C505.86,-15.87 549.69,-16.18 586.42,-16.44"/>
<polygon fill="#9a32cd" stroke="#9a32cd" points="467.86,-12.1 457.83,-15.53 467.81,-19.1 467.86,-12.1"/>
</a>
</g>
<text text-anchor="start" x="504" y="-22.5" font-family="Helvetica,sans-Serif" font-size="10.00" fill="grey">Options</text>
</g>
</g>
</svg>
