<?xml version="1.0" encoding="UTF-8" standalone="no"?>
<!DOCTYPE svg PUBLIC "-//W3C//DTD SVG 1.1//EN"
 "http://www.w3.org/Graphics/SVG/1.1/DTD/svg11.dtd">
<!-- Generated by graphviz version 2.44.1 (20200629.0800)
 -->
<!-- Title: MercuryMessaging.MmFilterCacheKey Pages: 1 -->
<svg width="297pt" height="244pt"
 viewBox="0.00 0.00 297.00 244.00" xmlns="http://www.w3.org/2000/svg" xmlns:xlink="http://www.w3.org/1999/xlink">
<g id="graph0" class="graph" transform="scale(1 1) rotate(0) translate(4 240)">
<title>MercuryMessaging.MmFilterCacheKey</title>
<!-- Node1 -->
<g id="Node000001" class="node">
<title>Node1</title>
<g id="a_Node000001"><a xlink:title="Cache key for filter result caching (QW&#45;3).">
<polygon fill="#999999" stroke="#666666" points="175,-30 35,-30 35,0 175,0 175,-30"/>
<text text-anchor="start" x="43" y="-18" font-family="Helvetica,sans-Serif" font-size="10.00">MercuryMessaging.MmFilter</text>
<text text-anchor="middle" x="105" y="-7" font-family="Helvetica,sans-Serif" font-size="10.00">CacheKey</text>
</a>
</g>
</g>
<!-- Node2 -->
<g id="Node000002" class="node">
<title>Node2</title>
<g id="a_Node000002"><a xlink:title=" ">
<polygon fill="white" stroke="#666666" points="118,-113 0,-113 0,-83 118,-83 118,-113"/>
<text text-anchor="start" x="8" y="-101" font-family="Helvetica,sans-Serif" font-size="10.00">System::IEquatable</text>
<text text-anchor="middle" x="59" y="-90" font-family="Helvetica,sans-Serif" font-size="10.00">&lt; MmFilterCacheKey &gt;</text>
</a>
</g>
</g>
<!-- Node2&#45;&gt;Node1 -->
<g id="edge1_Node000001_Node000002" class="edge">
<title>Node2&#45;&gt;Node1</title>
<g id="a_edge1_Node000001_Node000002"><a xlink:title=" ">
<path fill="none" stroke="#63b8ff" d="M72.17,-73.81C80.15,-59.75 90.09,-42.26 96.92,-30.22"/>
<polygon fill="#63b8ff" stroke="#63b8ff" points="68.91,-72.47 67.01,-82.89 74.99,-75.92 68.91,-72.47"/>
</a>
</g>
</g>
<!-- Node3 -->
<g id="Node000003" class="node">
<title>Node3</title>
<g id="a_Node000003"><a xlink:href="class_mercury_messaging_1_1_mm_routing_table.html" target="_top" xlink:title="A form of Reorderable List ReorderableList&lt;T&gt; specifically for all derivations of MmResponder.">
<polygon fill="white" stroke="#666666" points="288,-113 136,-113 136,-83 288,-83 288,-113"/>
<text text-anchor="start" x="144" y="-101" font-family="Helvetica,sans-Serif" font-size="10.00">MercuryMessaging.MmRouting</text>
<text text-anchor="middle" x="212" y="-90" font-family="Helvetica,sans-Serif" font-size="10.00">Table</text>
</a>
</g>
</g>
<!-- Node3&#45;&gt;Node1 -->
<g id="edge2_Node000001_Node000003" class="edge">
<title>Node3&#45;&gt;Node1</title>
<g id="a_edge2_Node000001_Node000003"><a xlink:title=" ">
<path fill="none" stroke="#9a32cd" stroke-dasharray="5,2" d="M185.31,-76.8C166.16,-62.3 140.83,-43.13 123.78,-30.22"/>
<polygon fill="#9a32cd" stroke="#9a32cd" points="183.28,-79.65 193.36,-82.89 187.5,-74.06 183.28,-79.65"/>
</a>
</g>
<text text-anchor="start" x="171" y="-53.5" font-family="Helvetica,sans-Serif" font-size="10.00" fill="grey">ListFilter</text>
</g>
<!-- Node4 -->
<g id="Node000004" class="node">
<title>Node4</title>
<g id="a_Node000004"><a xlink:href="class_mercury_messaging_1_1_reorderable_list-1-g.html" target="_top" xlink:title=" ">
<polygon fill="white" stroke="#666666" points="289,-180 135,-180 135,-150 289,-150 289,-180"/>
<text text-anchor="start" x="143" y="-168" font-family="Helvetica,sans-Serif" font-size="10.00">MercuryMessaging.Reorderable</text>
<text text-anchor="middle" x="212" y="-157" font-family="Helvetica,sans-Serif" font-size="10.00">List&lt; T &gt;</text>
</a>
</g>
</g>
<!-- Node4&#45;&gt;Node3 -->
<g id="edge3_Node000003_Node000004" class="edge">
<title>Node4&#45;&gt;Node3</title>
<g id="a_edge3_Node000003_Node000004"><a xlink:title=" ">
<path fill="none" stroke="#63b8ff" d="M212,-139.61C212,-130.65 212,-120.82 212,-113.08"/>
<polygon fill="#63b8ff" stroke="#63b8ff" points="208.5,-139.9 212,-149.9 215.5,-139.9 208.5,-139.9"/>
</a>
</g>
</g>
<!-- Node5 -->
<g id="Node000005" class="node">
<title>Node5</title>
<g id="a_Node000005"><a xlink:title=" ">
<polygon fill="white" stroke="#666666" points="241,-236 183,-236 183,-217 241,-217 241,-236"/>
<text text-anchor="middle" x="212" y="-224" font-family="Helvetica,sans-Serif" font-size="10.00">IList&lt; T &gt;</text>
</a>
</g>
</g>
<!-- Node5&#45;&gt;Node4 -->
<g id="edge4_Node000004_Node000005" class="edge">
<title>Node5&#45;&gt;Node4</title>
<g id="a_edge4_Node000004_Node000005"><a xlink:title=" ">
<path fill="none" stroke="#63b8ff" d="M212,-206.73C212,-198.09 212,-188 212,-180.02"/>
<polygon fill="#63b8ff" stroke="#63b8ff" points="208.5,-206.98 212,-216.98 215.5,-206.98 208.5,-206.98"/>
</a>
</g>
</g>
</g>
</svg>
